<?xml version="1.0" encoding="UTF-8"?>
<svg version="1.1" xmlns="http://www.w3.org/2000/svg" width="538" height="450">
<path d="M0 0 C0.97291992 0.36706055 1.94583984 0.73412109 2.94824219 1.11230469 C27.02914134 10.93108544 50.16753082 22.27174733 71.88867188 36.63427734 C74.0182815 38.01182548 76.17751769 39.32031065 78.359375 40.61328125 C85.73294636 45.00039983 91.92887122 49.35958437 97.8359375 55.69140625 C99.83803437 57.82721717 101.89797628 59.72902034 104.125 61.625 C105.41839743 62.74800974 106.71009771 63.87297743 108 65 C108.93392578 65.81404297 108.93392578 65.81404297 109.88671875 66.64453125 C116.18132982 72.50503121 120.77399256 79.54262632 125.46142578 86.69677734 C126.58141607 88.37338609 127.73568404 90.02724893 128.90966797 91.66650391 C134.29850433 99.3360713 137.84638865 107.17551539 141.125 115.875 C141.61448966 117.14767312 142.10537328 118.419811 142.59765625 119.69140625 C142.84074524 120.31974365 143.08383423 120.94808105 143.33428955 121.59545898 C144.30827924 124.10542694 145.28840583 126.61296844 146.27087402 129.11962891 C146.76147942 130.38487007 147.24418358 131.65320041 147.71936035 132.92431641 C150.71073765 140.9087701 153.1964679 146.63357435 160.5 151.25 C161.19778564 151.73194824 161.89557129 152.21389648 162.61450195 152.71044922 C164.04065518 153.69310062 165.47595155 154.66262436 166.92041016 155.61816406 C170.06618047 157.70845051 173.12209598 159.91938327 176.1875 162.125 C177.03417236 162.7271936 177.03417236 162.7271936 177.89794922 163.34155273 C182.01848905 166.27304279 186.09312954 169.26014934 190.125 172.3125 C191.15882813 173.09238281 192.19265625 173.87226563 193.2578125 174.67578125 C195.9448905 176.95329038 198.02993923 179.08243381 200 182 C200.125 185.5625 200.125 185.5625 199 189 C194.85350852 192.7100187 189.6704159 194.5819652 184.5859375 196.75390625 C182.11540425 197.94438979 180.12525851 199.27883994 178 201 C178.13034494 202.87053397 178.13034494 202.87053397 179 205 C180.66215268 206.33895632 182.32963607 207.67130142 184 209 C186.63438555 211.98420911 188.69573335 214.72208008 189.625 218.625 C188.7181249 222.07112538 186.62998118 223.69876647 184 226 C185.07326534 228.59372458 185.72838721 229.82425055 188.125 231.375 C190 233 190 233 190.6875 235.6875 C189.49310297 241.44232203 185.04355886 244.95644114 181 249 C181.32787879 252.68663707 183.37264401 255.21256196 185.4375 258.1875 C188.53338699 262.98133737 190.90075087 267.19943961 191 273 C189.4234436 280.03386703 184.89332869 283.22666615 179 287 C169.00494262 292.31606196 158.73898541 295.18833451 147.81640625 297.921875 C137.15342636 300.69857414 126.82749003 304.42936512 117.875 311 C117.00617188 311.61875 116.13734375 312.2375 115.2421875 312.875 C111.90413777 316.0385872 110.26234453 319.19188033 109.6015625 323.74609375 C109.60929688 324.63425781 109.61703125 325.52242188 109.625 326.4375 C109.61726562 327.32308594 109.60953125 328.20867187 109.6015625 329.12109375 C111.01684499 339.34720349 118.89717122 346.7503004 126.5 353.08203125 C132.05352904 356.92611464 138.09705912 359.41660992 144.375 361.8125 C145.12910156 362.10294189 145.88320313 362.39338379 146.66015625 362.69262695 C159.7245927 367.38800538 173.89631977 367.65154785 187.62353516 368.60180664 C196.20650275 369.20348277 204.69356181 369.96494872 213.17578125 371.44140625 C213.84768494 371.55737656 214.51958862 371.67334686 215.21185303 371.79283142 C222.0033959 373.05039683 228.76754871 374.99817324 235 378 C237 381 237 381 237.09765625 383.484375 C236 386 236 386 232.68359375 387.703125 C231.27216716 388.22943387 229.85650433 388.74447773 228.4375 389.25 C217.49593053 393.61818336 212.29099162 400.19335181 207.23828125 410.7890625 C205.52682065 415.22698241 204.61103094 419.69855214 203.8359375 424.3828125 C203 427 203 427 201.37573242 428.14697266 C198.22075478 429.27979476 195.50349993 429.25941217 192.15234375 429.265625 C191.49923721 429.26753845 190.84613068 429.2694519 190.17323303 429.27142334 C188.79736952 429.2727802 187.42149298 429.26911868 186.0456543 429.26074219 C183.94095142 429.25001759 181.83709865 429.26066253 179.73242188 429.2734375 C178.39322729 429.27211615 177.05403323 429.26955427 175.71484375 429.265625 C174.49917725 429.26336914 173.28351074 429.26111328 172.03100586 429.25878906 C169 429 169 429 166 427 C167.12451727 424.0280615 168.22293791 421.66559313 170 419 C170.75220896 412.64283577 171.57252155 405.34224034 168.78515625 399.41796875 C167.0014925 397.35731251 165.11524225 395.71671835 163 394 C162.3090625 393.278125 161.618125 392.55625 160.90625 391.8125 C142.11611934 372.76497029 109.4610788 367.7524641 84.1472168 363.50927734 C58.37517895 359.16640062 58.37517895 359.16640062 48 351 C47.34 350.49082031 46.68 349.98164063 46 349.45703125 C39.67024958 344.32729601 36.94991924 339.08681251 36 331 C35.72275516 324.03917431 36.6763245 319.09301255 41.2890625 313.765625 C41.85367188 313.18296875 42.41828125 312.6003125 43 312 C43.48210937 311.47921875 43.96421875 310.9584375 44.4609375 310.421875 C55.97137402 299.32043876 73.72359125 295.69028786 88.53686523 291.27587891 C98.8056236 288.19799162 108.87028939 284.9270014 118.64453125 280.4921875 C119.82446907 279.97786667 119.82446907 279.97786667 121.02824402 279.45315552 C126.40428168 276.89496226 128.63098852 274.49090156 131 269 C131.30271395 264.30793374 130.98858888 262.31811851 128.171875 258.5625 C126.75364227 256.97081435 125.301232 255.4087628 123.8125 253.8828125 C120.80744248 250.76117947 120.66784089 248.28750203 120.70703125 243.9765625 C121 242 121 242 122.875 239.5 C125 238 125 238 127 238 C127 237.01 127 236.02 127 235 C125.02 234.67 123.04 234.34 121 234 C120.75 231.1875 120.75 231.1875 121 228 C123.9939736 224.52699062 127.60804909 224.42230297 132 224 C131.54109375 223.48050781 131.0821875 222.96101562 130.609375 222.42578125 C129.34325611 220.98676797 128.08305511 219.5425311 126.828125 218.09375 C125.41421335 216.4743982 123.96420658 214.88652207 122.5 213.3125 C121 211 121 211 121.16796875 208.56640625 C122.1743359 205.4622597 123.20804455 204.54901213 125.8125 202.625 C126.61171875 202.03332031 127.4109375 201.44164062 128.234375 200.83203125 C132.2410921 198.17786413 136.43459474 195.90250287 140.69140625 193.67578125 C141.45324219 193.12277344 142.21507812 192.56976563 143 192 C143 190.68 143 189.36 143 188 C142.29617188 187.75894531 141.59234375 187.51789063 140.8671875 187.26953125 C131.40357891 183.07924134 123.00516572 174.45695833 115.33349609 167.59936523 C111.94959438 164.5907142 108.62815078 162.11088724 104.75 159.75 C100.56026914 156.60575133 100.02395178 152.88621112 99.3125 147.9375 C99.21582031 147.1945166 99.11914062 146.4515332 99.01953125 145.68603516 C95.76782495 120.92921204 74.4094031 97.05506375 55.43457031 81.95898438 C29.78909336 62.66707491 -0.75944541 51.82552228 -31 42 C-32.19125488 41.61086426 -33.38250977 41.22172852 -34.60986328 40.82080078 C-61.61159446 32.16408041 -89.99107273 27.30496514 -118.15112305 24.27783203 C-120 24 -120 24 -123 23 C-123 21.68 -123 20.36 -123 19 C-108.29717432 16.0517787 -93.58928179 13.12997493 -78.87504673 10.23923206 C-72.04249856 8.89628333 -65.21183648 7.54485885 -58.38500977 6.1730957 C-51.7948926 4.84892149 -45.20042833 3.54889878 -38.60264397 2.26337242 C-36.08812941 1.76937294 -33.57517805 1.26734576 -31.06390572 0.75712013 C-27.54194933 0.04298457 -24.01547959 -0.64222042 -20.48657227 -1.32104492 C-19.45294556 -1.537547 -18.41931885 -1.75404907 -17.35437012 -1.97711182 C-10.69075487 -3.21841309 -6.18594383 -2.7506941 0 0 Z " fill="#203D98" transform="translate(276,16)"/>
<path d="M0 0 C4.46000767 0.19822256 7.82050763 1.28809138 11.875 3.125 C27.21784158 9.69241559 43.78773025 13.12491602 60.1015625 16.35546875 C61.22487756 16.57916232 61.22487756 16.57916232 62.37088585 16.80737495 C79.15405838 20.13733337 96.00883796 22.94738492 112.91604233 25.56576538 C115.36055217 25.94495377 117.80452438 26.32747413 120.2484436 26.71044922 C147.89881978 31.03165434 175.60208087 34.52059884 203.43676758 37.41381836 C228.75602175 40.06340074 248.30486349 42.65566581 268 60 C268.91652344 60.74894531 269.83304687 61.49789062 270.77734375 62.26953125 C284.96090855 74.26488829 293.78794024 90.50398226 296 109 C296.22076097 111.89608459 296.42785318 114.78590278 296.55859375 117.6875 C297.10861353 120.56901954 297.75792882 121.12999856 300 123 C302.09614271 124.15413356 304.22969901 125.24115393 306.3828125 126.28515625 C306.99768524 126.58691269 307.61255798 126.88866913 308.24606323 127.1995697 C310.2029167 128.1597258 312.16342774 129.11202514 314.125 130.0625 C316.71435039 131.31737791 319.29968439 132.58002852 321.8828125 133.84765625 C323.03152832 134.40461182 324.18024414 134.96156738 325.36376953 135.53540039 C328 137 328 137 329 139 C329.47589692 143.2037561 329.56522288 145.24048175 327 148.6875 C323.50900553 151.3784749 319.99164877 153.17924793 316 155 C314.2675 155.86625 314.2675 155.86625 312.5 156.75 C311.675 157.1625 310.85 157.575 310 158 C311.14897748 160.92466996 311.97861207 161.98523214 314.625 163.8125 C317 166 317 166 317.625 169.375 C316.81968696 174.04581565 315.26705549 175.65126813 312 179 C312.825 179.556875 313.65 180.11375 314.5 180.6875 C317 183 317 183 317.75 185.375 C316.71791057 188.98731302 314.60323414 190.30349995 311.62890625 192.47265625 C309.63147961 194.3455431 309.13078592 195.2635562 309 198 C310.11829746 200.48843968 310.11829746 200.48843968 311.8125 202.9375 C315.93850743 209.27841878 318.03887652 214.39056676 317 222 C313.99563471 228.66185347 307.90171614 232.34018575 301.35546875 235.125 C298.5861142 236.13924144 295.79794955 237.06735015 293 238 C292.2052124 238.30905273 291.4104248 238.61810547 290.59155273 238.93652344 C284.0350024 241.45903644 277.75041772 242.97334657 270.8125 244 C269.77786621 244.16459717 268.74323242 244.32919434 267.67724609 244.4987793 C263.44633982 245.17107805 259.21210766 245.8190154 254.97509766 246.45166016 C243.09251721 248.23218229 231.48962465 250.45251536 219.875 253.5625 C218.77816895 253.85552002 217.68133789 254.14854004 216.55126953 254.45043945 C195.68805681 260.23816161 180.49587808 276.60287443 167.3828125 293.15625 C152.41873731 311.01501515 130.78449643 329.82400216 106.6875 332.625 C104.12830389 332.80540657 101.56463526 332.93160973 99 333 C97.73285156 333.05414063 96.46570313 333.10828125 95.16015625 333.1640625 C69.57815458 333.72630429 42.34795315 328.95009563 21 314 C21.33 312.68 21.66 311.36 22 310 C23.30710937 309.87625 24.61421875 309.7525 25.9609375 309.625 C47.86916515 307.23733985 62.7515166 298.37411 80.52148438 285.75537109 C86.25421382 281.69525242 92.09405187 277.80292773 98 274 C98.83047852 273.4652002 99.66095703 272.93040039 100.51660156 272.37939453 C114.16743614 263.6622157 127.91346203 255.94278179 143 250 C143.8760791 249.64744141 144.7521582 249.29488281 145.65478516 248.93164062 C163.88734202 241.84212554 183.16405332 239.49560201 202.42236328 236.78857422 C225.1093264 233.94933983 225.1093264 233.94933983 245.9609375 225.171875 C248 224 248 224 250 224 C250.28875 223.21625 250.5775 222.4325 250.875 221.625 C252 219 252 219 254 217 C254.0185657 213.65446012 253.89666043 210.36468071 253.65820312 207.02929688 C253.51265203 202.99491904 253.75685963 201.29965628 256.3359375 198.12109375 C258.14304664 196.68229571 259.96948119 195.2675031 261.8125 193.875 C262.8953125 192.946875 262.8953125 192.946875 264 192 C264 191.01 264 190.02 264 189 C261.69 188.34 259.38 187.68 257 187 C256.63855422 182.54216867 256.63855422 182.54216867 258.125 180.3125 C260.59505803 178.58345938 263.11875472 177.83235975 266 177 C265.58792015 174.11544106 265.14283619 173.12985108 262.9375 171.125 C261 169 261 169 260.5625 165.9375 C261.06294793 162.5773496 261.46248207 162.09621046 264 160 C265.69984012 159.04969568 267.432191 158.15596017 269.1875 157.3125 C270.08855469 156.87550781 270.98960937 156.43851563 271.91796875 155.98828125 C272.60503906 155.66214844 273.29210937 155.33601562 274 155 C273.52135708 150.69221368 271.13741504 148.80781957 268 146 C265.38131788 143.91218853 262.70042984 141.9179813 260 139.9375 C257.93830815 138.41405427 255.87826301 136.8893077 253.82958984 135.34838867 C252.26842771 134.19782843 250.65792371 133.1147254 249.0390625 132.046875 C246.20036178 129.19729804 246.40115072 127.27433447 246.375 123.3125 C246.12589775 117.28422561 245.57737257 112.46364373 243 107 C242.58363281 106.10539062 242.16726563 105.21078125 241.73828125 104.2890625 C237.12047323 95.79787898 230.55726761 91.9025255 222 88 C221.33983887 87.67435059 220.67967773 87.34870117 219.99951172 87.01318359 C211.37175336 83.10546003 202.02101883 82.01729412 192.75 80.5 C190.92558832 80.19328406 189.1013702 79.88541463 187.27734375 79.57641602 C184.5838781 79.12042955 181.89029685 78.66532743 179.19592285 78.21473694 C173.11525999 77.1975433 167.05565047 76.09415536 161 74.9375 C152.01635738 73.25385229 142.98437381 71.94718859 133.94223022 70.62612915 C103.31720231 66.13920561 72.90940528 60.80355606 42.75 53.8125 C41.86420258 53.60830444 40.97840515 53.40410889 40.06576538 53.19372559 C26.4280409 50.03080888 12.83717639 46.68588672 0 41 C-1.42670132 9.03202489 -1.42670132 9.03202489 -1 1 C-0.67 0.67 -0.34 0.34 0 0 Z " fill="#203D98" transform="translate(18,62)"/>
</svg>
