<?xml version="1.0" encoding="UTF-8"?>
<svg version="1.1" viewBox="0 0 1600 1600" width="1280" height="1280" xmlns="http://www.w3.org/2000/svg">
<path transform="translate(800 324)" d="m0 0c4.51-0.0027 9.02-0.00818 13.5-0.0165 37.5-0.0685 74.8 0.497 112 1.92 13.2 0.496 26.4 0.735 39.6 0.904 4.41 0.0581 8.82 0.123 13.2 0.191 0.966 0.0104 1.93 0.0209 2.93 0.0316 1.3 0.0202 1.3 0.0202 2.63 0.0409 1.14 0.0143 1.14 0.0143 2.3 0.0288 1.73 0.145 1.73 0.145 2.73 1.14 3.02 0.22 6.02 0.38 9.04 0.5 0.914 0.0406 1.83 0.0812 2.77 0.123 2.94 0.13 5.88 0.254 8.82 0.377 2.92 0.123 5.83 0.248 8.75 0.377 1.82 0.0802 3.63 0.157 5.45 0.23 4.79 0.21 9.43 0.655 14.2 1.39 1.64 0.0606 3.29 0.0878 4.94 0.0625 1.16-0.0135 1.16-0.0135 2.34-0.0273 0.853-0.0174 0.853-0.0174 1.72-0.0352v2c1.07-0.0412 2.14-0.0825 3.25-0.125 5.68-0.0204 11.2 1.09 16.8 2.12v2c1.49-0.495 1.49-0.495 3-1 2.35 0.589 4.69 1.27 7 2 3.96 1.2 7.87 2.19 11.9 2.94 4.6 0.89 8.74 2.3 13.1 4.06 1.35 0.526 2.71 1.05 4.06 1.56 0.884 0.342 0.884 0.342 1.79 0.691 3.01 1.04 6.08 1.87 9.15 2.75 14.9 4.55 28.8 11.9 41.8 20.5 2.37 1.57 4.79 3.02 7.23 4.47 6.06 3.66 11.8 7.35 17 12.2 1.89 1.73 3.8 3.41 5.73 5.08 4.29 3.74 8.49 7.57 12.7 11.4 0.71 0.65 1.42 1.3 2.15 1.97l2.06 1.92c0.609 0.563 1.22 1.13 1.85 1.71 1.64 1.8 2.5 3.55 3.57 5.72 1.33 0.669 2.67 1.34 4 2 2.15 2.32 2.15 2.32 4.38 5.12l2.4 3.02c1.1 1.42 1.1 1.42 2.23 2.86 0.529 0.675 1.06 1.35 1.6 2.05 3.21 4.19 6.24 8.51 9.27 12.8 0.406 0.572 0.812 1.14 1.23 1.73 2.89 4.16 2.89 4.16 2.89 6.39 0.99 0.33 1.98 0.66 3 1 1.03 1.59 1.03 1.59 1.94 3.64 0.338 0.741 0.675 1.48 1.02 2.25 0.514 1.17 0.514 1.17 1.04 2.36 2.13 4.75 4.27 9.3 7 13.8 4.44 8.73 8.04 17.5 11 26.9 0.917 3.02 0.917 3.02 2.09 5.23 1.19 2.4 1.72 4.74 2.32 7.35 1.77 7.33 3.97 14.5 6.32 21.7 1.28 4.05 1.3 7.65 1.3 11.9 0.66 0.66 1.32 1.32 2 2 0.277 2.3 0.45 4.62 0.562 6.94 0.236 5.12 0.236 5.12 1.44 10.1 0.0433 1.54 0.0402 3.08 0 4.62-0.0377 1.46-0.0465 2.92 0 4.38 0.33 0.33 0.66 0.66 1 1 0.209 1.81 0.368 3.62 0.5 5.44 0.214 3.93 0.214 3.93 1.5 7.56 0.154 1.78 0.25 3.57 0.316 5.36 0.042 1.09 0.084 2.18 0.127 3.31 0.0589 1.74 0.0589 1.74 0.119 3.52 0.0425 1.17 0.0849 2.35 0.129 3.56 0.289 8.42 0.434 16.8 0.309 25.3 0.99 0.33 1.98 0.66 3 1 0.0229 43.8 0.0405 87.6 0.0511 131 0.00125 5.17 0.00255 10.3 0.00387 15.5 2.62e-4 1.03 5.25e-4 2.06 7.95e-4 3.12 0.00435 16.7 0.0122 33.3 0.0214 50 0.00935 17.1 0.0149 34.2 0.0169 51.3 0.00137 10.5 0.0057 21.1 0.0138 31.6 0.00529 7.23 0.00688 14.5 0.00558 21.7-6.4e-4 4.17 3.37e-4 8.35 0.0057 12.5 0.00488 3.82 0.0051 7.65 0.00169 11.5-6.19e-4 2.03 0.00368 4.06 0.00818 6.09-0.0296 18.1-0.0296 18.1-3.13 25.3-0.256 2.52-0.256 2.52-0.16 5.14 0.0117 0.98 0.0234 1.96 0.0354 2.97 0.0308 1.55 0.0308 1.55 0.0623 3.14 0.126 12.3-0.067 24.5-1.94 36.8h-1c-0.121 1.26-0.242 2.52-0.367 3.81-0.825 8.47-1.67 16.9-2.7 25.4-0.234 1.94-0.234 1.94-0.473 3.92-0.465 2.89-0.465 2.89-1.46 3.89-0.28 1.6-0.554 3.21-0.799 4.81-1.36 8.86-3.45 17.5-5.76 26.1-0.305 1.16-0.61 2.31-0.924 3.5-0.294 1.08-0.589 2.16-0.892 3.28-0.264 0.971-0.527 1.94-0.799 2.94-0.822 2.34-0.822 2.34-2.82 4.34-0.836 2.96-1.47 5.95-2.12 8.96-0.906 3.14-2.15 5.29-3.88 8.04-1.15 2.39-2.28 4.78-3.38 7.19-0.618 1.34-1.24 2.67-1.86 4.01-0.301 0.649-0.602 1.3-0.912 1.97-2.92 6.27-5.99 12.1-9.86 17.8-0.991 1.81-1.97 3.62-2.94 5.44-2.41 4.47-4.89 8.59-8.06 12.6h-2c-0.227 0.701-0.454 1.4-0.688 2.12-1.59 3.48-3.8 6.05-6.31 8.88-0.845 1-0.845 1-1.71 2.02-2.53 2.97-4.91 5.68-7.98 8.11-2.49 1.82-2.49 1.82-4.19 4.75-2.19 3.23-4.44 5.3-7.44 7.73-1.73 1.38-1.73 1.38-3.27 3.07-1.41 1.32-1.41 1.32-3.41 1.32-0.247 0.598-0.495 1.2-0.75 1.81-1.43 2.5-2.82 3.67-5.25 5.19h-2c-0.227 0.583-0.454 1.17-0.688 1.77-1.67 2.85-3.59 4.13-6.31 5.98-0.887 0.614-1.77 1.23-2.69 1.86-2.31 1.39-2.31 1.39-4.31 1.39v2c-0.918 0.519-1.84 1.04-2.78 1.57-1.24 0.704-2.48 1.41-3.72 2.11-0.649 0.369-1.3 0.737-1.97 1.12-3.19 1.82-6.34 3.67-9.41 5.7-9.08 5.79-19.2 10.3-29.1 14.5-1.2 0.536-2.39 1.07-3.62 1.62-3.38 1.38-3.38 1.38-6.66 2.31-3.56 1.02-6.99 2.22-10.5 3.5-8.16 2.94-16.4 5.24-24.9 7.04-1.7 0.374-3.39 0.781-5.07 1.21-16.2 4.05-32.8 5.52-49.4 6.67-1.51 0.107-1.51 0.107-3.06 0.217-0.897 0.0595-1.79 0.119-2.72 0.18-2.22 0.129-2.22 0.129-4.17 1.25-1.84 0.142-3.69 0.226-5.53 0.281-1.12 0.0374-2.24 0.0748-3.4 0.113-1.18 0.0348-2.36 0.0696-3.57 0.105-2.3 0.0698-4.6 0.143-6.91 0.219-1.02 0.0303-2.05 0.0606-3.1 0.0918-2.74 0.149-5.41 0.389-8.13 0.69-4.89 0.495-9.72 0.656-14.6 0.673-0.866 0.00669-1.73 0.0134-2.63 0.0203-1.86 0.0139-3.72 0.0259-5.58 0.0359-2.94 0.0166-5.88 0.0398-8.83 0.0649-8.36 0.0704-16.7 0.131-25.1 0.182-5.13 0.0317-10.3 0.0729-15.4 0.12-1.95 0.016-3.9 0.0284-5.86 0.0369-2.72 0.0121-5.43 0.0362-8.15 0.0631-0.809 5.89e-4 -1.62 0.00118-2.45 0.00179-4.36-0.11-4.36-0.11-7.79 2.3-2.94 0.252-2.94 0.252-6.79 0.254-0.706 0.00312-1.41 0.00624-2.14 0.00945-2.38 0.00801-4.76 0.00165-7.13-0.00463-1.7 0.00271-3.4 0.00627-5.1 0.0106-4.63 0.00914-9.25 0.00557-13.9-7.58e-4 -4.83-0.00505-9.67-3.71e-4 -14.5 0.00277-8.12 0.00364-16.2-0.00117-24.4-0.0107-9.4-0.0109-18.8-0.00736-28.2 0.00365-8.06 0.00907-16.1 0.0104-24.2 0.00512-4.82-0.00312-9.63-0.00352-14.4 0.00307-4.53 0.00577-9.06 0.00179-13.6-0.00979-1.66-0.00265-3.33-0.00188-4.99 0.00253-2.27 0.00544-4.53-0.00136-6.8-0.0114-1.27-7.54e-4 -2.54-0.00151-3.85-0.00229-3.07-0.252-3.07-0.252-6.07-2.25-2.83-0.208-5.57-0.301-8.4-0.303-0.857-0.00844-1.71-0.0169-2.6-0.0256-2.84-0.0258-5.68-0.0379-8.52-0.0504-1.97-0.0162-3.95-0.0334-5.92-0.0515-5.21-0.0457-10.4-0.0805-15.6-0.112-8.32-0.0518-16.6-0.117-25-0.188-2.9-0.0228-5.8-0.0391-8.71-0.0547-1.79-0.0134-3.58-0.027-5.37-0.0409-0.802-0.00261-1.6-0.00523-2.43-0.00792-4.58-0.0419-8.95-0.442-13.5-1.17-2.11-0.126-4.22-0.22-6.34-0.281-1.15-0.0374-2.29-0.0748-3.47-0.113-2.4-0.071-4.8-0.141-7.2-0.211-1.71-0.0561-1.71-0.0561-3.45-0.113-1.56-0.0454-1.56-0.0454-3.15-0.0918-2.39-0.189-2.39-0.189-3.39-1.19-1.75-0.182-3.51-0.301-5.27-0.395-1.12-0.0663-2.24-0.133-3.4-0.201-1.83-0.107-1.83-0.107-3.7-0.217-10.1-0.659-20.1-1.64-30.2-3.12-1.63-0.237-1.63-0.237-3.29-0.478-5.99-0.925-11.7-2.21-17.5-3.87-3.97-1.09-8-1.82-12-2.59-7.65-1.53-14.5-3.8-21.6-7.12-2.7-1.13-5.23-2.06-8.06-2.81-18.9-5.32-38.7-16.5-54.3-28.2-3.52-2.63-7.17-5.07-10.8-7.51-0.891-0.715-0.891-0.715-1.8-1.45v-2c-0.547-0.229-1.09-0.459-1.66-0.695-3-1.67-5.36-3.84-7.84-6.18-0.819-0.764-0.819-0.764-1.65-1.54-5.49-5.17-10.9-10.5-16.2-15.8-0.844-0.831-1.69-1.66-2.56-2.52-13.9-13.9-13.9-13.9-15.1-20.3h-2c-1.6-2.09-3.06-4.17-4.5-6.38-0.656-0.993-0.656-0.993-1.32-2.01-4.79-7.37-9-15-13.2-22.8-0.875-1.57-1.83-3.1-2.81-4.62-1.21-2.23-1.21-2.23-1.21-6.23h-2c-1.27-3.31-2.54-6.62-3.81-9.94-0.356-0.926-0.713-1.85-1.08-2.81-2.18-5.71-4.22-11.4-6.11-17.3-0.585-1.74-1.17-3.49-1.75-5.23-2.98-9.04-5.78-17.7-6.92-27.2-0.42-3.3-1.36-6.36-2.32-9.55-1.83-7.57-2.54-15.1-3.06-22.9-0.154-2.21-0.312-4.41-0.473-6.62-0.0658-0.963-0.132-1.93-0.199-2.92-0.187-2.5-0.187-2.5-0.777-4.51-0.696-2.97-0.694-5.85-0.77-8.89-0.0184-0.651-0.0368-1.3-0.0558-1.97-0.0783-2.77-0.146-5.54-0.215-8.32-0.0519-2.03-0.109-4.06-0.167-6.09-0.0303-1.21-0.0606-2.42-0.0918-3.67-0.0632-2.94-0.0632-2.94-0.682-4.87-0.727-3.26-0.744-6.51-0.819-9.84-0.0205-0.773-0.0409-1.55-0.062-2.34-0.0664-2.62-0.124-5.25-0.18-7.87-0.021-0.931-0.0419-1.86-0.0635-2.82-0.582-26.5-0.53-53-0.518-79.4 0.00232-5.22 0.00256-10.4 0.00148-15.7-1.53e-4 -0.756-3.06e-4 -1.51-4.64e-4 -2.29-3.2e-4 -1.54-6.44e-4 -3.07-9.73e-4 -4.61-0.00282-14.3 3.81e-4 -28.5 0.0058-42.8 0.00446-12.1 0.00369-24.2-9.19e-4 -36.4-0.00541-14.2-0.00743-28.5-0.00439-42.7 3.18e-4 -1.53 6.33e-4 -3.06 9.43e-4 -4.59 1.54e-4 -0.752 3.09e-4 -1.5 4.68e-4 -2.28 8.47e-4 -5.19-5.81e-4 -10.4-0.00295-15.6-0.011-26.8-0.00684-53.6 0.52-80.4 0.0151-0.889 0.0303-1.78 0.0459-2.69 0.177-9.94 0.702-19.7 1.88-29.6 0.792-6.69 0.896-13.3 0.757-20-0.0342-2.16-0.0644-4.32-0.0898-6.48-0.018-0.921-0.0359-1.84-0.0544-2.79 0.0818-2.11 0.0818-2.11 1.08-3.11 0.216-1.9 0.371-3.81 0.5-5.71 0.0825-1.16 0.165-2.32 0.25-3.52 0.0825-1.22 0.165-2.45 0.25-3.71 0.163-2.41 0.329-4.81 0.5-7.21 0.108-1.61 0.108-1.61 0.219-3.25 0.281-2.6 0.281-2.6 1.28-4.6 0.274-2.49 0.445-4.99 0.621-7.49 0.379-2.51 0.379-2.51 1.36-4.41 1.41-2.88 1.59-5.61 1.96-8.79 0.763-5.79 2.05-10.9 4.06-16.3 0.351-1.24 0.701-2.48 1.06-3.75 0.825-2.86 1.82-5.49 2.94-8.25 1.96-5.59 3.67-11.2 5.25-16.9 0.746-2.07 0.746-2.07 2.75-4.07 0.47-1.46 0.878-2.95 1.25-4.44 2.54-8.88 7.68-16.5 12.5-24.4 1.39-2.29 1.39-2.29 2.73-5.2 3.99-7.65 9.62-14.5 14.7-21.4 1.58-2.17 3.13-4.35 4.67-6.55 1.68-2.3 3.19-4.03 5.19-6 1.14-1.26 2.26-2.53 3.38-3.81 0.616-0.705 1.23-1.41 1.87-2.14 1.46-1.7 2.86-3.43 4.26-5.18 2.45-2.81 4.98-5.12 7.85-7.48 1.64-1.39 3.13-2.87 4.65-4.39 2.32-2.03 4.64-4.02 7-6 0.911-0.766 1.82-1.53 2.76-2.32 1.45-1.2 1.45-1.2 2.93-2.43 0.911-0.758 1.82-1.52 2.76-2.3 2.17-1.66 4.13-2.75 6.55-3.95 1-0.996 2-2 3-3 1.52-0.977 3.06-1.91 4.62-2.81 3.34-1.96 6.57-3.98 9.75-6.19 8.04-5.41 16.9-9.17 25.8-12.8 2.54-1.11 4.81-2.35 7.17-3.78 4.83-2.81 9.95-4.1 15.3-5.53 2.66-0.729 5.18-1.53 7.74-2.53 3.49-1.35 6.96-2.39 10.6-3.38 1.06-0.318 2.12-0.637 3.21-0.965 4.57-1.25 9.16-2.08 13.8-2.89 3.24-0.582 6.33-1.25 9.5-2.17 3.62-1.02 7.11-1.56 10.8-2.04 4.14-0.188 4.14-0.188 7.62-1.94 4.15-0.539 8.33-0.768 12.5-1.06 1.25-0.0894 2.49-0.179 3.78-0.271 12.2-0.812 24.5-0.877 36.7-0.667v-2c0.857-0.0121 0.857-0.0121 1.73-0.0245 7.63-0.109 15.3-0.229 22.9-0.35 1.31-0.0205 2.61-0.0409 3.96-0.062 14.7-0.232 29.3-0.521 44-1.07 39.4-1.45 78.8-1.71 118-1.73zm-244 8.24v1h5v-1h-5zm484 0v1h6v-1h-6zm-388 80.8c-4.92 0.36-9.83 0.411-14.8 0.462-2.22 0.033-4.44 0.0662-6.65 0.0996-3.41 0.0469-6.82 0.0914-10.2 0.131-30.4 0.369-30.4 0.369-60.3 4.96-2.08 0.445-4.16 0.889-6.24 1.33-0.978 0.212-1.96 0.424-2.96 0.643-5.14 1.08-10.3 1.94-15.5 2.81-3.68 0.862-6.85 2.23-10.3 3.77-1.83 0.669-3.66 1.34-5.49 1.99-9.22 3.3-17.8 7.49-26.5 12-1.04 0.508-2.09 1.02-3.16 1.54-10.8 5.54-20.5 13.9-28.9 22.5-1.83 1.83-3.73 3.46-5.73 5.1-10.9 9.54-18.1 21.1-25 33.7-1.09 1.98-2.21 3.94-3.34 5.89-4.44 7.83-7.52 15.9-10 24.5-0.941 3.18-1.98 6.17-3.34 9.2-1.64 4.02-2.37 7.78-3.01 12-1.23 7.83-1.23 7.83-2.43 11.6-1.56 5.99-1.98 12.1-2.57 18.2-0.247 2.55-0.498 5.1-0.754 7.65-0.108 1.12-0.215 2.25-0.326 3.4-0.357 2.57-0.357 2.57-1.36 3.57-0.255 2.82-0.433 5.61-0.562 8.44-0.0432 0.901-0.0864 1.8-0.131 2.73-0.442 10.7-0.361 21.3-0.27 32 0.00426 0.713 0.00853 1.43 0.0129 2.16 0.0119 1.95 0.0297 3.9 0.0479 5.85-0.0977 3.81-0.0977 3.81-0.569 7.77-0.665 5.82-0.879 11.6-1.08 17.5-0.0632 1.78-0.0632 1.78-0.128 3.59-0.406 12.2-0.459 24.5-0.447 36.7-0.00136 2.44-0.00314 4.88-0.00531 7.31-0.00403 5.85-0.00352 11.7-5.87e-4 17.6 0.00228 4.76 0.00256 9.51 0.00148 14.3-1.53e-4 0.683-3.06e-4 1.37-4.64e-4 2.07-3.2e-4 1.39-6.44e-4 2.78-9.73e-4 4.16-0.00283 12.9 3.96e-4 25.8 0.0058 38.8 0.00449 11.1 0.00367 22.1-9.19e-4 33.2-0.00535 12.9-0.00746 25.8-0.00439 38.7 3.19e-4 1.38 6.33e-4 2.75 9.43e-4 4.13 1.54e-4 0.677 3.09e-4 1.35 4.68e-4 2.05 8.62e-4 4.76-5.9e-4 9.51-0.00295 14.3-0.0031 6.39-8.92e-4 12.8 0.00489 19.2 0.00132 2.34 9.41e-4 4.69-0.00126 7.03-0.00273 3.2 6.89e-4 6.39 0.00568 9.59-0.00223 0.929-0.00446 1.86-0.00676 2.82 0.0137 4.5 0.256 8.7 1.13 13.1 0.139 1.87 0.243 3.74 0.316 5.61 0.0419 1.07 0.0838 2.14 0.127 3.25 0.0393 1.14 0.0786 2.28 0.119 3.45l0.131 3.59c0.31 9.27 0.381 18.5 0.27 27.8-0.045 5.12 0.169 10 0.814 15.1 0.394 3.9 0.287 7.79 0.223 11.7-0.0452 2.84-0.0477 5.66 0 8.5 0.33 0.33 0.66 0.66 1 1 0.214 1.33 0.37 2.67 0.5 4.01 0.0825 0.822 0.165 1.64 0.25 2.49 0.0825 0.866 0.165 1.73 0.25 2.62 0.553 5.65 1.17 11.3 2 16.9 0.171 1.46 0.339 2.92 0.5 4.38 0.101 3.43 0.101 3.43 1.5 4.62 0.278 1.69 0.551 3.38 0.799 5.07 1.96 13.1 6.18 25.7 11.2 37.9 0.425 1.15 0.425 1.15 0.859 2.32 2.06 5.46 4.56 10.3 7.65 15.3 1.36 2.21 2.55 4.44 3.74 6.73 2.3 4.19 5.05 7.95 7.94 11.8 0.441 0.585 0.881 1.17 1.33 1.77 1.11 1.43 2.29 2.8 3.48 4.16h2c0.186 0.701 0.371 1.4 0.562 2.12 1.71 3.41 3.72 5.04 6.64 7.41 3.02 2.47 5.68 5.3 8.37 8.11 1.44 1.49 2.93 2.92 4.43 4.36h2v2c2.24 1.68 4.47 3.23 6.81 4.75l2.07 1.36c5.55 3.61 11.2 6.88 17.1 9.89 1.04 0.549 1.04 0.549 2.1 1.11 4.34 2.25 8.79 4.12 13.3 5.89 1.64 0.646 3.27 1.32 4.88 2.04 6.08 2.65 12.1 3.97 18.6 5.18 4.35 0.82 8.63 1.84 12.9 2.91 1.04 0.256 1.04 0.256 2.11 0.518 4.89 1.23 4.89 1.23 6.02 2.36 2.63 0.39 5.24 0.717 7.88 1 0.793 0.0876 1.59 0.175 2.4 0.265 6.92 0.727 13.8 1.13 20.8 1.39 5.83 0.242 5.83 0.242 6.93 1.34 1.87 0.148 3.75 0.228 5.62 0.281 1.22 0.0368 2.43 0.0735 3.68 0.111 1.35 0.0359 2.71 0.0717 4.06 0.107 1.4 0.0403 2.81 0.081 4.21 0.122 3.79 0.109 7.58 0.212 11.4 0.314 3.14 0.085 6.28 0.174 9.42 0.263 22.3 0.629 44.6 1.13 66.9 1.46 1.01 0.0163 2.02 0.0325 3.07 0.0493 1.85 0.0297 3.7 0.0559 5.56 0.0778 1.23 0.0204 1.23 0.0204 2.49 0.0411 0.698 0.00951 1.4 0.019 2.11 0.0288 2.47 0.145 2.47 0.145 5.84 0.652 6.41 0.827 12.9 0.592 19.3 0.546 1.49-0.00693 2.98-0.0134 4.47-0.0195 4.06-0.018 8.11-0.0427 12.2-0.0688 3.44-0.0214 6.87-0.0393 10.3-0.0571 10.1-0.0529 20.3-0.116 30.4-0.183 4.77-0.0313 9.54-0.0611 14.3-0.0904 44.6-0.274 89.2-0.58 134-1.63 0.894-0.021 1.79-0.0419 2.71-0.0635 20-0.473 40-1.09 60-1.94v-2c0.888 0.0236 0.888 0.0236 1.79 0.0476 20.1 0.46 38.8-1.96 58.2-7.05 0.665-0.167 1.33-0.334 2.02-0.506 9.32-2.36 18.1-5.63 26.9-9.43 0.947-0.407 1.89-0.814 2.87-1.23 8.82-3.9 16.8-8.62 24.4-14.5 1.81-1.3 1.81-1.3 5-2.87 3.3-1.69 5.26-3.76 7.81-6.44 0.969-0.784 1.94-1.57 2.94-2.38 2.91-2.37 5.23-5.05 7.62-7.93 2.01-2.37 4.24-4.5 6.44-6.69 0.884-1.05 1.76-2.12 2.62-3.19 2.38-2.81 2.38-2.81 5.38-4.81 0.947-1.62 1.89-3.25 2.78-4.91 1.36-2.33 2.92-4.43 4.54-6.59 4.54-6.39 7.53-13.4 10.7-20.5 0.588-1.24 0.588-1.24 1.19-2.5 2.5-5.31 4.22-10.8 5.88-16.4 0.604-2.02 1.24-4.04 1.92-6.04 1.15-3.51 2.11-7.06 3.01-10.6 0.174-0.692 0.349-1.38 0.529-2.1 1.37-5.58 2.32-11.2 3.08-16.9 0.395-2.48 0.395-2.48 1.39-4.48 0.201-2.3 0.346-4.6 0.465-6.91 0.0785-1.4 0.157-2.79 0.236-4.19 0.12-2.21 0.237-4.41 0.348-6.62 0.109-2.13 0.23-4.25 0.353-6.38 0.067-1.28 0.134-2.55 0.203-3.87 0.395-3.04 0.395-3.04 2.39-5.04 0.14-2.96 0.161-5.82 0.0977-8.77-0.02-1.83-0.038-3.66-0.0542-5.48-0.00973-0.948-0.0195-1.9-0.0295-2.87-0.0354-7.26 0.181-14.5 0.358-21.8 0.0667-2.77 0.126-5.54 0.184-8.31 0.0419-1.77 0.0842-3.54 0.127-5.31 0.0167-0.824 0.0334-1.65 0.0506-2.5 0.151-5.74 0.151-5.74 1.27-7.96 0.0939-1.46 0.126-2.93 0.126-4.4 0.00261-0.931 0.00522-1.86 0.0079-2.82-0.00223-1.03-0.00446-2.06-0.00676-3.12 0.00156-1.09 0.00312-2.18 0.00473-3.3 0.00401-3.68 8.2e-4 -7.35-0.00232-11 0.00135-2.63 0.00313-5.25 0.00531-7.88 0.00446-6.42 0.00348-12.8 5.87e-4 -19.3-0.00226-5.23-0.00256-10.5-0.00148-15.7 1.53e-4 -0.745 3.06e-4 -1.49 4.64e-4 -2.26 3.2e-4 -1.51 6.44e-4 -3.03 9.73e-4 -4.54 0.00286-14.2-4.32e-4 -28.5-0.0058-42.7-0.00444-12.1-0.00372-24.3 9.19e-4 -36.4 0.00539-14.1 0.00743-28.3 0.00439-42.4-3.18e-4 -1.52-6.33e-4 -3.04-9.43e-4 -4.55-1.54e-4 -0.747-3.09e-4 -1.49-4.68e-4 -2.26-8.54e-4 -5.19 5.92e-4 -10.4 0.00295-15.6 0.0699-43.4 0.0699-43.4-1.14-86.8-0.067-1.59-0.067-1.59-0.135-3.2-0.222-5.21-0.463-10.4-0.74-15.6-0.13-2.47-0.253-4.93-0.375-7.4-0.0829-1.61-0.166-3.21-0.25-4.82-0.0354-0.719-0.0709-1.44-0.107-2.18-0.218-3.99-0.712-7.84-1.39-11.8-0.169-1.95-0.312-3.9-0.43-5.86-0.0716-1.11-0.143-2.22-0.217-3.36-0.0753-1.17-0.151-2.33-0.228-3.53-0.662-9.64-1.66-19.1-3.44-28.6-0.461-2.48-0.842-4.97-1.15-7.47-0.334-3.35-0.334-3.35-2.54-6.2-0.822-2.79-1.59-5.56-2.31-8.38-2.08-7.76-4.58-15.2-7.69-22.6-0.374-0.911-0.748-1.82-1.13-2.76-1.55-4.39-1.55-4.39-4.87-7.24-0.731-2.31-1.4-4.65-2-7h-2c-0.247-0.681-0.495-1.36-0.75-2.06-2.35-5.51-4.92-9.76-9.25-13.9-0.33-0.99-0.66-1.98-1-3h-2c-0.266-0.581-0.531-1.16-0.805-1.76-3.32-6.21-8.87-11-14.2-15.5-2.45-2.14-4.7-4.44-6.99-6.74-12.5-11.5-28.6-21.3-44.8-26.3-2.81-0.889-5.55-1.94-8.3-2.99-1.75-0.651-3.52-1.24-5.3-1.82-2.56-0.875-2.56-0.875-3.56-1.88-2.12-0.49-4.25-0.926-6.39-1.34-0.653-0.127-1.31-0.254-1.98-0.385-1.39-0.27-2.79-0.538-4.18-0.804-2.08-0.398-4.17-0.804-6.25-1.21-7.85-1.52-15.7-2.81-23.6-3.83-2.59-0.427-2.59-0.427-3.59-1.43-2.82-0.234-5.62-0.405-8.45-0.535-0.873-0.043-1.75-0.086-2.64-0.13-2.86-0.138-5.73-0.268-8.59-0.397-0.968-0.0452-1.94-0.0904-2.93-0.137-13.9-0.644-27.8-0.994-41.7-0.814-1.13 0.0136-2.26 0.0272-3.42 0.0413-0.973 0.018-1.95 0.0359-2.95 0.0544-2.3-0.0818-2.3-0.0818-4.3-1.08-2.27-0.0739-4.53-0.0834-6.8-0.0625-0.673 0.00379-1.35 0.00757-2.04 0.0115-2.88 0.0163-5.76 0.0444-8.65 0.0715-2.1 0.0182-4.21 0.0302-6.31 0.042-1.89 0.0174-1.89 0.0174-3.82 0.0352-3.38-0.0977-3.38-0.0977-5.54-0.596-3.89-0.687-7.73-0.639-11.7-0.629-0.889-0.00156-1.78-0.00312-2.69-0.00473-2.98-0.00399-5.96-8.28e-4 -8.94 0.00232-2.14-0.00136-4.28-0.00314-6.41-0.00531-5.82-0.00457-11.6-0.00279-17.4 3.79e-4 -6.11 0.00254-12.2 1.82e-4 -18.3-0.00139-10.3-0.00182-20.6 5.81e-4 -30.9 0.00534-11.8 0.00541-23.6 0.00371-35.5-0.00183-10.2-0.00458-20.4-0.00516-30.6-0.00256-6.07 0.00154-12.1 0.00181-18.2-0.00154-42.7-0.238-42.7-0.238-85.3 1.92zm-320 103 1 3zm-8 33v7h1v-7h-1zm-5 39 1 3zm880 35v9h1v-9h-1zm2 54 1 4zm-1 278 1 3zm-1 41v6h1v-6h-1zm-3 40 1 3zm-872 33 1 3z" fill="#173B95"/>
<path transform="translate(798 562)" d="m0 0c2.83 0.00537 5.67 2.61e-5 8.5-0.00635 1.83 6.61e-4 3.66 0.00194 5.49 0.00391 0.833-0.00202 1.67-0.00405 2.52-0.00613 8.07 0.0316 15.9 0.708 23.7 2.61 3.21 0.667 6.43 1.06 9.68 1.47 5.15 0.703 9.13 1.91 13.9 4.06 2.12 0.534 4.24 1.03 6.38 1.5 5.37 1.19 10.5 2.64 15.6 4.5 1.15 0.394 2.3 0.789 3.49 1.2 1.24 0.431 2.48 0.861 3.76 1.3 1.74 0.603 1.74 0.603 3.52 1.22 3 1.19 5.5 2.6 8.23 4.28 0.735 0.293 1.47 0.585 2.23 0.887 4.2 1.69 8.15 3.82 12.1 5.93 1.24 0.639 1.24 0.639 2.5 1.29 5.03 2.64 9.55 5.55 14.1 8.9 1.66 0.68 3.33 1.35 5 2l3 3c1.65 1.23 3.32 2.44 5 3.62 5.83 4.21 11.7 8.47 17 13.4v2c0.804 0.268 1.61 0.536 2.44 0.812 0.846 0.392 1.69 0.784 2.56 1.19 0.33 0.99 0.66 1.98 1 3 1.33 0.681 2.66 1.35 4 2 1.75 1.77 1.75 1.77 3.44 3.81 1.89 2.26 3.78 4.4 5.87 6.48 3.27 3.29 6.33 6.72 9.38 10.2 0.581 0.651 1.16 1.3 1.76 1.97 2.92 3.35 5.26 6.18 6.55 10.5h2c1.3 1.87 1.3 1.87 2.75 4.44 1.92 3.32 3.88 6.54 6.06 9.69 7.95 11.8 14.5 24.5 19.4 37.8 0.715 1.91 1.46 3.81 2.2 5.71 4.46 11.5 8.21 23.2 10.6 35.4 0.356 1.41 0.356 1.41 0.719 2.84 1.79 7.1 2.7 13.8 2.97 21.2 0.113 2.91 0.113 2.91 1.31 4.92 1.11 2.31 1.25 3.79 1.26 6.34 0.0063 0.832 0.0126 1.66 0.0191 2.52-0.00607 1.34-0.00607 1.34-0.0123 2.7 0.00191 0.927 0.00383 1.85 0.0058 2.81 0.00136 1.96-0.00232 3.93-0.0107 5.89-0.0106 2.98-1.3e-4 5.96 0.0127 8.94-0.00132 1.91-0.00389 3.82-0.00781 5.74 0.00405 0.882 0.0081 1.76 0.0123 2.67-0.0376 5.05-0.568 9.63-1.81 14.5-0.689 2.83-0.971 5.67-1.29 8.56-0.875 6.9-2.21 13.6-3.69 20.4-0.214 0.988-0.427 1.98-0.648 2.99-1.05 4.75-2.21 9.36-3.85 13.9-0.391 1.18-0.781 2.37-1.18 3.59-1.26 3.81-2.53 7.61-3.82 11.4-0.246 0.735-0.492 1.47-0.746 2.23-5.77 16.3-14.3 32.7-24.3 46.8-0.981 1.5-1.96 3-2.94 4.5-4.84 7.25-10.3 14-16.1 20.5-0.567 0.648-1.13 1.3-1.72 1.96-1.18 1.35-2.37 2.7-3.55 4.05-1.12 1.29-2.23 2.59-3.33 3.91-2.9 3.48-5.79 6.3-9.4 9.08-1.14 1.18-1.14 1.18-2.31 2.38-2.77 2.7-5.68 4.89-8.79 7.16-2.05 1.51-2.05 1.51-4.21 3.84-13.9 13.6-13.9 13.6-20.7 13.6v2c-0.64 0.348-1.28 0.696-1.94 1.05-2.92 1.59-5.83 3.17-8.75 4.76-1.01 0.547-2.01 1.09-3.05 1.66-0.976 0.532-1.95 1.06-2.96 1.61-0.895 0.487-1.79 0.974-2.71 1.48-1.77 0.988-3.53 2.01-5.27 3.06-2.35 1.4-4.64 2.41-7.2 3.38-2.84 1.1-5.61 2.22-8.38 3.5-4.6 2.02-9.5 3.15-14.3 4.44-3.37 0.94-3.37 0.94-6.16 2.52-3.52 1.68-6.74 2.5-10.6 3.3-0.691 0.146-1.38 0.293-2.09 0.444-1.46 0.307-2.92 0.61-4.38 0.91-2.19 0.449-4.37 0.911-6.55 1.38-4.21 0.888-8.44 1.71-12.7 2.52-1.1 0.214-2.2 0.428-3.33 0.649-10.5 1.79-21 1.69-31.7 1.67-3.23-0.00315-6.45 0.0204-9.68 0.0457-12.3 0.0368-24.3-0.532-36.3-3.36-0.33-0.33-0.66-0.66-1-1-1.47-0.208-2.95-0.367-4.44-0.5-4.34-0.39-4.34-0.39-6.56-1.5-1.26-0.103-2.52-0.206-3.81-0.312-8.81-0.897-17.1-4.13-25.2-7.69-1.35-0.425-2.71-0.841-4.06-1.25-4.86-1.56-9.31-3.87-13.8-6.19-3.17-1.62-6.31-3.11-9.67-4.31-3.18-1.15-5.58-2.49-8.44-4.25-1.94-1.13-3.87-2.25-5.81-3.38-2.06-1.21-4.13-2.41-6.19-3.62-0.844-0.494-1.69-0.987-2.56-1.5-1.85-1.11-3.65-2.3-5.44-3.5v-2c-0.687-0.224-1.37-0.449-2.08-0.68-3.64-1.65-6.53-3.95-9.61-6.45-0.613-0.491-1.23-0.981-1.86-1.49-1.24-0.992-2.48-1.99-3.71-2.98-1.56-1.26-3.13-2.49-4.71-3.73-4.28-3.37-8.22-6.79-12-10.7-1.28-1.24-1.28-1.24-2.58-2.51-5.52-5.41-10.6-10.9-15.4-17-1.76-2.19-3.57-4.29-5.45-6.38-2.21-2.54-3.58-4.87-4.56-8.12h-2c-1.51-1.86-1.51-1.86-3.12-4.31-0.539-0.801-1.08-1.6-1.63-2.43-1.24-2.26-1.24-2.26-1.24-5.26h-2c-0.33-1.65-0.66-3.3-1-5h-2c-6.36-8.6-10.3-19-14.1-28.9-0.92-2.33-0.92-2.33-2.89-5.09-3.95-8.54-6.82-17.3-9.31-26.4-0.254-0.914-0.509-1.83-0.771-2.77-1.33-4.98-2.28-9.82-2.74-15-0.221-2.34-0.662-4.6-1.18-6.89h-1c-2.25-13.2-2.28-26.3-2.21-39.7 0.0185-3.67 0.0205-7.35 0.0203-11 0.00491-2.34 0.0107-4.67 0.0176-7.01 0.00111-1.1 0.00223-2.2 0.00337-3.33 0.00638-1.01 0.0128-2.02 0.0193-3.06 0.00381-0.889 0.00762-1.78 0.0116-2.69 0.134-2.14 0.134-2.14 1.13-4.14 0.182-2.23 0.321-4.46 0.438-6.69 0.33-5.07 0.95-9.47 2.56-14.3 0.326-1.43 0.637-2.87 0.938-4.31 0.91-4.22 2.1-8.31 3.38-12.4 0.628-2.08 1.17-4.15 1.68-6.26 2.04-7.62 4.89-14.8 8-22 1.27-3.1 2.53-6.2 3.79-9.31 1.22-2.71 2.66-5.16 4.21-7.69 1.02-2.33 2.01-4.66 3-7 0.985-2.01 1.98-4.01 3-6h2c0.206-0.784 0.413-1.57 0.625-2.38 2.36-6.21 5.63-12 10.4-16.6 1.17-1.59 2.31-3.2 3.44-4.81 4.7-6.54 9.91-12.6 15.2-18.6 1.14-1.31 2.27-2.64 3.39-3.97 3.3-3.9 6.77-7.3 10.7-10.6 2.24-1.94 4.41-3.95 6.57-5.98 11.4-10.7 24.3-19.1 37.7-27 0.911-0.544 1.82-1.09 2.76-1.65 8.73-5.15 17.4-9.74 26.9-13.4 2.13-0.874 4.09-1.86 6.1-2.96 4.8-2.5 9.97-3.71 15.2-5.07 3.2-0.807 3.2-0.807 6.07-2.93 9.89-3.12 20-4.73 30.3-6.05 0.863-0.112 1.73-0.223 2.62-0.338 1.16-0.142 1.16-0.142 2.34-0.288 1.81-0.154 1.81-0.154 2.79-1.33 9.54-1.69 19.6-1.15 29.2-1.13zm-73.2 104v2c-0.695 0.0941-1.39 0.188-2.11 0.285-3.49 0.861-6.11 2.33-9.21 4.15-1.6 0.926-1.6 0.926-3.24 1.87-0.808 0.558-1.62 1.12-2.45 1.69v2c-0.763 0.268-1.53 0.536-2.31 0.812-2.68 1.18-3.71 2.12-5.69 4.19-1.2 1.07-2.41 2.13-3.62 3.19-0.694 0.606-1.39 1.21-2.1 1.84-1.59 1.39-3.19 2.77-4.8 4.14-0.817 0.709-1.63 1.42-2.48 2.15-0.763 0.656-1.53 1.31-2.31 1.99-1.92 1.54-1.92 1.54-1.69 3.7-0.594 0.26-1.19 0.521-1.8 0.789-2.34 1.29-3.67 2.56-5.39 4.59-0.764 0.878-0.764 0.878-1.54 1.77-1.35 1.97-1.71 3.56-2.27 5.85-1.33 0.667-2.67 1.33-4 2-0.805 2.05-0.805 2.05-1 4h-2c-1.94 3.54-3.88 7.08-5.81 10.6l-1.66 3.03c-5.15 9.11-5.15 9.11-9.03 18.8-0.876 2.75-1.81 5.24-3 7.88-1.71 4.21-2.74 8.4-3.75 12.8-0.746 2.87-0.746 2.87-1.77 5.23-3.33 9.01-2.58 20.1-2.97 29.6-0.0438 1.06-0.0877 2.11-0.133 3.2-0.177 8.84 0.89 17.6 1.87 26.4 0.177 1.61 0.345 3.22 0.503 4.83 0.412 4.08 0.943 7.89 2.2 11.8l0.809 2.54c0.834 2.44 1.77 4.82 2.75 7.21 0.463 1.42 0.921 2.83 1.38 4.25 1.58 4.75 3.48 9.23 5.62 13.8 0.275 0.587 0.549 1.17 0.833 1.78 4.29 9.12 8.98 17.2 15.2 25.2 1.4 1.96 2.8 3.91 4.19 5.88 2.7 3.71 5.42 7.01 8.81 10.1 0.846 0.887 1.69 1.77 2.56 2.69 2.23 2.35 2.23 2.35 4.62 3.38 1.81 0.938 1.81 0.938 2.69 2.81 1.3 2.48 2.6 3.51 4.87 5.13 0.719 0.517 1.44 1.03 2.18 1.57 2.67 1.85 5.36 3.65 8.07 5.43 0.694 0.513 1.39 1.03 2.1 1.55 6.9 5.06 14.2 8.76 21.9 12.4 1.5 0.768 3 1.54 4.5 2.31 4.7 2.27 8.26 3.69 13.5 3.69 0.33 0.66 0.66 1.32 1 2 4.9 1.8 10.1 2.99 15.2 3.56 3.77 0.44 7.1 1.4 10.8 2.44 5.57 0.839 11 1.15 16.6 1.13 0.791 9.57e-4 1.58 0.00191 2.4 0.0029 1.66 6.76e-4 3.32-0.00114 4.98-0.00534 2.52-0.00536 5.04-3.48e-5 7.56 0.00635 1.62-6.61e-4 3.25-0.00194 4.87-0.00391 1.11 0.00304 1.11 0.00304 2.25 0.00613 8.24 0.409 8.24 0.409 15.3-2.14 1.7-0.278 3.41-0.551 5.12-0.798 14.6-2.17 29-6.93 41.9-14.2 1.32-0.723 2.65-1.45 3.97-2.17 1.45-0.797 2.89-1.59 4.34-2.39 0.683-0.376 1.37-0.752 2.07-1.14 3.83-2.16 7.23-4.47 10.6-7.3 0.66-0.33 1.32-0.66 2-1v-2c0.804-0.268 1.61-0.536 2.44-0.812 0.846-0.392 1.69-0.784 2.56-1.19 0.33-0.99 0.66-1.98 1-3l2.12-0.688c3.74-1.71 5.57-4.16 8.17-7.28 2.62-3.13 5.53-5.94 8.52-8.72 1.41-1.26 1.41-1.26 1.19-3.31 0.99-0.33 1.98-0.66 3-1 1.73-2.08 1.73-2.08 3.38-4.62 0.922-1.37 0.922-1.37 1.86-2.76 0.581-0.862 1.16-1.72 1.76-2.61 0.85-1.15 1.7-2.3 2.56-3.44 5.67-7.93 9.81-16.9 13.4-26 0.714-1.77 1.46-3.53 2.23-5.28 3.98-9.11 6.86-18.2 7.51-28.2 0.309-2.13 0.309-2.13 1.31-4.65 1.3-4.54 1.31-8.73 1.3-13.4 0.00429-0.957 0.00857-1.91 0.013-2.9 0.00573-2.02 0.00625-4.05 0.00191-6.07-0.00314-3.05 0.0202-6.1 0.0457-9.16 0.0345-10.8-0.493-20.5-3.36-30.9-0.463-1.98-0.922-3.96-1.38-5.94-1.23-4.81-2.66-9.53-4.19-14.2-0.315-0.991-0.315-0.991-0.636-2-0.541-1.62-1.16-3.22-1.8-4.81-0.66-0.33-1.32-0.66-2-1-0.891-2.82-1.54-5.66-2.22-8.53-0.258-0.815-0.516-1.63-0.781-2.47-0.66-0.33-1.32-0.66-2-1-1.02-1.99-2.01-3.99-3-6-1.95-3.36-3.98-6.68-6-10-0.516-0.886-1.03-1.77-1.56-2.68-1.36-2.4-1.36-2.4-3.44-4.32-2-2-2-2-3.44-4.44-1.84-3.01-4.01-5.13-6.56-7.56-5-5-5-5-6.93-7.04-4.78-4.96-9.73-9.1-15.4-13.1-2.54-1.8-4.96-3.7-7.39-5.66-3.2-2.5-6.3-4.47-9.98-6.16-1.8-0.842-3.58-1.74-5.34-2.67-12.1-6.31-24.6-10.9-37.9-13.9-2.12-0.543-2.12-0.543-3.12-1.54-6.55-1.03-13-1.08-19.6-0.963-5.2 0.0657-5.2 0.0657-7.41-1.04-29.5-1.25-56.3 5.63-83 18zm-170 103 1 2zm-1 73 1 3zm397 32 1 3z" fill="#173B95"/>
<path transform="translate(1063 494)" d="m0 0c0.779 0.00451 1.56 0.00902 2.36 0.0137 1.9 0.0117 3.8 0.0296 5.7 0.0488v1c0.568 0.11 1.14 0.219 1.72 0.332 10.3 2.11 17 6.31 25.3 12.7 0.874 0.67 1.75 1.34 2.65 2.03 5.98 5 9.24 11.4 12.3 18.4 1.09 2.65 1.09 2.65 2.85 5.46 1.99 4.89 2.04 9.83 2.25 15.1 0.0529 1.01 0.106 2.02 0.16 3.06 0.475 15.9-6.1 28.7-16.3 40.4-14.3 12.7-27.8 16.3-46.5 15.6-11.2-0.707-20.3-4.3-29.1-11.1-0.585-0.438-1.17-0.877-1.77-1.33-4.29-3.3-4.29-3.3-5.42-6.67h-2c-6.32-6.96-12.8-16.7-13.1-26.4 0.266-1.93 0.266-1.93 1.08-4.62h-2c-1.59-8.31-0.544-15.9 2-24l2-1c0.693-2.08 0.693-2.08 1.25-4.56 1.55-5.49 4.12-9.13 7.75-13.4 0.619-0.866 1.24-1.73 1.88-2.62 3.42-3.82 7.55-7.14 12.2-9.36 2-0.903 2-0.903 3.34-2.54 2.21-2.04 4.32-2.4 7.23-3.1 3.48-0.618 3.48-0.618 6.38-2.38 5.34-0.994 10.5-1.12 15.9-1.06z" fill="#173B95"/>
<path transform="translate(1014,403)" d="m0 0c1.27 0.743 1.27 0.743 2.56 1.5 3.83 1.67 6.31 1.57 10.4 1.5 2.02 0.617 4.02 1.28 6 2 1.99 0.369 3.99 0.713 6 1v2h5v-2h8v1c1.84 0.307 1.84 0.307 3.73 0.621 0.785 0.131 1.57 0.262 2.38 0.396 0.831 0.139 1.66 0.277 2.52 0.42 2.43 0.404 2.43 0.404 4.85 0.809 0.779 0.129 1.56 0.257 2.36 0.39 1.82 0.305 3.63 0.633 5.44 0.966 2.65 0.387 5.06 0.434 7.73 0.336 4.05-0.0551 7.22 0.47 11 2.06-0.33 0.66-0.66 1.32-1 2-0.99 0.33-1.98 0.66-3 1 0.699-0.0232 1.4-0.0464 2.12-0.0703 1.37-0.0271 1.37-0.0271 2.76-0.0547 0.905-0.0232 1.81-0.0464 2.74-0.0703 2.38 0.195 2.38 0.195 4.38 2.2 0.99 0.33 1.98 0.66 3 1v2c0.928-0.0412 1.86-0.0825 2.81-0.125 3.19 0.125 3.19 0.125 6.19 2.12 0.33 0.99 0.66 1.98 1 3 0.99-2.48 0.99-2.48 2-5 5.13 0.658 10.3 1.8 15 4 0.99 1.49 0.99 1.49 2 3h3c1.03 4.41 1.04 6.93-1 11 2.31 0.99 4.62 1.98 7 3v3c1.32 0.33 2.64 0.66 4 1v5c0.66 0.33 1.32 0.66 2 1-0.99 0.99-0.99 0.99-2 2-0.33 0.66-0.66 1.32-1 2h2c0.33-0.66 0.66-1.32 1-2 2.25 2.05 3 3.01 4 6h2c0.33 0.66 0.66 1.32 1 2h2c0.66 0.99 1.32 1.98 2 3 0.66 0.66 1.32 1.32 2 2v1c3.3 0.66 6.6 1.32 10 2v1h-9c0.66 0.66 1.32 1.32 2 2h4c0.33 0.99 0.66 1.98 1 3l-2 1c0.66 1.65 1.32 3.3 2 5 1.32-0.66 2.64-1.32 4-2 4.67 5.11 4.35 9.62 4.14 16.4-0.0464 0.869-0.0928 1.74-0.141 2.63 0.976-2.93 1.08-4.96 1-8 0.99 0.33 1.98 0.66 3 1 0.33 2.31 0.66 4.62 1 7 0.66-0.33 1.32-0.66 2-1 1.06 1.81 1.06 1.81 2 4-0.33 0.99-0.66 1.98-1 3h2c2.43 3.64 2.16 5.71 2 10l2 1c-0.33 0.99-0.66 1.98-1 3-0.33-0.33-0.66-0.66-1-1-0.33 0.66-0.66 1.32-1 2h3c-0.0232 0.603-0.0464 1.21-0.0703 1.83-0.018 0.799-0.0361 1.6-0.0547 2.42-0.0232 0.789-0.0464 1.58-0.0703 2.39 0.212 2.57 0.909 4.15 2.2 6.36h8c0 3.77-0.235 4.91-2 8-0.33-1.32-0.66-2.64-1-4h-3v10h5v3h5c0.195 6.05 0.195 6.05 0 8-0.66 0.66-1.32 1.32-2 2-0.33-0.66-0.66-1.32-1-2 0.33 0.99 0.66 1.98 1 3h2c-0.33 3.96-0.66 7.92-1 12 1.32 0.66 2.64 1.32 4 2v13h1c0.0272 1.42 0.0465 2.83 0.0625 4.25 0.0116 0.789 0.0232 1.58 0.0352 2.39-0.0977 2.36-0.0977 2.36-0.664 4.41-0.527 2.37-0.062 3.61 0.566 5.95 0.199 2.48 0.362 4.96 0.5 7.44 0.289 5.27 0.289 5.27 1.09 10.5 0.134 0.69 0.268 1.38 0.406 2.09-0.33 0.33-0.66 0.66-1 1 0.00595 2.17 0.0556 4.33 0.125 6.5 0.049 4.42 0.00371 7.97-1.69 12.1-2.31 5.69-1.2 11.5-0.438 17.4 0.99 0.33 1.98 0.66 3 1 1.23 5.4 1.23 5.4 0.125 8.31-1.12 1.69-1.12 1.69-2.12 2.69 0.351 1.03 0.701 2.06 1.06 3.12 0.953 3.94 0.782 5.99-0.0625 9.88-0.0362 1.67-0.049 3.33 0 5 1.32 0.33 2.64 0.66 4 1-0.106 0.924-0.106 0.924-0.215 1.87-0.625 5.77-0.927 11.4-0.906 17.2-8.54e-4 0.858-0.00171 1.72-0.00259 2.6-0.00163 2.84 0.00383 5.69 0.00932 8.53 2.82e-4 2.05 1.23e-4 4.1-4.43e-4 6.15-2.86e-4 5.54 0.00558 11.1 0.0126 16.6 0.00627 5.8 0.00684 11.6 0.00803 17.4 0.0031 11 0.0113 22 0.0213 32.9 0.0112 12.5 0.0167 25 0.0217 37.5 0.0104 25.7 0.028 51.4 0.0503 77.1h2c-0.0872 1.94-0.195 3.88-0.312 5.81-0.058 1.08-0.116 2.16-0.176 3.27-0.555 3.16-1.05 3.99-3.51 5.92-0.66 0.66-1.32 1.32-2 2-0.0207 3.03-0.0207 3.03 0.375 6.44 0.625 6.5 0.625 6.5 0.625 9.56 0.0232 0.81 0.0464 1.62 0.0703 2.45 0.11 5.62-0.307 10.2-2.07 15.5-0.794 4.65-1.12 9.1-1.1 13.8 0.00322 1.24 0.00645 2.48 0.00977 3.76 0.00838 1.28 0.0168 2.55 0.0254 3.87 0.00677 1.96 0.00677 1.96 0.0137 3.95 0.0117 3.2 0.0282 6.41 0.0488 9.61 1.65-0.66 3.3-1.32 5-2 1 1 1 1 1.12 3.94-0.125 3.06-0.125 3.06-1.12 5.06h-2c0.33-1.65 0.66-3.3 1-5h-2c-0.68 2-1.34 4-2 6-0.247 0.742-0.495 1.48-0.75 2.25-0.0825 0.578-0.165 1.16-0.25 1.75 0.66 0.66 1.32 1.32 2 2 0.0329 1.94 0.0571 3.88 0.00391 5.82-0.00563 3.13 0.481 6.09 0.996 9.18h-2c-0.0269 1.48-0.0463 2.96-0.0625 4.44-0.0174 1.24-0.0174 1.24-0.0352 2.5-0.135 2.06-0.135 2.06 1.1 3.07v-6h1c0.0543 1.75 0.0929 3.5 0.125 5.25 0.0232 0.975 0.0464 1.95 0.0703 2.95-0.197 2.82-0.75 4.41-2.2 6.8h-2c0.206 0.908 0.412 1.82 0.625 2.75 0.388 3.36 0.179 4.49-1.62 7.25-0.33-1.65-0.66-3.3-1-5-0.0374 0.603-0.0748 1.21-0.113 1.83-0.0986 1.2-0.0986 1.2-0.199 2.42-0.087 1.18-0.087 1.18-0.176 2.39-0.512 2.36-0.512 2.36-2.05 4.32-1.91 2.67-1.71 4.24-1.52 7.48 0.226 4.16-0.276 6.75-1.94 10.6-0.381 2.33-0.725 4.66-1 7h-2v5c-0.99 0.33-1.98 0.66-3 1-0.733 2.02-0.733 2.02-1 4h2v2h-2c-0.33 0.99-0.66 1.98-1 3-2.06 0.688-2.06 0.688-4 1 0.206 0.598 0.412 1.2 0.625 1.81 0.375 2.19 0.375 2.19-1.62 5.19-0.289 1.18-0.577 2.35-0.875 3.56-1.12 3.44-1.12 3.44-3.06 4.44-0.681 0.33-1.36 0.66-2.06 1-1.27 2.27-2.09 4.55-3 7-1.65-0.33-3.3-0.66-5-1 1.73-5.83 3.97-11.1 6.74-16.5 3.55-6.93 6.12-13.9 8.33-21.3 0.604-2.02 1.24-4.04 1.92-6.04 1.15-3.51 2.11-7.06 3.01-10.6 0.174-0.692 0.349-1.38 0.529-2.1 1.37-5.58 2.32-11.2 3.08-16.9 0.395-2.48 0.395-2.48 1.39-4.48 0.201-2.3 0.346-4.6 0.465-6.91 0.0785-1.4 0.157-2.79 0.236-4.19 0.12-2.21 0.237-4.41 0.348-6.62 0.109-2.13 0.23-4.25 0.353-6.38 0.067-1.28 0.134-2.55 0.203-3.87 0.395-3.04 0.395-3.04 2.39-5.04 0.14-2.96 0.161-5.82 0.0977-8.77-0.02-1.83-0.038-3.66-0.0542-5.48-0.00973-0.948-0.0195-1.9-0.0295-2.87-0.0354-7.26 0.181-14.5 0.358-21.8 0.0667-2.77 0.126-5.54 0.184-8.31 0.0419-1.77 0.0842-3.54 0.127-5.31 0.0167-0.824 0.0334-1.65 0.0506-2.5 0.151-5.74 0.151-5.74 1.27-7.96 0.0939-1.46 0.126-2.93 0.126-4.4 0.00261-0.931 0.00522-1.86 0.0079-2.82-0.00223-1.03-0.00446-2.06-0.00676-3.12 0.00156-1.09 0.00312-2.18 0.00473-3.3 0.00401-3.68 8.2e-4 -7.35-0.00232-11 0.00135-2.63 0.00313-5.25 0.00531-7.88 0.00446-6.42 0.00348-12.8 5.87e-4 -19.3-0.00226-5.23-0.00256-10.5-0.00148-15.7 2.3e-4 -1.12 2.3e-4 -1.12 4.64e-4 -2.26 3.2e-4 -1.51 6.44e-4 -3.03 9.73e-4 -4.54 0.00286-14.2-4.32e-4 -28.5-0.0058-42.7-0.00444-12.1-0.00372-24.3 9.19e-4 -36.4 0.00539-14.1 0.00743-28.3 0.00439-42.4-3.18e-4 -1.52-6.33e-4 -3.04-9.43e-4 -4.55-1.54e-4 -0.747-3.09e-4 -1.49-4.68e-4 -2.26-8.54e-4 -5.19 5.92e-4 -10.4 0.00295-15.6 0.0699-43.4 0.0699-43.4-1.14-86.8-0.0447-1.06-0.0894-2.11-0.135-3.2-0.222-5.21-0.463-10.4-0.74-15.6-0.13-2.47-0.253-4.93-0.375-7.4-0.0829-1.61-0.166-3.21-0.25-4.82-0.0354-0.719-0.0709-1.44-0.107-2.18-0.218-3.99-0.712-7.84-1.39-11.8-0.169-1.94-0.312-3.88-0.43-5.82-0.107-1.65-0.107-1.65-0.217-3.34-0.0753-1.16-0.151-2.32-0.228-3.52-0.987-20.1-0.987-20.1-6.04-39.5-1.43-3.69-2.38-7.46-3.39-11.3-3.23-11.9-7.61-22.7-13.3-33.6-1.36-2.9-1.36-2.9-1.36-5.9h-2c-0.291-0.568-0.583-1.14-0.883-1.72-2.55-4.8-5.21-8.84-8.98-12.8-1.14-1.51-1.14-1.51-1.14-4.51h-2c-1.66-1.61-1.66-1.61-3.5-3.75-0.608-0.696-1.22-1.39-1.84-2.11-1.66-2.14-1.66-2.14-2.75-4.34-1.19-2.35-2.59-2.68-4.91-3.8-0.33-0.99-0.66-1.98-1-3-0.577-0.289-1.15-0.577-1.75-0.875-3.01-1.51-4.87-3.75-7.25-6.12-12.8-10.6-28-20.4-43.8-25.3-2.81-0.889-5.55-1.94-8.3-2.99-1.75-0.651-3.52-1.24-5.3-1.82-2.56-0.875-2.56-0.875-3.56-1.88-2.12-0.49-4.25-0.926-6.39-1.34-0.98-0.191-0.98-0.191-1.98-0.385-1.39-0.27-2.79-0.538-4.18-0.804-2.08-0.398-4.17-0.804-6.25-1.21-7.85-1.52-15.7-2.81-23.6-3.83-2.59-0.427-2.59-0.427-3.59-1.43-2.84-0.221-5.67-0.381-8.52-0.5-0.878-0.0403-1.76-0.0807-2.66-0.122-2.88-0.131-5.75-0.254-8.63-0.378-1.96-0.0875-3.93-0.175-5.89-0.263-15.1-0.67-30.2-1.26-45.3-1.74v-1c9.9-0.495 9.9-0.495 20-1-0.99-0.66-1.98-1.32-3-2 2.82-0.941 4.14-1.07 7.01-0.879l2.29 0.146c0.786 0.0561 1.57 0.112 2.38 0.17 0.797 0.0522 1.59 0.104 2.42 0.158 1.97 0.129 3.93 0.266 5.9 0.404 0.495 0.99 0.495 0.99 1 2l2-1v-1h5v-2c8.43-2.29 8.43-2.29 13-2 0.33-0.66 0.66-1.32 1-2zm185 220v9h1v-9h-1zm2 54 1 4zm-1 278 1 3zm-1 41v6h1v-6h-1zm-3 40 1 3z" fill="#183C93"/>
<path transform="translate(353,464)" d="m0 0c1.32 0.33 2.64 0.66 4 1-0.66 1.32-1.32 2.64-2 4h-2c0.217 0.615 0.433 1.23 0.656 1.86 0.278 0.808 0.557 1.62 0.844 2.45 0.278 0.801 0.557 1.6 0.844 2.43 0.656 2.26 0.656 2.26 0.656 5.26-0.624 0.0709-1.25 0.142-1.89 0.215-2.3 0.585-2.3 0.585-3.16 2.85-0.232 0.824-0.464 1.65-0.703 2.5-0.242 0.826-0.485 1.65-0.734 2.5-0.17 0.638-0.34 1.28-0.516 1.93h2v8c-0.66-0.66-1.32-1.32-2-2-0.66 1.32-1.32 2.64-2 4-0.33-0.99-0.66-1.98-1-3-0.433 0.928-0.866 1.86-1.31 2.81-1.69 3.19-1.69 3.19-3.22 4.47-2.2 2.58-2.23 5.09-2.66 8.41-0.159 1.18-0.317 2.36-0.48 3.57-0.164 1.36-0.164 1.36-0.332 2.74 0.66 0.33 1.32 0.66 2 1-0.99 1.98-1.98 3.96-3 6h-2v13h2c0.409 7.08-1.1 13.2-3 20h2v6c-1.49 0.495-1.49 0.495-3 1-0.693 1.99-1.36 3.99-2 6-0.536 0.474-1.07 0.949-1.62 1.44-2.26 2.56-1.56 5.3-1.38 8.56h3c-0.29 0.93-0.29 0.93-0.586 1.88-2.35 7.99-3.47 15.9-4.41 24.1h-2c-0.168 4.95-0.201 8.46 2 13v1c0.167 0.584 0.335 1.17 0.508 1.77 0.537 2.43 0.516 4.43 0.371 6.91-0.0483 0.917-0.0967 1.83-0.146 2.78-0.0561 0.981-0.112 1.96-0.17 2.97-0.454 8.84-0.614 17.6-0.541 26.5 0.0274 5.28-0.272 10.4-0.87 15.7-0.169 2.7 0.0539 5.18 0.348 7.87 0.538 5.24 0.372 10.2 0.0393 15.5-0.663 11.8-0.68 23.5-0.669 35.3-0.00136 2.36-0.00314 4.72-0.00531 7.08-0.00452 6.35-0.00281 12.7 3.79e-4 19 0.00229 5.98 5.34e-4 12-9.27e-4 18-0.00284 12.6 4.05e-4 25.1 0.0058 37.7 0.00448 10.8 0.00368 21.5-9.19e-4 32.3-0.00535 12.5-0.00746 25.1-0.00439 37.6 0.00158 6.62 0.00177 13.2-0.00154 19.9-0.00288 6.21-8.98e-4 12.4 0.00489 18.6 0.00133 2.28 9.38e-4 4.56-0.00126 6.85-0.00272 3.11 6.8e-4 6.21 0.00568 9.32-0.00223 0.909-0.00446 1.82-0.00676 2.75 0.00261 0.832 0.00522 1.66 0.0079 2.52 2.44e-4 1.08 2.44e-4 1.08 4.92e-4 2.17 0.132 2.11 0.578 3.97 1.13 6.01 0.477 7.34-0.0986 14.9-2 22h-2v11c0.99 0.33 1.98 0.66 3 1 0.875 1.88 0.875 1.88 1 4-1.44 1.75-1.44 1.75-3 3 0.33 0.66 0.66 1.32 1 2h-2c-0.66 1.32-1.32 2.64-2 4-3-2-3-2-3.67-3.65-0.466-3.3-0.568-6.58-0.644-9.91-0.0205-0.773-0.0409-1.55-0.062-2.34-0.0664-2.62-0.124-5.25-0.18-7.87-0.021-0.931-0.0419-1.86-0.0635-2.82-0.582-26.5-0.53-53-0.518-79.4 0.00232-5.22 0.00256-10.4 0.00148-15.7-1.53e-4 -0.756-3.06e-4 -1.51-4.64e-4 -2.29-3.2e-4 -1.54-6.44e-4 -3.07-9.73e-4 -4.61-0.00282-14.3 3.81e-4 -28.5 0.0058-42.8 0.00446-12.1 0.00369-24.2-9.19e-4 -36.4-0.00541-14.2-0.00743-28.5-0.00439-42.7 3.18e-4 -1.53 6.33e-4 -3.06 9.43e-4 -4.59 1.54e-4 -0.752 3.09e-4 -1.5 4.68e-4 -2.28 8.47e-4 -5.19-5.81e-4 -10.4-0.00295-15.6-0.011-26.8-0.00684-53.6 0.52-80.4 0.0151-0.889 0.0303-1.78 0.0459-2.69 0.177-9.94 0.702-19.7 1.88-29.6 0.792-6.69 0.896-13.3 0.757-20-0.0342-2.16-0.0644-4.32-0.0898-6.48-0.018-0.921-0.0359-1.84-0.0544-2.79 0.0818-2.11 0.0818-2.11 1.08-3.11 0.216-1.9 0.371-3.81 0.5-5.71 0.0825-1.16 0.165-2.32 0.25-3.52 0.0825-1.22 0.165-2.45 0.25-3.71 0.163-2.41 0.329-4.81 0.5-7.21 0.108-1.61 0.108-1.61 0.219-3.25 0.281-2.6 0.281-2.6 1.28-4.6 0.274-2.49 0.445-4.99 0.621-7.49 0.379-2.51 0.379-2.51 1.36-4.41 1.41-2.88 1.59-5.61 1.96-8.79 0.763-5.79 2.05-10.9 4.06-16.3 0.351-1.24 0.701-2.48 1.06-3.75 0.825-2.86 1.82-5.49 2.94-8.25 1.96-5.59 3.67-11.2 5.25-16.9 0.746-2.07 0.746-2.07 2.75-4.07 0.47-1.46 0.878-2.95 1.25-4.44 1.71-6.04 4.64-11.1 7.75-16.6 0.677-1.33 1.35-2.66 2-4zm-21 52 1 3zm-8 33v7h1v-7h-1zm-5 39 1 3z" fill="#183C93"/>
<path transform="translate(579,696)" d="m0 0c0.33 0.66 0.66 1.32 1 2 0.99 0.33 1.98 0.66 3 1-0.792 6.73-2.75 12-6.02 17.8-1.06 2.36-1.41 4.29-1.67 6.86-0.0864 0.788-0.173 1.58-0.262 2.39-0.0168 0.636-0.0335 1.27-0.0508 1.93 0.495 0.495 0.495 0.495 1 1 0.0417 1.67 0.0417 3.33 0 5v1c0.66 0.66 1.32 1.32 2 2-1.12 2-1.12 2-3 4h-6c-0.33 4.29-0.66 8.58-1 13h-2v27c-0.66-0.66-1.32-1.32-2-2v10c-1.49 0.495-1.49 0.495-3 1l-1 2c1.49-0.495 1.49-0.495 3-1v3h-4v37h2c0.667 2.67 1.33 5.33 2 8h-1c-0.0682 3.89-0.101 7.42 0.562 11.2 0.621 5.32 0.00422 10.4-0.562 15.8 1.32-0.33 2.64-0.66 4-1 0.33 0.66 0.66 1.32 1 2 2.02 0.652 2.02 0.652 4 1v6h-2c0.66 1.98 1.32 3.96 2 6h3c0.289 0.784 0.577 1.57 0.875 2.38 0.974 2.72 0.974 2.72 3.12 4.62-0.99 1.98-0.99 1.98-2 4 0.66 0.33 1.32 0.66 2 1h-2v13h6v2c0.66 0.33 1.32 0.66 2 1 0 2 0 2-0.562 4.06-0.144 0.639-0.289 1.28-0.438 1.94 0.33 0.33 0.66 0.66 1 1 0.144 1.15 0.289 2.31 0.438 3.5 0.186 1.15 0.371 2.31 0.562 3.5 0.66 0.33 1.32 0.66 2 1 0.33-0.66 0.66-1.32 1-2h2c0.33 0.99 0.66 1.98 1 3-0.33 0.66-0.66 1.32-1 2h2v2c0.66 0.33 1.32 0.66 2 1h-3c0.33 1.32 0.66 2.64 1 4 1.32 0.33 2.64 0.66 4 1v3h2v-3c0.99 0.33 1.98 0.66 3 1v3h-2v11c2.48-0.99 2.48-0.99 5-2v3h2c0.228 1.99 0.456 3.97 0.684 5.96 0.288 2.24 0.288 2.24 1.32 5.04h2c0.33-0.66 0.66-1.32 1-2 2.5 1.19 2.5 1.19 5 3 0.312 2.69 0.312 2.69 0 5 1.32 0.66 2.64 1.32 4 2-0.99 0.33-1.98 0.66-3 1v2c3.05 1.01 3.05 1.01 6 0 0.33 1.65 0.66 3.3 1 5h5c0.0825 0.949 0.165 1.9 0.25 2.88 0.247 1.03 0.495 2.06 0.75 3.12 1.97 1.15 1.97 1.15 4 2 0.75 2.12 0.75 2.12 1 4 1.65-0.33 3.3-0.66 5-1v3h3c1.29 1.29 2.55 2.62 3.75 4 2.16 2.21 2.16 2.21 5.25 2.88 3.97 1.49 4.99 3.48 7 7.12l1 3c0.784 0.144 1.57 0.289 2.38 0.438 2.62 0.562 2.62 0.562 4.62 1.56v2c0.743-0.186 1.49-0.371 2.25-0.562 2.81-0.447 4.19-0.634 6.75 0.562 2.62 3.37 3.36 5.76 3 10 2.97 0.66 5.94 1.32 9 2v2c1.28 0.193 2.55 0.387 3.87 0.586 1.67 0.263 3.34 0.526 5.01 0.789 1.26 0.189 1.26 0.189 2.55 0.383l2.44 0.391c0.744 0.115 1.49 0.23 2.25 0.349 1.88 0.502 1.88 0.502 3.88 2.5 2.71 1.35 4.29 2.11 7.31 1.62 0.557-0.206 1.11-0.412 1.69-0.625v2c1.07 0.124 2.14 0.247 3.25 0.375 3.23 0.538 4.99 1.06 7.75 2.62 0.846 0.309 1.69 0.619 2.56 0.938 2.44 1.06 2.44 1.06 3.78 2.55 2.15 1.95 3.82 2.2 6.66 2.7 0.866 0.159 1.73 0.317 2.62 0.48 2.47 0.401 2.47 0.401 5.38 0.332 1.22 0.33 2.43 0.66 3.69 1 2.92 0.766 5.49 1.11 8.5 1.06 4.95-0.0811 8.49 0.536 12.8 2.94-0.66 0.33-1.32 0.66-2 1 3.61 2.41 6.6 2.75 10.8 3.44 0.719 0.186 1.44 0.371 2.18 0.562 0.33 0.66 0.66 1.32 1 2v-4c1.14-0.049 2.29-0.098 3.46-0.148 1.49-0.075 2.98-0.151 4.47-0.227 1.13-0.0464 1.13-0.0464 2.29-0.0938 1.93-0.104 3.85-0.31 5.78-0.531 0.33-0.66 0.66-1.32 1-2h8v2h2v-2h4c-0.33 0.99-0.66 1.98-1 3-2.06 0.688-2.06 0.688-4 1 0.99 0.66 1.98 1.32 3 2v2c1.65 0.33 3.3 0.66 5 1-0.33 0.66-0.66 1.32-1 2-5.79 0.0753-11.6 0.129-17.4 0.165-1.96 0.0149-3.93 0.0352-5.89 0.0615-12.8 0.168-25.2-0.329-37.7-3.23-0.33-0.33-0.66-0.66-1-1-1.47-0.208-2.95-0.367-4.44-0.5-4.34-0.39-4.34-0.39-6.56-1.5-1.26-0.103-2.52-0.206-3.81-0.312-8.81-0.897-17.1-4.13-25.2-7.69-1.35-0.425-2.71-0.841-4.06-1.25-4.86-1.56-9.31-3.87-13.8-6.19-3.17-1.62-6.31-3.11-9.67-4.31-3.18-1.15-5.58-2.49-8.44-4.25-1.94-1.13-3.87-2.25-5.81-3.38-2.06-1.21-4.13-2.41-6.19-3.62-0.844-0.494-1.69-0.987-2.56-1.5-1.85-1.11-3.65-2.3-5.44-3.5v-2c-0.687-0.224-1.37-0.449-2.08-0.68-3.64-1.65-6.53-3.95-9.61-6.45-0.613-0.491-1.23-0.981-1.86-1.49-1.24-0.992-2.48-1.99-3.71-2.98-1.56-1.26-3.13-2.49-4.71-3.73-4.28-3.37-8.22-6.79-12-10.7-1.28-1.24-1.28-1.24-2.58-2.51-5.52-5.41-10.6-10.9-15.4-17-1.76-2.19-3.57-4.29-5.45-6.38-2.21-2.54-3.58-4.87-4.56-8.12h-2c-1.51-1.86-1.51-1.86-3.12-4.31-0.539-0.801-1.08-1.6-1.63-2.43-1.24-2.26-1.24-2.26-1.24-5.26h-2c-0.495-2.48-0.495-2.48-1-5h-2c-6.36-8.6-10.3-19-14.1-28.9-0.92-2.33-0.92-2.33-2.89-5.09-3.95-8.54-6.82-17.3-9.31-26.4-0.254-0.914-0.509-1.83-0.771-2.77-1.33-4.98-2.28-9.82-2.74-15-0.221-2.34-0.662-4.6-1.18-6.89h-1c-2.25-13.2-2.28-26.3-2.21-39.7 0.0185-3.67 0.0205-7.35 0.0203-11 0.00491-2.34 0.0107-4.67 0.0176-7.01 0.00111-1.1 0.00223-2.2 0.00337-3.33 0.00638-1.01 0.0128-2.02 0.0193-3.06 0.00381-0.889 0.00762-1.78 0.0116-2.69 0.134-2.14 0.134-2.14 1.13-4.14 0.182-2.23 0.321-4.46 0.438-6.69 0.33-5.07 0.95-9.47 2.56-14.3 0.326-1.43 0.637-2.87 0.938-4.31 0.91-4.22 2.1-8.31 3.38-12.4 0.628-2.08 1.17-4.15 1.68-6.26 2.04-7.62 4.89-14.8 8-22 1.27-3.1 2.53-6.2 3.79-9.31 1.22-2.71 2.67-5.16 4.21-7.69 0.696-2.19 0.696-2.19 1-4zm-24 73 1 2zm-1 73 1 3z" fill="#183C93"/>
<path transform="translate(318,1006)" d="m0 0c3 1 3 1 5 4 0.125 3.19 0.125 3.19 0 6h2v-7h1c0.0606 0.675 0.121 1.35 0.184 2.05 0.0838 0.892 0.168 1.78 0.254 2.7 0.0812 0.882 0.162 1.76 0.246 2.67 0.239 2.54 0.239 2.54 0.977 4.78 0.112 0.593 0.224 1.19 0.34 1.8-0.66 0.66-1.32 1.32-2 2-0.205 1.91-0.205 1.91-0.0625 4 0.161 3.8 0.161 3.8-0.938 6 0.144 0.722 0.289 1.44 0.438 2.19 0.663 3.32 0.629 6.44 0.562 9.81h2c4.78 7.17 3.42 16.8 2 25h2c-0.309-1.42-0.309-1.42-0.625-2.88-0.124-1.03-0.248-2.06-0.375-3.12 0.66-0.66 1.32-1.32 2-2 0.124 1.11 0.248 2.23 0.375 3.38 0.272 3.66 0.272 3.66 2.62 5.62 0.125 3.12 0.125 3.12 0 6h-3c0.33 0.99 0.66 1.98 1 3h5v-3c0.66 0.33 1.32 0.66 2 1v4h-6c-0.418 2.37-0.418 2.37 0 5 0.825 0.412 1.65 0.825 2.5 1.25 1.24 0.866 1.24 0.866 2.5 1.75 0.336 2.31 0.252 4.42 0.0781 6.75-0.0796 2.3 0.263 4.06 0.922 6.25h3c-0.33 1.65-0.66 3.3-1 5h-2v3c1.49 0.495 1.49 0.495 3 1h-2v7c1.32 0.66 2.64 1.32 4 2h-2v2h3c0.11 0.615 0.219 1.23 0.332 1.86 0.159 0.808 0.317 1.62 0.48 2.45 0.151 0.801 0.302 1.6 0.457 2.43 0.814 2.52 1.81 3.5 3.73 5.26 0.144 0.681 0.289 1.36 0.438 2.06 0.186 0.639 0.371 1.28 0.562 1.94 1.32 0.684 2.66 1.35 4 2 1.97 3.06 2.9 6.55 4 10h3c1.51 4.54 2.1 7.37 1 12 0.377 2.73 0.377 2.73 1 5 0.99-0.33 1.98-0.66 3-1 0.248 0.722 0.495 1.44 0.75 2.19 1.13 2.9 1.13 2.9 3.31 5.19 2.37 3.21 2.63 5.69 2.94 9.62 0.33-0.66 0.66-1.32 1-2-0.33-0.99-0.66-1.98-1-3 0.33-0.99 0.66-1.98 1-3 0.99 0.33 1.98 0.66 3 1-0.33 0.99-0.66 1.98-1 3 2.08 6.23 5.18 11.5 10 16 3.19 1.48 3.19 1.48 6 2-0.33 0.99-0.66 1.98-1 3 0.66 0.33 1.32 0.66 2 1v2c0.835 0.186 0.835 0.186 1.69 0.375 2.6 0.703 4.91 1.39 7.31 2.62 0.688 2.06 0.688 2.06 1 4 0.66 0.33 1.32 0.66 2 1 1.12 2.06 1.12 2.06 2 4h4c0.33 0.99 0.66 1.98 1 3-0.33 0.66-0.66 1.32-1 2 0.99-0.33 1.98-0.66 3-1v3c1.64 0.155 1.64 0.155 3.31 0.312 3.71 0.692 4.41 0.959 6.69 3.69 0.99 0.33 1.98 0.66 3 1 0.495 3.46 0.495 3.46 1 7h2c4.71 0.706 4.71 0.706 7 3 2.05 0.801 4.12 1.46 6.22 2.12 0.587 0.29 1.17 0.58 1.78 0.879 0.33 0.99 0.66 1.98 1 3h3c0.66-1.32 1.32-2.64 2-4 0.66 0.99 1.32 1.98 2 3h-2v2h2v3c1.01-0.0619 2.02-0.124 3.06-0.188 4.61 0.219 6.92 0.982 10.9 3.19 0.302 0.651 0.603 1.3 0.914 1.97 1.44 2.69 2.85 3.11 5.65 4.21 5.04 2.03 5.04 2.03 6.44 4.81 0.953-0.0348 1.91-0.0696 2.89-0.105 1.25-0.0271 2.51-0.0541 3.8-0.082 1.24-0.0348 2.48-0.0696 3.76-0.105 3.75 0.309 5.62 0.977 8.55 3.29v2c2.17-0.506 4-1 6-2v2c1.26 0.268 2.52 0.536 3.81 0.812 3.36 0.82 4.8 1.69 7.19 4.19 1.18-0.0309 1.18-0.0309 2.38-0.0625 3.63 0.0865 5.07 1.59 7.62 4.06v2h4v-3c8.79-0.447 16.9 1.26 25.2 4.09 2.78 0.905 4.89 1.08 7.79 0.906v4c-2.31-0.33-4.62-0.66-7-1-0.33 0.66-0.66 1.32-1 2 1.62 0.195 3.25 0.381 4.88 0.562 0.905 0.104 1.81 0.209 2.74 0.316 2.4 0.318 2.4 0.318 4.38-0.879 0.66 0.33 1.32 0.66 2 1-0.33-0.99-0.66-1.98-1-3 1.32-0.33 2.64-0.66 4-1 0.33 1.32 0.66 2.64 1 4h4c-0.33-1.65-0.66-3.3-1-5 2.36-1.18 3.53-1.04 6.13-0.879l2.44 0.146c0.842 0.0561 1.68 0.112 2.55 0.17 0.849 0.0522 1.7 0.104 2.57 0.158 2.1 0.13 4.2 0.266 6.3 0.404 0.33 0.99 0.66 1.98 1 3 1.98 0.33 3.96 0.66 6 1v1c-1.98 0.33-3.96 0.66-6 1v1c-5.2 2.1-9.79 2.38-15.3 2.38-0.928-1.61e-4 -1.86-3.22e-4 -2.81-4.88e-4 -9.11-0.139-18.1-1.14-27.1-2.25-0.708-0.087-1.42-0.174-2.15-0.263-10.1-1.26-19.9-2.62-29.6-5.86-2.22-0.49-4.44-0.918-6.68-1.34-8.62-1.65-16.3-3.91-24.3-7.66-2.7-1.13-5.23-2.06-8.06-2.81-18.9-5.32-38.7-16.5-54.3-28.2-3.52-2.63-7.17-5.07-10.8-7.51-0.594-0.477-1.19-0.954-1.8-1.45v-2c-0.547-0.229-1.09-0.459-1.66-0.695-3-1.67-5.36-3.84-7.84-6.18-0.819-0.764-0.819-0.764-1.65-1.54-5.49-5.17-10.9-10.5-16.2-15.8-0.844-0.831-1.69-1.66-2.56-2.52-13.9-13.9-13.9-13.9-15.1-20.3h-2c-1.6-2.09-3.06-4.17-4.5-6.38-0.437-0.662-0.874-1.32-1.32-2.01-4.79-7.37-9-15-13.2-22.8-0.875-1.57-1.83-3.1-2.81-4.62-1.21-2.23-1.21-2.23-1.21-6.23h-2c-1.27-3.31-2.54-6.62-3.81-9.94-0.356-0.926-0.713-1.85-1.08-2.81-2.18-5.71-4.22-11.4-6.11-17.3-0.585-1.74-1.17-3.49-1.75-5.23-2.98-9.04-5.78-17.7-6.92-27.2-0.42-3.3-1.36-6.36-2.32-9.55-1.83-7.57-2.54-15.1-3.06-22.9-0.154-2.21-0.312-4.41-0.473-6.62-0.0658-0.963-0.132-1.93-0.199-2.92-0.187-2.51-0.187-2.51-0.788-4.54-0.654-2.81-0.588-5.46-0.575-8.35 0.00322-1.21 0.00645-2.41 0.00977-3.65 0.00838-1.25 0.0168-2.51 0.0254-3.8 0.00451-1.27 0.00902-2.54 0.0137-3.85 0.0118-3.13 0.0282-6.27 0.0488-9.4zm6 63 1 3z" fill="#183C93"/>
<path transform="translate(841,635)" d="m0 0c2.38-0.188 2.38-0.188 5 0 0.66 0.99 1.32 1.98 2 3-0.33 0.99-0.66 1.98-1 3h-3c0.99 0.33 1.98 0.66 3 1l2-2c0.495 0.495 0.495 0.495 1 1 5.23-0.126 10.3-0.639 15-3 1.1 3.29 0.8 4.71 0 8 0.598-0.206 1.2-0.413 1.81-0.625 2.19-0.375 2.19-0.375 5.19 1.62v2c-0.66 0.33-1.32 0.66-2 1 2.64 0.33 5.28 0.66 8 1 0.495 2.48 0.495 2.48 1 5h2v-4-8h2c-0.33 2.31-0.66 4.62-1 7l4 1c-0.495 2.48-0.495 2.48-1 5h2v-7h-2v-6c2.35 2.55 2.98 3.71 3.19 7.25-0.0928 1.36-0.0928 1.36-0.188 2.75l4 1h-4v4l4 1v5h2v2h3v-3c3.81 0 7.25 0.306 11 1 2 2 2 2 2.12 5.12-0.0412 0.949-0.0825 1.9-0.125 2.88h2l2 6h-2v2l4 1c0.495 1.98 0.495 1.98 1 4 0.66-0.33 1.32-0.66 2-1 0.66 0.33 1.32 0.66 2 1v-2c1.49 0.495 1.49 0.495 3 1-0.495 0.99-0.495 0.99-1 2h-2v2c1.65 0.33 3.3 0.66 5 1 0.495 2.97 0.495 2.97 1 6h2c0.66 0.99 1.32 1.98 2 3 1.27 0.681 1.27 0.681 2.56 1.38 2.44 1.62 2.44 1.62 3.25 4.31 0.0619 0.763 0.124 1.53 0.188 2.31 1.65 0.33 3.3 0.66 5 1-0.33 2.31-0.66 4.62-1 7 0.784-0.0619 1.57-0.124 2.38-0.188 1.3 0.0928 1.3 0.0928 2.62 0.188 2 3 2 3 2 6 0.639 0.227 1.28 0.454 1.94 0.688 2.06 1.31 2.06 1.31 2.88 3.75 0.188 2.56 0.188 2.56-0.812 5.56 0.66 0.33 1.32 0.66 2 1-0.33 1.98-0.66 3.96-1 6 3.01 0.934 3.87 1.04 7 0-0.186 0.619-0.371 1.24-0.562 1.88-0.674 2.17-0.674 2.17 0.562 4.12 0.251 1.49 0.454 3 0.625 4.5 0.143 1.19 0.143 1.19 0.289 2.41 0.0859 2.09 0.0859 2.09-0.914 4.09 1.32-0.33 2.64-0.66 4-1 1.32 5.01 2.36 9.86 3 15h6c-0.33 0.66-0.66 1.32-1 2-0.0966 1.79-0.13 3.58-0.125 5.38-0.00258 0.956-0.00516 1.91-0.00781 2.9 0.119 2.45 0.227 4.45 1.13 6.73 0.99 0.33 1.98 0.66 3 1v2h2c0.95 3.7 0.95 6.3 0 10-3.75 1.12-3.75 1.12-6 0 0.522 1.9 0.522 1.9 1.05 3.84 1.2 5.42 0.768 10.3 0.0703 15.7-0.104 0.913-0.209 1.83-0.316 2.77-0.256 2.23-0.526 4.45-0.809 6.67h-3v2c0.66 0.33 1.32 0.66 2 1h-2c0.0116 0.606 0.0232 1.21 0.0352 1.84 0.0659 6.12-0.311 12.1-1.04 18.2h-2c-0.0271 1.44-0.0465 2.87-0.0625 4.31-0.0174 1.2-0.0174 1.2-0.0352 2.43 0.00108 2.43 0.00108 2.43 1.1 5.26-0.602 2.02-1.27 4.02-2 6-0.35 1.33-0.691 2.66-1 4-0.66-0.99-1.32-1.98-2-3-2.48 0.99-2.48 0.99-5 2 0.0348 0.626 0.0696 1.25 0.105 1.9 0.0271 0.817 0.0541 1.63 0.082 2.48 0.0348 0.812 0.0696 1.62 0.105 2.46-0.0967 0.714-0.193 1.43-0.293 2.16-0.99 0.66-1.98 1.32-3 2-0.79 1.95-0.79 1.95-1.19 4.12-0.268 1.28-0.536 2.56-0.812 3.88-1.32 0.33-2.64 0.66-4 1v-5c-0.66-0.33-1.32-0.66-2-1 0.596-1.9 1.2-3.79 1.81-5.69 0.336-1.06 0.673-2.11 1.02-3.2 1.12-2.98 2.48-5.42 4.17-8.11 3.6-8.55 6.09-17.6 6.69-26.9 0.309-2.13 0.309-2.13 1.31-4.65 1.3-4.54 1.31-8.73 1.3-13.4 0.00643-1.44 0.00643-1.44 0.013-2.9 0.00573-2.02 0.00625-4.05 0.00191-6.07-0.00314-3.05 0.0202-6.1 0.0457-9.16 0.0345-10.8-0.493-20.5-3.36-30.9-0.463-1.98-0.922-3.96-1.38-5.94-2.78-10.8-6.21-21.2-11.6-31.1-0.401-0.745-0.802-1.49-1.21-2.26-2.67-4.89-5.52-9.65-8.45-14.4-1.33-2.36-1.33-2.36-2.32-5.09-0.334-0.748-0.668-1.5-1.01-2.27-1.49-0.495-1.49-0.495-3-1-4-5.37-4-5.37-4-8-0.577-0.227-1.15-0.454-1.75-0.688-2.85-1.66-4.37-3.63-6.25-6.31v-2c-0.597-0.266-1.19-0.531-1.81-0.805-2.26-1.23-3.54-2.43-5.25-4.32-3.71-3.83-7.82-6.82-12.2-9.89-2.56-1.83-5.01-3.76-7.46-5.73-3.2-2.5-6.3-4.47-9.98-6.16-1.8-0.842-3.58-1.74-5.34-2.67-12.1-6.31-24.6-10.9-37.9-13.9-2.12-0.543-2.12-0.543-3.12-1.54-1.41-0.226-2.83-0.394-4.25-0.535-0.854-0.087-1.71-0.174-2.59-0.264-0.898-0.087-1.8-0.174-2.72-0.264-0.902-0.0909-1.8-0.182-2.73-0.275-2.23-0.225-4.47-0.445-6.71-0.662-0.33-0.99-0.66-1.98-1-3-2.64-0.33-5.28-0.66-8-1 1.75-3.88 1.75-3.88 4-5 6.34-0.758 12.7-1.37 19-0.375 4.1 0.604 6.51-0.272 10-2.62 0.33-0.66 0.66-1.32 1-2zm110 239 1 3z" fill="#183C93"/>
<path transform="translate(1015,516)" d="m0 0c0 3 0 3-1 5 1.65-0.99 3.3-1.98 5-3 0.312 2.25 0.312 2.25 0 5-2.44 2.12-2.44 2.12-5 4-1.23 3.69-0.644 6.21 0 10 0.66-0.33 1.32-0.66 2-1-0.333 2-0.667 4-1 6-0.165 1.05-0.33 2.1-0.5 3.19-0.5 2.81-0.5 2.81-1.5 5.81-0.38 2.22-0.731 4.45-1.06 6.69-0.177 1.18-0.353 2.36-0.535 3.57-0.133 0.904-0.266 1.81-0.402 2.74 2.48-0.495 2.48-0.495 5-1 0.0746 2.61 0.0271 4.88-0.562 7.44-0.525 3.08-0.0727 5.53 0.562 8.56h3c1.32 1.86 1.32 1.86 2.69 4.31 2.64 4.18 4.67 5.97 9.41 7.34 2.34 0.433 4.53 0.574 6.9 0.352v5c1.67 0.0427 3.33 0.0406 5 0 0.33-0.33 0.66-0.66 1-1-0.99-0.66-1.98-1.32-3-2 1.88-0.625 1.88-0.625 4-1l2 2c0.784-0.165 1.57-0.33 2.38-0.5 3.14-0.599 3.93-0.0975 6.62 1.5 1.66 0.68 3.33 1.35 5 2-0.66 0.66-1.32 1.32-2 2 0.33 0.66 0.66 1.32 1 2h-3c-0.495 1.98-0.495 1.98-1 4h4c0.33 0.66 0.66 1.32 1 2 0.99 0.495 0.99 0.495 2 1-13.9 0.864-25.9-2.52-36.8-11-0.585-0.438-1.17-0.877-1.77-1.33-4.29-3.3-4.29-3.3-5.42-6.67h-2c-6.32-6.96-12.8-16.7-13.1-26.4 0.266-1.93 0.266-1.93 1.08-4.62h-2c-1.59-8.31-0.544-15.9 2-24 0.66-0.33 1.32-0.66 2-1 0.73-2.11 0.73-2.11 1.31-4.62 1.4-5.03 3.43-8.32 6.69-12.4z" fill="#183C92"/>
<path transform="translate(418,487)" d="m0 0c0.99 0.33 1.98 0.66 3 1 0.99-0.33 1.98-0.66 3-1 0.413 0.495 0.825 0.99 1.25 1.5 1.87 1.93 1.87 1.93 5.75 1.5 0.143 7.43 0.143 7.43-1 11h-2c-0.33 0.66-0.66 1.32-1 2v-2h-2l-2-2h-2l3 3c-0.308 0.566-0.616 1.13-0.934 1.71-1.08 2.31-1.63 4.36-2.13 6.85-0.526 2.58-1.1 4.93-1.94 7.44h-2c0.33 0.99 0.66 1.98 1 3-0.619 0.454-1.24 0.908-1.88 1.38-2.69 3.33-2.94 6.06-3.62 10.2-0.606 2.91-1.75 5.03-3.5 7.42 1.49-0.495 1.49-0.495 3-1 0.99 0.33 1.98 0.66 3 1-0.224 0.87-0.224 0.87-0.453 1.76-0.846 3.47-1.46 6.98-2.11 10.5-0.139 0.745-0.277 1.49-0.42 2.26-0.34 1.83-0.679 3.66-1.02 5.49-2.13-3.19-2.5-5.27-3-9-3.46 0.495-3.46 0.495-7 1v-3h2v-3c-0.33 0.66-0.66 1.32-1 2h-2c-0.33 0.66-0.66 1.32-1 2v-5h2v-2h2v-5h2v-2c-0.66-0.33-1.32-0.66-2-1h2v-5c1.32-0.66 2.64-1.32 4-2-0.351-0.577-0.701-1.15-1.06-1.75-1.09-2.61-0.868-3.64 0.0625-6.25h3c-0.0232-0.739-0.0464-1.48-0.0703-2.24-0.128-7.17 0.527-13.8 2.07-20.8 0.99-0.33 1.98-0.66 3-1 1.31-3.17 2-5.56 2-9z" fill="#183C93"/>
<path transform="translate(980,1285)" d="m0 0c1.48 0.423 2.96 0.864 4.44 1.31 0.824 0.244 1.65 0.487 2.5 0.738 1.02 0.47 1.02 0.47 2.07 0.949 1.04 3.13 0.934 3.99 0 7-6.46 0.725-12.9 1.17-19.3 1.28-1.31 0.0269-1.31 0.0269-2.65 0.0543-2.85 0.0565-5.71 0.106-8.56 0.153-0.98 0.0164-1.96 0.0327-2.97 0.0496-5.17 0.0845-10.3 0.162-15.5 0.236-4.28 0.0621-8.55 0.139-12.8 0.228-5.18 0.108-10.4 0.191-15.5 0.256-1.97 0.029-3.94 0.0666-5.91 0.113-2.75 0.0627-5.49 0.0941-8.24 0.118-0.815 0.0258-1.63 0.0515-2.47 0.078-2.26 2.9e-4 -2.26 2.9e-4 -5.97-0.57-2.03-2.53-2.03-2.53-3-5 2.65-1.33 4.67-1.13 7.64-1.13 1.15-0.00129 2.31-0.00258 3.49-0.00391 1.21 0.00387 2.42 0.00773 3.67 0.0117 1.17-0.00387 2.34-0.00773 3.54-0.0117 21.4 0.0237 21.4 0.0237 25.6 2.14v-2h-7v-1c5.97-1.33 11.9-1.09 18-1v2c1.65-0.33 3.3-0.66 5-1-0.66-0.66-1.32-1.32-2-2 1.79-0.168 3.58-0.334 5.38-0.5 0.998-0.0928 2-0.186 3.02-0.281 2.6-0.219 2.6-0.219 4.6-0.219v2c-0.99 0.33-1.98 0.66-3 1v2c2.88 0.0271 5.75 0.0469 8.62 0.0625 0.808 0.00838 1.62 0.0168 2.45 0.0254 4.41 0.0179 8.62-0.0342 12.9-1.09 0.66-0.66 1.32-1.32 2-2v-3-1z" fill="#183C93"/>
<path transform="translate(609,1287)" d="m0 0h7c0.33 0.66 0.66 1.32 1 2 0.33-0.33 0.66-0.66 1-1 2.19-0.0726 4.38-0.0837 6.56-0.0625 1.8 0.0135 1.8 0.0135 3.63 0.0273 0.927 0.0116 1.85 0.0232 2.81 0.0352v2h2v-2h6c-0.33 0.99-0.66 1.98-1 3h-3c5.51 2.48 8.42 1.58 14 0 0.66 0.33 1.32 0.66 2 1-0.66-0.66-1.32-1.32-2-2-0.495-0.99-0.495-0.99-1-2 1.81 0.114 3.63 0.241 5.44 0.375 1.01 0.0696 2.02 0.139 3.06 0.211 1.24 0.205 1.24 0.205 2.5 0.414 0.495 0.99 0.495 0.99 1 2 0.583-0.0116 1.17-0.0232 1.77-0.0352 4.66-0.0513 9.22 0.0839 13.9 0.535 7.46 0.691 14.9 0.585 22.4 0.5 0.33-1.32 0.66-2.64 1-4h5c0.124 0.619 0.247 1.24 0.375 1.88 0.497 2.32 0.497 2.32 2.62 4.12v2c-10.7 0.0466-21.4 0.082-32.1 0.104-4.97 0.0104-9.95 0.0244-14.9 0.0473-4.81 0.0219-9.62 0.0337-14.4 0.0389-1.82 0.00366-3.65 0.0108-5.47 0.0217-10.6 0.0604-20.6-0.317-31-2.21 0.66-0.33 1.32-0.66 2-1-0.66-0.99-1.32-1.98-2-3v-3z" fill="#183C93"/>
<path transform="translate(1045,852)" d="m0 0c1.13 3.4 0.85 5.74 0.0742 9.21-0.22 0.998-0.44 2-0.666 3.02-0.357 1.55-0.357 1.55-0.721 3.14-0.226 1.03-0.452 2.06-0.686 3.12-1.1 4.94-2.29 9.74-4 14.5-0.433 1.29-0.862 2.58-1.29 3.87-1.24 3.71-2.47 7.42-3.71 11.1-1.65-0.33-3.3-0.66-5-1-0.33 0.99-0.66 1.98-1 3-2.48 0.908-4.34 1-7 1-0.842-6.93-1.26-12.4 1-19-0.33-0.99-0.66-1.98-1-3 0.99-0.33 1.98-0.66 3-1 0.0425 2 0.0408 4 0 6l-1 1v1c3.25-1.72 3.25-1.72 4-5-0.66-0.33-1.32-0.66-2-1 0.99-0.66 1.98-1.32 3-2 0.58-2.19 0.58-2.19 0.688-4.62 0.0657-0.817 0.131-1.63 0.199-2.48 0.0374-0.626 0.0748-1.25 0.113-1.9 1.65-0.33 3.3-0.66 5-1 0.33-2.64 0.66-5.28 1-8h2v6c0.66-0.99 1.32-1.98 2-3 0.33 0.99 0.66 1.98 1 3 0.144-1.11 0.289-2.23 0.438-3.38 0.562-3.62 0.562-3.62 1.56-5.62 0.33-0.99 0.66-1.98 1-3 0.651-1.34 1.32-2.68 2-4z" fill="#183C93"/>
<path transform="translate(399,707)" d="m0 0h1c0.00423 1.19 0.00846 2.38 0.0128 3.61 0.101 28.3 0.206 56.5 0.318 84.8 0.0138 3.48 0.0275 6.95 0.0412 10.4 0.00273 0.692 0.00546 1.38 0.00827 2.1 0.0441 11.2 0.0847 22.4 0.124 33.6 0.0405 11.5 0.0847 23 0.132 34.5 0.0266 6.46 0.0514 12.9 0.0722 19.4 0.0196 6.08 0.0437 12.2 0.0714 18.2 0.00935 2.23 0.017 4.46 0.0229 6.7 0.00829 3.05 0.0226 6.09 0.0384 9.14 9.78e-4 0.885 0.00196 1.77 0.00296 2.68 0.0294 4.4 0.326 8.51 1.16 12.8 0.0777 2.16 0.108 4.33 0.0977 6.49-0.00322 1.2-0.00645 2.4-0.00977 3.63-0.00838 1.24-0.0168 2.48-0.0254 3.75-0.00451 1.26-0.00902 2.52-0.0137 3.82-0.0117 3.1-0.0282 6.2-0.0488 9.3h-1c-0.195-1.96-0.38-3.92-0.562-5.88-0.104-1.09-0.209-2.18-0.316-3.3-0.121-2.82-0.121-2.82 0.879-4.82h-2c0.0206-1.13 0.0412-2.27 0.0625-3.44 0.353-3.38 0.353-3.38-1.06-4.56-0.0733-2.86-0.0924-5.7-0.0625-8.56 0.00451-0.806 0.00902-1.61 0.0137-2.44 0.0118-2 0.0298-4 0.0488-5.99h-4v-7c1.32 0.33 2.64 0.66 4 1 0.33-72.6 0.66-145 1-220z" fill="#183C93"/>
<path transform="translate(1173,380)" d="m0 0c4.17 2.33 7.76 5.15 11.4 8.25 0.576 0.49 1.15 0.98 1.74 1.49 3.58 3.07 6.99 6.25 10.3 9.65 1.84 1.84 3.77 3.54 5.74 5.24 3.1 2.68 6.11 5.35 8.88 8.38v2c0.598 0.248 1.2 0.495 1.81 0.75 2.63 1.5 3.74 2.58 5.19 5.25 0.188 3.75 0.188 3.75 0 7-0.33-0.99-0.66-1.98-1-3l-4-2v-3c-0.681-0.206-1.36-0.413-2.06-0.625-2.79-1.31-3.95-2.32-6.06-4.44-4.39-3.94-9.15-4.13-14.9-3.94-1.67 0.293-3.34 0.615-5 1 0.66-0.99 1.32-1.98 2-3 2.6-0.512 2.6-0.512 5.62-0.688 1.5-0.0986 1.5-0.0986 3.04-0.199 0.771-0.0374 1.54-0.0748 2.34-0.113-0.66-0.619-1.32-1.24-2-1.88-2-2.12-2-2.12-2-4.12-0.804-0.34-0.804-0.34-1.62-0.688-2.38-1.31-2.38-1.31-5.44-3.88-2.74-2.57-2.74-2.57-5.94-3.44-1.39-1.05-2.75-2.16-4.06-3.31-0.692-0.594-1.38-1.19-2.1-1.8-1.83-1.88-2.82-3.49-3.84-5.89 0.66-0.99 1.32-1.98 2-3z" fill="#183C93"/>
<path transform="translate(929,408)" d="m0 0v4c-1.39 0.197-2.79 0.382-4.19 0.562-0.777 0.104-1.55 0.209-2.36 0.316-2.46 0.121-2.46 0.121-4.53-0.359-4.08-0.725-8.08-0.698-12.2-0.726-0.927-0.0099-1.85-0.0198-2.81-0.03-3.06-0.0315-6.11-0.0563-9.17-0.0811-2.12-0.0206-4.25-0.0416-6.37-0.063-5.58-0.0551-11.2-0.105-16.7-0.153-5.7-0.0503-11.4-0.106-17.1-0.161-11.2-0.107-22.4-0.209-33.5-0.307v-1c9.71-1.19 19.4-1.35 29.2-1.56 0.928-0.0212 1.86-0.0424 2.81-0.0642 25.7-0.574 51.3-0.47 77-0.373z" fill="#183C93"/>
<path transform="translate(896,581)" d="m0 0c7.4 2.92 14.5 6.17 21.5 9.88 0.816 0.422 1.63 0.843 2.47 1.28 3.82 2 7.45 4.06 10.9 6.6 2.9 2.33 2.9 2.33 5.96 3.31 0.701 0.309 1.4 0.619 2.12 0.938 0.812 2.12 0.812 2.12 1 4-4.75 1.12-4.75 1.12-7 0v-4c-1.65-0.33-3.3-0.66-5-1-0.495-1.49-0.495-1.49-1-3-0.58-0.0142-1.16-0.0284-1.76-0.043-6.1-0.372-8.92-1.64-13.2-5.96-1.11 0.516-2.23 1.03-3.38 1.56-1.2 0.474-2.39 0.949-3.62 1.44-0.66-0.33-1.32-0.66-2-1v-2c-0.99 0.33-1.98 0.66-3 1 0.33-1.32 0.66-2.64 1-4-1.32-0.66-2.64-1.32-4-2v-2c-0.99 0.33-1.98 0.66-3 1l-2-2c0.99-0.66 1.98-1.32 3-2 0.33-0.66 0.66-1.32 1-2z" fill="#183C93"/>
<path transform="translate(1276,1066)" d="m0 0h1c0.0269 1.48 0.0463 2.96 0.0625 4.44 0.0116 0.824 0.0232 1.65 0.0352 2.5-0.0977 2.07-0.0977 2.07-1.1 3.07-0.496 2.62-0.948 5.24-1.38 7.88-1.15 6.84-2.6 13.5-4.62 20.1-2-3.75-2-3.75-2-6h-2c-0.124 0.908-0.247 1.82-0.375 2.75-0.546 2.84-1.2 4.78-2.62 7.25-1.32-0.33-2.64-0.66-4-1v-2c-0.99-0.33-1.98-0.66-3-1 0.165-0.763 0.33-1.53 0.5-2.31 0.591-2.72 0.591-2.72 0.5-5.69h2c0.217-0.928 0.217-0.928 0.438-1.88 0.562-2.12 0.562-2.12 1.56-4.12 4.75-0.125 4.75-0.125 7 1 2.1-0.399 2.1-0.399 4-1 0.196-2.06 0.382-4.12 0.562-6.19 0.104-1.15 0.209-2.3 0.316-3.48 0.11-3.02-0.139-5.42-0.879-8.33 0.99-0.33 1.98-0.66 3-1 0.33-1.65 0.66-3.3 1-5z" fill="#183C93"/>
<path transform="translate(855,1293)" d="m0 0h7c0.495 1.48 0.495 1.48 1 3h8c-0.33 0.99-0.66 1.98-1 3h-97v-1c12-0.521 24-0.968 36.1-1.25 0.87-0.0207 1.74-0.0415 2.64-0.0629 4.33-0.102 8.65-0.199 13-0.29 10.1-0.224 20.2-0.672 30.3-1.39v-2z" fill="#193D93"/>
<path transform="translate(397,663)" d="m0 0h1c0.33 1.65 0.66 3.3 1 5 0.66-1.32 1.32-2.64 2-4 0.206 29.1 0.206 29.1-1 42h-1c-0.584-6.35-1.14-12.6-1-19-0.66-0.33-1.32-0.66-2-1v-2h-2l-1 2c-0.934-3.01-1.04-3.87 0-7 0.0392-2 0.0444-4 0-6-0.99 0.495-0.99 0.495-2 1v-5h2c1.05-1.64 2.05-3.3 3-5 0.33-0.33 0.66-0.66 1-1z" fill="#183C93"/>
<path transform="translate(944,893)" d="m0 0c0.99 0.33 1.98 0.66 3 1-1.21 6.17-2.99 8.01-8 12-1.06 1.97-2.07 3.96-3 6-0.66 0.33-1.32 0.66-2 1-0.268 0.742-0.536 1.49-0.812 2.25-2.24 5.18-6.8 8.37-11.2 11.8-0.495-1.49-0.495-1.49-1-3h2c-0.237-0.575-0.474-1.15-0.719-1.74-0.281-2.26-0.281-2.26 1.12-4.27 0.691-0.699 1.38-1.4 2.09-2.12 5.88-6.25 11-13 14.5-20.9 1.32 0.33 2.64 0.66 4 1v-3z" fill="#183C93"/>
<path transform="translate(508,1190)" d="m0 0c16.5 5.21 16.5 5.21 20 10v2h-5v2c-5.62 0.25-5.62 0.25-9-2v-2h-3c0.33-0.99 0.66-1.98 1-3-0.99-0.33-1.98-0.66-3-1v2h-3v-2h-2c-0.33-0.99-0.66-1.98-1-3 1.65-0.66 3.3-1.32 5-2v-1z" fill="#183C92"/>
<path transform="translate(767,410)" d="m0 0v1h-62c2-2 2-2 5.35-2.16 1.42 0.0242 2.85 0.0574 4.27 0.0977 5.75 0.0929 11.4-0.0284 17.1-0.5 11.6-0.822 23.8-0.652 35.2 1.56z" fill="#193D93"/>
<path transform="translate(373,434)" d="m0 0c0.33 0.66 0.66 1.32 1 2 2.02 0.652 2.02 0.652 4 1-1.75 3.88-1.75 3.88-4 5-0.433 0.928-0.433 0.928-0.875 1.88-1.12 2.12-1.12 2.12-3.06 3.56-2.47 1.87-3.6 3.86-5.06 6.56-0.99-0.33-1.98-0.66-3-1 1.81-7.83 5.75-13 11-19z" fill="#183C93"/>
<path transform="translate(637,750)" d="m0 0c2 3 2 3 2 7h2v4c-0.99 0.495-0.99 0.495-2 1-0.407 2.32-0.744 4.66-1 7-0.99-0.33-1.98-0.66-3-1-0.33-1.98-0.66-3.96-1-6-1.8 1.8-1.41 4.73-1.62 7.19-0.125 0.598-0.25 1.2-0.379 1.81-0.66 0.33-1.32 0.66-2 1-0.0544-1.58-0.093-3.17-0.125-4.75-0.0232-0.882-0.0464-1.76-0.0703-2.67 0.207-2.73 0.722-4.29 2.2-6.58 0.66-0.33 1.32-0.66 2-1 1.05-2.31 2.06-4.64 3-7z" fill="#183C93"/>
<path transform="translate(589,405)" d="m0 0h5v3c4.72 0.652 9.22 1.12 14 1-0.33 0.66-0.66 1.32-1 2h-5v3c-4.67 1.21-9.21 1.09-14 1 0.66-0.33 1.32-0.66 2-1 0.33-0.99 0.66-1.98 1-3-1.32-0.66-2.64-1.32-4-2 0.66-1.32 1.32-2.64 2-4z" fill="#183C93"/>
<path transform="translate(465,1167)" d="m0 0h2v2c0.726-0.0657 1.45-0.131 2.2-0.199 3.47 0.247 4.86 1.3 7.61 3.39 4.29 3.16 8.64 6.03 13.2 8.81l-1 4c-0.33-0.99-0.66-1.98-1-3-1.67 0.0619-1.67 0.0619-3.38 0.125-3.62-0.125-3.62-0.125-5.62-2.12v-4c-0.759-0.0864-1.52-0.173-2.3-0.262-8.19-1.16-8.19-1.16-10.9-4.24-0.812-2.5-0.812-2.5-0.812-4.5z" fill="#183C93"/>
<path transform="translate(1160,1137)" d="m0 0c1.94 0.312 1.94 0.312 4 1 0.33 0.99 0.66 1.98 1 3-3.29 5.12-7.79 8.95-13 12-0.875-2.06-0.875-2.06-1-5 2.09-3.24 4.52-6.26 8-8 0.33-0.99 0.66-1.98 1-3z" fill="#183C93"/>
<path transform="translate(593,673)" d="m0 0c2.48 0.99 2.48 0.99 5 2-0.186 0.763-0.371 1.53-0.562 2.31-0.666 2.78-0.666 2.78 0.562 5.69-1.65 1.32-3.3 2.64-5 4v-2c-1.65-0.33-3.3-0.66-5-1 0.531-4.51 2.37-7.35 5-11z" fill="#183C93"/>
<path transform="translate(1148,364)" d="m0 0c2.1 1.05 4.16 2.18 6.19 3.38 1.05 0.606 2.09 1.21 3.17 1.84 2.64 1.79 2.64 1.79 4.64 4.79-1.65-0.114-3.29-0.241-4.94-0.375-0.917-0.0696-1.83-0.139-2.78-0.211-1.13-0.205-1.13-0.205-2.29-0.414-0.33-0.66-0.66-1.32-1-2h2v-2h-3c-0.33-0.33-0.66-0.66-1-1v1h-6v-2c-0.66-0.33-1.32-0.66-2-1v-2c2.77-1.39 4.03-0.832 7 0z" fill="#183C93"/>
<path transform="translate(862,571)" d="m0 0c1.79 0.038 3.59 0.155 5.38 0.312 1.47 0.118 1.47 0.118 2.96 0.238 2.66 0.449 2.66 0.449 5.66 2.45v2c1.32 0.33 2.64 0.66 4 1-6.43 0.495-6.43 0.495-13 1v-2h-3c-0.33 0.66-0.66 1.32-1 2-0.66-1.98-1.32-3.96-2-6l1-1z" fill="#183C93"/>
<path transform="translate(714 950)" d="m0 0c0.645 0.347 1.29 0.694 1.95 1.05 1.04 0.555 1.04 0.555 2.11 1.12 3.06 1.7 6.11 3.42 9.14 5.19v2c0.66 0.33 1.32 0.66 2 1-6.05 0.195-6.05 0.195-8 0l-2-2v-2c-2.64-0.33-5.28-0.66-8-1-0.66-1.65-1.32-3.3-2-5 3-1 3-1 4.8-0.363z" fill="#183C91"/>
<path transform="translate(1018,905)" d="m0 0c0.66 0.33 1.32 0.66 2 1 0.855 4.66 1.3 8.38 0 13-1.65-0.33-3.3-0.66-5-1v-2h-2c-1-3.88-1-3.88-1-5 0.99-0.66 1.98-1.32 3-2 0.33 0.66 0.66 1.32 1 2 0.66-1.98 1.32-3.96 2-6z" fill="#183C93"/>
<path transform="translate(926,596)" d="m0 0c1.55 0.897 1.55 0.897 3.12 1.81 2.4 1.39 4.71 2.56 7.25 3.69 2.62 1.5 2.62 1.5 3.5 3.69 0.0619 0.897 0.0619 0.897 0.125 1.81-4.75 1.12-4.75 1.12-7 0v-4c-1.65-0.33-3.3-0.66-5-1-0.33-0.99-0.66-1.98-1-3-0.99-0.33-1.98-0.66-3-1l2-2z" fill="#173A8F"/>
<path transform="translate(1089 502)" d="m0 0c2.47 0.853 4.23 2 6.32 3.55 0.695 0.501 1.39 1 2.11 1.52 1.92 1.88 2.33 3.05 2.71 5.67h-6c-0.0619-0.928-0.0619-0.928-0.125-1.88-0.289-0.701-0.578-1.4-0.875-2.12-2-0.679-4-1.35-6-2-1.38-2.12-1.38-2.12-2-4 2-1 2-1 3.86-0.738z" fill="#183C93"/>
<path transform="translate(717,1288)" d="m0 0c0.33 2.64 0.66 5.28 1 8 2.64 0.33 5.28 0.66 8 1-3.66 2.34-6.73 2.37-11 2-2.94-1.38-2.94-1.38-5-3v-2c0.66-0.33 1.32-0.66 2-1 0.165-0.66 0.33-1.32 0.5-2 0.165-0.66 0.33-1.32 0.5-2 2-1 2-1 4-1z" fill="#183C93"/>
<path transform="translate(670,409)" d="m0 0c8.07-0.115 16 0.0996 24 1-0.33 0.66-0.66 1.32-1 2h-22c-0.33-0.99-0.66-1.98-1-3z" fill="#183C93"/>
<path transform="translate(629,781)" d="m0 0 5 5c-0.351 0.908-0.701 1.82-1.06 2.75-0.902 3.13-1.07 4.3 0.0625 7.25-1.94-0.688-1.94-0.688-4-2-0.75-2.62-0.75-2.62-1-5-0.33 1.32-0.66 2.64-1 4v-10h2v-2z" fill="#183C93"/>
<path transform="translate(1036,849)" d="m0 0c0.99 1.32 1.98 2.64 3 4-0.33 0.66-0.66 1.32-1 2h2c0.33-1.32 0.66-2.64 1-4 0.33 1.65 0.66 3.3 1 5h-2c0.33 0.99 0.66 1.98 1 3-0.33 0.66-0.66 1.32-1 2h-5c-1-6.62-1-6.62-1-10h2v-2z" fill="#183C93"/>
<path transform="translate(888 577)" d="m0 0c1.35 0.379 1.35 0.379 2.72 0.766 0.731 0.325 1.46 0.65 2.21 0.984 0.33 0.99 0.66 1.98 1 3-0.99 0.66-1.98 1.32-3 2-0.33 0.99-0.66 1.98-1 3-0.99-0.33-1.98-0.66-3-1-0.124-0.577-0.247-1.15-0.375-1.75-0.922-3.32-3.14-4.96-5.62-7.25 2.78-1.39 4.12-0.614 7.06 0.25z" fill="#183C93"/>
<path transform="translate(403,399)" d="m0 0c0.33 0.66 0.66 1.32 1 2 0.99 0.33 1.98 0.66 3 1-0.625 2.88-0.625 2.88-2 6-3.12 1.38-3.12 1.38-6 2v-3c-0.66-0.33-1.32-0.66-2-1 1.98-2.31 3.96-4.62 6-7z" fill="#183C93"/>
<path transform="translate(736,644)" d="m0 0h2v5c-2.08 0.553-3.84 1-6 1v2c-2.97-0.495-2.97-0.495-6-1v-5c6.15-0.0977 6.15-0.0977 8 0 0.33 0.33 0.66 0.66 1 1 0.33-0.99 0.66-1.98 1-3z" fill="#193D93"/>
<path transform="translate(674,681)" d="m0 0h4v11c-0.33-0.66-0.66-1.32-1-2-1.64-0.722-3.31-1.39-5-2 0.576-2.39 1.22-4.67 2-7z" fill="#193D93"/>
<path transform="translate(442,461)" d="m0 0c1.32 0.33 2.64 0.66 4 1-0.66 1.32-1.32 2.64-2 4h-6v2c0.99 0.33 1.98 0.66 3 1-1.88 0.625-1.88 0.625-4 1l-2-2v-3h3v-2h4v-2z" fill="#183C93"/>
<path transform="translate(614,407)" d="m0 0h8c-0.33 1.65-0.66 3.3-1 5h-2v2h-9c0.33-0.66 0.66-1.32 1-2 2.31-0.731 4.65-1.4 7-2-1.65-0.33-3.3-0.66-5-1 0.33-0.66 0.66-1.32 1-2z" fill="#183C93"/>
<path transform="translate(1086,585)" d="m0 0c0.188 2.88 0.188 2.88 0 6-3.23 2.15-4.28 2.2-8 2-1-3-1-3 0-6 3 1 3 1 4 3v-3c3-2 3-2 4-2z" fill="#193D93"/>
<path transform="translate(1031,720)" d="m0 0c2.83 3.5 3.91 6.62 5 11l-3 3c-1.91-3.21-2.22-5.54-2.12-9.25 0.0271-1.34 0.0271-1.34 0.0547-2.7 0.0232-0.675 0.0464-1.35 0.0703-2.05z" fill="#193D93"/>
<path transform="translate(1e3 1286)" d="m0 0h3v4c-0.99 0.33-1.98 0.66-3 1 0.99 0.33 1.98 0.66 3 1v2h-10l1-2h4v-4c0.66-0.66 1.32-1.32 2-2z" fill="#193D93"/>
<path transform="translate(1074,337)" d="m0 0c6.65 2.29 6.65 2.29 8 5h-11v-3c0.99-0.66 1.98-1.32 3-2z" fill="#183C93"/>
<path transform="translate(755,634)" d="m0 0c1.32 0.33 2.64 0.66 4 1 0.66 2.31 1.32 4.62 2 7l-4 2c-1.6-3.51-2.22-6.14-2-10z" fill="#183C93"/>
<path transform="translate(1102,346)" d="m0 0c2.31 0.33 4.62 0.66 7 1v4h-8c0.33-1.65 0.66-3.3 1-5z" fill="#183C93"/>
<path transform="translate(1254,1115)" d="m0 0c3 0 3 0 5 1v4h-2v4c-1.32-0.66-2.64-1.32-4-2 0.33-2.31 0.66-4.62 1-7z" fill="#183C93"/>
<path transform="translate(405,584)" d="m0 0c1.13 3.38 0.973 5.59 0.688 9.12-0.0786 1.08-0.157 2.15-0.238 3.26-0.222 1.3-0.222 1.3-0.449 2.62-0.99 0.495-0.99 0.495-2 1-1.35-9.95-1.35-9.95-1-13 1.5-1.81 1.5-1.81 3-3z" fill="#183C93"/>
<path transform="translate(525,414)" d="m0 0c0.99 0.33 1.98 0.66 3 1 1.19 3.56 1.19 3.56 2 7-2.31-0.33-4.62-0.66-7-1 0.576-2.39 1.22-4.67 2-7z" fill="#193D93"/>
<path transform="translate(583,689)" d="m0 0c2.48 0.99 2.48 0.99 5 2v5c-1.32 0.33-2.64 0.66-4 1-2-3-2-3-1.62-5.69 0.206-0.763 0.413-1.53 0.625-2.31z" fill="#183C93"/>
<path transform="translate(839,1055)" d="m0 0v3c-6.43 0.495-6.43 0.495-13 1 0.33-0.99 0.66-1.98 1-3 4.04-0.634 7.91-1.12 12-1z" fill="#183C93"/>
<path transform="translate(1012,1284)" d="m0 0c1.49 0.99 1.49 0.99 3 2-0.33 0.66-0.66 1.32-1 2 2.58 1.29 5.26 2.11 8 3v1c-3.3 0.33-6.6 0.66-10 1-0.845-3.38-1.11-5.67 0-9z" fill="#183C93"/>
<path transform="translate(1242,1142)" d="m0 0h5c1.12 3.75 1.12 3.75 0 6h-2c0.33 0.99 0.66 1.98 1 3h-2c-0.66-2.97-1.32-5.94-2-9z" fill="#193D93"/>
<path transform="translate(1209,899)" d="m0 0h1v15c-0.33-0.66-0.66-1.32-1-2h-2c-0.193-4.82 0.243-8.5 2-13z" fill="#173B96"/>
<path transform="translate(495,1184)" d="m0 0c1.94 0.812 1.94 0.812 4 2 0.33 0.99 0.66 1.98 1 3-1.65-0.33-3.3-0.66-5-1 0.33 1.32 0.66 2.64 1 4h-2v-2c-1.32-0.66-2.64-1.32-4-2 0.66-0.66 1.32-1.32 2-2 0.66 0.33 1.32 0.66 2 1 0.33-0.99 0.66-1.98 1-3z" fill="#183C93"/>
<path transform="translate(640,762)" d="m0 0h1v6h2c-0.33 2.31-0.66 4.62-1 7h-3c-0.027-1.79-0.0464-3.58-0.0625-5.38-0.0116-0.998-0.0232-2-0.0352-3.02 0.0977-2.6 0.0977-2.6 1.1-4.6z" fill="#193D93"/>
<path transform="translate(1208,702)" d="m0 0c0.66 0.33 1.32 0.66 2 1v16h-2c-1.15-5.87-0.773-11.1 0-17z" fill="#173B96"/>
<path transform="translate(634,626)" d="m0 0c2.48 0.99 2.48 0.99 5 2-1.65 1.98-3.3 3.96-5 6-0.66-0.33-1.32-0.66-2-1 0.33-0.66 0.66-1.32 1-2-0.66-0.66-1.32-1.32-2-2l3-3z" fill="#183C93"/>
<path transform="translate(926,596)" d="m0 0c2.94 1.25 2.94 1.25 6 3 0.875 2.19 0.875 2.19 1 4-1.65-0.33-3.3-0.66-5-1-0.33-0.99-0.66-1.98-1-3-0.99-0.33-1.98-0.66-3-1l2-2z" fill="#183A8D"/>
<path transform="translate(565,413)" d="m0 0c2.38-0.188 2.38-0.188 5 0 0.66 0.99 1.32 1.98 2 3-3 2-3 2-5.69 1.62-0.763-0.206-1.53-0.413-2.31-0.625 0.33-1.32 0.66-2.64 1-4z" fill="#183C93"/>
<path transform="translate(412,392)" d="m0 0c0.99 0.33 1.98 0.66 3 1v2h2v2l-4 2c-0.99-0.66-1.98-1.32-3-2 0.33-0.66 0.66-1.32 1-2-0.66-0.33-1.32-0.66-2-1 0.99-0.66 1.98-1.32 3-2z" fill="#183C93"/>
<path transform="translate(933,413)" d="m0 0h18v1h-18v-1z" fill="#000002"/>
<path transform="translate(662,413)" d="m0 0h10v1h-10v-1z" fill="#000002"/>
<path transform="translate(580,1293)" d="m0 0h9v1h-9v-1z" fill="#000002"/>
<path transform="translate(404,1015)" d="m0 0h1v9h-1v-9z" fill="#000002"/>
<path transform="translate(402,664)" d="m0 0h1v8h-1v-8z" fill="#000002"/>
<path transform="translate(404,600)" d="m0 0h1v8h-1v-8z" fill="#000002"/>
<path transform="translate(1018,416)" d="m0 0h8v1h-8v-1z" fill="#000002"/>
<path transform="translate(1017,1293)" d="m0 0h5v1h-5v-1z" fill="#000002"/>
<path transform="translate(1112,1274)" d="m0 0 2 1z" fill="#000002"/>
<path transform="translate(1081,605)" d="m0 0 2 1z" fill="#000002"/>
<path transform="translate(1084,430)" d="m0 0 2 1z" fill="#000002"/>
<path transform="translate(1050,421)" d="m0 0 2 1z" fill="#000002"/>
</svg>
