<?xml version="1.0" encoding="UTF-8"?>
<svg version="1.1" viewBox="0 0 1600 1600" width="1280" height="1280" xmlns="http://www.w3.org/2000/svg">
<path transform="translate(1023 489)" d="m0 0c0.773 0.0346 1.55 0.0693 2.34 0.105 3.48 0.208 6.41 0.584 9.77 1.59 4.85 1.32 9.5 1.37 14.5 1.49 8.19 0.19 15.5 1.09 23.4 3.5 4.58 1.22 9.16 1.83 13.9 2.44 2.89 0.562 2.89 0.562 5.89 2.56 3.6 0.856 7.21 1.53 10.8 2.22 3.15 0.781 3.15 0.781 5.15 2.78 2.48 0.584 4.97 0.952 7.49 1.34 2.79 0.735 4.24 1.93 6.51 3.66 2.21 0.667 2.21 0.667 4.5 1 2.63 0.432 4.19 0.765 6.33 2.38 2.89 2.15 6.07 3.25 9.42 4.49 4.83 1.86 9.27 3.81 13.6 6.73 3 1.91 6.16 3.51 9.32 5.15 5.98 3.12 11.7 6.55 17.3 10.3 2.79 1.84 5.53 3.57 8.57 4.97v2c0.784 0.309 1.57 0.619 2.38 0.938 2.62 1.06 2.62 1.06 4.62 2.06v2c0.701 0.247 1.4 0.495 2.12 0.75 3.27 1.42 6.02 3.12 8.88 5.25v2c0.735 0.251 1.47 0.503 2.23 0.762 2.98 1.33 4.79 2.82 7.15 5.05 2.79 2.58 5.55 4.93 8.69 7.06 0.969 0.701 1.94 1.4 2.94 2.12v2c0.804 0.268 1.61 0.536 2.44 0.812 0.846 0.392 1.69 0.784 2.56 1.19 0.33 0.99 0.66 1.98 1 3 1.32 0.686 2.66 1.35 4 2 2.14 1.56 4.03 3.21 6 5v2h2c1.73 1.62 3.36 3.29 5 5 1.54 1.54 3.08 3.09 4.62 4.62 1.46 1.46 2.92 2.92 4.38 4.38 0.528 0.447 1.06 0.894 1.6 1.35 2.69 3.16 1.91 7.42 1.9 11.4 0.0284 0.882 0.0567 1.76 0.0859 2.67 0.016 5.38-0.639 8.92-4.11 13.1-2.32 2.3-4.83 4.01-7.6 5.72-3.31 2.07-6.17 3.94-8.88 6.75-1.59 0.878-3.18 1.76-4.77 2.62-4.01 2.47-7.66 5.46-11.4 8.35-2.61 1.84-4.92 2.88-7.87 4.02-0.699 1.32-1.37 2.65-2 4-0.619 0.298-1.24 0.596-1.88 0.902-2.41 1.25-3.44 2.51-5.06 4.66-2.58 3.19-4.01 3.76-8.06 4.44-0.69 1.66-1.35 3.33-2 5-1.87 1.96-3.79 3.39-6 5h-2c-0.227 0.722-0.454 1.44-0.688 2.19-1.59 3.41-3.59 5.21-6.31 7.81-1.84 2.12-3.65 4.27-5.45 6.43-0.512 0.519-1.02 1.04-1.55 1.57h-2c-0.268 0.763-0.536 1.53-0.812 2.31-1.17 2.65-2.14 3.73-4.19 5.69-0.516 0.887-1.03 1.77-1.56 2.69-0.712 1.14-0.712 1.14-1.44 2.31h-2c-0.247 0.722-0.495 1.44-0.75 2.19-1.37 3.08-3.14 5.2-5.25 7.81-1.04 1.98-2.06 3.97-3 6h-2c-1.49 4.45-1.49 4.45-3 9h-2c-0.182 0.71-0.364 1.42-0.551 2.15-0.251 0.919-0.503 1.84-0.762 2.79-0.244 0.917-0.487 1.83-0.738 2.78-0.47 1.13-0.47 1.13-0.949 2.29-0.99 0.33-1.98 0.66-3 1-0.0387 0.835-0.0387 0.835-0.0781 1.69-0.377 5.07-1.37 8.71-3.81 13.1-2.16 4.2-3.63 8.69-5.11 13.2-0.539 1.63-0.539 1.63-1.09 3.29-1.05 4.27-1.24 8.22-1.35 12.6-0.257 6.6-1.05 11.9-3.56 18.1-1.29 4.6-0.981 8.98-0.688 13.7 0.0471 0.798 0.0941 1.6 0.143 2.42 0.0551 9.6 0.0551 9.6 3.54 17.9 0.109 1.46 0.156 2.92 0.176 4.38 0.0238 0.904 0.0477 1.81 0.0723 2.74 0.0423 1.89 0.0739 3.79 0.0938 5.68 0.175 5.78 1.12 10 3.69 15.2 1.28 2.68 1.91 5.37 2.53 8.26 0.895 4.2 2.24 7.09 4.44 10.8 0.73 2.68 0.73 2.68 1.19 5.31 0.238 1.32 0.238 1.32 0.48 2.68 0.11 0.664 0.219 1.33 0.332 2.01h2c0.99 3.3 1.98 6.6 3 10h2c0.266 0.638 0.531 1.28 0.805 1.93 0.353 0.826 0.706 1.65 1.07 2.5 0.348 0.824 0.696 1.65 1.05 2.5 0.895 2.22 0.895 2.22 3.07 3.07 0.93 1.64 0.93 1.64 1.88 3.69 2.08 4.31 4.26 8.52 7.75 11.9 1.83 1.91 2.51 3.96 3.38 6.44h2c1.38 1.36 1.38 1.36 3 3.31 2.94 3.46 5.94 6.84 9 10.2 3.55 3.89 7.04 7.82 10.4 11.8 1.57 1.76 1.57 1.76 3.77 3.25 0.596 0.464 1.19 0.928 1.8 1.41v2c0.726 0.258 1.45 0.516 2.2 0.781 2.92 1.27 5.11 2.76 7.61 4.72 0.79 0.608 1.58 1.22 2.39 1.84 0.592 0.547 1.18 1.09 1.79 1.66v2c0.763 0.289 1.53 0.578 2.31 0.875 2.69 1.12 2.69 1.12 5.69 3.12v2c0.71 0.244 1.42 0.487 2.15 0.738 3.24 1.44 5.63 3.25 8.41 5.45 5.21 4.01 10.5 7.27 16.2 10.4 1.09 0.698 1.09 0.698 2.2 1.41v2c0.701 0.248 1.4 0.495 2.12 0.75 3.26 1.42 5.94 3.25 8.88 5.25 1.74 0.98 3.48 1.96 5.22 2.93 1.83 1.09 3.51 2.3 5.22 3.57 2.42 1.77 4.79 3.16 7.5 4.44 5.59 2.68 10.9 6.41 15.1 11.1 2.37 8.62 1.68 19.5-1 28-0.971 1.03-1.97 2.03-3 3-0.882 1.9-0.882 1.9-1.5 3.94-1.1 3.19-2.46 5.37-4.5 8.06-0.165 0.866-0.33 1.73-0.5 2.62-0.5 2.38-0.5 2.38-3.5 4.38-0.897 1.82-0.897 1.82-1.5 3.88-1.11 3.22-2.41 5.42-4.5 8.12-0.716 1.69-1.43 3.39-2.12 5.09-0.933 2.04-2.03 3.84-3.25 5.72-2.43 3.77-4.41 7.66-6.38 11.7-4.13 8.29-8.99 16.2-13.8 24.1-2.39 3.93-4.68 7.84-6.68 12-1.75 3.44-1.75 3.44-3.75 4.44-0.755 1.74-1.51 3.48-2.22 5.24-0.972 2.19-2.31 3.88-3.78 5.76-0.99 1.73-1.98 3.45-2.96 5.18-1.56 2.72-3.19 5.28-5.04 7.82h-2c-0.309 0.949-0.619 1.9-0.938 2.88-1.06 3.12-1.06 3.12-2.06 5.12h-2c-0.206 0.825-0.412 1.65-0.625 2.5-1.73 4.39-4.15 8.05-7.38 11.5h-2c-0.206 0.825-0.412 1.65-0.625 2.5-1.51 3.85-3.49 6.55-6.04 9.77-1.4 1.7-1.4 1.7-2.34 3.73h-2c-0.237 0.71-0.474 1.42-0.719 2.15-1.5 3.32-3.41 5.65-5.78 8.41-2.62 3.07-4.78 5.8-6.5 9.44-1.31 1.35-2.65 2.69-4 4-0.66 0.99-1.32 1.98-2 3h-2v2h-2c-0.247 0.536-0.495 1.07-0.75 1.62-2.74 5.22-5.99 9.32-10.2 13.4-0.887 0.928-1.77 1.86-2.69 2.81-2.31 2.19-2.31 2.19-4.31 2.19-0.227 0.722-0.454 1.44-0.688 2.19-2.9 6.21-9.3 10.4-14.5 14.7-3.45 2.88-6.64 5.92-9.82 9.11-2.09 1.86-4.23 3.65-6.38 5.44-1.15 0.966-2.31 1.93-3.46 2.9-0.548 0.459-1.1 0.917-1.66 1.39-1.86 1.58-3.68 3.21-5.5 4.84-2.73 2.22-4.75 3.27-8 4.44-0.454 0.454-0.908 0.908-1.38 1.38-1.98 1.98-4.23 3.12-6.66 4.45-2.15 1.29-4.06 2.75-6.02 4.3-3.2 2.47-6.04 3.72-9.94 4.88-0.575 0.45-1.15 0.9-1.74 1.36-2.88 2.08-5.85 3.28-9.13 4.64-3.49 1.45-6.91 2.89-10.3 4.62-2.6 1.26-4.72 1.94-7.54 2.44-3.21 0.582-4.48 1.05-7.31 2.94-2.36 0.581-4.74 1.09-7.12 1.56-4.26 0.508-4.26 0.508-7.88 2.44-11.2 2.52-22.7 2.31-34.1 2.26-3.07-0.0107-6.14-8.27e-5 -9.21 0.0127-9.54 0.00728-19-0.207-28.5-1.16-0.789-0.0775-1.58-0.155-2.39-0.235-3.63-0.414-5.71-0.813-8.81-2.87-2.55-0.361-5.06-0.645-7.62-0.875-5.68-0.593-10.2-1.58-15.3-4.24-3.85-1.62-7.97-1.71-12.1-1.89v-2c-3.77-1.18-7.25-2.08-11.2-2.44-3.81-0.562-3.81-0.562-5.75-2.04-2.39-1.76-4.03-2.09-6.94-2.53-4.2-0.736-7.32-2.05-11.1-4-1.51-0.367-3.04-0.699-4.56-1-2.85-0.565-4.48-1.03-7-2.56-2.94-1.73-5.2-1.83-8.54-2.13-1.89-0.309-1.89-0.309-4.21-1.75-3.62-2.1-7.15-2.45-11.3-3.04-2.43-0.527-2.43-0.527-4.43-2.53-2.09-0.521-2.09-0.521-4.5-0.781-1.33-0.18-1.33-0.18-2.69-0.363-0.928-0.117-1.86-0.235-2.81-0.355-1.83-0.232-3.67-0.471-5.5-0.719-0.815-0.102-1.63-0.205-2.47-0.311-2.03-0.471-2.03-0.471-4.03-2.47-4.07-1.15-8.04-1.13-12.2-1.13-0.687-9.57e-4 -1.37-0.00191-2.08-0.0029-1.45-6.78e-4 -2.89 0.00115-4.34 0.00534-2.2 0.00534-4.39 5.04e-5 -6.59-0.00635-1.41 6.61e-4 -2.83 0.00194-4.24 0.00391-1.91 0.00169-1.91 0.00169-3.85 0.00342-6.91 0.177-6.91 0.177-13.2 2.66-3.04 1.82-5.12 1.83-8.64 1.9-5.42 0.299-9.5 1.32-14.4 3.52-5.15 2.25-10.6 3.57-16.1 5.04-1.89 0.524-1.89 0.524-3.83 1.06-1.19 0.321-2.37 0.642-3.59 0.973-2.99 0.752-2.99 0.752-4.91 2.96-3.01 0.592-6.02 0.955-9.05 1.34-3.13 0.702-4.45 1.73-6.95 3.66-2.51 0.66-2.51 0.66-5.12 1.06-3.89 0.524-3.89 0.524-6.88 2.94-3.58 0.878-7.19 1.54-10.8 2.22-3.26 0.507-3.26 0.507-5.19 2.78-2.65 0.577-5.26 1.07-7.94 1.5-5.82 0.891-5.82 0.891-11.1 3.5-1.93 0.379-1.93 0.379-4.09 0.562-0.784 0.0748-1.57 0.15-2.38 0.227-1.22 0.104-1.22 0.104-2.47 0.211-1.61 0.138-3.23 0.284-4.84 0.438-0.714 0.0606-1.43 0.121-2.16 0.184-2.3 0.424-3.99 1.31-6.06 2.38-21.6 4.16-45.8 3.15-67.6 1.12-0.845-0.0783-1.69-0.157-2.56-0.237-5.54-0.617-5.54-0.617-7.81-2.89-3.32-0.498-6.62-0.835-9.97-1.12-4.47-0.459-7.31-1.42-11-3.88-2.25-0.658-2.25-0.658-4.5-1-3.75-0.747-6.26-1.92-9.5-4-1.91-0.711-3.81-1.42-5.73-2.11-4.23-1.67-8.24-3.8-12.3-5.89v-2c-0.855-0.0864-1.71-0.173-2.59-0.262-3.96-0.858-6.56-2.38-9.97-4.55-1.09-0.687-2.19-1.37-3.32-2.08-3.12-2.11-3.12-2.11-5.82-4.27-2.33-2-2.33-2-5.55-3.4-2.75-1.44-2.75-1.44-3.75-4.44-0.825-0.33-1.65-0.66-2.5-1-0.825-0.33-1.65-0.66-2.5-1l-1-3c-1.66-0.686-3.33-1.35-5-2-1.88-1.38-3.71-2.82-5.5-4.31-0.918-0.759-1.84-1.52-2.78-2.3-2.69-2.36-5.21-4.83-7.72-7.39-3.85-3.92-7.67-7.77-11.9-11.3-7.08-6.11-13.2-13.2-18.7-20.8-3.35-4.48-6.77-8.81-11.4-11.9-1.1-1.62-1.1-1.62-2.06-3.44-2.39-4.89-2.39-4.89-6.94-7.56-1.11-1.9-1.11-1.9-2.19-4.38-2.42-5.11-5.45-9.4-8.84-13.9-2.36-3.25-4.38-6.64-6.41-10.1-3.93-6.56-8.19-12.9-12.9-18.9-2.66-3.45-3.74-6.44-4.62-10.7h-2c-0.398-0.957-0.398-0.957-0.805-1.93-0.353-0.826-0.706-1.65-1.07-2.5l-1.05-2.5c-0.895-2.22-0.895-2.22-3.07-3.07-0.753-1.73-1.5-3.47-2.21-5.23-0.972-2.17-2.36-3.88-3.79-5.77-0.144-0.66-0.289-1.32-0.438-2-0.435-2.19-0.435-2.19-2.5-3.88-2.47-2.55-2.99-4.78-4.06-8.12-0.536-0.495-1.07-0.99-1.62-1.5-1.38-1.5-1.38-1.5-1.56-4.69 0.0619-0.928 0.124-1.86 0.188-2.81-0.926-0.36-0.926-0.36-1.87-0.727-2.65-1.58-3.1-2.8-4.19-5.65-1.34-3.3-2.78-5.79-4.94-8.62-0.679-2-1.35-4-2-6-0.974-1.68-1.98-3.35-3-5-0.928-1.82-1.85-3.65-2.76-5.48-0.985-1.99-1.98-3.98-2.98-5.97-0.31-0.614-0.619-1.23-0.938-1.86-0.91-1.81-1.82-3.61-2.73-5.42-1.59-3.27-1.59-3.27-2.67-6.01-0.914-2.48-0.914-2.48-2.91-5.26-0.516-1.47-0.993-2.95-1.44-4.44-0.838-2.63-1.45-4.41-3.12-6.62-1.88-2.53-2.25-4.96-2.81-8.04-0.496-2-0.496-2-2.12-3.37-1.9-1.94-2.07-3.31-2.5-5.97-0.604-3.72-1.75-5.58-4-8.56-0.864-2.5-1.5-5-2.16-7.56-0.726-2.5-0.726-2.5-2.41-4.51-1.88-2.54-1.79-4.86-2.06-7.93-0.292-2.29-0.292-2.29-2.31-4.88-2.4-3.63-2.8-6.46-3.5-10.7-0.56-2.42-1.29-3.94-2.63-6.01-2.1-3.73-2.44-6.14-2.57-10.3-0.225-2.23-0.225-2.23-1.84-4.05-1.87-2.52-2.12-4.35-2.54-7.44-0.441-3.26-0.968-5.56-2.47-8.52-1.73-3.51-2.36-6.64-3.03-10.5-1.08-5.97-1.08-5.97-3.06-11.7-1.99-4.68-2.28-9.65-2.81-14.7-0.417-3.27-0.417-3.27-2.16-5.69-2.29-4.04-1.9-8.29-1.9-12.8-0.116-4.39-0.859-7.79-2.54-11.9-2.15-5.75-2.68-10.9-2.81-17-0.0364-1-0.0727-2.01-0.11-3.04-0.112-3.16-0.199-6.32-0.284-9.48-0.101-3.2-0.206-6.39-0.316-9.59-0.0667-1.98-0.127-3.96-0.18-5.94-0.0271-0.885-0.0541-1.77-0.082-2.68-0.0212-0.782-0.0425-1.56-0.0644-2.37 0.0208-1.82 0.0208-1.82-1.17-2.79-1.22-11.3-1.03-22.7-0.625-34.1 0.043-1.24 0.086-2.49 0.13-3.77 0.362-8.91 0.362-8.91 1.49-11.2 0.191-2.88 0.329-5.74 0.43-8.62 0.0736-1.76 0.148-3.51 0.223-5.27 0.114-2.78 0.223-5.55 0.322-8.33 0.0974-2.68 0.213-5.35 0.331-8.03 0.0251-0.831 0.0503-1.66 0.0761-2.52 0.206-4.37 0.489-6.28 3.62-9.23 1.54-4.63 1.29-9.38 1.43-14.2 0.649-4.25 2.15-6.28 4.57-9.76 0.575-2.76 0.575-2.76 0.562-5.5 0.259-4.55 1.07-7.53 3.44-11.5 1.37-3.06 2.23-5.99 2.94-9.25 0.351-1.24 0.701-2.48 1.06-3.75 0.99-0.33 1.98-0.66 3-1 0.049-0.603 0.098-1.21 0.148-1.83 0.0748-0.799 0.15-1.6 0.227-2.42 0.0696-0.789 0.139-1.58 0.211-2.39 0.429-2.45 1.2-4.21 2.41-6.36h2c0.103-1.07 0.206-2.14 0.312-3.25 0.66-3.6 1.15-5.21 3.69-7.75h2c0.103-1.26 0.206-2.52 0.312-3.81 0.436-3.57 1.04-4.75 3.69-7.19 0.683-2.33 1.35-4.66 2-7 0.66-0.33 1.32-0.66 2-1 2.26-2.02 2.26-2.02 3.5-5.5 1.5-3.5 1.5-3.5 3.5-5.5 0.289-1.11 0.578-2.23 0.875-3.38 1.2-3.85 2.32-4.91 5.12-7.62 0.526-1.58 0.526-1.58 1.06-3.19 0.309-0.928 0.619-1.86 0.938-2.81 0.99-0.33 1.98-0.66 3-1 1.17-2.42 1.17-2.42 2-5 0.33-0.66 0.66-1.32 1-2h2c0.227-0.866 0.454-1.73 0.688-2.62 1.56-4.01 3.5-6.14 6.31-9.38 0.682-1.33 1.35-2.66 2-4 0.976-1.02 1.98-2.02 3-3 2.53-2.92 4.8-5.68 6.88-8.94 1.75-2.52 3.31-4.29 5.5-6.38 3.34-3.22 5.72-6.7 8.21-10.6 2.55-3.78 4.99-6.61 9.41-8.09 0.144-0.639 0.289-1.28 0.438-1.94 0.186-0.681 0.371-1.36 0.562-2.06 0.61-0.299 1.22-0.598 1.85-0.906 3.04-1.55 4.55-3.86 6.59-6.54 1.81-1.81 3.07-2.17 5.56-2.56 0.0619-0.619 0.124-1.24 0.188-1.88 0.268-0.701 0.536-1.4 0.812-2.12 1.65-0.717 3.31-1.38 5-2 0.99-1.49 0.99-1.49 2-3h2c0.0619-0.619 0.124-1.24 0.188-1.88 0.268-0.701 0.536-1.4 0.812-2.12 1.65-0.697 3.32-1.36 5-2 1.02-1.32 2.02-2.65 3-4 1.64-1.05 3.3-2.05 5-3 0.99-0.742 0.99-0.742 2-1.5 2.25-1.69 4.58-3.07 7-4.5 5.43-3.26 5.43-3.26 10.4-7.12 3.55-2.6 7.36-3.67 11.6-4.88v-2c0.606-0.231 1.21-0.461 1.84-0.699 5.38-2.09 10.5-4.43 15.6-7.07 3.42-1.66 6.94-3.01 10.5-4.34 2.2-0.823 2.2-0.823 4.03-2.89 1.9-0.568 3.82-1.06 5.75-1.5 3.21-0.759 6.31-1.52 9.44-2.56 3.25-1.08 6.5-1.74 9.86-2.38 2.17-0.453 2.17-0.453 3.95-2.56 2.03-0.471 2.03-0.471 4.5-0.781 0.887-0.12 1.77-0.24 2.69-0.363 1.88-0.237 3.75-0.474 5.62-0.711 0.887-0.12 1.77-0.24 2.69-0.363 1.22-0.154 1.22-0.154 2.47-0.311 2.24-0.331 2.24-0.331 4.03-2.47 9.2-1.9 19.2-1.15 28.5-1.13 1.68-6.75e-4 3.37-0.00165 5.05-0.0029 3.51-0.00147 7.03 6.42e-4 10.5 0.00534 4.47 0.0057 8.95 0.00241 13.4-0.00357 3.47-0.00364 6.95-0.00245 10.4 1.28e-4 1.65 6.61e-4 3.3-1.3e-4 4.95-0.00248 8.74-0.00972 17.4 0.0965 26.1 1.14v2c0.797 0.0804 1.59 0.161 2.42 0.244 3.61 0.369 7.22 0.75 10.8 1.13 1.25 0.126 2.51 0.253 3.8 0.383 1.21 0.129 2.41 0.258 3.65 0.391 1.11 0.115 2.22 0.23 3.36 0.349 2.76 0.474 4.49 1.21 6.93 2.5 2.15 0.504 2.15 0.504 4.41 0.781 1.24 0.18 1.24 0.18 2.5 0.363 0.855 0.117 1.71 0.235 2.59 0.355 1.7 0.233 3.4 0.473 5.09 0.719 0.75 0.102 1.5 0.205 2.27 0.311 2.3 0.506 4.05 1.4 6.13 2.47 2.09 0.37 4.2 0.677 6.31 0.938 11.2 1.59 11.2 1.59 14.7 5.06 0.969-0.0619 1.94-0.124 2.94-0.188 4.32-0.0797 7.65 1.48 11.6 3.17 2.27 0.925 4.42 1.58 6.8 2.14 3.69 0.875 3.69 0.875 6.06 1.88 4.08 1.55 8.34 2.22 12.6 3v2c0.785 0.11 1.57 0.219 2.38 0.332 1.58 0.238 1.58 0.238 3.18 0.48 1.03 0.151 2.07 0.302 3.13 0.457 3.7 0.816 6.84 2.22 10.3 3.73 2.54 0.725 5.05 1.39 7.62 2 1.04 0.253 1.04 0.253 2.11 0.511 5.37 1.3 10.8 2.53 16.1 3.77 14.3 3.31 14.3 3.31 17.1 4.72 2.88-0.226 5.7-0.515 8.56-0.875 0.793-0.0915 1.59-0.183 2.4-0.277 3.83-0.146 3.83-0.146 7.03-1.85 3.79-0.659 7.58-1.25 11.4-1.81 0.798-0.124 1.6-0.249 2.42-0.377 1.1-0.163 1.1-0.163 2.22-0.33 2.28-0.442 2.28-0.442 4.98-2.49 3.3-0.852 6.63-1.53 9.97-2.22 3.18-0.642 3.18-0.642 6.03-2.78 1.9-0.531 3.82-1 5.75-1.44 3.47-0.826 6.75-1.64 10-3.12 2.56-1.13 4.69-1.86 7.38-2.5 3.69-0.789 3.69-0.789 6.31-1.94 3.14-1.22 6.27-1.82 9.57-2.44 2.2-0.447 2.2-0.447 3.99-2.56 3.19-0.842 6.41-1.47 9.64-2.12 3.38-0.758 3.38-0.758 6.32-2.38 3.44-1.7 6.59-2.41 10.3-3.13 4.17-0.485 4.17-0.485 7.69-2.38 3.55-0.541 7.11-0.967 10.7-1.4 3.44-0.392 3.44-0.392 6.32-2.6 2.2-0.471 2.2-0.471 4.75-0.781 0.92-0.12 1.84-0.24 2.79-0.363 0.958-0.117 1.92-0.235 2.9-0.355 1.9-0.233 3.79-0.472 5.68-0.719 0.84-0.102 1.68-0.205 2.54-0.311 2.33-0.352 2.33-0.352 4.21-1.48 3.01-1.4 5.74-1.41 9.05-1.59 0.987-0.0588 0.987-0.0588 1.99-0.119 2.09-0.124 4.18-0.236 6.28-0.346 2.1-0.115 4.21-0.233 6.31-0.357 1.9-0.111 3.8-0.213 5.7-0.315 2.71 0.0443 2.71 0.0443 3.8-1.27 11.9-2.07 24.2-2.27 36.2-1.69zm-722 158 1 2zm-52 143 1 2z" fill="#163A95"/>
<path transform="translate(999 171)" d="m0 0c0.828-4.99e-4 1.66-9.97e-4 2.51-0.00151 1.74 0.00233 3.48 0.012 5.22 0.0286 2.67 0.0237 5.33 0.0205 8 0.0139 1.69 0.00557 3.39 0.0127 5.08 0.0215 0.797-9.11e-4 1.59-0.00182 2.41-0.00276 3.84 0.0494 5.71 0.122 8.98 2.3v2c0.743 0.248 1.49 0.495 2.25 0.75 3.09 1.4 4.6 2.63 6.75 5.25 0.758 2.88 0.758 2.88 1.12 6.12 0.147 1.15 0.294 2.3 0.445 3.48 0.142 1.12 0.284 2.24 0.43 3.39 0.312 1.8 0.644 3.59 1 5.38 0.144 0.73 0.289 1.46 0.438 2.21 0.547 2.54 0.547 2.54 1.61 5.41 1.57 5.44 1.29 11.1 1.27 16.7 0.0161 1.11 0.0322 2.22 0.0488 3.36 0.00393 6.73-0.81 12.6-2.61 19.1-1.4 5.37-1.92 10.9-2.57 16.4-0.695 5.4-1.94 9.55-4.18 14.5-0.762 3.26-0.762 3.26-1.19 6.44-0.159 1.05-0.317 2.1-0.48 3.18-0.164 1.18-0.164 1.18-0.332 2.38-1.49 0.495-1.49 0.495-3 1-1.04 3.02-1.04 3.02-1.69 6.56-0.251 1.2-0.503 2.4-0.762 3.63-0.273 1.39-0.273 1.39-0.551 2.81h-2c-0.182 0.831-0.364 1.66-0.551 2.52-0.251 1.09-0.503 2.17-0.762 3.29-0.244 1.08-0.487 2.16-0.738 3.27-0.96 2.95-1.7 3.93-3.95 5.92-0.728 1.65-1.45 3.31-2.13 4.98-3.77 8.72-9.29 16.7-15.1 24.2-1.77 2.31-3.06 4.31-4.38 6.94-2.05 4.11-4.81 7.31-8.12 10.5-1.42 1.34-1.42 1.34-2.19 3.25-1.21 2.28-2.7 3.79-4.56 5.55-2.77 2.77-5.26 5.8-7.8 8.78-0.584 0.592-1.17 1.18-1.77 1.79h-2c-0.33 0.99-0.66 1.98-1 3-1.64 1.58-1.64 1.58-3.69 3.25-2.69 2.28-5.08 4.52-7.31 7.25-8.21 9.91-8.21 9.91-13.1 10.9-0.621 0.183-1.24 0.366-1.88 0.555-0.707 1.31-1.37 2.65-2 4-1.83 1.15-3.67 2.3-5.54 3.39-2.99 1.96-5.58 4.21-8.28 6.55-12.9 11.1-12.9 11.1-19.2 11.1-0.186 0.598-0.371 1.2-0.562 1.81-1.76 2.68-3.59 3.2-6.5 4.38-3.04 1.26-5.95 2.76-8.88 4.24-0.614 0.309-1.23 0.617-1.86 0.935-2.49 1.25-4.98 2.51-7.46 3.8-10.8 5.55-22.1 9.5-33.7 12.8-1.42 0.498-2.83 0.998-4.25 1.5-6.19 2.08-12.5 3.01-19 4-1.06 0.166-2.12 0.333-3.21 0.504-0.968 0.144-1.94 0.289-2.93 0.438-2.58 0.42-2.58 0.42-4.48 1.58-2.54 1.16-4.34 1.24-7.13 1.26-0.988 0.00953-1.98 0.0191-2.99 0.0289-1.06-9.11e-4 -2.12-0.00182-3.21-0.00276-1.09 0.00429-2.19 0.00857-3.32 0.013-2.31 0.00574-4.63 0.00625-6.94 0.00191-3.54-0.00316-7.08 0.0203-10.6 0.0457-2.25 0.00227-4.49 0.00298-6.74 0.00195-1.59 0.0138-1.59 0.0138-3.21 0.0279-1.48-0.00934-1.48-0.00934-2.99-0.0189-1.3 9.44e-4 -1.3 9.44e-4 -2.63 0.00191-2.85-0.453-4.16-1.55-6.35-3.37-0.763-0.268-1.53-0.536-2.31-0.812-5.13-2.26-9.59-5.91-11.7-11.2-0.243-3.05-0.243-3.05-0.23-6.66-8.56e-5 -0.654-1.71e-4 -1.31-2.59e-4 -1.98 0.00329-2.14 0.0222-4.28 0.0432-6.42 0.00957-1.48 0.019-2.96 0.0283-4.44 0.0287-3.77 0.0753-7.54 0.129-11.3 0.0287-2.09 0.0513-4.19 0.0724-6.28 0.0452-3.7 0.12-7.39 0.208-11.1 0.0139-1.11 0.0279-2.22 0.0422-3.36 0.195-6.17 0.929-9.4 4.71-14.5 0.579-3.15 0.579-3.15 0.562-6.38 0.254-5.53 1.17-9.59 3.44-14.6h2c-0.103-1.28-0.206-2.56-0.312-3.88-0.0237-5.05 1.66-8.28 4.08-12.6 1.57-3.17 2.17-6.21 2.68-9.69 0.555-1.81 0.555-1.81 3.55-3.81 0.721-2.16 0.721-2.16 1.06-4.56 0.41-2.44 0.41-2.44 0.938-4.44 0.66-0.33 1.32-0.66 2-1 1.13-2.11 1.13-2.11 2.12-4.56 0.53-1.24 0.53-1.24 1.07-2.5 0.398-0.957 0.398-0.957 0.805-1.93h2c0.269-0.709 0.539-1.42 0.816-2.15 1.22-2.93 2.61-5.68 4.12-8.48 0.756-1.41 0.756-1.41 1.53-2.85 1.36-2.24 2.67-3.72 4.54-5.52 1.05-1.98 2.05-3.97 3-6h2c0.0619-0.557 0.124-1.11 0.188-1.69 1.15-3.28 3.33-4.89 5.81-7.31 1-1.28 1.98-2.57 2.94-3.88 4.23-5.76 8.78-11.3 14.1-16.1h2c0.247-0.557 0.495-1.11 0.75-1.69 1.49-2.76 3.12-5 5.25-7.31 1.33-0.352 2.66-0.688 4-1 0.431-0.893 0.431-0.893 0.871-1.8 1.33-2.58 2.84-3.91 5.07-5.76 2.84-2.37 2.84-2.37 5.5-4.92 2.05-1.99 4.29-3.56 6.62-5.2l2.66-1.89c2.28-1.43 2.28-1.43 4.28-1.43 0.33-0.99 0.66-1.98 1-3 5.92-5.53 5.92-5.53 10-6v-2c0.508-0.242 1.02-0.485 1.54-0.734 3.42-1.67 6.7-3.34 9.84-5.52 2.62-1.75 2.62-1.75 4.62-1.75v-2c1.06-0.554 2.12-1.11 3.21-1.68 1.39-0.732 2.78-1.46 4.16-2.2 0.699-0.365 1.4-0.73 2.12-1.11 4.03-2.12 4.03-2.12 7.51-5.02 1.13-0.309 2.27-0.619 3.44-0.938 3.58-1.07 4.13-1.58 6.56-4.06 1.8-0.679 3.6-1.35 5.42-1.98 4.57-1.81 8.87-4.21 13.2-6.5 3.37-1.52 3.37-1.52 6.61-2.05 3.14-0.542 3.64-1.26 5.76-3.48 2.38-0.66 2.38-0.66 5-1.06 3.49-0.545 4.98-0.924 8-2.94 2.73-0.57 5.45-0.949 8.21-1.34 2.84-0.514 2.84-0.514 5.18-2.16 3.37-1.93 6.2-2.12 10.1-2.5 5.36-0.479 5.36-0.479 10.2-2.52 4.2-1.88 7.57-1.9 12.1-1.85zm-67.8 19.4 4 1zm-155 133 1 2zm-13 30 1 2zm-3 7 1 2zm-11 93 1 3z" fill="#163A95"/>
</svg>
