<svg width="1024.000000pt" height="1024.000000pt" viewBox="0 0 1024.000000 1024.000000" xmlns="http://www.w3.org/2000/svg">
  <g transform="translate(0.000000,1024.000000) scale(0.100000,-0.100000)" fill="#fefefe" stroke="none">
    <path d="M0 5120 l0 -5120 5120 0 5120 0 0 5120 0 5120 -5120 0 -5120 0 0
-5120z m6558 4014 c17 -4 45 -19 62 -34 l31 -28 17 -74 17 -73 0 -115 c0 -105
-9 -177 -36 -285 -25 -98 -35 -131 -47 -152 -6 -12 -12 -30 -12 -41 0 -11 -7
-25 -15 -32 -8 -7 -15 -20 -16 -29 0 -9 -13 -38 -29 -66 -16 -27 -38 -68 -49
-91 -17 -33 -70 -110 -108 -159 -5 -5 -26 -32 -48 -60 -62 -79 -194 -212 -265
-268 -36 -28 -67 -54 -70 -57 -16 -18 -109 -82 -145 -100 -11 -6 -33 -19 -50
-29 -57 -36 -214 -110 -285 -134 -134 -45 -175 -54 -340 -78 l-75 -11 -89 6
-89 6 -37 16 c-20 9 -46 31 -58 48 l-22 32 0 155 c1 85 5 172 10 194 4 22 14
67 20 100 6 33 18 73 26 88 8 16 14 39 14 51 0 12 7 31 15 42 8 10 15 25 15
33 0 13 32 89 51 121 5 8 14 26 19 39 6 13 24 44 40 68 17 24 30 46 30 49 0 3
54 82 81 119 98 131 448 445 496 445 3 0 14 7 23 15 25 23 177 102 290 151 19
9 48 22 63 30 16 8 35 14 42 14 8 0 29 6 47 14 132 55 386 98 476 80z m97
-2049 c50 -8 109 -15 131 -15 23 0 61 -7 84 -15 23 -8 56 -15 72 -15 16 0 39
-5 51 -12 12 -6 38 -15 57 -19 37 -8 84 -23 140 -47 19 -8 49 -20 65 -27 87
-35 254 -124 339 -180 66 -43 170 -116 176 -124 3 -3 28 -24 55 -46 70 -55
117 -98 207 -186 l78 -75 0 -44 0 -44 -22 -33 c-13 -18 -26 -33 -29 -33 -3 0
-73 -50 -155 -111 l-149 -111 -95 -97 c-124 -127 -133 -138 -221 -266 -31 -46
-93 -165 -124 -240 -12 -29 -25 -74 -47 -165 l-11 -45 0 -195 0 -195 11 -45
c24 -101 35 -136 48 -163 8 -16 14 -36 14 -45 0 -9 9 -30 20 -47 11 -16 20
-38 20 -47 0 -10 4 -18 9 -18 5 0 13 -10 17 -22 6 -19 22 -45 98 -152 108
-154 471 -461 636 -539 8 -4 29 -16 45 -27 17 -11 37 -23 45 -27 35 -15 88
-65 100 -92 l12 -30 -12 -53 c-7 -29 -18 -60 -24 -68 -7 -8 -41 -71 -75 -140
-35 -69 -78 -152 -97 -185 -19 -33 -42 -73 -50 -90 -8 -16 -23 -43 -34 -60
-11 -16 -25 -39 -30 -50 -6 -11 -22 -38 -35 -60 -14 -22 -28 -47 -32 -55 -4
-8 -21 -35 -38 -60 -17 -25 -34 -52 -38 -60 -4 -8 -32 -49 -62 -90 -30 -41
-58 -82 -62 -90 -4 -8 -45 -64 -92 -125 -321 -415 -682 -694 -976 -755 -22 -5
-53 -14 -70 -20 l-30 -12 -210 0 -210 1 -44 15 c-24 9 -58 16 -75 16 -17 1
-42 7 -56 15 -14 8 -38 15 -55 15 -16 0 -41 7 -55 15 -14 8 -34 14 -45 15 -11
0 -33 7 -49 15 -15 8 -36 15 -45 15 -9 0 -29 7 -45 15 -15 8 -36 15 -45 15 -9
0 -29 7 -45 15 -15 8 -35 15 -43 15 -8 0 -29 6 -46 14 -33 14 -72 25 -192 54
l-70 16 -140 0 -140 -1 -65 -15 c-36 -8 -72 -17 -80 -21 -8 -4 -33 -11 -55
-16 -37 -9 -56 -15 -145 -46 -19 -7 -62 -21 -95 -30 -33 -10 -74 -24 -92 -32
-17 -7 -36 -13 -43 -13 -7 0 -35 -7 -64 -16 -28 -9 -71 -22 -96 -30 -25 -8
-56 -14 -70 -14 -14 0 -47 -7 -74 -15 l-49 -15 -203 0 -203 0 -28 11 c-15 6
-48 14 -73 19 -119 21 -361 138 -475 227 -5 5 -30 24 -55 43 -174 134 -409
392 -515 568 -5 9 -29 43 -53 77 -23 33 -47 72 -53 88 -6 15 -15 27 -19 27 -4
0 -13 12 -19 28 -12 28 -18 39 -64 110 -15 24 -32 53 -37 65 -6 12 -26 49 -45
82 -20 33 -42 74 -50 92 -8 17 -19 34 -25 38 -5 3 -10 14 -10 24 0 10 -9 28
-20 41 -11 13 -20 31 -20 40 0 10 -7 23 -15 30 -8 7 -15 20 -15 30 0 10 -7 23
-15 30 -8 7 -15 18 -15 24 0 6 -9 28 -20 49 -11 20 -20 43 -20 51 0 7 -7 19
-15 26 -8 7 -15 21 -15 32 0 11 -6 32 -14 46 -37 69 -56 114 -56 131 0 10 -7
24 -15 31 -8 7 -15 21 -15 32 0 11 -7 34 -15 51 -18 40 -44 113 -54 152 -4 17
-12 39 -18 50 -6 11 -13 37 -17 57 -4 20 -13 50 -21 65 -8 15 -15 42 -15 58
-1 17 -7 41 -15 55 -8 14 -14 40 -15 58 0 18 -6 48 -14 66 -7 18 -17 62 -21
97 -4 35 -12 75 -17 89 -41 102 -41 849 -1 926 6 10 14 43 18 72 4 30 13 66
21 80 8 15 14 39 14 53 0 14 7 34 15 45 8 10 15 27 15 37 0 16 15 54 55 142 8
17 16 37 20 45 3 8 23 47 45 85 22 39 44 81 50 94 6 13 24 44 40 68 17 24 30
46 30 48 0 3 45 74 82 129 139 205 368 435 558 559 126 83 143 93 260 144 19
9 47 22 62 30 14 7 35 13 45 13 10 0 24 5 30 11 6 6 29 15 50 20 21 4 58 13
83 19 25 6 63 16 85 21 22 6 96 15 165 20 l125 10 188 -6 c104 -4 203 -11 220
-17 18 -5 61 -13 97 -18 36 -5 84 -13 108 -19 99 -26 129 -33 167 -40 22 -4
50 -13 62 -19 12 -7 34 -12 48 -12 14 0 36 -5 48 -12 12 -6 38 -15 57 -19 19
-4 50 -12 68 -18 17 -6 47 -16 65 -22 17 -6 48 -15 67 -19 19 -4 49 -13 65
-18 55 -19 139 -41 202 -53 l62 -11 58 5 c100 10 158 19 168 27 6 5 28 11 50
15 22 4 45 11 50 16 6 4 29 12 50 18 45 10 94 27 143 47 18 8 43 14 55 14 13
0 28 5 34 11 6 6 29 15 50 19 21 5 52 13 68 18 29 10 89 27 185 52 25 6 70 15
100 20 30 4 68 13 83 19 16 6 54 11 85 12 31 0 91 6 132 14 102 18 227 18 335
0z" />
  </g>
  <g transform="translate(0.000000,1024.000000) scale(0.100000,-0.100000)" fill="#213e98" stroke="none">
    <path d="M6375 9139 c-90 -11 -236 -47 -303 -75 -18 -8 -39 -14 -47 -14 -7 0
-26 -6 -42 -14 -15 -8 -44 -21 -63 -30 -113 -49 -265 -128 -290 -151 -9 -8
-20 -15 -23 -15 -48 0 -398 -314 -496 -445 -27 -37 -81 -116 -81 -119 0 -3
-13 -25 -30 -49 -16 -24 -34 -55 -40 -68 -5 -13 -14 -31 -19 -39 -19 -32 -51
-108 -51 -121 0 -8 -7 -23 -15 -33 -8 -11 -15 -32 -15 -46 0 -14 -5 -31 -11
-37 -6 -6 -17 -42 -24 -80 -8 -37 -18 -88 -24 -113 -6 -25 -10 -119 -11 -209
l0 -165 22 -32 c12 -17 39 -39 59 -48 l37 -17 99 -5 98 -6 75 11 c165 24 206
33 340 78 71 24 228 98 285 134 17 10 39 23 50 29 36 18 129 82 145 100 3 3
34 29 70 57 71 56 203 189 265 268 22 28 43 55 48 60 38 49 91 126 108 159 11
23 33 64 49 91 16 28 29 57 29 66 1 9 8 22 16 29 8 7 15 22 15 34 0 12 7 31
15 42 8 10 14 26 15 34 0 8 8 44 19 80 33 109 45 199 45 330 l0 125 -16 73
-16 73 -31 29 c-47 41 -108 48 -256 29z" />
    <path d="M6365 7098 l-20 -12 -115 -4 -115 -4 -22 -14 -22 -14 -55 0 -55 0
-15 -15 -15 -15 -36 0 c-33 0 -74 -10 -170 -42 -16 -5 -47 -13 -68 -18 -21 -4
-44 -13 -50 -19 -6 -6 -21 -11 -34 -11 -12 0 -37 -6 -55 -14 -49 -20 -98 -37
-143 -47 -21 -6 -44 -14 -50 -18 -5 -5 -29 -12 -52 -16 -24 -4 -45 -11 -49
-16 -3 -5 -20 -9 -37 -9 -18 0 -57 -7 -87 -15 l-55 -15 -75 16 c-79 17 -165
39 -215 56 -16 5 -46 14 -65 18 -19 4 -50 13 -67 19 -18 6 -48 16 -65 22 -18
6 -49 14 -68 18 -19 4 -45 13 -57 19 -12 7 -34 12 -50 12 -15 1 -39 7 -53 15
-14 8 -37 14 -51 15 -15 0 -43 7 -62 15 -20 8 -57 15 -82 15 l-46 0 -15 15
-15 15 -72 0 -72 1 -19 14 -20 15 -316 0 -316 0 -20 -15 -19 -14 -52 -1 -52 0
-15 -15 -15 -15 -39 0 -40 0 -12 -15 c-7 -8 -25 -15 -41 -15 -15 0 -34 -7 -43
-15 -8 -8 -24 -15 -35 -15 -11 0 -26 -7 -35 -15 -8 -8 -23 -15 -34 -15 -11 0
-25 -7 -32 -15 -7 -8 -20 -15 -30 -15 -10 0 -23 -6 -29 -14 -7 -8 -23 -17 -36
-20 -14 -4 -25 -11 -25 -16 0 -6 -5 -10 -10 -10 -12 0 -73 -41 -78 -52 -2 -5
-8 -8 -14 -8 -6 0 -29 -14 -52 -32 -109 -85 -317 -294 -377 -377 -13 -19 -36
-48 -52 -65 -15 -17 -27 -36 -27 -42 0 -6 -9 -19 -20 -29 -11 -10 -20 -22 -20
-28 0 -5 -13 -26 -30 -47 -16 -21 -30 -42 -30 -47 0 -6 -9 -20 -20 -33 -11
-13 -20 -29 -20 -35 0 -7 -7 -18 -15 -25 -8 -7 -15 -21 -15 -32 0 -10 -7 -21
-15 -24 -8 -4 -15 -14 -15 -24 0 -9 -9 -27 -20 -40 -11 -13 -20 -31 -20 -40 0
-10 -7 -20 -15 -24 l-15 -5 0 -27 c0 -14 -9 -37 -20 -51 -11 -14 -20 -34 -20
-44 0 -9 -5 -19 -11 -21 -5 -2 -13 -24 -16 -48 -4 -25 -12 -51 -20 -58 -7 -7
-13 -31 -13 -52 l0 -39 -14 -8 -15 -8 -7 -70 c-4 -39 -12 -73 -18 -77 l-11 -7
-9 -178 c-10 -208 -10 -256 -1 -503 l7 -185 12 -20 c7 -11 16 -56 19 -99 l7
-79 15 -17 15 -17 0 -55 0 -56 15 -6 15 -5 0 -49 0 -50 14 -11 c8 -6 17 -36
21 -65 l6 -54 15 -6 14 -5 0 -39 0 -40 14 -11 c7 -6 16 -29 19 -51 3 -22 12
-47 21 -55 9 -9 16 -29 16 -44 0 -16 7 -34 15 -41 8 -7 15 -25 15 -41 0 -15 6
-32 13 -36 8 -4 17 -23 20 -41 4 -18 14 -40 22 -48 8 -9 15 -26 15 -39 0 -13
7 -30 15 -39 8 -8 15 -23 15 -34 0 -11 7 -25 15 -32 8 -7 15 -20 15 -30 0 -9
9 -29 20 -43 11 -14 20 -34 20 -45 0 -11 7 -25 15 -32 8 -7 15 -20 15 -30 0
-9 9 -27 20 -40 11 -13 20 -31 20 -40 0 -10 7 -20 15 -24 8 -3 15 -15 15 -26
0 -11 7 -23 15 -26 8 -4 15 -14 15 -24 0 -9 9 -27 20 -40 11 -13 20 -31 20
-40 0 -10 7 -20 15 -24 8 -3 15 -15 15 -26 0 -11 7 -23 15 -26 8 -4 15 -14 15
-24 0 -9 9 -27 20 -40 11 -13 20 -29 20 -37 0 -7 7 -16 15 -19 8 -4 15 -14 15
-24 0 -10 6 -25 13 -32 23 -25 57 -77 57 -88 0 -5 5 -10 11 -10 5 0 15 -13 20
-30 6 -16 15 -30 19 -30 4 0 13 -14 19 -30 5 -17 15 -30 20 -30 6 0 11 -6 11
-14 0 -8 7 -16 15 -20 8 -3 15 -12 15 -19 0 -13 14 -33 52 -76 7 -8 15 -21 18
-28 16 -41 286 -313 390 -393 25 -19 51 -40 58 -47 7 -7 19 -13 27 -13 7 0 15
-3 17 -7 5 -11 66 -53 77 -53 5 0 11 -4 13 -8 4 -10 85 -52 99 -52 6 0 17 -7
25 -15 9 -8 24 -15 35 -15 11 0 27 -7 35 -15 9 -8 29 -15 45 -15 17 0 37 -7
45 -15 l15 -15 45 0 45 0 23 -16 24 -15 233 3 232 3 5 13 4 12 57 0 57 0 19
14 c11 7 42 16 69 18 27 3 51 10 55 15 3 6 26 13 51 16 24 3 46 11 48 16 2 6
16 11 30 11 15 0 40 7 56 15 15 8 39 15 51 15 13 0 30 7 39 15 8 8 27 15 43
15 16 0 37 6 48 14 11 7 41 16 68 20 26 4 47 11 47 15 0 5 25 11 56 14 31 3
62 11 67 16 l11 11 146 0 146 0 11 -11 c5 -5 36 -13 67 -16 31 -3 56 -10 56
-14 0 -5 23 -11 50 -15 28 -4 50 -10 50 -15 0 -4 17 -11 38 -14 20 -3 49 -13
64 -21 14 -8 37 -14 50 -14 12 0 32 -7 42 -15 11 -8 31 -15 45 -15 14 0 35 -7
45 -15 11 -8 33 -15 49 -15 15 0 35 -7 43 -15 l15 -15 37 0 c20 0 46 -7 56
-15 l20 -15 48 0 49 0 23 -16 24 -15 243 3 242 3 5 13 4 12 42 0 42 0 20 15
c10 8 31 15 46 15 15 0 33 7 42 15 8 8 23 15 34 15 11 0 25 7 32 15 7 8 20 15
30 15 10 0 23 7 30 15 7 8 18 15 26 15 7 0 19 6 26 14 8 7 24 17 36 20 12 4
22 12 22 17 0 5 5 9 11 9 10 0 104 68 164 120 93 80 356 355 379 397 5 10 22
31 38 47 15 17 28 35 28 41 0 6 16 26 35 45 19 19 35 42 35 50 0 8 14 28 31
44 16 17 32 40 35 52 3 13 12 25 20 28 8 3 14 12 14 20 0 8 14 30 30 48 17 18
33 43 36 55 3 12 12 24 20 27 8 3 14 15 14 26 0 11 6 23 14 26 8 3 18 18 21
34 3 16 13 31 21 34 8 3 14 15 14 26 0 11 7 23 15 26 8 4 15 14 15 24 0 9 9
27 20 40 11 13 20 29 20 35 0 7 7 18 15 25 8 7 15 21 15 32 0 10 7 21 15 24 8
4 15 14 15 24 0 9 9 27 20 40 11 13 20 31 20 40 0 10 7 20 15 24 l15 5 0 25 0
24 15 6 c8 3 15 14 15 24 0 11 7 25 15 32 8 6 17 22 21 33 3 12 13 30 22 39
l15 18 1 86 1 86 -35 30 c-19 16 -44 34 -55 39 -11 5 -33 18 -50 29 -16 11
-41 25 -55 30 -13 6 -27 14 -30 18 -8 11 -116 82 -124 82 -4 0 -14 6 -21 13
-8 6 -20 17 -27 22 -113 89 -149 115 -154 115 -14 0 -264 261 -264 276 0 8 -7
17 -15 20 -8 4 -15 12 -15 20 0 8 -5 14 -11 14 -5 0 -15 13 -20 29 -6 16 -17
32 -25 35 -8 3 -14 14 -14 24 0 11 -7 25 -15 32 -8 7 -15 20 -15 30 0 9 -9 27
-20 40 l-20 23 0 29 0 29 -15 5 -15 6 0 38 0 38 -14 11 -14 12 -7 85 c-4 48
-13 101 -21 120 l-14 33 0 71 0 71 14 27 c7 15 17 61 21 102 4 41 14 84 21 95
8 11 14 36 14 56 l0 37 15 6 15 5 0 24 c0 13 9 34 20 47 11 13 20 31 20 42 0
10 4 18 10 18 5 0 13 12 16 26 4 15 15 35 25 45 11 11 19 25 19 33 0 8 7 16
15 20 8 3 15 10 15 16 0 5 8 19 18 29 9 11 22 26 27 33 39 51 107 129 142 163
83 80 135 125 144 125 5 0 9 4 9 9 0 4 19 21 43 37 23 16 44 32 45 37 2 4 10
7 18 7 8 0 17 7 20 15 4 8 13 15 20 15 8 0 17 7 20 15 4 8 13 15 20 15 8 0 17
6 20 14 3 8 15 17 27 20 12 4 32 22 45 42 l22 35 0 51 0 50 -78 76 c-89 88
-136 131 -207 187 -27 22 -55 45 -61 50 -6 6 -22 17 -34 25 -12 8 -42 30 -66
48 -23 17 -48 32 -53 32 -6 0 -11 4 -11 10 0 5 -11 12 -25 16 -14 3 -25 10
-25 14 0 5 -10 12 -22 16 -12 3 -28 13 -36 20 -7 8 -19 14 -26 14 -8 0 -19 7
-26 15 -7 8 -21 15 -31 15 -11 0 -19 4 -19 10 0 5 -12 13 -27 16 -15 4 -34 13
-41 21 -7 7 -22 13 -33 13 -11 0 -27 7 -35 15 -9 8 -26 15 -38 15 -13 0 -29 7
-36 15 -7 8 -26 15 -42 15 -16 0 -36 7 -44 15 l-15 15 -38 0 -39 0 -12 15 -12
15 -52 0 -51 1 -19 14 -20 15 -81 0 -82 0 -49 15 -49 15 -100 0 -100 -1 -20
-11z" />
  </g>
  <g transform="translate(0.000000,1024.000000) scale(0.100000,-0.100000)" fill="#2b479c" stroke="none">
    <path d="M6694 8815 c0 -49 1 -71 3 -48 2 23 2 64 0 90 -2 26 -3 8 -3 -42z" />
    <path d="M5305 8610 c-22 -22 -35 -40 -30 -40 6 0 29 18 50 40 51 52 33 51
-20 0z" />
    <path d="M4976 8188 c-9 -12 -16 -27 -16 -32 0 -5 -7 -17 -16 -27 -9 -10 -14
-23 -12 -29 2 -7 13 5 23 26 11 22 26 47 34 57 8 9 12 20 9 23 -3 3 -13 -5
-22 -18z" />
    <path d="M6355 7926 c-11 -12 -29 -36 -38 -52 l-18 -29 21 25 c12 14 33 37 46
53 13 15 21 27 17 27 -5 0 -17 -11 -28 -24z" />
    <path d="M6115 7670 c-16 -16 -24 -30 -19 -30 6 0 23 14 39 30 16 17 24 30 19
30 -6 0 -23 -13 -39 -30z" />
    <path d="M3430 7080 l0 -10 120 0 120 0 0 10 0 10 -120 0 -120 0 0 -10z" />
    <path d="M6250 7080 c0 -5 15 -10 34 -10 19 0 38 5 41 10 l6 10 -40 0 -41 0 0
-10z" />
    <path d="M6655 7080 c3 -5 19 -10 36 -10 16 0 29 5 29 10 0 6 -16 10 -36 10
l-35 0 6 -10z" />
    <path d="M3890 7055 c13 -16 50 -21 50 -6 0 5 -10 11 -22 15 -36 9 -41 7 -28
-9z" />
    <path d="M6985 7030 c18 -20 45 -27 45 -12 0 8 -43 32 -57 32 -3 0 2 -9 12
-20z" />
    <path d="M5005 6780 c3 -5 19 -10 35 -10 16 0 32 5 35 10 l6 10 -41 0 -41 0 6
-10z" />
    <path d="M2200 6479 c-12 -16 -19 -33 -15 -37 4 -4 10 -1 13 7 2 7 13 22 23
32 21 21 24 29 10 29 -5 0 -19 -14 -31 -31z" />
    <path d="M2080 6335 c-13 -14 -21 -27 -18 -30 6 -6 48 33 48 45 0 15 -4 13
-30 -15z" />
    <path d="M8016 6145 c-3 -8 -12 -15 -21 -15 -8 0 -15 -4 -15 -10 0 -5 3 -10 8
-10 13 0 52 30 52 41 0 15 -17 10 -24 -6z" />
    <path d="M1830 5939 c-12 -23 -19 -44 -15 -47 8 -8 25 18 25 39 0 9 7 19 15
23 17 6 21 26 5 26 -5 0 -19 -18 -30 -41z" />
    <path d="M7615 5814 c-22 -26 -42 -51 -44 -56 l-3 -10 14 8 c8 5 34 30 57 57
l44 47 -14 0 c-8 0 -32 -21 -54 -46z" />
    <path d="M1742 5769 c-7 -12 -11 -23 -8 -26 8 -9 36 17 36 33 0 20 -13 17 -28
-7z" />
    <path d="M1670 5591 c-5 -11 -10 -25 -10 -32 l0 -13 20 22 c11 12 20 26 20 32
0 17 -19 11 -30 -9z" />
    <path d="M7336 5414 c-3 -9 -6 -24 -6 -35 0 -11 -7 -22 -15 -25 -17 -7 -21
-38 -4 -32 9 3 49 90 49 106 0 9 -19 -1 -24 -14z" />
    <path d="M7248 5067 l-18 -42 1 -80 0 -80 20 -45 19 -45 -6 40 c-3 22 -8 76
-11 120 l-5 80 12 36 c18 53 8 66 -12 16z" />
    <path d="M1580 5056 c0 -13 -3 -45 -6 -72 l-7 -49 11 10 c6 6 14 38 18 73 l7
62 -12 0 c-6 0 -11 -11 -11 -24z" />
    <path d="M1574 4810 c3 -30 6 -67 6 -82 l0 -28 11 0 12 0 -7 67 c-4 36 -11 74
-17 82 l-10 16 5 -55z" />
    <path d="M1590 4468 c0 -17 21 -58 30 -58 5 0 10 3 10 8 -1 9 -39 59 -40 50z" />
    <path d="M1630 4262 c0 -11 5 -24 10 -27 6 -3 10 -15 10 -26 0 -10 5 -19 10
-19 17 0 11 41 -10 67 l-20 26 0 -21z" />
    <path d="M7600 4083 c0 -5 11 -20 25 -33 23 -22 34 -18 17 5 -13 19 -42 38
-42 28z" />
    <path d="M1730 3903 c14 -47 22 -63 31 -63 15 0 10 30 -6 36 -8 4 -15 14 -15
24 0 11 -4 21 -9 25 l-10 5 9 -27z" />
    <path d="M7800 3898 c0 -3 25 -22 55 -43 30 -20 55 -41 55 -46 0 -5 5 -9 10
-9 21 0 8 17 -40 53 -49 37 -80 54 -80 45z" />
    <path d="M8084 3695 c16 -14 35 -25 41 -25 7 0 18 -7 25 -15 7 -8 19 -15 28
-15 l15 0 -26 20 c-14 11 -29 20 -34 20 -4 0 -19 9 -33 20 -37 29 -50 24 -16
-5z" />
    <path d="M1809 3670 c11 -25 21 -55 21 -66 0 -23 26 -51 37 -40 3 3 -1 14 -10
24 -10 10 -17 30 -17 44 l0 25 -25 29 -26 29 20 -45z" />
    <path d="M8299 3556 l14 -17 1 -59 c1 -65 12 -79 21 -27 l6 32 -13 39 c-7 22
-20 42 -28 44 l-15 5 14 -17z" />
    <path d="M1900 3433 c0 -5 7 -17 15 -27 8 -11 15 -28 15 -39 0 -20 27 -53 37
-44 3 3 -2 13 -11 22 -9 9 -16 27 -16 40 0 13 -7 31 -16 39 -17 18 -24 20 -24
9z" />
    <path d="M8252 3298 c-7 -7 -12 -20 -12 -30 0 -9 -8 -21 -17 -27 -10 -5 -14
-13 -10 -17 10 -10 23 4 46 49 19 37 16 48 -7 25z" />
    <path d="M8162 3120 c-12 -12 -22 -29 -22 -39 0 -11 -7 -21 -15 -25 -17 -6
-21 -30 -5 -24 10 3 75 108 67 108 -2 0 -13 -9 -25 -20z" />
    <path d="M2180 2875 c0 -15 42 -85 50 -85 15 0 12 20 -4 26 -8 3 -16 18 -20
35 -4 24 -26 43 -26 24z" />
    <path d="M7929 2707 c-9 -7 -19 -23 -23 -37 l-8 -25 26 30 c34 40 36 56 5 32z" />
    <path d="M2370 2539 c1 -20 58 -84 67 -75 5 4 0 13 -10 20 -9 7 -17 18 -17 23
0 5 -9 18 -20 28 l-20 18 0 -14z" />
    <path d="M2490 2361 c0 -5 9 -19 19 -32 l19 -24 9 8 8 9 -18 12 c-9 7 -17 18
-17 25 0 6 -4 11 -10 11 -5 0 -10 -4 -10 -9z" />
    <path d="M7627 2279 c-15 -17 -27 -36 -27 -41 l0 -10 15 12 c23 19 58 70 48
70 -5 0 -21 -14 -36 -31z" />
    <path d="M2539 2283 c22 -36 60 -77 67 -70 4 4 -2 16 -14 27 -12 12 -22 24
-22 28 0 4 -9 13 -21 20 l-20 13 10 -18z" />
    <path d="M7561 2195 l-23 -25 15 0 c8 0 22 11 31 25 21 32 8 32 -23 0z" />
    <path d="M2660 2144 c0 -6 20 -34 45 -63 43 -51 64 -60 28 -12 -37 48 -73 85
-73 75z" />
  </g>
  <g transform="translate(0.000000,1024.000000) scale(0.100000,-0.100000)" fill="#dadeed" stroke="none">
    <path d="M3213 7067 c-17 -7 -35 -16 -40 -21 l-8 -9 29 7 c16 4 39 14 50 22
24 17 13 17 -31 1z" />
    <path d="M7943 6087 c-4 -8 -16 -16 -25 -20 -10 -3 -18 -11 -18 -17 l0 -11 30
21 c33 24 46 40 31 40 -5 0 -14 -6 -18 -13z" />
    <path d="M7835 6005 c-22 -19 -35 -34 -30 -34 6 0 28 15 50 34 22 19 36 35 30
35 -5 0 -28 -16 -50 -35z" />
    <path d="M7240 4955 l0 -55 10 0 10 0 0 55 0 55 -10 0 -10 0 0 -55z" />
    <path d="M1630 4258 c0 -11 30 -78 35 -78 10 0 -7 55 -21 70 -8 8 -14 12 -14
8z" />
    <path d="M7500 4205 c0 -13 58 -80 64 -74 3 2 -11 22 -30 44 -19 22 -34 35
-34 30z" />
    <path d="M7944 2733 c-4 -16 -13 -32 -19 -38 -7 -5 -15 -19 -19 -30 l-7 -20
25 30 c14 17 25 34 26 39 0 5 7 18 17 28 l16 18 -16 0 -17 0 -6 -27z" />
    <path d="M6950 1655 c-7 -8 -19 -15 -27 -15 -8 0 -26 -9 -40 -20 -14 -11 -23
-20 -19 -20 9 0 98 49 111 61 l9 9 -11 0 c-6 0 -16 -7 -23 -15z" />
    <path d="M6315 1510 c3 -5 28 -10 55 -10 27 0 52 5 55 10 l6 10 -61 0 -61 0 6
-10z" />
  </g>
  <g transform="translate(0.000000,1024.000000) scale(0.100000,-0.100000)" fill="#3751a2" stroke="none">
    <path d="M4793 7435 c0 -33 2 -45 4 -27 2 18 2 45 0 60 -2 15 -4 0 -4 -33z" />
    <path d="M1580 5089 l0 -30 10 6 c6 3 10 17 10 31 0 13 -4 24 -10 24 -5 0 -10
-14 -10 -31z" />
    <path d="M1580 4686 c0 -20 5 -36 10 -36 6 0 10 13 10 29 0 17 -4 33 -10 36
l-10 6 0 -35z" />
    <path d="M1660 4128 c0 -14 23 -58 32 -58 4 0 8 4 8 9 0 11 -39 59 -40 49z" />
    <path d="M7640 4044 c0 -11 59 -68 65 -62 3 2 -11 20 -30 38 -19 19 -35 30
-35 24z" />
    <path d="M7765 3925 c22 -18 42 -32 44 -29 6 6 -61 63 -74 63 -5 0 8 -15 30
-34z" />
    <path d="M2453 2412 c10 -10 17 -23 17 -28 0 -5 10 -18 21 -28 24 -20 23 -16
-10 37 -12 20 -28 37 -34 37 -5 0 -3 -8 6 -18z" />
    <path d="M7320 1935 c-19 -19 -30 -35 -24 -35 6 0 25 16 44 35 19 19 30 35 24
35 -5 0 -25 -16 -44 -35z" />
    <path d="M3047 1768 c17 -20 93 -61 93 -50 0 5 -8 12 -17 16 -10 3 -34 15 -52
27 -19 11 -30 15 -24 7z" />
  </g>
  <g transform="translate(0.000000,1024.000000) scale(0.100000,-0.100000)" fill="#4c64ac" stroke="none">
    <path d="M7250 5051 c-12 -24 -13 -51 -1 -51 5 0 11 16 13 35 5 40 3 43 -12
16z" />
    <path d="M1762 3815 l-2 -30 20 -30 c11 -16 20 -25 20 -20 0 6 -6 20 -14 31
-8 11 -16 33 -19 49 l-4 30 -1 -30z" />
    <path d="M3778 1513 c28 -2 76 -2 105 0 28 2 5 3 -53 3 -58 0 -81 -1 -52 -3z" />
  </g>
  <g transform="translate(0.000000,1024.000000) scale(0.100000,-0.100000)" fill="#425ba7" stroke="none">
    <path d="M8114 3025 c-3 -13 -12 -29 -20 -36 -16 -13 -19 -33 -4 -24 15 9 50
85 39 85 -5 0 -11 -11 -15 -25z" />
    <path d="M2692 2091 c33 -42 54 -48 22 -6 -14 19 -31 35 -36 35 -5 0 1 -13 14
-29z" />
  </g>
  <g transform="translate(0.000000,1024.000000) scale(0.100000,-0.100000)" fill="#6478b7" stroke="none" />
  <g transform="translate(0.000000,1024.000000) scale(0.100000,-0.100000)" fill="#586db1" stroke="none" />
  <g transform="translate(0.000000,1024.000000) scale(0.100000,-0.100000)" fill="#6e81bb" stroke="none" />
  <g transform="translate(0.000000,1024.000000) scale(0.100000,-0.100000)" fill="#c7cee5" stroke="none">
    <path d="M5028 7213 c17 -2 47 -2 65 0 17 2 3 4 -33 4 -36 0 -50 -2 -32 -4z" />
  </g>
  <g transform="translate(0.000000,1024.000000) scale(0.100000,-0.100000)" fill="#9daad1" stroke="none" />
  <g transform="translate(0.000000,1024.000000) scale(0.100000,-0.100000)" fill="#8494c5" stroke="none" />
  <g transform="translate(0.000000,1024.000000) scale(0.100000,-0.100000)" fill="#8e9dca" stroke="none" />
  <g transform="translate(0.000000,1024.000000) scale(0.100000,-0.100000)" fill="#798ac0" stroke="none" />
  <g transform="translate(0.000000,1024.000000) scale(0.100000,-0.100000)" fill="#a5b1d5" stroke="none" />
  <g transform="translate(0.000000,1024.000000) scale(0.100000,-0.100000)" fill="#bcc4df" stroke="none" />
  <g transform="translate(0.000000,1024.000000) scale(0.100000,-0.100000)" fill="#b1bbda" stroke="none" />
  <g transform="translate(0.000000,1024.000000) scale(0.100000,-0.100000)" fill="#3c55a4" stroke="none" />
  <g transform="translate(0.000000,1024.000000) scale(0.100000,-0.100000)" fill="#445ca8" stroke="none" />
  <g transform="translate(0.000000,1024.000000) scale(0.100000,-0.100000)" fill="#aeb8d9" stroke="none" />
  <g transform="translate(0.000000,1024.000000) scale(0.100000,-0.100000)" fill="#6377b6" stroke="none" />
  <g transform="translate(0.000000,1024.000000) scale(0.100000,-0.100000)" fill="#000000" stroke="none" />
  <g transform="translate(0.000000,1024.000000) scale(0.100000,-0.100000)" fill="#000000" stroke="none" />
  <g transform="translate(0.000000,1024.000000) scale(0.100000,-0.100000)" fill="#000000" stroke="none" />
</svg>