<?xml version="1.0" encoding="UTF-8"?>
<svg version="1.1" viewBox="0 0 1600 1600" width="1280" height="1280" xmlns="http://www.w3.org/2000/svg">
<path transform="translate(796 326)" d="m0 0c0.79-9.57e-4 1.58-0.00191 2.39-0.0029 1.67-6.8e-4 3.34 0.00116 5.01 0.00534 2.56 0.00536 5.12 4.53e-5 7.68-0.00635 1.62 6.61e-4 3.24 0.00194 4.86 0.00391 0.768-0.00202 1.54-0.00405 2.33-0.00613 5.41 0.024 5.41 0.024 7.64 1.14 1.71 0.07 3.42 0.0844 5.12 0.0625 1.37-0.0135 1.37-0.0135 2.76-0.0273 0.699-0.0116 1.4-0.0232 2.12-0.0352v2c0.846-0.0206 1.69-0.0412 2.56-0.0625 3.57 0.065 6.9 0.549 10.4 1.06 3.08 0.263 6.15 0.497 9.23 0.719 3.26 0.331 5.84 0.788 8.74 2.32 2.32 1.09 3.98 1.19 6.53 1.27 5.4 0.437 9.71 2.24 14.6 4.43 2.48 1.09 4.92 2 7.5 2.82 20.2 6.56 38.5 18.3 53.4 33.4 0.846 0.825 1.69 1.65 2.56 2.5 2.33 2.39 4.36 4.89 6.44 7.5 0.949 0.907 0.949 0.907 1.92 1.83 2.2 2.29 3.72 4.56 5.33 7.29 0.521 0.869 1.04 1.74 1.58 2.63 1.17 2.24 1.17 2.24 1.17 4.24h2c4.13 8.28 7.75 16.6 10.8 25.4 0.434 1.23 0.434 1.23 0.877 2.48 2.57 7.48 4.22 14.9 5.31 22.8 0.686 4.63 1.58 8.93 3 13.4 1.31 4.63 1.35 9.21 1.53 14 0.0415 1.07 0.0831 2.14 0.126 3.25 0.682 19.6 0.698 39.2 0.869 58.7 0.0509 5.82 0.105 11.6 0.166 17.5 0.0265 2.71 0.0473 5.42 0.068 8.13 0.0166 1.64 0.0334 3.27 0.0507 4.91 0.00418 0.752 0.00837 1.5 0.0127 2.28-0.26 3.41-0.26 3.41 1.18 6.24 0.325 1.51 0.609 3.04 0.875 4.56 0.624 3.29 1.35 6.28 2.62 9.38 1.27 3.15 1.94 6.15 2.5 9.5 1.81 10.8 5.94 19.6 12 28.6 0.474 0.969 0.949 1.94 1.44 2.94 1.28 2.52 2.59 4.56 4.25 6.81 2.31 3.25 2.31 3.25 2.31 5.25 0.61 0.251 1.22 0.503 1.85 0.762 2.48 1.43 3.22 2.57 4.59 5.05 2.15 3.64 4.49 6.25 7.56 9.19 1.44 1.62 2.88 3.24 4.31 4.88 3.4 3.82 6.93 7.18 10.8 10.5 1.87 1.69 3.43 3.46 5.03 5.41 2.34 2.84 4.59 4.43 7.81 6.25 1.69 1.65 3.35 3.31 5 5 0.928 0.722 1.86 1.44 2.81 2.19 0.722 0.598 1.44 1.2 2.19 1.81v2c0.59 0.275 1.18 0.549 1.79 0.832 4.83 2.55 8.69 6.42 12.1 10.6 3.87 4.66 8.48 8.39 13.1 12.3 4.02 3.43 7.54 6.99 11 11 4.11 4.63 8.59 8.91 13 13.3 1.76 1.76 3.42 3.56 5.06 5.44 0.527 0.597 1.05 1.19 1.6 1.81 1.34 1.75 1.34 1.75 2.34 4.75 0.99 0.33 1.98 0.66 3 1 1.36 1.57 1.36 1.57 2.75 3.56 3.71 5.14 7.77 9.95 12.2 14.4 0.889 1.16 1.76 2.32 2.62 3.5 2.28 3.07 4.63 6.05 7.06 9 20.3 25.3 20.3 25.3 20.3 32.5 0.99 0.33 1.98 0.66 3 1 1.03 1.98 2.03 3.98 3 6 0.491 0.442 0.982 0.884 1.49 1.34 2.06 2.26 2.47 4.4 3.2 7.35 0.251 0.994 0.503 1.99 0.762 3.01 0.273 1.14 0.273 1.14 0.551 2.3h2c4.01 8.87 7.89 17.8 11.2 27 0.814 2.09 1.75 4.09 2.72 6.11 2.26 5.06 3.56 10.2 4.77 15.6 0.212 0.902 0.424 1.8 0.643 2.73 2.04 8.84 2.83 17.2 2.84 26.3 0.00333 1.11 0.00666 2.22 0.0101 3.36 0.00505 2.33 0.00741 4.67 0.00725 7 0.00219 3.57 0.0204 7.13 0.0393 10.7 0.00293 2.27 0.00492 4.55 0.00586 6.82 0.00719 1.06 0.0144 2.13 0.0218 3.22-0.016 5.2-0.261 9.4-2.25 14.3-0.351 1.49-0.675 2.99-0.965 4.49-0.16 0.788-0.321 1.58-0.486 2.39-0.328 1.64-0.648 3.29-0.961 4.93-0.432 2.09-1 4.14-1.59 6.19-0.99 0.33-1.98 0.66-3 1v9c1.24 0.351 2.47 0.701 3.75 1.06 10.2 3.46 19.6 9.35 26.2 17.9 0.182 0.728 0.364 1.46 0.551 2.21 0.148 0.592 0.296 1.18 0.449 1.79 0.99 0.33 1.98 0.66 3 1 0.809 1.86 0.809 1.86 1.44 4.19 1.26 4.17 3.04 7.24 5.56 10.8 1.55 3.09 2.18 6 2.75 9.38 0.9 4.8 2.46 9.17 4.25 13.7 0.261 0.668 0.523 1.34 0.792 2.02 1.3 3.63 1.3 3.63 4.21 5.91 0.859 1.79 0.859 1.79 1.75 4.06 2.11 4.93 4.85 8.82 8.25 12.9 0.822 1.01 0.822 1.01 1.66 2.03 4.5 5.33 9.48 9.79 14.9 14.2 20.8 17.2 20.8 17.2 22.9 30.6 0.547 9.31-2.86 16.9-8.82 23.9-0.866 0.722-1.73 1.44-2.62 2.19-0.808 0.756-0.808 0.756-1.63 1.53-9.82 9.06-19.7 15.2-32.4 19.5-0.66 0.33-1.32 0.66-2 1-1.94 0.255-3.88 0.508-5.83 0.719-4.49 0.583-8.85 1.67-13.2 2.78-1.53 0.387-1.53 0.387-3.1 0.781-0.937 0.237-1.87 0.474-2.84 0.719-0.633 0.151-1.27 0.303-1.92 0.458-3.81 0.991-7.49 2.36-11.2 3.67-0.875 0.306-1.75 0.612-2.65 0.928-8.82 3.11-17.5 6.49-26.2 9.95-0.33-0.66-0.66-1.32-1-2 0.959-0.155 0.959-0.155 1.94-0.312 0.681-0.227 1.36-0.454 2.06-0.688 0.33-0.99 0.66-1.98 1-3 1.7-0.186 1.7-0.186 3.44-0.375 1.18-0.206 2.35-0.412 3.56-0.625 0.33-0.66 0.66-1.32 1-2 4.25-2 8.53-3.57 13-5 0.924-0.309 1.85-0.619 2.8-0.938 12.9-4.29 25.6-8.28 39.2-9.06v-2c1.22-0.433 2.43-0.866 3.69-1.31 3.36-1.25 6.26-2.8 9.31-4.69h2c0.0619-0.598 0.124-1.2 0.188-1.81 0.812-2.19 0.812-2.19 3.06-3.5 3.16-1.94 4.54-3.92 6.54-6.97 1.21-1.72 1.21-1.72 2.82-3.22 2.23-2.41 1.99-5.33 2.39-8.5 0.66-0.99 1.32-1.98 2-3 1.24-8.15-2.56-16.2-6.88-22.9-4.9-6.37-10.6-11.1-17-15.8-8.8-6.47-8.8-6.47-9.99-9.6-0.0619-0.835-0.0619-0.835-0.125-1.69h-2c-1.2-1.68-2.31-3.42-3.38-5.19-1.81-2.98-3.57-5.75-5.79-8.45-2.04-2.64-2.53-4.89-3.2-8.12-0.995-3.54-2.76-6.64-4.51-9.86-1.17-2.49-1.64-4.7-2.12-7.39-0.446-1.34-0.924-2.68-1.44-4-0.263-0.681-0.526-1.36-0.797-2.06-1.37-3.47-1.37-3.47-2.77-6.94h-1c-0.247-1.05-0.495-2.1-0.75-3.19-2.07-7.09-7.75-11.3-13.2-15.8l-1.91-1.61c-13-10.4-30-13.3-46.3-14.2-1.8-0.176-1.8-0.176-2.8-1.18-1.96-0.239-1.96-0.239-4.25-0.25-1.15-0.0387-1.15-0.0387-2.33-0.0781-5.47 0.741-9.54 4.93-13.7 8.27-6.5 5.09-12.7 8.66-20.7 11.1v2c-8.49 3.33-16.8 6.45-25.7 8.46-2.27 0.457-2.27 0.457-4.26 1.54-16.6 2.87-36.9 3.19-52-5v-2c-0.969-0.103-1.94-0.206-2.94-0.312-6.13-1.69-9.44-7.85-13.1-12.7-0.695-0.777-1.39-1.55-2.11-2.36-2.42-3.38-3.41-6.68-4.52-10.6-1.29-4.41-2.57-8.76-4.38-13-10.2-0.94-17.1 4.23-25 10h-2c-0.247 0.557-0.495 1.11-0.75 1.69-1.47 2.72-3.3 4.91-5.25 7.31-3.32 4.36-5.13 8.69-6.88 13.8-1.12 3.17-1.12 3.17-2.1 5.27-2.95 6.56-3.56 12-3.38 19.1 0.00803 1.04 0.0161 2.09 0.0243 3.16 0.0288 3.31 0.0849 6.61 0.144 9.91 0.0566 4.35 0.103 8.7 0.145 13.1 0.0105 1.04 0.0209 2.07 0.0317 3.14 0.0743 10.1-0.234 19.8-2.8 29.6-0.175 0.667-0.349 1.33-0.529 2.02-3.76 14-3.76 14-7.66 19.9h-2c0.33 0.99 0.66 1.98 1 3-0.649 1.97-0.649 1.97-1.73 4.2-0.391 0.816-0.782 1.63-1.19 2.47-0.42 0.849-0.839 1.7-1.27 2.57-0.4 0.834-0.801 1.67-1.21 2.53-1.77 3.66-3.56 7.16-5.7 10.6-2.71 4.64-3.8 9.8-5.09 15-0.26 0.99-0.519 1.98-0.787 3-1.34 5.24-2.37 10.3-2.81 15.7-0.342 3.07-1.33 5.94-2.21 8.9-2.58 10-3.25 20.1 0 30 0.66 0.99 1.32 1.98 2 3 0.289 1.09 0.578 2.17 0.875 3.29 4.62 15.2 17.9 24.8 31.1 32.1 0.926 0.512 1.85 1.02 2.81 1.55 5.92 3.16 11.7 5.41 18.2 7.07 1.14 0.302 2.28 0.603 3.46 0.914 0.962 0.235 1.92 0.469 2.91 0.711 1.47 0.36 1.47 0.36 2.96 0.727 0.879 0.214 1.76 0.428 2.66 0.648 0.633 0.167 1.27 0.334 1.92 0.506 7.64 1.81 15.6 1.71 23.4 1.74 1.58 0.0309 1.58 0.0309 3.19 0.0625 6.62 0.0326 12.4-0.777 18.7-2.67 3.01-0.705 5.68-0.704 8.76-0.647 2.6-0.618 2.6-0.618 5.06-1.5 3.47-1.18 6.27-1.66 9.94-1.5v-2c1.79-0.335 3.58-0.668 5.38-1 0.998-0.186 2-0.371 3.02-0.562 2.6-0.438 2.6-0.438 4.6-0.438 0.33-0.99 0.66-1.98 1-3h10c-3.74 2.81-4.78 3.2-9 4-0.33 0.66-0.66 1.32-1 2-8.34 4.03-18 5.86-26.9 8.29-4.13 1.09-4.13 1.09-8.07 2.71-21.7 3.25-47.1 4.84-68-3-1.2-0.443-1.2-0.443-2.42-0.895-10.1-3.97-18.9-8.69-27.6-15.1-0.794-0.565-1.59-1.13-2.41-1.71-0.732-0.529-1.46-1.06-2.22-1.6-0.652-0.471-1.3-0.941-1.98-1.43-0.461-0.416-0.923-0.833-1.4-1.26v-2c-0.557-0.248-1.11-0.495-1.69-0.75-5.72-3.09-8.46-6.55-11.3-12.2v-2c-0.598-0.227-1.2-0.454-1.81-0.688-2.19-1.31-2.19-1.31-3.44-3.75-2.51-3.68-5.53-4.72-9.75-5.56-2.96-0.117-5.88-0.0591-8.84 0.0195-6.05-0.0374-12.3-0.896-17.9-3.09-4.31-1.24-8.23-1.06-12.7-0.93-6.21 0.0994-12.1-0.0512-18.2-1-5.75-0.883-11.2-1.07-17-0.961-7.13 0.0754-14.2-0.491-21.3-1.04-18.9-1.4-37.5-1.51-56.3 0.288-6.12 0.577-12.1 0.778-18.3 0.649-2.42-0.107-2.42-0.107-4.41 1.06-2.88 0.16-5.75 0.279-8.62 0.375-7.07 0.294-13.8 1.1-20.7 2.54-4.15 0.845-8.16 1.35-12.4 1.59-20.1 0.528-20.1 0.528-38.3 7.5-1.57 2.2-2.73 4.39-3.88 6.83-1.69 3.26-4.19 5.11-7.12 7.17-0.674 0.531-1.35 1.06-2.04 1.61-5.08 3.85-10.3 6.69-16.1 9.27-0.665 0.298-1.33 0.597-2.02 0.904-4.29 1.83-8.16 2.75-12.8 3.22v2c-1.32-0.33-2.64-0.66-4-1 0.66-0.33 1.32-0.66 2-1 0.33-0.66 0.66-1.32 1-2 1.44-1.62 1.44-1.62 3-3h2v2h2c0.433-0.928 0.433-0.928 0.875-1.88 1.12-2.12 1.12-2.12 3.12-4.12 1.99-0.398 3.99-0.738 6-1v-2c3.29-3.67 6.77-6.46 11-9h2c0.371-0.773 0.371-0.773 0.75-1.56 1.04-2.02 2.09-4.02 3.19-6 0.318-0.579 0.637-1.16 0.965-1.75 1.1-1.68 1.1-1.68 2.6-3.09 1.88-2 2.56-3.89 3.5-6.46 1.02-2.77 1.99-5.11 3.6-7.59 3.36-6.07 1.74-14 0.0859-20.5-1.14-3.75-2.59-6.74-4.69-10.1-0.506-1.45-0.982-2.91-1.44-4.38-1.37-4.31-3.19-7.78-5.56-11.6-0.773-1.36-0.773-1.36-1.56-2.75-1.32-2.25-1.32-2.25-3-3.81-1.44-1.44-1.44-1.44-2.31-3.38-1.51-2.77-3.65-4.13-6.12-6.06-3-3.52-3-3.52-3-6h-2v-2c-0.901-0.145-0.901-0.145-1.82-0.293-2.64-0.857-3.39-1.83-5.05-4.02-2-2.48-3.79-4.31-6.5-6-0.866-0.557-1.73-1.11-2.62-1.69v-2c-0.531-0.237-1.06-0.474-1.61-0.719-3.09-1.66-5.84-3.69-8.64-5.78-0.554-0.403-1.11-0.807-1.68-1.22-1.4-1.04-2.74-2.15-4.07-3.28v-2c-0.557-0.227-1.11-0.454-1.69-0.688-4-2.27-6.85-4.93-8.31-9.31-1.32-0.686-2.66-1.35-4-2-1.68-1.66-1.68-1.66-3.31-3.62-0.602-0.71-1.2-1.42-1.82-2.15-0.615-0.733-1.23-1.47-1.86-2.22-1.2-1.4-2.41-2.8-3.62-4.19-0.575-0.661-1.15-1.32-1.74-2-1.39-1.54-2.88-3-4.38-4.43-2.48-2.62-3.73-5.13-5.25-8.38-0.991-1.34-1.99-2.67-3-4-3.66-5.51-7.14-11-10-17-1.32-2.36-2.66-4.7-4.01-7.05-0.988-1.95-0.988-1.95-0.988-3.95-0.598-0.206-1.2-0.412-1.81-0.625-3.03-1.9-3.64-4.16-5.19-7.38-1.54-2.14-3.15-4.2-4.79-6.27-1.21-1.73-1.21-1.73-1.21-3.73-0.99-0.33-1.98-0.66-3-1-1.58-1.86-1.58-1.86-3.25-4.19-2.35-3.14-4.65-5.76-7.69-8.25l-3.06-2.56v-2c-0.562-0.268-1.12-0.536-1.7-0.812-2.45-1.27-4.74-2.68-7.05-4.19l-2.42-1.56-1.83-1.44v-2l-2.64-0.77c-3.47-1.27-6.05-2.86-9.11-4.92-7.27-4.71-15.1-7.65-23.2-10.6-2.01-0.743-2.01-0.743-4.36-1.81-5.4-1.9-11.3-1.37-17-1.37-0.677-4.03e-4 -1.35-8.06e-4 -2.05-0.00122-17.3 0.0597-32.9 4.56-46.9 15.2-1.7 1.26-1.7 1.26-3.7 1.26v2c-1.62 1.71-3.3 3.37-5 5l-2.5 2.5c-4.17 4.17-8.33 8.33-12.5 12.5l-2.5 2.56c-6.6 6.44-6.6 6.44-10.5 6.44-0.66 1.32-1.32 2.64-2 4h-3c-0.33 0.66-0.66 1.32-1 2-2.33 1.04-2.33 1.04-5.25 2.06-0.954 0.342-1.91 0.683-2.89 1.04-2.62 0.828-5.16 1.41-7.86 1.9-0.755 0.165-1.51 0.33-2.29 0.5-5.49 1.18-10.9 1.84-16.5 2.16-2.45 0.147-2.45 0.147-4.25 2.34-1.52 0.515-3.07 0.966-4.62 1.38-6.79 1.95-12.6 4.22-17.4 9.62-0.784 0.701-1.57 1.4-2.38 2.12-7.55 8.27-11 16.9-10.8 28.1 0.184 4 0.491 7.84 1.13 11.8 0.66 0.33 1.32 0.66 2 1 0.598 2.04 0.598 2.04 1.06 4.62l0.473 2.54c0.153 0.936 0.307 1.87 0.465 2.84 0.182 1.08 0.364 2.16 0.551 3.27 0.515 4.27 0.596 8.43 0.574 12.7 0.0058 1.15 0.0058 1.15 0.0117 2.33-0.0214 12.6-0.0214 12.6-2.14 14.7-0.348 1.55-0.654 3.12-0.938 4.69-0.747 3.91-1.72 7.56-3.06 11.3-0.232 0.949-0.232 0.949-0.469 1.92-0.53 2.08-1.2 4.02-1.97 6.02-0.264 0.699-0.529 1.4-0.801 2.12-0.594 1.52-1.23 3.02-1.89 4.51-2.13 5.94-2.01 12.2-1.94 18.4 0.00451 0.779 0.00902 1.56 0.0137 2.36 0.0117 1.9 0.0296 3.8 0.0488 5.7 0.66 0.33 1.32 0.66 2 1 0.407 2.32 0.744 4.66 1 7-1.88-0.688-1.88-0.688-4-2-1.12-2.44-1.12-2.44-2-5-0.99-1.49-0.99-1.49-2-3-2.24-7.01-1.09-14.1 1-21 0.33-0.33 0.66-0.66 1-1 0.562-2.52 1.08-5.03 1.56-7.56l0.42-2.15c0.343-1.76 0.681-3.52 1.02-5.28 0.99-0.33 1.98-0.66 3-1 0.182-1.17 0.182-1.17 0.367-2.37 0.168-1.01 0.335-2.02 0.508-3.07 0.162-1.01 0.325-2.02 0.492-3.06 0.313-1.24 0.313-1.24 0.633-2.5 0.66-0.33 1.32-0.66 2-1 0.439-2.54 0.439-2.54 0.562-5.62 0.222-3.75 0.447-7.48 0.789-11.2 0.657-7.51 0.613-13.9-1.35-21.2-0.405-1.64-0.801-3.29-1.19-4.94-0.179-0.71-0.358-1.42-0.543-2.15-0.27-1.91-0.27-1.91 0.73-4.91h-2c-0.0606-0.592-0.121-1.18-0.184-1.79-0.0838-0.79-0.168-1.58-0.254-2.39-0.0812-0.777-0.162-1.55-0.246-2.36-0.285-2.47-0.285-2.47-0.836-4.92-1.57-8.31-0.83-15.3 3.77-22.5 6.54-9.33 14.9-15.4 25.7-19 0.33-0.66 0.66-1.32 1-2 2.33-0.358 4.66-0.688 7-1 0.763-0.309 1.53-0.619 2.31-0.938 6.2-2.45 13-3.19 19.6-3.84 3.05-0.316 6.08-0.767 9.12-1.22v-2l3.25 0.25c3.68 0.116 3.68 0.116 5.69-1.81 0.681-0.804 1.36-1.61 2.06-2.44 1.14-1 2.29-1.99 3.46-2.97 5.9-5.11 11.3-10.8 16.7-16.4 1.37-1.41 2.75-2.82 4.13-4.22 0.808-0.83 1.62-1.66 2.45-2.52 2.25-1.93 3.43-2.39 6.25-2.93 0.684-1.32 1.35-2.66 2-4 2.13-1.63 2.13-1.63 4.56-3.12 3.31-1.89 3.31-1.89 5.44-4.88h3c0.99-2.47 0.99-2.47 2-5h2c-0.42-5.04-1.12-9.61-2.53-14.5-1.73-6.77-1.85-13.2-1.72-20.1l0.0156-3.54c0.079-8.52 0.079-8.52 1.23-10.8 0.31-2.59 0.51-5.18 0.719-7.79 0.281-2.21 0.281-2.21 1.28-3.21 0.351-1.68 0.656-3.37 0.938-5.06 1.25-7.07 2.46-13.4 6.16-19.7 1.09-2.43 1.09-2.43 1.28-5.99 0.501-4.68 2.29-8.27 4.5-12.4l1.07-2.05c1.01-1.95 2.03-3.89 3.06-5.82 2.32-4.37 2.32-4.37 3.44-9.12 0.689-3.52 2-4.46 4.56-6.88 1.25-2.63 1.25-2.63 2-5h2c0.227-0.804 0.454-1.61 0.688-2.44 2.07-5.61 4.25-11.2 9.31-14.6 0.684-1.32 1.35-2.66 2-4 0.474-0.433 0.949-0.866 1.44-1.31 1.86-1.81 1.86-1.81 3.06-5.31 0.495-1.11 0.99-2.23 1.5-3.38 0.99-0.33 1.98-0.66 3-1 1.11-2.39 1.11-2.39 2-5 0.66-0.99 1.32-1.98 2-3h2c0.268-0.722 0.536-1.44 0.812-2.19 2.26-5.35 5.1-8.73 9.19-12.8 3.45-4.13 6.76-8.36 10-12.6 0.928-1.23 0.928-1.23 1.88-2.48 0.554-0.745 1.11-1.49 1.68-2.26 0.477-0.534 0.954-1.07 1.45-1.62h2l0.188-1.69c1.47-4.17 4.93-6.64 8.38-9.25 2.29-1.94 3.52-3.71 5.08-6.23 2.57-3.47 5.81-6.36 8.89-9.37 2.56-2.56 4.86-5.23 7.16-8.01 1.3-1.45 1.3-1.45 3.99-3.58 2.45-1.77 2.45-1.77 3.88-4.5 1.44-2.38 1.44-2.38 3.36-3.32 2.29-1.15 3.27-2.23 4.83-4.24 2.78-3.38 5.83-6.15 9.16-8.98 3.54-3.1 6.8-6.47 10.1-9.83 0.513-0.503 1.03-1.01 1.55-1.52 1.52-1.55 2.88-3.18 4.26-4.85 1.98-2.35 3.96-4.35 6.38-6.25 2.76-2.33 4.09-4.25 5.81-7.38 0.98-1.02 1.98-2.02 3-3 0.66-0.99 1.32-1.98 2-3h2c0.309-0.99 0.309-0.99 0.625-2 1.53-3.35 3.48-5.91 5.72-8.82 1.71-2.25 3.32-4.54 4.91-6.87 0.48-0.705 0.959-1.41 1.45-2.14 1.39-2.33 2.35-4.64 3.3-7.18 2.64-6.65 2.64-6.65 4.56-8.5 1.77-1.61 1.77-1.61 2.44-5.06 1-3.44 1-3.44 4-5.44 0.286-2 0.567-4.01 0.691-6.03 0.309-1.97 0.309-1.97 2.31-4.97 0.394-2.32 0.735-4.66 1-7h2c0.562-4.01 1.01-7.7 0.938-11.8 0.0625-3.25 0.0625-3.25 1.03-5.1 1.28-2.67 1.41-4.9 1.59-7.84 0.338-5.21 0.338-5.21 1.44-6.31 0.126-2.78 0.189-5.53 0.203-8.31 0.0057-0.843 0.0114-1.69 0.0173-2.55 0.00947-1.79 0.016-3.58 0.0198-5.38 0.00963-2.72 0.0406-5.43 0.0723-8.15 0.00654-1.74 0.0118-3.49 0.0156-5.23 0.0123-0.803 0.0247-1.61 0.0374-2.43-0.0197-5.09-0.875-9.21-2.71-14-0.894-2.69-0.794-5.17-0.657-7.97-0.33-0.66-0.66-1.32-1-2-0.143-2.3-0.227-4.6-0.281-6.91-0.0184-0.681-0.0368-1.36-0.0558-2.06-0.0787-2.92-0.146-5.83-0.215-8.75-0.0517-2.13-0.109-4.25-0.167-6.38-0.0303-1.28-0.0606-2.55-0.0918-3.87 0.0145-2.96 0.0145-2.96-1.19-5.04-0.0963-1.72-0.131-3.44-0.133-5.16-0.00129-1.02-0.00258-2.04-0.00391-3.1 0.00387-1.07 0.00773-2.14 0.0117-3.25-0.00387-1.07-0.00773-2.14-0.0117-3.25 0.00193-1.53 0.00193-1.53 0.00391-3.1 0.00113-0.94 0.00226-1.88 0.00342-2.85 0.129-2.31 0.129-2.31 1.13-4.31-0.00419-2.11-0.0146-4.22-0.0647-6.32-0.203-8.59 0.0622-16.5 3.06-24.7 0.33-0.33 0.66-0.66 1-1 0.377-1.87 0.701-3.74 1-5.62 0.179-1.09 0.358-2.19 0.543-3.31 0.331-2.22 0.577-4.45 0.77-6.69 0.831-4.08 2.48-7.29 4.43-10.9 1.29-2.37 1.29-2.37 2.13-4.78 1.51-3.57 3.52-6.71 5.62-9.96 0.403-0.645 0.807-1.29 1.22-1.96 1.04-1.62 2.15-3.18 3.28-4.73h2c0.268-0.763 0.536-1.53 0.812-2.31 1.17-2.64 2.2-3.7 4.19-5.69 0.272-0.794 0.544-1.59 0.824-2.41 1.4-3.08 2.61-3.89 5.49-5.59 3.74-2.34 6.64-4.79 9.69-8 2.85-2.59 5.29-4.76 9-6 0.33-0.66 0.66-1.32 1-2 2.07-0.852 2.07-0.852 4.56-1.62 0.826-0.26 1.65-0.521 2.5-0.789 0.638-0.193 1.28-0.387 1.93-0.586v-2c16.1-8.3 16.1-8.3 23.1-10.4 2.12-0.706 3.97-1.65 5.94-2.71 3.55-1.86 6.92-2.69 10.8-3.43 2.13-0.495 3.88-1.2 5.85-2.13 3.31-1.38 3.31-1.38 6.31-1.31 3.51-0.0731 5.05-1.34 7.95-3.18 3.38-1.46 6.69-1.12 10.3-0.93 5.18 0.0811 10-1.25 15-2.52 5.04-1.19 9.56-1.7 14.7-1.45 4.32 0.0167 8.63-1.14 13.1-1.12zm3.9 146c-1.2 0.955-1.2 0.955-2.43 1.93-3.97 2.97-3.97 2.97-6.09 7.21-0.157 0.614-0.315 1.23-0.477 1.86-0.99 0.33-1.98 0.66-3 1-9.82 10.5-11.1 23.3-11.4 37.1-0.0344 0.834-0.0688 1.67-0.104 2.53-0.0158 2.24 0.0429 4.23 0.542 6.41 3.4 3.18 7.51 3.75 12 4.62 1.2 0.24 2.39 0.48 3.62 0.727 1.11 0.214 2.23 0.428 3.38 0.648 0.846 0.173 1.69 0.345 2.56 0.523 2.8 0.548 5.62 1.02 8.44 1.48 0.0258-0.753 0.0516-1.51 0.0781-2.28 0.352-6.59 1.22-12.8 2.8-19.2 0.161-0.67 0.323-1.34 0.489-2.03 1.48-5.7 3.53-9.88 8.07-13.7 0.864-0.733 0.864-0.733 1.75-1.48 6.57-4.82 13.8-6.16 21.8-5.33 6.79 1.8 12.2 6.21 16 12 5.62 9.84 6.28 24.5 3.38 35.3-1.16 3.22-2.56 6.15-4.16 9.18-0.401 0.82-0.802 1.64-1.21 2.48 1.88 3.77 7.51 4.82 11.3 6.25 2.63 1.06 2.63 1.06 4.69-0.25v2c4.28 3.45 8.72 3.67 14 4 6.76-10 12.3-20.6 13.7-32.7 0.289-2.29 0.289-2.29 1.29-4.29 0.0712-2.37 0.0841-4.75 0.0625-7.12-0.00902-1.28-0.018-2.56-0.0273-3.88-0.0116-0.987-0.0232-1.97-0.0352-2.99h-2c0.371-1.67 0.371-1.67 0.75-3.38 0.687-5.57-1.38-9.68-3.75-14.6-0.398-0.874-0.797-1.75-1.21-2.65-2.39-5.06-4.88-9.33-8.79-13.4h-2c-0.263-0.588-0.526-1.18-0.797-1.78-5.08-9.38-16.4-15.3-25.8-19.4-4.58-1.18-8.9-1.11-13.6-1.05-0.891 6.45e-4 -1.78 0.00129-2.7 0.00195-16.5 0.108-28 3.68-41.1 14.2zm-136 1v2c-0.557 0.268-1.11 0.536-1.69 0.812-1.14 0.588-1.14 0.588-2.31 1.19-1.19 0.59-1.19 0.59-2.39 1.19-3.23 2.24-4.62 4.55-6.61 7.93-0.342 0.583-0.685 1.17-1.04 1.77-0.995 1.7-1.98 3.4-2.96 5.11-0.501 0.803-1 1.61-1.52 2.43-7.19 11.8-8.1 26.1-6.01 39.6 1.62 6.12 4.69 11.9 8.53 17h2c0.255 0.585 0.51 1.17 0.773 1.77 2.85 5.18 7.88 9.18 13.5 10.9 3.56 0.783 3.56 0.783 5.44-0.938 0.413-0.557 0.825-1.11 1.25-1.69 2.19-0.688 2.19-0.688 4-1-0.393-5.9-0.743-7.87-5-12-1.23-2.93-2.12-5.95-3-9-0.33-0.99-0.66-1.98-1-3-0.684-8.67-0.0278-17.7 5-25v-2c0.639-0.124 1.28-0.248 1.94-0.375 0.681-0.206 1.36-0.413 2.06-0.625 0.33-0.66 0.66-1.32 1-2 5.61-2.54 9.73-1.72 15.6-0.438 6.55 3.86 9.53 10.9 11.7 17.9 1.19 5.61 1.4 11.2 1.57 16.9 0.0121 3.55 0.0121 3.55 1.18 6.59-0.534 0.159-1.07 0.317-1.62 0.48-6.15 1.93-11.7 4.56-17.4 7.52-2.02 1-4.04 2-6.06 3-1.98 0.999-3.96 2-5.94 3-0.726 0.353-1.45 0.706-2.2 1.07-7.61 3.91-14.3 9.31-21 14.5-1.47 1.13-2.96 2.24-4.45 3.33-6.23 4.83-8.55 10.8-9.71 18.5-0.288 5.33 0.798 8.39 4.38 12.5 6.29 6.35 14.5 13.2 23 16v2c1.09 0.619 2.19 1.24 3.31 1.88 2.3 1.3 4.48 2.65 6.69 4.12h3v2c1.65 0.33 3.3 0.66 5 1v2c0.99 0.33 1.98 0.66 3 1 0.454 0.474 0.908 0.949 1.38 1.44 2.85 2.74 5.73 3.56 9.62 3.56 0.33 0.99 0.66 1.98 1 3h3v2c1.65 0.33 3.3 0.66 5 1v2c0.675 0.266 1.35 0.531 2.05 0.805 0.892 0.353 1.78 0.706 2.7 1.07 0.882 0.348 1.76 0.696 2.67 1.05 2.58 1.07 2.58 1.07 4.72 2.2 1.97 1.08 1.97 1.08 4.86 0.867 0.33 0.66 0.66 1.32 1 2 0.66-0.33 1.32-0.66 2-1v2c1.07 0.66 2.14 1.32 3.25 2 0.603 0.371 1.21 0.743 1.83 1.12 2.7 1.23 5.05 1.09 7.89 0.381 2.24-0.559 4.18-0.62 6.49-0.604 1.31 0.00495 1.31 0.00495 2.65 0.01 0.939 0.0083 1.88 0.0166 2.84 0.0251 1.46 0.00568 1.46 0.00568 2.95 0.0115 4.16 0.0163 8.32 0.0444 12.5 0.0715 3.04 0.0182 6.08 0.0302 9.13 0.042 1.4 0.0124 1.4 0.0124 2.82 0.0251 5.32 0.0198 10.4-0.307 15.7-1.09v-2c0.763 0.0412 1.53 0.0825 2.31 0.125 2.91 0.0958 2.91 0.0958 5.69-2.12 3.63-1.34 7.19-2.33 11-3 0.33-1.32 0.66-2.64 1-4 0.908 0.206 1.82 0.412 2.75 0.625 4.7 0.543 6.41-1.07 10.2-3.62 0.33-0.66 0.66-1.32 1-2h3v-2c3.47-0.99 3.47-0.99 7-2v-2c1.98 0.33 3.96 0.66 6 1-1.42 0.793-2.83 1.58-4.25 2.38-0.789 0.441-1.58 0.882-2.39 1.34-3.55 1.94-7.07 3.6-10.9 5.04-4 1.57-7.76 3.38-11.6 5.38-4.36 2.23-8.24 3.59-13 4.45-2.66 0.599-4.64 1.92-6.89 3.43-5.6 2.58-11.1 3.13-17.2 3.13-1.14 0.00129-2.29 0.00258-3.47 0.00391-1.18-0.00387-2.36-0.00773-3.58-0.0117-1.2 0.00387-2.39 0.00773-3.62 0.0117-1.71-0.00193-1.71-0.00193-3.45-0.00391-1.56-0.00169-1.56-0.00169-3.15-0.00342-2.52-0.129-2.52-0.129-4.52-1.13-1.52-0.0254-3.04 0.0103-4.55 0.0781-11.4 0.366-20.2 0.257-30.4-5.08-1.6-0.773-1.6-0.773-3.24-1.56-2.94-1.44-5.85-2.93-8.76-4.44-6.2-3.52-6.2-3.52-13-5-0.33-0.99-0.66-1.98-1-3-1.71-1.02-3.42-2.03-5.18-2.96-1.82-1.04-1.82-1.04-4.26-3.04-3.47-2.7-8.02-6-12.6-6-0.619-0.701-1.24-1.4-1.88-2.12-4.05-4.23-9.68-6.88-15.1-8.88-2.23 0.00601-2.23 0.00601-4 1-5.2 7.8-4.82 19.9-6 29-0.94 7.19-1.97 14-4 21-0.304 2.16-0.594 4.33-0.875 6.5-0.664 4.6-1.47 7.75-4.08 11.5-1.29 2.41-1.74 4.66-2.3 7.33-1.71 7.1-4.55 13.4-7.68 20-0.525 1.14-1.05 2.27-1.59 3.44-2.51 5.36-5.07 10.4-8.47 15.2-0.165 0.701-0.33 1.4-0.5 2.12-0.5 1.88-0.5 1.88-2.5 3.81-2.3 2.37-2.64 3.83-3 7.06h-2c-1.18 1.81-2.27 3.67-3.31 5.56-2.01 3.56-4 7.03-6.44 10.3-2.27 2.97-2.27 2.97-3.64 5.91-2.26 4.52-4.98 8.72-7.67 13-1.81 3.01-3.37 6.08-4.94 9.22-0.91 1.41-1.85 2.81-2.81 4.19-2.89 4.24-5.33 8.64-7.74 13.2-1.99 3.65-4.2 7.15-6.45 10.6-2.45 3.86-4.22 7.78-6 12-0.984 2.01-1.98 4.01-3 6-0.474 0.969-0.949 1.94-1.44 2.94-1.09 2.14-2.27 4.25-3.5 6.31-2.07 3.57-3.51 7.29-4.99 11.1-1.77 4.33-3.93 8.46-6.07 12.6l-1.69 3.44c-1.31 2.56-1.31 2.56-3.31 5.56-0.35 1.95-0.635 3.91-0.875 5.88-0.752 5.03-1.92 7.2-5.12 11.1-0.345 2.15-0.345 2.15-0.438 4.56-0.238 4.26-1.23 7.12-3.12 10.9-3.61 7.92-2.86 16-2.44 24.5-14.2-17-16.2-37.5-16.2-58.8-7.25e-4 -1.25-0.00145-2.49-0.0022-3.78 0.0551-9.01 0.0551-9.01 1.19-12.4l-0.125-2.19c0.147-3.31 1.12-5.73 2.34-8.78 1.44-3.71 2.39-7.57 3.44-11.4 1.18-4.16 2.43-7.99 4.48-11.8 1.94-3.64 2.53-6.71 2.88-10.8 0.99-0.33 1.98-0.66 3-1 1.14-2.16 1.14-2.16 2-4.75 1.38-3.7 2.9-6.9 5-10.2 0.351-0.887 0.701-1.77 1.06-2.69 1.33-3.29 2.98-4.34 5.94-6.31 0.144-0.578 0.289-1.16 0.438-1.75 0.805-3.22 2.71-5.52 4.56-8.25 0.891-2.67 1.48-5.24 2-8 1.32-0.33 2.64-0.66 4-1 0.33-2.97 0.66-5.94 1-9-3.85 0.268-5.66 0.706-8.62 3.25-2.19 2.54-4.29 5.12-6.38 7.75-1.12 1.3-2.24 2.59-3.38 3.88-0.601 0.686-1.2 1.37-1.82 2.08-1.15 1.31-2.31 2.61-3.48 3.91-3.14 3.53-5.27 6.84-7.32 11.1-0.98 1.02-1.98 2.02-3 3-0.33 0.66-0.66 1.32-1 2-1 2-1 2-2.33 3.24-6.58 6.95-10.7 17.6-14.9 26.1-2.13 4.33-4.39 8.55-6.78 12.7-1.02 1.89-1.88 3.79-2.71 5.77-1.31 3.12-1.31 3.12-3.31 6.12-0.354 1.82-0.638 3.66-0.875 5.5-0.807 5.33-2.23 10-4.22 15-2.05 5.62-2.06 10.9-2.03 16.8 0.00411 0.885 0.00822 1.77 0.0125 2.68-0.072 16.3-0.072 16.3 4.11 31.9 1.33 3.14 2.2 5.97 2.81 9.31 1.01 4.81 2.99 8.93 6.19 12.7h2c0.66 1.65 1.32 3.3 2 5h2c0.248 0.949 0.495 1.9 0.75 2.88 1.42 3.56 1.94 3.68 5.25 5.12 0.263 0.584 0.526 1.17 0.797 1.77 1.63 3.02 3.79 4.64 6.45 6.79l2.83 2.32c2.87 2.08 5.76 3.54 8.92 5.12 0.721 0.727 0.721 0.727 1.46 1.47 2.59 2.57 5.97 3.9 9.23 5.47l4.14 2.03c0.685 0.331 1.37 0.662 2.08 1 1.44 0.708 2.87 1.43 4.3 2.18 0.704 0.366 1.41 0.732 2.13 1.11 0.633 0.335 1.27 0.669 1.92 1.01 1.9 0.925 1.9 0.925 4.75 0.732v2c1.58 0.124 1.58 0.124 3.19 0.25 4.26 0.838 5.5 2.08 8.81 4.75 2.24 1.2 4.52 2.34 6.81 3.44 4.09 1.98 8.07 4.01 11.9 6.5 3.09 2.33 3.09 2.33 6.31 2.06v2l2.69 1.31c3.31 1.69 3.31 1.69 6 3.38 2.3 1.56 2.3 1.56 5.31 1.31v2c0.543 0.254 1.09 0.508 1.64 0.77 0.715 0.344 1.43 0.688 2.17 1.04 1.06 0.505 1.06 0.505 2.14 1.02 2.08 1.19 3.38 2.46 5.04 4.17 1.27 0.86 2.57 1.69 3.88 2.5 5.42 3.54 10.2 7.68 15.1 11.9 1.65 1.42 3.32 2.83 5.04 4.17 8.95 6.98 19.6 20.5 23 31.4 0.356 3.17 0.416 6.31 0.438 9.5 0.0329 0.842 0.0657 1.68 0.0996 2.55 0.0382 4.41-0.0547 6.33-2.84 9.91-9.82 7.43-20.4 8.38-32.4 7.97-1.77-0.0458-3.54 0.00645-5.31 0.0732-2.88 2.88-2.93 4.98-3 9 1.64 2.2 2.87 3.35 5 5 1.23 1.03 1.23 1.03 2.49 2.09 4.26 4.12 4.26 4.12 9.51 5.91 0.258 0.593 0.516 1.19 0.781 1.8 1.32 2.38 2.64 3.71 4.72 5.45 0.913 0.781 0.913 0.781 1.84 1.58 1.59 1.36 1.59 1.36 3.66 1.17 0.268 0.598 0.536 1.2 0.812 1.81 1.93 3.55 4.24 5.41 7.87 7.12 1.06 0.508 1.06 0.508 2.14 1.03 0.721 0.343 1.44 0.686 2.18 1.04 1.36 0.675 2.72 1.35 4.07 2.04 0.669 0.335 1.34 0.669 2.03 1.01 2.03 1.02 4.07 2.03 6.1 3.05 0.646 0.322 1.29 0.645 1.96 0.977 1.68 0.843 3.36 1.69 5.04 2.55 6.59 3.24 13.4 5.65 20.4 7.66 2.13 0.649 4.12 1.42 6.17 2.28 4.6 1.8 9.36 2.3 14.2 2.91 2.77 0.495 4.49 1.25 6.95 2.53 5.65 1.38 11.2 2.15 17 2 0.33 0.33 0.66 0.66 1 1 2.84 0.408 5.65 0.757 8.5 1.06 0.779 0.0909 1.56 0.182 2.36 0.275 4.08 0.449 8.07 0.703 12.2 0.658 3.97 0.00391 3.97 0.00391 4.97 1 2.53 0.0731 5.03 0.0925 7.56 0.0625 0.711-0.00451 1.42-0.00902 2.15-0.0137 1.76-0.0118 3.52-0.0298 5.28-0.0488v-1c1.74 0.0174 1.74 0.0174 3.51 0.0352 1.54 0.00938 3.08 0.0185 4.62 0.0273 0.761 0.00838 1.52 0.0168 2.3 0.0254 4.31 0.0186 8.32-0.231 12.6-1.09 3.81-0.709 7.58-1.16 11.4-1.5 6.79-0.605 12.9-1.43 19.3-3.88 2.83-0.761 5.38-0.625 8.31-0.621 2.1-0.391 4.18-0.85 6.25-1.38 1.04-0.255 2.07-0.51 3.14-0.773 2.73-0.674 2.73-0.674 4.61-2.85 1.03-0.144 2.06-0.289 3.12-0.438 3.52-0.512 6.37-1.48 9.67-2.76 4.41-1.61 8.97-2.71 13.5-3.91 7.86-2.12 15.3-5.05 22.7-8.33 0.696-0.306 1.39-0.613 2.11-0.928 8.54-3.41 8.54-3.41 15.9-8.63 1.57-0.488 3.16-0.919 4.75-1.31 6.26-1.81 9.74-4.12 13.1-9.88 1.25-2.62 1.25-2.62 1.12-4.81h2c0.208-0.559 0.415-1.12 0.629-1.7 1.79-4.66 3.76-9.1 6.11-13.5 2.95-5.57 4.88-10.3 5.1-16.7 0.25-3.17 1.47-5.48 3.17-8.13 0.66-0.33 1.32-0.66 2-1-0.33-1.98-0.66-3.96-1-6h2c-0.33-3.3-0.66-6.6-1-10 0.66-0.33 1.32-0.66 2-1-0.33-0.33-0.66-0.66-1-1-0.16-2.45-0.259-4.87-0.316-7.32-0.0208-0.731-0.0416-1.46-0.063-2.22-0.0656-2.34-0.124-4.69-0.183-7.03-0.0432-1.59-0.0868-3.17-0.131-4.76-0.107-3.89-0.209-7.79-0.307-11.7h2c0.093-4.19-0.123-8.15-0.625-12.3-0.776-8.1 1.29-15.1 3.98-22.7 0.758-2.16 0.758-2.16 1.02-5.08 0.781-3.67 2.47-6.13 4.57-9.2 1.23-1.68 1.23-1.68 1.06-3.73h2l1.12-2.06c4.67-7.31 12-11.8 19.9-14.9 3.02-1.29 6.04-2.58 9.06-3.88 2.66-1.02 5.13-1.66 7.94-2.12v-2c0.99-0.33 1.98-0.66 3-1 0.654-2.99 1.14-5.96 1.5-9 0.842-6.76 0.842-6.76 1.5-9 0.99-0.66 1.98-1.32 3-2 1.55-2.02 2.97-4.11 4.4-6.22 1.87-2.08 2.86-2.44 5.6-2.78 1.05 0.0412 2.1 0.0825 3.19 0.125 3.4-0.111 4.72-0.396 7.69-1.62 4.65-1.7 9.04-1.8 13.9-1.81 0.742-0.00516 1.48-0.0103 2.25-0.0156 3.86 0.0492 6.61 0.365 9.94 2.33 3.98 0.652 7.48 1.02 11.5 0.875 3.76 0.134 6.29 0.996 9.7 2.47 1.95 0.828 1.95 0.828 4.8 0.656 0.33 0.66 0.66 1.32 1 2 1.03 0.144 2.06 0.289 3.12 0.438 4.22 0.612 7.03 1.79 10.9 3.56 0.99 0.33 1.98 0.66 3 1 13.3 5.59 13.3 5.59 18 8.06 1.93 1 1.93 1 3.98 1.42 2.34 0.612 4.02 1.6 6.07 2.9 1.01 0.63 1.01 0.63 2.04 1.27 1.9 1.35 1.9 1.35 3.52 3.02 1.3 1.57 1.3 1.57 3.38 1.34 0.33 0.99 0.66 1.98 1 3 1.63 1.71 3.29 3.38 5 5 2.09 2.09 1.25 7.33 1.25 10.3 0.141 3.79 0.656 5.6 2.98 8.64 4.1 3.1 7.69 3.66 12.8 3.09 3.18-1.63 5.38-3.77 7-7 0.313-2.61 0.559-5.19 0.75-7.81 0.0683-0.712 0.137-1.42 0.207-2.16 0.341-4.73-0.22-7.21-2.96-11-0.998-2.35-1.93-4.72-2.84-7.11-0.997-2.09-0.997-2.09-3.23-2.55-0.636-0.113-1.27-0.227-1.93-0.344-0.667-1.33-1.33-2.67-2-4-16.6-14.7-37.2-22.9-58.1-29.4-1.85-0.613-1.85-0.613-3.85-1.61-0.449-2.21-0.449-2.21-0.688-4.94-0.0864-0.896-0.173-1.79-0.262-2.71-0.0508-2.35-0.0508-2.35 0.949-4.35 0.098-2.37 0.131-4.75 0.133-7.12 9.57e-4 -0.703 0.00191-1.41 0.0029-2.13 6.81e-4 -1.49-0.00117-2.97-0.00534-4.46-0.00535-2.28-5.14e-5 -4.56 0.00635-6.83-6.61e-4 -1.44-0.00194-2.89-0.00391-4.33-0.00113-1.32-0.00226-2.63-0.00342-3.99 0.0889-3.04 0.0889-3.04-1.13-5.13-0.202-1.45-0.364-2.91-0.5-4.38-0.218-2.33-0.47-4.51-1.04-6.78-0.457-1.85-0.457-1.85-0.27-4.04-0.237-3.56-1.52-6.05-3.03-9.25-1.99-4.41-3.55-8.99-5.16-13.6h-2c-0.268-1.03-0.536-2.06-0.812-3.12-2.13-7.33-6.28-15-11.7-20.4-2.43-2.45-3.8-5.44-5.45-8.46h-2c-0.206-0.681-0.412-1.36-0.625-2.06-1.57-3.35-3.57-5.66-6.04-8.39-1.34-1.55-1.34-1.55-2.34-3.55h-2c-0.245-0.561-0.49-1.12-0.742-1.7-4.21-7.69-11.6-13.7-18.3-19.3-0.884-0.808-0.884-0.808-1.79-1.63-14.3-13.4-14.3-13.4-32.2-19.4-0.438 3.06-0.609 5.17 1.27 7.73 1.52 1.55 2.98 2.98 4.73 4.27h2c0.262 0.589 0.523 1.18 0.793 1.79 1.27 2.33 2.61 3.82 4.52 5.65 0.628 0.611 1.26 1.22 1.9 1.85 0.589 0.565 1.18 1.13 1.79 1.71 7.7 7.5 14.6 15.5 20.9 24.2 1.27 1.73 2.57 3.44 3.91 5.12 3.33 4.18 4.75 7.49 6.17 12.7 1.15 1.77 2.41 3.42 3.69 5.09 2.31 3.37 3.78 7.14 5.31 10.9h2c0.11 0.785 0.219 1.57 0.332 2.38 0.913 6.05 2.07 11.1 4.67 16.6 1.04 4.16 1.32 8.35 1.56 12.6 0.0626 1.11 0.0626 1.11 0.126 2.25 0.636 12.4 0.453 24.8-0.126 37.2-0.0392 0.863-0.0783 1.73-0.119 2.62-0.32 6.07-0.32 6.07-1.44 8.32h-24c-0.33-2.97-0.66-5.94-1-9-0.837-3.06-0.837-3.06-1.94-5.75-0.339-0.882-0.678-1.76-1.03-2.67-0.682-1.7-1.38-3.39-2.11-5.07-0.978-2.65-1.41-5.09-1.8-7.88-0.591-3.48-1.21-6.24-3.06-9.25-1.74-2.84-2.66-4.95-3.62-8.06-1.05-3.37-2.26-5.52-4.44-8.31-0.609-1.3-1.19-2.62-1.75-3.94-2.99-6.95-6.34-14.2-10.9-20.2-1.81-2.42-2.51-4.94-3.36-7.82h-2c-1.14-2.28-2.27-4.57-3.38-6.88-1.58-3.17-1.58-3.17-3.62-6.12-1.94-2.91-3.5-5.84-5-9h-2c-0.33-1.65-0.66-3.3-1-5h-2c-0.289-0.743-0.578-1.48-0.875-2.25-0.948-2.32-1.97-4.53-3.12-6.75h-2c-0.0838-0.538-0.168-1.08-0.254-1.63-1.01-3.21-2.76-5.55-4.68-8.31-2.53-3.64-4.47-6.94-6.06-11.1-0.895-1.48-1.83-2.94-2.81-4.38-0.527-0.771-1.05-1.54-1.6-2.34-0.525-0.755-1.05-1.51-1.59-2.29-0.473-0.694-0.946-1.39-1.43-2.1-2.28-3.49-2.28-3.49-5.57-5.9-0.693-1.99-1.36-3.99-2-6-0.66-0.99-1.32-1.98-2-3h-2c-0.103-0.949-0.206-1.9-0.312-2.88-0.373-3.42-0.373-3.42-3.69-5.12-1.07-1.79-1.07-1.79-2.04-3.91-0.351-0.761-0.703-1.52-1.06-2.3-0.356-0.794-0.713-1.59-1.08-2.41-0.552-1.2-0.552-1.2-1.12-2.43-0.907-1.98-1.81-3.96-2.7-5.95h-2c-0.268-0.681-0.536-1.36-0.812-2.06-2.21-5.46-4.54-10.8-7.21-16-0.898-1.77-1.75-3.57-2.6-5.37-1.12-2.67-1.12-2.67-3.38-3.56-0.725-1.64-1.38-3.32-2-5-0.495-1.13-0.99-2.27-1.5-3.44-1.5-3.56-1.5-3.56-2.56-6.81-0.863-2.92-0.863-2.92-2.94-5.75h-2c-0.0825-1.01-0.165-2.02-0.25-3.06-0.495-3.53-1.82-6.02-3.71-9.05-1.15-2.08-1.84-4.11-2.54-6.38-0.918-2.96-1.95-5.48-3.56-8.12-1.99-3.46-2.86-6.55-3.94-10.4-0.934-2.04-1.95-4.02-3-6.01-0.97-1.92-1.74-3.85-2.5-5.87-1.63-3.39-2.22-3.74-5.5-5.12-0.603 0.41-1.21 0.82-1.83 1.24-0.799 0.539-1.6 1.08-2.42 1.63-0.789 0.534-1.58 1.07-2.39 1.62-2.07 1.33-4.14 2.46-6.36 3.51v2c-0.701 0.268-1.4 0.536-2.12 0.812-2.91 1.16-2.91 1.16-5.75 2.62-3.33 1.66-6.69 3.12-10.1 4.56-0.33-0.99-0.66-1.98-1-3h2c0.33 0.66 0.66 1.32 1 2 3.26-1.8 4.89-2.83 7-6 2.5-0.625 2.5-0.625 5-1l2-1v-4c0.866 0.34 0.866 0.34 1.75 0.688 2.27 0.539 2.27 0.539 4.12-0.688 5.81-5.47 12.2-12 12.6-20.3-0.385-8.06-4.3-16.4-9.92-22.1-8.39-7.61-18-13.5-29.3-15.1-3.25-0.5-3.25-0.5-5.39-1.82-3.81-2.23-7.76-3.56-11.9-4.99-0.872-0.302-1.74-0.604-2.64-0.915-7.85-2.69-15.8-5.09-23.7-7.41-3.92-1.14-7.77-2.44-11.6-3.8-2.08-0.699-2.08-0.699-4.93-0.56v-2c-1.09-0.144-2.19-0.289-3.31-0.438-3.69-0.562-3.69-0.562-6.69-1.56-2.33-0.0395-4.67-0.044-7 0-0.33-0.66-0.66-1.32-1-2-0.33 0.33-0.66 0.66-1 1-2.02-0.46-4.03-0.921-6.05-1.39-10.1-2.09-20-2.79-30.3-2.8-0.914-8.06e-4 -1.83-0.00161-2.77-0.00244-5.04 0.0333-5.04 0.0333-9.92 1.19-2.33 0.0395-4.67 0.044-7 0-0.0251-0.665-0.0501-1.33-0.0759-2.02-0.117-3.04-0.239-6.07-0.362-9.11-0.0393-1.05-0.0786-2.09-0.119-3.17 0.232-9.06 0.232-9.06-3.44-16.7-0.557-1.23-1.07-2.49-1.56-3.75-5.85-13.5-14.7-26.2-28.4-32.2-11.3-3.61-24.3-0.452-34 6zm4 44 1 3zm227 31 1 2zm-272 39 1 2zm337 138 1 2zm-451 139 1 2zm-97 59 1 2zm558 103 1 2zm-624 10c0.33 0.66 0.66 1.32 1 2 0.33-0.66 0.66-1.32 1-2h-2zm902 4v5h1v-5h-1zm-277 4v33h1v-33h-1zm0 35 1 2zm-1 4 1 3zm-682 20 1 2zm-5 55 1 2zm-3 1 1 2zm-1 5 1 2z" fill="#143A94"/>
<path transform="translate(285,1209)" d="m0 0c1.98 0.66 3.96 1.32 6 2v2c0.99 0.0825 1.98 0.165 3 0.25 2.95 0.413 5.14 1.21 7.75 2.62 8.92 4.71 18.3 5.67 28.2 6.12v1c0.792 0.0198 1.58 0.0396 2.4 0.0601 3.6 0.0954 7.19 0.205 10.8 0.315 1.87 0.0464 1.87 0.0464 3.78 0.0938 1.2 0.0387 2.4 0.0773 3.64 0.117 1.1 0.0314 2.21 0.0628 3.35 0.0952 3.06 0.32 5.22 1.16 8.05 2.32 2.41 0.271 2.41 0.271 4.86 0.195 1.33-0.00967 1.33-0.00967 2.69-0.0195 0.912-0.0168 1.82-0.0335 2.76-0.0508 0.931-0.00902 1.86-0.018 2.82-0.0273 2.29-0.0235 4.58-0.0563 6.87-0.0977v2h8v2c1.29-0.126 1.29-0.126 2.6-0.254 6.03-0.537 11.4-0.804 17.4 0.254 1.26-0.0619 2.52-0.124 3.81-0.188 4.4-0.0939 7.77 1.46 11.7 3.31 2.97 1.04 5.36 0.879 8.49 0.875 2.5 0.579 4.98 1.23 7.44 1.94 3.76 1.08 7.34 2.03 11.2 2.57 3.13 0.466 5.47 1.21 8.34 2.5 4.08 1.72 7.6 2.62 12 3v2c1.24 0.155 1.24 0.155 2.5 0.312 4.09 0.804 7.63 2.15 11.5 3.69v2c0.606 0.0864 1.21 0.173 1.84 0.262 4.7 0.788 8.48 1.76 12.6 4.18 6.93 3.76 14.8 4.29 22.5 5.25 2.06 0.312 4.02 0.792 6.04 1.31 1.48 0.19 2.96 0.356 4.44 0.5 2.31 0.225 4.51 0.488 6.78 1.02 3.29 0.571 6.36 0.554 9.7 0.507 6.67-0.0569 13.3 0.0624 20 0.266 1.9 0.0547 3.8 0.109 5.7 0.164 2.92 0.0853 5.84 0.174 8.76 0.271 2.87 0.0936 5.74 0.174 8.6 0.253 0.88 0.0322 1.76 0.0644 2.67 0.0976 2.12 0.0529 4.25-8.85e-4 6.37-0.0741 0.66-0.66 1.32-1.32 2-2 5.11-2.31 8.63-1.93 14-1-9.35 7.92-22.5 7.54-34 7v-1c-3.96-0.495-3.96-0.495-8-1v2c-1.67 0.0427-3.33 0.0406-5 0-0.33-0.33-0.66-0.66-1-1-1.84 0.116-3.67 0.293-5.5 0.5s-3.66 0.384-5.5 0.5c-0.33-0.33-0.66-0.66-1-1-1.86 0.00774-3.72 0.0852-5.57 0.191-1.14 0.0574-2.29 0.115-3.46 0.174-2.41 0.13-4.83 0.266-7.24 0.406-1.15 0.0561-2.3 0.112-3.48 0.17-1.05 0.0587-2.1 0.117-3.19 0.178-3.37-0.132-5.91-0.948-9.05-2.12-1.31-0.344-2.63-0.669-3.95-0.965-0.697-0.159-1.39-0.317-2.11-0.481-0.721-0.162-1.44-0.325-2.18-0.492-16.8-3.89-16.8-3.89-21.3-6.62-3.09-1.82-6.04-2.3-9.55-2.91-0.624-0.174-1.25-0.348-1.89-0.527-0.33-0.66-0.66-1.32-1-2-2.21-0.84-2.21-0.84-4.81-1.5-3.29-0.895-6.16-1.93-9.19-3.5-0.99-0.33-1.98-0.66-3-1-2.51-0.838-4.64-1.82-7-3-4.32-1.63-8.42-2.41-13-3-2.42-0.529-4.71-1.22-7.07-1.97-4.2-1.2-8.4-1.66-12.7-2.09-7.94-0.812-7.94-0.812-10.2-1.94-6.98-1.01-14-1.57-21-2.16-5.29-0.477-10.4-1.29-15.6-2.39-3.55-0.664-7.08-0.861-10.7-1.01-7.15-0.32-7.15-0.32-10-0.94-3.13-0.58-6.1-0.66-9.28-0.709-1.92-0.0425-1.92-0.0425-3.88-0.0859-2.66-0.0542-5.31-0.0959-7.97-0.133-7.57-0.182-14.5-0.956-21.8-2.94-2.7-0.615-5.03-0.646-7.79-0.634-1.33-1-2.67-2-4-3-2.96-1.14-5.97-2.09-9-3v-2h-5v-3c-0.784-0.0825-1.57-0.165-2.38-0.25-2.62-0.75-2.62-0.75-3.94-2.81-0.227-0.639-0.454-1.28-0.688-1.94zm321 56 4 1z" fill="#133689"/>
<path transform="translate(872,591)" d="m0 0c2 2 2 2 2 6-1.06 0.238-1.06 0.238-2.13 0.48-8.19 1.94-16 4.57-23.9 7.52-1.15 0.415-2.31 0.83-3.5 1.26-5.62 2.07-10.7 4.22-15.7 7.55-4.88 3.19-10.2 5.38-15.6 7.34-2.6 1-5.11 2.17-7.63 3.35-3.95 1.81-7.85 3.38-12 4.68-2.7 0.856-5.37 1.78-8.04 2.7-5.86 2.01-11.6 3.74-17.8 4.75-1.78 0.195-1.78 0.195-2.76 1.36-10.8 1.81-21.3 1.3-32-1-1.45-0.283-2.9-0.566-4.34-0.848-11.7-2.36-20.6-5.96-30.5-12.8-3.23-2.01-6.6-3.1-10.2-4.35l-4-4c-0.928-0.464-0.928-0.464-1.88-0.938-2.12-1.06-2.12-1.06-4-2.56-2.15-1.68-2.15-1.68-5.19-2.5-2.94-1-2.94-1-4.3-2.37-2.03-2.02-4.22-3.26-6.7-4.69-2.65-1.53-4.77-2.77-6.94-4.94h-2c0.33-1.32 0.66-2.64 1-4 3.67 0.706 6.7 2.28 10 4v2c0.784 0.186 1.57 0.371 2.38 0.562 4.13 1.64 7.22 3.86 10.8 6.45 9.45 6.67 19.4 12 29.8 17 1.96 0.976 3.92 1.96 5.88 2.94 0.802 0.401 1.6 0.802 2.43 1.21 0.559 0.28 1.12 0.559 1.7 0.848v2c0.99-0.33 1.98-0.66 3-1 2.01 0.486 4.02 0.976 6.01 1.52 2.37 0.568 4.56 0.544 6.99 0.477 0.576 0.153 1.15 0.307 1.75 0.465 2.86 0.678 5.64 0.842 8.57 1.04 3.66 0.255 7.26 0.53 10.9 1.12 2.76 0.636 2.76 0.636 4.81-0.625 1.71-0.07 3.42-0.0844 5.12-0.0625 0.91 0.00902 1.82 0.018 2.76 0.0273 0.699 0.0116 1.4 0.0232 2.12 0.0352v-2c1.07-0.254 2.15-0.508 3.25-0.77 1.44-0.347 2.87-0.695 4.31-1.04 0.704-0.166 1.41-0.331 2.13-0.502 4.67-1.14 8.9-2.71 13.3-4.69 2.12-0.823 4.25-1.64 6.38-2.44 10.1-3.86 19.7-8.33 29.1-13.6 6.08-3.33 12.4-6.63 19.6-5.94v-2c4.33-1.67 8.67-3.34 13-5 0.826-0.318 1.65-0.637 2.5-0.965 6.9-2.63 6.9-2.63 9.5-3.04z" fill="#143990"/>
<path transform="translate(665,630)" d="m0 0c4 0.616 6.7 2.75 10 5 0.99 0.33 1.98 0.66 3 1v2c1.65 0.33 3.3 0.66 5 1v2c0.619 0.124 1.24 0.247 1.88 0.375 2.12 0.625 2.12 0.625 4.12 2.62 2.05 0.838 4.12 1.52 6.22 2.22 1.78 0.781 1.78 0.781 2.78 2.78 0.99 0.33 1.98 0.66 3 1v2c1.65 0.33 3.3 0.66 5 1v2c0.825 0.0825 1.65 0.165 2.5 0.25 3.63 0.778 6.28 2.04 9.53 3.76 2.57 1.29 5.22 2.16 7.97 2.99v2h5v2c3.05 1.01 3.05 1.01 6 0v2c0.568-0.326 1.14-0.651 1.72-0.987 2.48-1.1 4.05-1.25 6.75-1.22 0.878 0.00338 1.76 0.00676 2.66 0.0102 0.942 0.0135 1.88 0.0269 2.85 0.0408 1.46 0.0078 1.46 0.0078 2.96 0.0158 3.12 0.0178 6.24 0.0489 9.36 0.0819 3.11 0.0277 6.22 0.0524 9.33 0.0712 1.93 0.0122 3.87 0.0297 5.8 0.0533 7.79 0.0573 14.4-0.426 21.5-4.06 4.35-2.11 8.21-3.29 13.1-3 0.33-1.32 0.66-2.64 1-4 1.66-0.382 3.32-0.714 5-1 0.33 0.33 0.66 0.66 1 1 0.66-0.66 1.32-1.32 2-2 1.32-0.685 2.66-1.35 4-2 1.14-0.742 1.14-0.742 2.31-1.5 3.14-1.75 6.22-2.62 9.69-3.5v-2h9c-3.65 3.05-7.75 4.95-12 7-0.677 0.36-1.35 0.719-2.05 1.09-1.95 0.91-1.95 0.91-5.14 1.41-0.928 0.165-1.86 0.33-2.81 0.5-0.33 0.66-0.66 1.32-1 2-3.81 2.18-7.59 4-12 4-0.33 0.66-0.66 1.32-1 2-2.33 0.746-2.33 0.746-5.25 1.44-4.08 1.04-7.24 2.19-10.8 4.56-5.6 2.58-11.1 3.13-17.2 3.13-1.14 0.00129-2.29 0.00258-3.47 0.00391-1.18-0.00387-2.36-0.00773-3.58-0.0117-1.2 0.00387-2.39 0.00773-3.62 0.0117-1.71-0.00193-1.71-0.00193-3.45-0.00391-1.56-0.00169-1.56-0.00169-3.15-0.00342-2.52-0.129-2.52-0.129-4.52-1.13-1.52-0.0254-3.04 0.0103-4.55 0.0781-11.3 0.359-20.2 0.286-30.4-5.08-0.668-0.331-1.34-0.663-2.02-1-1.47-0.743-2.95-1.49-4.41-2.25-1.27-0.648-1.27-0.648-2.56-1.31-1.27-0.652-1.27-0.652-2.56-1.32-2.34-1.17-2.34-1.17-4.62-1.65-1.81-0.473-1.81-0.473-3.81-2.47-0.804-0.309-1.61-0.619-2.44-0.938-2.56-1.06-3.69-2.1-5.56-4.06h-2c-0.959-1.05-0.959-1.05-1.94-2.12-4.47-4.7-11-7.84-17.1-9.88-1.35-1.31-2.69-2.65-4-4-0.99-0.66-1.98-1.32-3-2v-2z" fill="#143A93"/>
<path transform="translate(285,1209)" d="m0 0c1.98 0.66 3.96 1.32 6 2v2c0.99 0.0825 1.98 0.165 3 0.25 2.95 0.413 5.14 1.21 7.75 2.62 8.92 4.71 18.3 5.67 28.2 6.12v1c0.792 0.0198 1.58 0.0396 2.4 0.0601 3.6 0.0954 7.19 0.205 10.8 0.315 1.87 0.0464 1.87 0.0464 3.78 0.0938 1.2 0.0387 2.4 0.0773 3.64 0.117 1.1 0.0314 2.21 0.0628 3.35 0.0952 3.06 0.32 5.22 1.16 8.05 2.32 2.41 0.271 2.41 0.271 4.86 0.195 1.33-0.00967 1.33-0.00967 2.69-0.0195 0.912-0.0168 1.82-0.0335 2.76-0.0508 0.931-0.00902 1.86-0.018 2.82-0.0273 2.29-0.0235 4.58-0.0563 6.87-0.0977v2h8v2c1.29-0.126 1.29-0.126 2.6-0.254 6.03-0.537 11.4-0.804 17.4 0.254 1.26-0.0619 2.52-0.124 3.81-0.188 5.11-0.0902 9.72 1.8 14.2 4.19 0.33 0.66 0.66 1.32 1 2-2.29 0.055-4.58 0.0932-6.88 0.125-1.28 0.0232-2.55 0.0464-3.87 0.0703-3.99-0.0662-7.67-0.847-11.6-1.69-4.86-0.915-9.77-1.21-14.7-1.57-2.04-0.154-4.08-0.311-6.12-0.473-0.889-0.0658-1.78-0.132-2.7-0.199-2.18-0.265-2.18-0.265-4.18-1.27-2.61-0.208-5.2-0.374-7.81-0.5-7.59-0.371-7.59-0.371-10.5-1-3.12-0.58-6.09-0.658-9.26-0.707-1.92-0.0425-1.92-0.0425-3.88-0.0859-2.66-0.0542-5.31-0.0959-7.97-0.133-7.57-0.182-14.5-0.956-21.8-2.94-2.7-0.615-5.03-0.646-7.79-0.634-1.33-1-2.67-2-4-3-2.96-1.14-5.97-2.09-9-3v-2h-5v-3c-0.784-0.0825-1.57-0.165-2.38-0.25-2.62-0.75-2.62-0.75-3.94-2.81-0.227-0.639-0.454-1.28-0.688-1.94z" fill="#14388E"/>
<path transform="translate(285,1096)" d="m0 0c1.93 0.707 1.93 0.707 4 2 0.793 2.14 0.793 2.14 1.19 4.69 0.138 0.829 0.276 1.66 0.418 2.51 0.195 1.39 0.195 1.39 0.395 2.8 0.269 1.62 0.269 1.62 0.543 3.27 0.524 4.27 0.604 8.43 0.582 12.7 0.0058 1.15 0.0058 1.15 0.0117 2.33-0.0214 12.6-0.0214 12.6-2.14 14.7-0.348 1.55-0.654 3.12-0.938 4.69-0.747 3.91-1.72 7.56-3.06 11.3-0.155 0.633-0.309 1.27-0.469 1.92-0.53 2.08-1.2 4.02-1.97 6.02-0.264 0.699-0.529 1.4-0.801 2.12-0.594 1.52-1.23 3.02-1.89 4.51-2.13 5.94-2.01 12.2-1.94 18.4 0.00451 0.779 0.00902 1.56 0.0137 2.36 0.0117 1.9 0.0296 3.8 0.0488 5.7 0.66 0.33 1.32 0.66 2 1 0.407 2.32 0.744 4.66 1 7-1.88-0.688-1.88-0.688-4-2-1.12-2.44-1.12-2.44-2-5-0.66-0.99-1.32-1.98-2-3-2.24-7.01-1.09-14.1 1-21 0.495-0.495 0.495-0.495 1-1 0.562-2.52 1.08-5.03 1.56-7.56 0.139-0.711 0.277-1.42 0.42-2.15 0.343-1.76 0.681-3.52 1.02-5.28 1.49-0.495 1.49-0.495 3-1 0.182-1.17 0.182-1.17 0.367-2.37 0.168-1.01 0.335-2.02 0.508-3.07 0.244-1.51 0.244-1.51 0.492-3.06 0.209-0.826 0.418-1.65 0.633-2.5 0.99-0.495 0.99-0.495 2-1 0.439-2.54 0.439-2.54 0.562-5.62 0.222-3.75 0.447-7.48 0.789-11.2 0.657-7.51 0.613-13.9-1.35-21.2-0.405-1.64-0.801-3.29-1.19-4.94-0.179-0.71-0.358-1.42-0.543-2.15-0.27-1.91-0.27-1.91 0.73-4.91zm3 7 1 2zm-5 55 1 2zm-3 1 1 2zm-1 5 1 2z" fill="#133587"/>
<path transform="translate(665,630)" d="m0 0c4 0.616 6.7 2.75 10 5 0.99 0.33 1.98 0.66 3 1v2c1.65 0.33 3.3 0.66 5 1v2c0.619 0.124 1.24 0.247 1.88 0.375 2.12 0.625 2.12 0.625 4.12 2.62 2.05 0.838 4.12 1.52 6.22 2.22 1.78 0.781 1.78 0.781 2.78 2.78 0.99 0.33 1.98 0.66 3 1v2c1.65 0.33 3.3 0.66 5 1v2c0.825 0.0825 1.65 0.165 2.5 0.25 3.63 0.778 6.28 2.04 9.53 3.76 2.57 1.29 5.22 2.16 7.97 2.99v2h5v2c1.65 0.66 3.3 1.32 5 2v1c-3.85 0.207-6.52-0.375-10.1-1.88-1.25-0.522-1.25-0.522-2.54-1.05-3-1.34-5.92-2.82-8.84-4.32-1.27-0.648-1.27-0.648-2.56-1.31-1.27-0.652-1.27-0.652-2.56-1.32-2.34-1.17-2.34-1.17-4.62-1.65-1.81-0.473-1.81-0.473-3.81-2.47-0.804-0.309-1.61-0.619-2.44-0.938-2.56-1.06-3.69-2.1-5.56-4.06h-2c-0.959-1.05-0.959-1.05-1.94-2.12-4.47-4.7-11-7.84-17.1-9.88-1.35-1.31-2.69-2.65-4-4-0.99-0.66-1.98-1.32-3-2v-2z" fill="#11307A"/>
<path transform="translate(1257,1175)" d="m0 0c-0.33 0.66-0.66 1.32-1 2 0.99 0.66 1.98 1.32 3 2-0.722-0.0206-1.44-0.0412-2.19-0.0625-4.77 0.106-9.27 1.4-13.9 2.56-1.02 0.258-2.04 0.516-3.1 0.781-0.937 0.237-1.87 0.474-2.84 0.719-0.633 0.151-1.27 0.303-1.92 0.458-3.81 0.991-7.49 2.36-11.2 3.67-1.31 0.459-1.31 0.459-2.65 0.928-8.82 3.11-17.5 6.49-26.2 9.95-0.33-0.66-0.66-1.32-1-2 0.639-0.103 1.28-0.206 1.94-0.312 1.02-0.34 1.02-0.34 2.06-0.688 0.33-0.99 0.66-1.98 1-3 1.13-0.124 2.27-0.247 3.44-0.375 1.18-0.206 2.35-0.412 3.56-0.625 0.33-0.66 0.66-1.32 1-2 4.25-2 8.53-3.57 13-5 0.924-0.309 1.85-0.619 2.8-0.938 25.1-8.33 25.1-8.33 34.2-8.06z" fill="#143990"/>
<path transform="translate(280,1158)" d="m0 0h2v2h2c-0.193 0.762-0.387 1.52-0.586 2.31-0.545 2.16-1.08 4.32-1.61 6.49-0.452 1.81-0.922 3.62-1.45 5.41-2.12 7.75-1.52 15.8-1.36 23.8 0.66 0.33 1.32 0.66 2 1 0.407 2.32 0.744 4.66 1 7-1.88-0.688-1.88-0.688-4-2-1.12-2.44-1.12-2.44-2-5-0.66-0.99-1.32-1.98-2-3-2.24-7.01-1.09-14.1 1-21 0.33-0.33 0.66-0.66 1-1 0.537-2.5 1.03-4.99 1.5-7.5 1.36-7.36 1.36-7.36 2.5-8.5zm0 1 1 2zm-1 5 1 2z" fill="#143A92"/>
<path transform="translate(619,1263)" d="m0 0c-9.35 7.92-22.5 7.54-34 7v-1c-2.64-0.33-5.28-0.66-8-1v2c-1.67 0.0427-3.33 0.0406-5 0-0.33-0.33-0.66-0.66-1-1-1.11 0.0206-2.23 0.0412-3.38 0.0625-3.62-0.0625-3.62-0.0625-6.62-2.06 1-1 1-1 4.85-1.08 1.72 0.0138 3.43 0.0323 5.15 0.0544 1.86 0.0126 3.71 0.025 5.57 0.0371 2.94 0.0248 5.88 0.0528 8.82 0.0862 2.83 0.0301 5.66 0.048 8.48 0.0642 0.883 0.0135 1.77 0.0269 2.68 0.0408 2.15 0.00889 4.3-0.0868 6.45-0.201 0.66-0.66 1.32-1.32 2-2 5.11-2.31 8.63-1.93 14-1zm-13 2 4 1z" fill="#0C2359"/>
<path transform="translate(1168,1210)" d="m0 0 2 2c-3.25 3.36-6.63 6.57-10.1 9.75-0.837 0.779-1.67 1.56-2.54 2.36-2.34 1.84-3.61 2.22-6.4 2.89-0.33 0.99-0.66 1.98-1 3-1.78 1.5-1.78 1.5-4 3-0.732 0.507-1.46 1.01-2.22 1.54-0.753 0.504-1.51 1.01-2.28 1.53-0.753 0.507-1.51 1.01-2.28 1.54-2.03 1.28-4.06 2.37-6.22 3.4 1.36-5.29 4.56-7.3 9-10 1.33-0.667 2.67-1.33 4-2 1.94-1.64 2.9-2.76 3.88-5.12 0.371-0.619 0.743-1.24 1.12-1.88 0.784-0.124 1.57-0.247 2.38-0.375 2.91-0.377 2.91-0.377 4.44-3.38 2.76-4.1 5.93-5.91 10.2-8.25z" fill="#143A93"/>
<path transform="translate(654,593)" d="m0 0c3.67 0.706 6.7 2.28 10 4v2c0.784 0.186 1.57 0.371 2.38 0.562 5.03 2 9.57 4.84 13.6 8.44v3c-1.61-0.425-3.21-0.866-4.81-1.31-1.34-0.365-1.34-0.365-2.71-0.738-2.62-1-3.59-1.94-5.48-3.95-1.66-1.06-3.35-2.08-5.06-3.06-2.65-1.53-4.77-2.77-6.94-4.94h-2c0.33-1.32 0.66-2.64 1-4z" fill="#133689"/>
<path transform="translate(725,546)" d="m0 0c7.32 0.473 7.32 0.473 10 2.56 0.33 0.474 0.66 0.949 1 1.44-0.812 2.94-0.812 2.94-2 6-2.88 0.961-4.15 1.08-7.06 0.75-0.692-0.067-1.38-0.134-2.1-0.203-1.84-0.547-1.84-0.547-3.84-3.55 2.88-5.88 2.88-5.88 4-7z" fill="#153B95"/>
<path transform="translate(787,549)" d="m0 0c1 1 1 1 1.12 4.5-0.125 3.5-0.125 3.5-1.12 4.5-3.76 0.289-6.42 0.233-9.94-1.19-2.06-1.81-2.06-1.81-2.38-4.5 0.103-0.763 0.206-1.53 0.312-2.31 4-2.84 7.42-1.83 12-1z" fill="#143990"/>
<path transform="translate(838,644)" d="m0 0h9c-3.65 3.05-7.75 4.95-12 7-1.02 0.539-1.02 0.539-2.05 1.09-1.95 0.91-1.95 0.91-5.14 1.41-0.928 0.165-1.86 0.33-2.81 0.5-0.33 0.66-0.66 1.32-1 2-3.81 2.18-7.59 4-12 4-0.33 0.66-0.66 1.32-1 2v-3h2c0.33-1.32 0.66-2.64 1-4 1.66-0.382 3.32-0.714 5-1 0.33 0.33 0.66 0.66 1 1l2-2c1.32-0.685 2.66-1.35 4-2 0.763-0.495 1.53-0.99 2.31-1.5 3.14-1.75 6.22-2.62 9.69-3.5v-2z" fill="#133588"/>
<path transform="translate(1257,1175)" d="m0 0c-0.33 0.66-0.66 1.32-1 2 0.99 0.66 1.98 1.32 3 2-0.722-0.0206-1.44-0.0412-2.19-0.0625-4.78 0.106-9.31 1.4-13.9 2.56-1.03 0.258-2.07 0.516-3.13 0.781-1.93 0.507-3.85 1.09-5.74 1.72v-2l-2-2c2.04-0.651 4.08-1.3 6.12-1.94 1.71-0.539 1.71-0.539 3.45-1.09 5.23-1.48 10-2.1 15.4-1.97z" fill="#11307A"/>
<path transform="translate(871,633)" d="m0 0c-0.33 0.99-0.66 1.98-1 3-0.701 0.103-1.4 0.206-2.12 0.312-3.3 0.788-5.93 2.02-8.88 3.69-0.33 0.66-0.66 1.32-1 2-1.99 0.406-3.99 0.729-6 1-1.67 0.326-3.34 0.657-5 1v-3h2v-2c3.63-0.99 7.26-1.98 11-3v-2c4.12-1.63 6.71-2.26 11-1z" fill="#102D72"/>
<path transform="translate(884 624)" d="m0 0c1.14 0.124 1.14 0.124 2.31 0.25-0.33 0.99-0.66 1.98-1 3-1.65 0.717-3.31 1.38-5 2l-2 2c-2.32 0.719-4.65 1.39-7 2v-4c0.99 0.33 1.98 0.66 3 1l2-2h2c0.65-0.99 0.65-0.99 1.31-2 1.69-2 1.69-2 4.38-2.25z" fill="#133689"/>
<path transform="translate(1133,1242)" d="m0 0c-3.89 3.18-7.9 6.11-12 9-0.33-0.99-0.66-1.98-1-3-0.66-0.33-1.32-0.66-2-1 0.928-0.0825 1.86-0.165 2.81-0.25 3.74-0.879 4.1-1.72 6.19-4.75 2.63-1.04 3.44-1.28 6 0z" fill="#153B95"/>
<path transform="translate(856,638)" d="m0 0c-0.998 2.49-1.69 3.79-3.94 5.31-2.06 0.688-2.06 0.688-5.06-0.312v-2h2v-2c2.49-0.687 4.38-1 7-1z" fill="#123586"/>
<path transform="translate(838,644)" d="m0 0h9c-3.65 3.04-7.74 4.97-12 7 0.33-1.65 0.66-3.3 1-5h2v-2z" fill="#11307B"/>
<path transform="translate(1205,1192)" d="m0 0v2c-3.3 1.32-6.6 2.64-10 4-0.33-0.66-0.66-1.32-1-2 0.639-0.103 1.28-0.206 1.94-0.312 0.681-0.227 1.36-0.454 2.06-0.688 0.33-0.99 0.66-1.98 1-3 3-1 3-1 6 0z" fill="#123484"/>
<path transform="translate(1091,1261)" d="m0 0h10c-3.74 2.81-4.78 3.2-9 4-0.33 0.66-0.66 1.32-1 2-1-2-1-2 0-6z" fill="#11317E"/>
<path transform="translate(895,618)" d="m0 0v4h-5v2c-1.32 0.33-2.64 0.66-4 1 0.75-2.94 0.75-2.94 2-6 2.5-1.13 4.23-1 7-1z" fill="#14388F"/>
<path transform="translate(1191,1196)" d="m0 0c0.99 0.66 1.98 1.32 3 2-3.62 3-3.62 3-7 3 0.312-1.94 0.312-1.94 1-4 0.99-0.33 1.98-0.66 3-1z" fill="#153B95"/>
<path transform="translate(733,536)" d="m0 0v1h-5v2h-5c5.62-4.46 5.62-4.46 10-3z" fill="#01030B"/>
<path transform="translate(1183,1200)" d="m0 0c1.32 0.33 2.64 0.66 4 1-0.33 0.66-0.66 1.32-1 2-2.56 0.625-2.56 0.625-5 1-0.33-0.66-0.66-1.32-1-2h3v-2z" fill="#0C2257"/>
<path transform="translate(1117,1251)" d="m0 0c0.99 0.33 1.98 0.66 3 1-0.99 0.99-1.98 1.98-3 3-0.66-0.99-1.32-1.98-2-3 0.66-0.33 1.32-0.66 2-1z" fill="#0C235A"/>
<path transform="translate(283,1204)" d="m0 0c0.99 1.32 1.98 2.64 3 4h-5c0.66-1.32 1.32-2.64 2-4z" fill="#040B1F"/>
<path transform="translate(1103,1258)" d="m0 0c1.32 0.33 2.64 0.66 4 1-1.98 0.66-3.96 1.32-6 2 0.66-0.99 1.32-1.98 2-3z" fill="#153B95"/>
<path transform="translate(1110,1253)" d="m0 0h5v2h-5v-2z" fill="#0D245D"/>
<path transform="translate(992,486)" d="m0 0h1v8h-1v-8z" fill="#000002"/>
<path transform="translate(708,544)" d="m0 0c1.32 0.33 2.64 0.66 4 1l-4 2v-3z" fill="#000002"/>
<path transform="translate(1108,1255)" d="m0 0c0.66 0.99 1.32 1.98 2 3-1.32-0.66-2.64-1.32-4-2 0.66-0.33 1.32-0.66 2-1z" fill="#000002"/>
<path transform="translate(886,1222)" d="m0 0h6v1h-6v-1z" fill="#000002"/>
<path transform="translate(1172,1208)" d="m0 0c0.66 0.33 1.32 0.66 2 1-1.98 0.99-1.98 0.99-4 2 0.66-0.99 1.32-1.98 2-3z" fill="#153B95"/>
<path transform="translate(1178,1203)" d="m0 0c0.99 0.33 1.98 0.66 3 1-0.33 0.66-0.66 1.32-1 2-0.66-0.33-1.32-0.66-2-1v-2z" fill="#102F77"/>
<path transform="translate(773,1188)" d="m0 0h5v1h-5v-1z" fill="#153B95"/>
<path transform="translate(480,890)" d="m0 0h1v5h-1v-5z" fill="#000002"/>
<path transform="translate(993,575)" d="m0 0 1 4z" fill="#000002"/>
<path transform="translate(727,557)" d="m0 0 4 1z" fill="#000002"/>
<path transform="translate(719,539)" d="m0 0 4 1z" fill="#000002"/>
<path transform="translate(823,460)" d="m0 0 4 1z" fill="#000002"/>
<path transform="translate(1037,1280)" d="m0 0c3 1 3 1 3 1z" fill="#000002"/>
<path transform="translate(1100,1258)" d="m0 0c0.99 0.495 0.99 0.495 2 1-0.99 0.495-0.99 0.495-2 1v-2z"/>
<path transform="translate(444,1241)" d="m0 0c3 1 3 1 3 1z" fill="#000002"/>
<path transform="translate(749,1220)" d="m0 0c3 1 3 1 3 1z" fill="#000002"/>
<path transform="translate(1175,1205)" d="m0 0 2 2h-2v-2z" fill="#0E2764"/>
<path transform="translate(323,1042)" d="m0 0c3 1 3 1 3 1z" fill="#000002"/>
<path transform="translate(1165 1e3)" d="m0 0c3 1 3 1 3 1z" fill="#000002"/>
<path transform="translate(753,670)" d="m0 0c3 1 3 1 3 1z" fill="#000002"/>
<path transform="translate(733,665)" d="m0 0 2 2h-2v-2z" fill="#153B95"/>
<path transform="translate(844,642)" d="m0 0c3 1 3 1 3 1z" fill="#000001"/>
<path transform="translate(713,542)" d="m0 0 2 1-2 1v-2z" fill="#000002"/>
<path transform="translate(716,541)" d="m0 0c3 1 3 1 3 1z" fill="#000002"/>
<path transform="translate(1013,1280)" d="m0 0 2 1z" fill="#000002"/>
<path transform="translate(1070,1274)" d="m0 0 2 1z" fill="#000002"/>
<path transform="translate(578,1269)" d="m0 0 2 1z" fill="#0A1D4B"/>
<path transform="translate(1088,1263)" d="m0 0 2 1z" fill="#000002"/>
<path transform="translate(617,1261)" d="m0 0 2 1z" fill="#000002"/>
<path transform="translate(1111,1255)" d="m0 0 2 1z" fill="#153B95"/>
<path transform="translate(457,1244)" d="m0 0 2 1z" fill="#000002"/>
<path transform="translate(439,1240)" d="m0 0 2 1z" fill="#000001"/>
<path transform="translate(408,1235)" d="m0 0 2 1z" fill="#000002"/>
<path transform="translate(333,1228)" d="m0 0 2 1z" fill="#000002"/>
<path transform="translate(1194,1194)" d="m0 0 2 1z" fill="#000001"/>
<path transform="translate(643,1116)" d="m0 0 2 1z" fill="#000002"/>
<path transform="translate(436,981)" d="m0 0 2 1z" fill="#000002"/>
<path transform="translate(1081,934)" d="m0 0 2 1z" fill="#153B95"/>
<path transform="translate(784,671)" d="m0 0 2 1z" fill="#000002"/>
<path transform="translate(809,658)" d="m0 0 2 1z" fill="#000001"/>
<path transform="translate(878,566)" d="m0 0 2 1z" fill="#000002"/>
<path transform="translate(869,563)" d="m0 0 2 1z" fill="#000002"/>
<path transform="translate(804,541)" d="m0 0 2 1z" fill="#000002"/>
<path transform="translate(826,494)" d="m0 0 2 1z" fill="#153B95"/>
</svg>
