<svg width="1024.000000pt" height="1024.000000pt" viewBox="0 0 1024.000000 1024.000000" xmlns="http://www.w3.org/2000/svg">
  <g transform="translate(0.000000,1024.000000) scale(0.100000,-0.100000)" fill="#fefefe" stroke="none">
    <path d="M0 5120 l0 -5120 5120 0 5120 0 0 5120 0 5120 -5120 0 -5120 0 0
-5120z m5450 3002 c174 -28 344 -91 485 -181 79 -50 214 -182 245 -238 11 -21
24 -45 29 -53 19 -29 61 -129 61 -142 0 -8 6 -22 14 -33 7 -11 19 -53 25 -94
6 -41 14 -77 16 -81 2 -4 9 -38 15 -76 l12 -69 -1 -290 c0 -159 3 -312 8 -340
27 -154 73 -271 154 -390 15 -22 38 -56 51 -75 29 -43 158 -175 288 -293 176
-160 337 -325 438 -449 25 -29 54 -62 65 -74 11 -12 28 -32 38 -45 9 -13 34
-47 55 -74 62 -84 82 -114 82 -122 0 -4 17 -33 38 -63 39 -57 115 -206 127
-250 4 -14 13 -34 19 -45 22 -34 56 -160 67 -247 l12 -82 -6 -121 -5 -120 -22
-67 c-12 -37 -28 -72 -36 -79 -34 -28 -8 -66 73 -104 26 -12 67 -40 89 -62
l42 -41 29 -63 c16 -35 38 -89 47 -119 43 -136 106 -235 205 -324 25 -22 69
-63 97 -91 l50 -50 14 -43 14 -43 -13 -37 c-45 -126 -181 -216 -399 -266 -59
-13 -116 -27 -127 -31 l-20 -7 16 11 c9 6 56 20 105 31 174 41 230 70 295 152
l38 48 7 47 7 47 -12 45 c-13 51 -41 86 -108 141 -62 49 -104 90 -123 119 -8
13 -22 33 -31 45 -17 21 -69 145 -69 162 0 5 -8 25 -19 44 -10 19 -21 49 -25
65 -4 17 -28 53 -54 82 l-47 51 -65 33 -65 33 -70 12 c-38 7 -101 13 -138 13
l-68 1 -27 -14 c-15 -8 -38 -26 -51 -40 -14 -14 -28 -26 -32 -26 -5 0 -31 -14
-59 -30 -28 -17 -56 -30 -63 -30 -7 0 -23 -6 -37 -13 -14 -7 -55 -21 -92 -31
l-67 -18 -98 4 -98 3 -56 28 c-31 15 -74 45 -95 67 l-38 39 -19 53 c-10 29
-21 62 -24 73 -36 120 -230 -3 -294 -186 l-23 -64 -7 -215 -7 -215 -15 -55
c-15 -49 -34 -92 -104 -235 -28 -56 -58 -150 -68 -210 -4 -22 -14 -76 -22
-119 l-15 -79 5 -48 c3 -26 10 -56 16 -66 5 -10 18 -36 28 -58 55 -123 254
-239 461 -266 l90 -12 94 11 c109 13 217 40 307 76 36 14 66 24 68 22 20 -20
-283 -111 -417 -124 l-94 -10 -86 13 c-197 31 -369 133 -460 273 -39 60 -41
61 -150 73 -47 4 -125 13 -175 19 -49 5 -232 13 -405 16 l-315 6 -167 -11
c-92 -6 -196 -15 -230 -21 -35 -5 -110 -17 -168 -25 l-105 -16 -23 -27 c-82
-95 -135 -132 -237 -168 -67 -23 -63 -15 10 21 86 42 150 100 207 189 4 6 17
33 28 60 l22 48 -7 52 c-10 77 -58 196 -102 254 -43 55 -164 174 -232 228
-110 86 -311 300 -311 331 0 6 -7 16 -14 23 -8 6 -24 31 -36 54 -118 245 -330
439 -564 517 l-69 23 -119 -11 -118 -10 -65 -32 -65 -32 -123 -118 c-68 -65
-134 -124 -148 -130 l-24 -12 25 20 c14 11 66 59 115 108 50 48 118 109 153
135 l62 48 0 24 c0 14 -5 37 -11 53 -6 15 -11 77 -11 136 l0 109 17 71 c10 40
26 96 36 125 11 30 19 60 19 68 0 8 18 52 40 96 22 45 40 86 40 92 0 5 6 17
14 25 7 9 27 41 43 72 17 31 47 78 67 104 20 26 36 52 36 57 0 9 198 258 276
348 21 24 131 137 243 250 392 395 471 528 522 880 l20 135 -11 100 c-31 270
-38 499 -20 630 14 96 43 225 58 252 7 12 12 27 12 34 0 24 96 154 161 220
l67 66 83 50 c174 103 304 149 498 179 52 8 97 17 100 20 10 9 424 -2 501 -14z
m-3186 -4507 c-18 -8 -78 -24 -135 -35 -206 -42 -287 -111 -309 -263 l-8 -52
-1 61 -1 61 32 47 c58 88 140 131 324 170 128 28 140 29 98 11z m-397 -538 l5
-72 -10 -40 c-6 -22 -16 -60 -22 -84 -6 -24 -18 -55 -26 -70 l-15 -26 6 20 c4
11 16 54 27 95 l19 75 1 70 c1 39 -2 86 -6 105 l-7 35 11 -18 c7 -10 14 -51
17 -90z m-77 -352 l-12 -37 4 -69 4 -69 -10 18 c-15 25 -13 132 3 170 18 43
26 33 11 -13z m184 -292 l69 -24 206 -15 c113 -8 213 -17 221 -20 8 -4 58 -10
110 -14 94 -8 353 -61 332 -68 -6 -2 -34 2 -64 8 -206 41 -373 62 -643 80
l-140 9 -65 21 c-36 11 -81 30 -100 41 -19 11 -26 17 -15 13 11 -4 51 -18 89
-31z m5276 -137 c0 -8 -113 -86 -124 -86 -5 0 19 20 55 44 70 49 69 48 69 42z
m-4148 -65 c68 -27 143 -54 168 -61 25 -6 62 -16 82 -21 21 -5 124 -12 230
-15 l193 -6 76 10 c41 6 84 14 95 18 l19 6 -15 -11 c-8 -6 -40 -16 -70 -22
l-55 -12 -217 1 -218 1 -57 17 c-65 19 -302 107 -348 129 -65 31 0 12 117 -34z" />
    <path d="M5280 7301 c-69 -11 -119 -39 -193 -111 l-67 -65 -18 -45 -17 -45 0
-105 0 -104 73 -14 c40 -8 71 -17 68 -19 -3 -3 -29 0 -58 6 -29 7 -108 16
-175 21 l-122 9 -43 -7 -43 -8 -1 90 -1 91 -15 35 c-8 20 -39 68 -67 107 l-52
71 -54 27 -54 28 -62 -7 -62 -7 -48 -24 -47 -24 -36 -44 c-19 -24 -48 -70 -62
-102 l-28 -59 0 -101 -1 -100 22 -40 c11 -22 43 -61 69 -87 l48 -48 19 0 20 0
-36 -27 c-20 -16 -56 -43 -81 -61 l-45 -33 -16 -49 -16 -49 10 -38 c12 -43 38
-71 124 -128 31 -21 57 -40 57 -43 0 -2 -11 3 -25 12 -13 9 -33 16 -44 16
l-20 0 -11 -37 c-6 -21 -17 -79 -25 -129 -21 -129 -64 -287 -101 -369 -7 -16
-18 -41 -24 -55 -5 -14 -14 -32 -19 -40 -5 -8 -21 -39 -36 -69 -15 -30 -35
-66 -45 -80 -10 -14 -44 -69 -75 -121 -32 -52 -69 -111 -82 -131 -12 -19 -23
-38 -23 -42 0 -4 -15 -29 -34 -55 -18 -27 -36 -57 -40 -68 -3 -10 -22 -43 -41
-72 -19 -30 -35 -57 -35 -61 0 -13 -61 -130 -71 -136 -5 -4 -9 -15 -9 -25 0
-10 -16 -49 -36 -87 -20 -37 -40 -84 -44 -103 -5 -19 -15 -55 -24 -80 -34 -98
-46 -151 -46 -199 0 -64 -10 -64 -39 -3 -12 26 -29 59 -37 74 -20 38 -31 173
-23 299 l7 105 16 32 c9 17 16 38 16 47 0 19 13 50 82 193 28 56 54 105 60
108 5 3 13 16 19 27 5 12 22 45 38 72 34 57 37 73 17 81 l-15 6 -35 -29 c-20
-15 -36 -33 -36 -38 0 -6 -8 -15 -18 -21 -9 -6 -31 -31 -47 -55 -16 -24 -34
-48 -39 -54 -24 -22 -131 -202 -142 -238 -3 -12 -12 -29 -18 -37 -18 -23 -44
-94 -72 -198 l-24 -92 0 -108 0 -107 21 -65 c46 -140 106 -222 226 -312 52
-38 97 -62 288 -154 142 -68 295 -159 414 -248 46 -35 171 -168 195 -207 l27
-47 5 -48 6 -49 -22 -28 c-12 -15 -41 -36 -65 -47 l-44 -20 -61 0 c-34 0 -70
-5 -81 -10 l-19 -11 0 -23 0 -24 53 -43 c28 -24 79 -68 112 -99 l61 -55 104
-52 c93 -47 200 -85 340 -122 25 -7 110 -19 190 -28 l145 -15 170 12 c94 6
195 17 225 24 30 8 89 21 130 31 87 20 280 81 319 101 14 8 30 14 34 14 5 0
52 21 105 46 l97 46 22 26 c12 15 25 39 28 54 4 15 10 30 15 33 15 9 59 113
69 163 5 26 14 65 20 87 l11 40 0 180 c0 99 4 196 9 215 5 19 16 61 24 93 l16
57 47 60 47 60 70 35 c38 19 77 35 86 35 10 0 27 9 39 20 l22 21 0 41 0 42 26
38 26 37 32 10 c139 43 367 10 581 -83 17 -7 46 -19 65 -26 43 -17 107 -60
138 -93 l23 -24 7 -64 7 -64 51 -3 50 -3 20 22 19 21 -1 52 -2 51 -19 37 c-47
86 -195 187 -373 253 -25 10 -55 21 -67 26 l-23 8 6 103 7 103 -12 90 c-11 82
-38 182 -61 223 -5 9 -20 41 -35 71 -27 57 -32 63 -130 188 -80 102 -158 179
-251 249 l-71 54 -36 0 -37 0 0 -13 c0 -8 35 -50 78 -94 126 -131 222 -252
222 -280 0 -8 8 -26 18 -41 45 -69 50 -79 80 -172 26 -83 36 -195 27 -316 l-7
-95 -22 -14 -21 -14 -57 6 -56 6 -7 46 c-4 25 -13 57 -20 71 -7 14 -16 43 -19
64 -4 22 -25 77 -47 123 -21 45 -39 84 -39 87 0 8 -114 203 -136 233 -13 17
-24 36 -24 41 0 4 -17 32 -37 60 -21 29 -51 73 -68 99 -16 27 -33 53 -37 58
-16 19 -98 147 -98 151 0 2 -16 27 -36 56 -20 28 -43 65 -51 82 -8 17 -25 49
-39 71 -13 22 -27 48 -31 59 -3 10 -17 40 -31 65 -13 25 -30 57 -37 71 -35 66
-105 219 -105 229 0 7 -9 29 -19 49 -42 79 -61 123 -61 142 0 25 -29 53 -51
47 l-17 -5 24 46 c49 91 1 195 -114 251 l-34 16 23 5 23 6 39 72 39 73 6 84 5
85 -13 60 c-7 33 -17 63 -21 66 -5 3 -9 13 -9 23 0 10 -25 45 -56 79 l-56 62
-64 36 -65 36 -82 3 c-45 2 -102 0 -127 -4z m136 -241 c15 -6 40 -24 55 -40
l28 -29 17 -57 16 -57 -6 -37 c-3 -21 -15 -57 -26 -81 -25 -57 -25 -73 3 -88
l22 -12 -20 7 c-286 95 -366 123 -347 124 l22 0 0 60 0 61 16 37 c41 98 133
145 220 112z m-977 -79 c13 -8 34 -38 47 -66 l24 -50 0 -57 0 -58 13 0 c6 -1
-33 -22 -87 -49 l-99 -48 -29 54 c-16 30 -33 75 -37 100 l-9 46 19 54 c33 96
85 121 158 74z m266 -260 c16 -27 -52 -53 -74 -28 l-11 13 12 12 c14 14 64 16
73 3z m329 -6 c30 -30 -3 -56 -48 -39 -22 8 -20 41 2 47 29 8 30 8 46 -8z
m556 -280 c-2 -6 -28 -17 -59 -26 -72 -21 -146 -50 -246 -99 -70 -34 -132 -61
-200 -90 -20 -9 -126 -40 -200 -59 -56 -15 -111 -14 -196 5 l-74 16 -90 44
c-49 24 -121 64 -160 89 -38 25 -86 54 -105 65 -44 25 -75 49 -69 54 2 2 60
-32 129 -75 244 -154 313 -179 485 -179 l93 0 88 26 c49 14 102 31 119 39 16
8 59 26 95 40 36 15 72 33 80 40 8 6 40 22 70 34 30 11 93 36 140 55 86 35
103 38 100 21z m-537 -479 c-19 -10 -248 -10 -317 1 l-49 8 191 0 191 0 -16
-9z" />
  </g>
  <g transform="translate(0.000000,1024.000000) scale(0.100000,-0.100000)" fill="#213e98" stroke="none">
    <path d="M4955 8141 c-11 -5 -62 -12 -113 -16 -50 -4 -94 -11 -97 -15 -3 -5
-23 -11 -46 -15 -22 -4 -53 -13 -67 -21 -15 -8 -39 -14 -53 -14 -15 0 -32 -7
-39 -15 -7 -8 -20 -15 -30 -15 -60 0 -360 -203 -360 -244 0 -5 -10 -19 -22
-31 -33 -32 -58 -67 -58 -80 0 -7 -9 -20 -20 -30 -11 -10 -20 -28 -20 -40 0
-13 -6 -28 -14 -34 -8 -6 -17 -37 -21 -69 -4 -31 -14 -77 -24 -102 l-16 -45 2
-250 2 -250 17 -55 17 -55 4 -123 4 -124 -20 -61 c-12 -33 -21 -79 -21 -102
l0 -41 -15 -20 c-8 -10 -17 -40 -21 -66 l-7 -48 -13 0 -13 0 -7 -36 c-4 -19
-12 -38 -19 -41 -7 -2 -16 -15 -19 -28 -6 -25 -82 -143 -110 -170 -9 -9 -16
-20 -16 -25 0 -5 -107 -117 -237 -250 -232 -235 -283 -288 -340 -360 -15 -19
-33 -39 -40 -45 -6 -5 -32 -37 -57 -70 -25 -33 -52 -67 -61 -76 -8 -9 -15 -21
-15 -27 0 -7 -9 -17 -20 -24 -11 -7 -20 -21 -20 -32 0 -10 -10 -29 -22 -42
-51 -51 -58 -62 -58 -81 0 -11 -9 -28 -20 -38 -11 -10 -20 -24 -20 -32 0 -7
-9 -21 -20 -30 -11 -10 -20 -29 -20 -42 0 -14 -8 -34 -18 -45 -35 -40 -84
-179 -113 -321 l-19 -90 0 -91 0 -92 16 -51 17 -50 -14 -17 c-7 -9 -40 -36
-74 -61 -33 -26 -95 -81 -138 -125 -43 -43 -93 -90 -112 -103 l-33 -25 -122
-26 c-187 -39 -270 -81 -329 -170 l-31 -47 0 -60 c0 -32 9 -95 21 -140 37
-145 24 -250 -55 -462 -30 -79 -15 -172 36 -230 l30 -35 71 -35 c87 -43 177
-62 321 -69 260 -12 666 -72 748 -110 70 -33 306 -118 373 -135 l70 -17 220 2
220 2 50 15 c219 67 268 95 367 209 l23 27 105 16 c58 8 135 20 171 26 85 13
292 28 494 36 l160 6 170 -12 c515 -37 551 -44 595 -113 94 -145 257 -239 470
-273 l85 -13 100 9 c152 15 445 107 445 139 0 4 12 11 28 14 62 15 166 107
120 106 -11 -1 -114 -63 -143 -87 -42 -35 -284 -107 -417 -124 l-90 -12 -86
12 c-206 29 -400 143 -455 267 -10 21 -22 47 -27 56 -18 32 -22 93 -10 158 7
36 16 90 21 120 12 73 49 191 66 211 7 8 13 18 13 22 0 4 11 31 25 61 14 30
25 60 25 67 0 6 7 17 17 24 l16 12 5 57 4 56 -15 0 -15 0 -13 -65 c-7 -36 -16
-65 -20 -65 -5 0 -21 -26 -36 -57 -53 -108 -49 -104 -183 -166 -125 -57 -150
-67 -265 -102 -66 -21 -129 -41 -140 -46 -23 -9 -120 -27 -315 -60 l-65 -11
-160 5 c-164 6 -250 15 -320 35 -22 6 -76 20 -120 32 -95 25 -91 24 -230 91
l-110 53 -60 56 c-33 31 -84 75 -112 99 l-53 43 0 19 c0 10 1 19 3 20 1 0 45
4 96 8 l95 8 4 11 c2 7 11 12 19 12 9 0 29 14 45 32 l28 32 0 39 0 40 -26 56
c-31 66 -31 66 -121 156 -133 133 -441 322 -662 406 -61 24 -229 154 -255 197
-6 11 -26 41 -43 68 -18 27 -33 57 -33 66 0 10 -9 40 -20 68 l-20 51 0 129 0
130 20 37 c11 21 20 53 20 71 l0 34 20 25 c11 14 20 32 20 40 0 8 9 26 20 40
11 14 20 34 20 44 0 10 5 21 11 25 6 3 17 22 25 40 8 19 18 34 23 34 5 0 12
12 16 27 3 15 13 35 21 43 28 30 64 78 64 86 0 7 12 22 58 68 12 13 22 30 22
39 0 9 9 18 19 22 11 3 22 12 25 20 3 8 12 15 19 15 8 0 20 7 27 15 7 8 16 12
21 9 l10 -6 -23 -36 c-12 -20 -27 -40 -34 -44 -6 -4 -15 -19 -18 -33 -4 -14
-16 -36 -27 -48 -11 -12 -26 -29 -34 -38 -8 -9 -15 -25 -15 -37 0 -12 -9 -31
-20 -42 -11 -11 -20 -26 -20 -33 0 -8 -9 -24 -20 -37 -11 -13 -20 -31 -20 -42
0 -10 -9 -35 -20 -55 -11 -21 -20 -49 -20 -63 0 -14 -9 -43 -20 -65 l-20 -39
0 -146 c0 -146 10 -222 29 -228 6 -2 11 -13 11 -25 0 -31 45 -112 61 -112 l14
0 -3 52 -4 51 21 47 c12 26 21 62 21 79 0 17 9 42 20 56 11 14 20 39 20 56 l0
31 20 23 c11 13 20 33 20 45 0 12 9 30 20 40 l20 18 0 27 0 27 20 18 c11 10
20 25 20 32 0 8 9 26 20 40 11 14 20 33 20 43 0 10 9 29 20 43 11 14 20 28 20
32 0 4 9 18 20 32 11 14 20 34 20 44 0 11 5 19 11 19 5 0 17 16 25 35 8 19 18
35 23 35 5 0 12 12 16 28 3 15 14 35 22 45 18 19 35 47 56 92 8 17 21 36 30
44 10 7 17 22 17 32 0 11 4 19 10 19 5 0 16 16 24 35 8 19 19 35 25 35 5 0 14
12 20 28 7 15 18 38 26 52 8 14 15 32 15 41 0 9 7 22 15 29 8 7 15 18 15 24 0
6 8 27 19 46 10 19 21 53 25 74 4 21 14 48 21 60 7 12 17 48 20 81 4 33 12 66
18 74 l11 13 4 97 c1 53 5 106 8 119 l4 22 25 0 c14 0 44 -12 68 -27 23 -15
58 -36 77 -46 19 -11 60 -36 90 -56 30 -21 96 -56 147 -80 l92 -42 63 -10 c35
-6 115 -12 178 -13 l115 -3 84 28 c46 16 89 33 95 38 9 7 82 40 216 99 110 48
263 125 314 160 65 43 83 44 92 3 4 -14 12 -33 19 -41 7 -8 16 -31 20 -50 4
-19 16 -46 26 -59 11 -13 19 -33 19 -45 0 -11 9 -34 20 -51 11 -16 20 -37 20
-46 0 -9 9 -24 20 -34 11 -10 20 -28 20 -40 0 -12 8 -33 18 -46 11 -13 22 -36
26 -51 l6 -28 15 0 15 0 0 -30 0 -30 20 -20 c11 -11 20 -27 20 -35 0 -8 9 -24
20 -35 11 -11 20 -26 20 -33 0 -7 11 -28 25 -47 14 -19 25 -40 25 -47 0 -7 5
-13 11 -13 5 0 17 -16 25 -36 16 -37 24 -49 62 -90 12 -14 22 -31 22 -39 0
-13 60 -109 120 -192 17 -24 34 -51 37 -60 4 -10 17 -31 29 -48 21 -29 134
-223 134 -231 0 -3 18 -42 39 -87 22 -46 43 -101 47 -123 3 -21 12 -50 19 -64
7 -14 16 -46 20 -71 l7 -46 65 -7 65 -7 23 15 23 15 7 100 c14 195 -11 330
-86 474 -10 20 -24 37 -29 37 -6 0 -10 10 -10 23 0 39 -89 154 -227 294 -46
45 -83 87 -83 93 0 13 17 13 25 0 3 -5 13 -10 22 -10 44 0 231 -168 338 -303
98 -124 103 -131 131 -188 69 -144 82 -182 95 -289 l11 -95 -6 -102 -7 -103
23 -9 c13 -5 43 -16 68 -26 82 -31 247 -115 274 -140 15 -14 31 -25 37 -25 5
0 9 -6 9 -14 0 -8 8 -17 18 -21 9 -3 27 -26 40 -50 l22 -45 0 -44 0 -44 -25
-16 c-62 -41 -104 -20 -109 52 l-2 49 -22 27 c-26 34 -106 96 -123 96 -7 0
-35 11 -64 25 -90 42 -256 92 -350 105 -49 7 -95 14 -102 15 -6 2 -49 -3 -95
-12 l-83 -15 -37 -40 -38 -40 0 -44 0 -44 -20 -20 c-11 -11 -28 -20 -39 -20
-10 0 -50 -16 -88 -35 l-70 -35 -48 -60 -47 -61 -24 -102 c-13 -56 -24 -126
-24 -154 l0 -53 14 0 13 0 6 58 c4 53 14 83 55 172 32 69 146 160 200 160 28
0 43 -27 74 -130 5 -19 19 -43 29 -53 10 -10 19 -21 19 -25 0 -36 147 -93 259
-99 l73 -5 85 17 c46 9 96 23 111 31 15 8 33 14 39 14 7 0 35 14 61 30 27 17
54 30 59 30 5 0 20 12 34 26 13 14 36 32 51 40 l27 14 58 0 c89 0 191 -23 267
-61 l69 -34 43 -51 c24 -28 44 -55 44 -60 0 -5 9 -25 19 -45 11 -20 23 -52 26
-72 4 -20 13 -41 21 -48 7 -6 16 -27 20 -47 4 -19 18 -51 31 -71 13 -20 29
-45 36 -55 16 -26 60 -68 120 -116 63 -51 90 -86 110 -140 l17 -45 -16 -45
c-41 -118 -135 -184 -324 -226 -141 -31 -390 -134 -390 -161 0 -19 14 -16 78
16 31 15 75 34 97 41 22 6 67 22 100 35 33 13 96 31 140 40 44 9 107 25 140
36 l60 19 67 51 c37 27 82 68 99 91 l33 40 0 77 1 77 -37 44 c-21 25 -66 70
-101 100 -91 79 -144 146 -188 240 -6 14 -20 41 -30 61 -11 20 -19 51 -19 69
l0 32 -20 25 c-11 14 -20 33 -20 43 0 9 -9 25 -20 35 -11 10 -20 23 -20 29 0
18 -76 75 -134 101 -29 13 -56 31 -60 40 l-6 17 20 25 20 26 0 41 0 42 15 20
14 19 1 185 0 185 -16 30 c-8 17 -18 53 -21 80 -3 28 -14 64 -24 81 -11 17
-19 37 -19 44 0 27 -87 205 -132 270 -21 30 -38 59 -38 63 0 8 -20 38 -82 122
-21 27 -46 61 -55 74 -10 13 -27 33 -38 45 -11 12 -40 45 -65 74 -95 116 -295
322 -404 415 -56 49 -137 122 -151 137 -5 6 -23 23 -39 38 -16 15 -36 35 -45
46 -9 10 -33 36 -53 57 -21 20 -38 43 -38 50 0 6 -10 22 -22 35 -47 48 -58 64
-58 83 0 10 -11 26 -25 35 l-25 16 0 23 c0 12 -7 31 -15 41 -8 11 -15 34 -15
50 -1 17 -10 56 -21 86 l-21 55 -7 365 -6 365 -14 25 c-8 14 -18 63 -22 110
l-7 85 -16 30 c-9 17 -16 37 -16 45 0 8 -12 38 -25 65 -14 28 -25 55 -25 61 0
6 -9 19 -20 29 -11 10 -20 23 -20 30 0 7 -9 20 -20 30 -11 10 -20 23 -20 28 0
9 -117 127 -151 152 -50 37 -101 67 -169 100 -30 14 -62 30 -70 34 -9 5 -31
12 -50 16 -19 4 -39 11 -45 15 -5 4 -30 11 -55 15 -25 4 -49 11 -55 15 -5 4
-49 10 -97 14 -48 3 -99 11 -113 16 l-26 10 -172 -1 c-95 0 -181 -4 -192 -8z
m589 -885 l64 -36 56 -62 c31 -34 56 -69 56 -79 0 -10 4 -20 9 -23 4 -3 14
-33 21 -66 l13 -61 -6 -74 -5 -75 -40 -73 -39 -72 -19 1 c-19 2 -152 49 -161
58 -3 2 5 26 17 53 12 26 24 69 27 94 l5 46 -17 58 -16 58 -34 33 -34 33 -36
7 c-20 3 -57 4 -81 1 l-46 -5 -35 -33 c-20 -19 -44 -52 -54 -74 l-19 -40 0
-62 c0 -35 -3 -63 -7 -62 -5 0 -44 8 -88 18 l-80 18 0 94 0 94 18 45 17 45 67
65 c103 99 165 122 311 115 l72 -3 64 -36z m-1055 -32 l50 -27 52 -70 c67 -92
80 -125 87 -219 l5 -78 -59 -26 c-32 -14 -69 -30 -80 -34 l-21 -9 -1 56 0 55
-29 56 -28 56 -37 19 -37 18 -35 -10 c-48 -13 -63 -30 -87 -98 l-19 -57 10
-54 c5 -30 21 -74 34 -97 l25 -41 -29 -17 c-15 -9 -32 -17 -37 -17 -16 0 -104
94 -126 135 l-22 40 1 91 1 91 27 58 c60 132 150 198 278 204 14 0 49 -11 77
-25z m536 -430 l100 -15 223 -75 c337 -112 393 -142 432 -232 l21 -47 -6 -25
c-4 -14 -15 -39 -26 -57 l-20 -32 -72 -45 c-40 -24 -115 -63 -167 -86 -52 -23
-147 -66 -210 -95 -63 -29 -143 -65 -178 -79 l-63 -26 -117 -6 c-64 -3 -151
-1 -194 4 l-76 10 -94 44 c-51 24 -100 51 -108 59 -9 8 -36 25 -60 38 -162 86
-295 189 -310 240 l-9 31 15 45 15 44 45 33 c25 18 60 45 80 60 19 14 92 55
162 89 70 35 138 70 152 80 26 17 136 55 180 62 41 6 178 -3 285 -19z m-2003
-2855 c190 -65 429 -256 485 -390 7 -16 17 -29 23 -29 5 0 10 -6 10 -14 0 -7
8 -24 19 -37 10 -13 22 -35 26 -47 4 -13 16 -33 26 -43 10 -10 19 -26 19 -34
0 -8 5 -15 10 -15 6 0 13 -8 17 -17 15 -44 183 -218 285 -298 199 -156 311
-316 332 -476 l7 -46 -23 -49 c-30 -65 -53 -96 -113 -156 l-50 -49 -70 -34
c-38 -18 -90 -39 -115 -47 l-45 -13 -220 0 -220 1 -60 13 c-54 11 -106 29
-349 117 -104 39 -319 86 -427 94 -52 3 -100 9 -106 13 -8 5 -115 15 -363 32
-164 12 -310 88 -326 171 -9 51 9 174 34 220 14 26 29 85 47 177 l13 67 -13
63 c-7 34 -21 93 -31 130 l-17 68 17 54 17 55 42 45 c53 55 104 78 237 105 58
12 129 32 157 45 l53 24 125 120 125 120 64 31 63 31 69 8 c38 5 90 9 116 10
l48 1 62 -21z" />
    <path d="M4629 6731 l-24 -20 11 -18 c21 -34 88 -29 99 8 8 25 0 34 -36 43
l-27 6 -23 -19z" />
    <path d="M4980 6733 c-31 -12 -37 -35 -14 -57 l15 -16 34 0 33 0 6 16 c17 44
-24 76 -74 57z" />
    <path d="M5480 6424 c-47 -19 -110 -44 -140 -55 -30 -12 -62 -28 -70 -34 -8
-7 -44 -25 -80 -40 -36 -14 -79 -32 -95 -40 -17 -8 -70 -25 -119 -39 l-88 -26
-83 0 c-161 0 -236 28 -484 184 l-123 77 -14 -5 c-30 -12 -18 -23 101 -98 22
-13 65 -40 95 -59 189 -120 385 -173 515 -138 74 19 180 50 200 59 68 28 130
56 200 90 104 51 222 97 264 103 40 7 56 20 48 41 -9 23 -31 19 -127 -20z" />
    <path d="M6200 3485 l0 -25 15 0 15 0 0 25 0 25 -15 0 -15 0 0 -25z" />
    <path d="M6200 3340 l0 -80 15 0 15 0 0 80 0 80 -15 0 -15 0 0 -80z" />
    <path d="M7504 2515 c-4 -8 -14 -15 -23 -15 -9 0 -32 -15 -52 -33 -60 -54 -92
-81 -131 -111 -38 -28 -50 -56 -25 -56 16 0 203 154 220 181 7 11 20 19 29 19
l18 0 0 15 c0 8 -7 15 -15 15 -9 0 -18 -7 -21 -15z" />
  </g>
  <g transform="translate(0.000000,1024.000000) scale(0.100000,-0.100000)" fill="#244199" stroke="none">
    <path d="M5740 8045 c7 -8 17 -15 22 -15 15 0 117 -50 123 -61 7 -11 25 -12
25 -1 0 8 -161 92 -176 92 -3 0 -1 -7 6 -15z" />
    <path d="M4165 7805 c-59 -63 -70 -85 -30 -59 14 9 25 22 25 28 0 7 16 27 36
44 20 18 34 36 30 39 -4 4 -31 -20 -61 -52z" />
    <path d="M4048 7648 c-27 -33 -22 -45 7 -18 25 23 32 40 18 40 -5 0 -16 -10
-25 -22z" />
    <path d="M6310 7305 c0 -22 29 -89 35 -83 8 8 -18 98 -27 98 -4 0 -8 -7 -8
-15z" />
    <path d="M4548 7181 c20 -22 39 -37 41 -35 6 5 -60 74 -71 74 -4 0 9 -18 30
-39z" />
    <path d="M3950 7021 c0 -17 5 -31 10 -31 6 0 10 11 10 24 0 14 -4 28 -10 31
l-10 6 0 -30z" />
    <path d="M5818 6249 c2 -16 8 -29 12 -29 4 0 12 -18 19 -40 7 -22 22 -57 33
-77 l22 -36 4 12 c2 7 -5 26 -17 41 -11 16 -22 44 -23 62 l-3 33 -17 13 c-10
7 -18 19 -18 27 0 8 -4 16 -8 19 -5 3 -6 -8 -4 -25z" />
    <path d="M3831 6025 c-25 -43 -27 -52 -5 -34 17 14 38 59 31 66 -3 2 -14 -12
-26 -32z" />
    <path d="M5900 6054 c0 -14 33 -74 41 -74 13 0 11 9 -12 46 -20 32 -29 41 -29
28z" />
    <path d="M4122 5968 c-14 -14 -16 -48 -3 -48 9 0 25 49 18 56 -2 2 -9 -2 -15
-8z" />
    <path d="M3770 5932 c-32 -47 -34 -52 -22 -52 8 0 46 52 60 83 11 23 -17 1
-38 -31z" />
    <path d="M5940 5966 c0 -13 34 -66 42 -66 16 0 7 27 -17 50 -14 13 -25 20 -25
16z" />
    <path d="M5985 5870 c9 -30 20 -43 33 -39 l10 4 -25 30 -25 30 7 -25z" />
    <path d="M3658 5796 c-32 -36 -58 -69 -58 -75 0 -6 -4 -11 -10 -11 -14 0 -53
-40 -46 -48 7 -6 186 177 186 190 0 18 -18 4 -72 -56z" />
    <path d="M4085 5814 c-20 -30 -10 -48 11 -20 13 18 19 46 10 46 -2 0 -11 -12
-21 -26z" />
    <path d="M6850 5774 c0 -10 84 -84 89 -78 3 2 -9 18 -25 35 -30 32 -64 55 -64
43z" />
    <path d="M4048 5699 c-8 -13 -19 -35 -23 -49 -4 -14 -14 -33 -23 -43 -8 -9
-12 -20 -9 -23 12 -12 34 15 46 58 7 24 18 46 23 49 6 4 9 12 6 19 l-4 13 -16
-24z" />
    <path d="M7010 5624 c0 -7 48 -54 56 -54 3 0 0 9 -6 20 -10 20 -50 47 -50 34z" />
    <path d="M3952 5498 c-6 -15 -20 -36 -32 -48 -11 -11 -20 -27 -20 -35 0 -7 -8
-18 -17 -24 -10 -5 -15 -13 -11 -16 15 -15 104 114 95 138 l-5 12 -10 -27z" />
    <path d="M3191 5309 c-45 -51 -81 -96 -81 -100 0 -18 16 -7 40 27 14 19 44 56
68 82 24 26 51 55 59 65 l16 17 -10 0 c-6 0 -47 -41 -92 -91z" />
    <path d="M3847 5333 c-8 -10 -21 -29 -27 -43 -17 -38 -35 -68 -55 -90 -18 -20
-16 -38 3 -26 12 7 104 168 99 173 -2 2 -11 -5 -20 -14z" />
    <path d="M3520 5325 c-7 -8 -19 -15 -27 -15 -7 0 -16 -7 -19 -15 -3 -8 -14
-17 -25 -20 -10 -4 -19 -11 -19 -16 0 -15 15 -10 45 15 26 23 65 40 65 29 0
-11 -24 -49 -41 -66 -11 -10 -19 -26 -19 -36 0 -11 -7 -21 -15 -25 -8 -3 -15
-12 -15 -21 l0 -15 20 12 c11 7 22 25 25 40 4 15 12 31 19 35 21 14 58 83 52
98 -7 19 -30 19 -46 0z" />
    <path d="M3410 5216 c-54 -54 -63 -66 -57 -72 7 -8 88 77 84 89 -1 4 -14 -3
-27 -17z" />
    <path d="M3734 5137 c-12 -12 -24 -33 -28 -47 l-7 -25 16 20 c17 20 48 75 43
75 -2 0 -12 -10 -24 -23z" />
    <path d="M3393 5053 c-7 -15 -10 -29 -7 -32 7 -8 34 29 34 46 0 22 -14 15 -27
-14z" />
    <path d="M2952 5018 c-17 -23 -44 -80 -38 -85 10 -10 26 9 26 30 l0 22 20 13
c20 12 27 32 11 32 -5 0 -13 -6 -19 -12z" />
    <path d="M3647 4992 c-10 -10 -17 -22 -17 -26 0 -4 -9 -19 -20 -33 -11 -14
-20 -30 -20 -36 l0 -9 15 12 c16 14 67 101 62 107 -2 2 -11 -5 -20 -15z" />
    <path d="M3320 4909 c0 -6 -7 -26 -16 -45 -24 -50 -11 -53 15 -4 23 45 26 60
11 60 -5 0 -10 -5 -10 -11z" />
    <path d="M3171 4849 c-22 -30 -23 -48 -1 -34 12 7 33 55 27 61 -2 2 -14 -10
-26 -27z" />
    <path d="M2821 4808 c-18 -32 -37 -61 -42 -64 -5 -3 -9 -9 -9 -15 l0 -9 20 12
c11 7 23 22 26 33 4 11 15 30 26 42 l20 21 -4 19 -4 18 -33 -57z" />
    <path d="M3132 4770 c-23 -31 -28 -50 -13 -50 10 0 45 69 39 76 -3 2 -14 -10
-26 -26z" />
    <path d="M3266 4748 c-9 -28 -14 -53 -12 -55 5 -5 46 80 46 95 0 29 -18 7 -34
-40z" />
    <path d="M3532 4777 c-12 -13 -22 -30 -22 -38 l1 -14 24 28 c38 43 35 64 -3
24z" />
    <path d="M2751 4677 c-28 -45 -24 -57 8 -23 l23 24 -4 19 -3 18 -24 -38z" />
    <path d="M3492 4687 c-22 -23 -29 -47 -14 -47 9 0 46 60 40 66 -3 2 -14 -6
-26 -19z" />
    <path d="M3091 4636 c-22 -36 -27 -66 -11 -66 6 0 10 9 10 19 0 11 4 22 9 25
8 5 22 56 15 56 -1 0 -12 -15 -23 -34z" />
    <path d="M3452 4603 c-23 -28 -28 -43 -14 -43 8 0 44 61 39 66 -2 2 -13 -8
-25 -23z" />
    <path d="M7744 4532 c6 -42 35 -106 43 -98 3 3 -2 26 -11 52 -9 26 -16 56 -16
66 0 10 -5 18 -11 18 l-12 0 7 -38z" />
    <path d="M3411 4492 c-12 -17 -21 -40 -21 -52 l0 -21 10 6 c6 3 10 17 10 31 0
13 4 24 9 24 10 0 24 30 17 37 -2 2 -13 -9 -25 -25z" />
    <path d="M3370 4359 c-21 -48 -26 -79 -10 -79 6 0 10 8 10 19 0 10 7 35 16 56
22 53 8 57 -16 4z" />
    <path d="M3260 4357 c0 -9 5 -17 10 -17 6 0 10 -7 10 -15 0 -8 5 -15 10 -15
16 0 12 19 -10 42 l-20 22 0 -17z" />
    <path d="M3351 4242 c2 -15 -1 -33 -5 -41 l-9 -14 14 5 14 5 3 36 3 37 -11 0
-12 0 3 -28z" />
    <path d="M6643 4250 c-13 -5 -23 -15 -23 -22 l0 -12 12 12 c7 7 22 12 34 12
13 0 26 5 29 10 l6 10 -18 -1 c-10 0 -28 -4 -40 -9z" />
    <path d="M2615 4178 l-6 -43 10 -25 10 -25 0 68 c1 76 -5 87 -14 25z" />
    <path d="M2620 4070 c0 -24 23 -90 32 -90 11 0 10 8 -5 52 -14 41 -27 59 -27
38z" />
    <path d="M7594 4040 c3 -14 6 -31 6 -37 0 -7 5 -13 10 -13 15 0 12 34 -6 56
l-15 19 5 -25z" />
    <path d="M7846 3795 c39 -34 54 -42 54 -27 0 8 -74 62 -86 62 -4 0 10 -16 32
-35z" />
    <path d="M3318 3770 c46 -42 63 -52 41 -22 -20 26 -63 61 -74 61 -5 0 10 -17
33 -39z" />
    <path d="M3665 3769 c4 -5 17 -14 28 -20 12 -5 29 -13 37 -19 46 -30 123 -70
127 -66 6 5 -45 38 -130 84 -63 35 -72 38 -62 21z" />
    <path d="M7310 3765 c-7 -8 -17 -15 -23 -15 -13 0 -79 -41 -74 -46 6 -6 104
45 117 61 l12 15 -10 0 c-5 0 -15 -7 -22 -15z" />
    <path d="M6216 3738 c-3 -13 -6 -30 -6 -37 l0 -15 9 10 c4 5 11 21 15 37 l6
27 -9 0 c-5 0 -11 -10 -15 -22z" />
    <path d="M6590 3751 c0 -11 89 -91 101 -91 5 0 9 5 9 10 0 6 -6 10 -14 10 -16
0 -76 56 -76 71 0 5 -4 9 -10 9 -5 0 -10 -4 -10 -9z" />
    <path d="M7910 3739 c0 -8 11 -26 25 -39 32 -30 33 -10 0 27 l-24 28 -1 -16z" />
    <path d="M7806 3718 c41 -49 64 -70 64 -60 0 14 -62 82 -74 82 -5 0 -1 -10 10
-22z" />
    <path d="M7950 3661 c0 -5 9 -19 20 -32 l19 -24 0 15 c0 16 -22 50 -33 50 -3
0 -6 -4 -6 -9z" />
    <path d="M3460 3618 c11 -18 29 -44 41 -58 l20 -25 -7 25 c-7 26 -54 90 -66
90 -4 0 2 -15 12 -32z" />
    <path d="M6760 3641 c0 -10 25 -21 48 -21 l17 1 -19 14 c-22 17 -46 20 -46 6z" />
    <path d="M6995 3643 c-11 -3 -24 -9 -29 -14 l-10 -9 15 0 c26 0 59 12 59 21 0
9 -3 10 -35 2z" />
    <path d="M7895 3598 c10 -35 28 -68 37 -68 12 0 10 5 -13 50 -23 44 -34 52
-24 18z" />
    <path d="M7990 3559 c0 -11 8 -38 19 -58 10 -20 24 -47 30 -61 24 -52 43 -81
48 -76 3 2 -13 43 -36 90 -23 47 -41 92 -41 100 0 8 -4 18 -10 21 l-10 6 0
-22z" />
    <path d="M6200 3525 l0 -32 15 0 15 0 0 32 0 32 -15 0 -15 0 0 -32z" />
    <path d="M3530 3525 c0 -15 42 -85 50 -85 15 0 12 9 -10 37 -11 14 -20 32 -20
39 0 8 -4 14 -10 14 -5 0 -10 -2 -10 -5z" />
    <path d="M7936 3493 c3 -15 12 -37 18 -48 7 -11 17 -38 24 -61 6 -22 21 -49
32 -59 25 -23 26 -6 1 26 -10 13 -21 40 -25 60 -4 21 -13 42 -21 49 -8 7 -15
21 -15 31 0 10 -5 21 -10 24 l-11 7 7 -29z" />
    <path d="M6200 3440 l0 -37 15 0 15 0 0 37 0 37 -15 0 -15 0 0 -37z" />
    <path d="M4120 3464 c0 -6 9 -19 20 -29 11 -10 22 -26 25 -36 7 -20 25 -26 25
-9 0 14 -69 88 -70 74z" />
    <path d="M4210 3343 c0 -11 41 -93 47 -93 5 0 -3 31 -19 73 -9 24 -28 38 -28
20z" />
    <path d="M3640 3333 c1 -10 39 -60 40 -51 0 17 -21 58 -30 58 -5 0 -10 -3 -10
-7z" />
    <path d="M6200 3258 l0 -18 15 0 15 0 0 18 0 19 -15 0 -15 0 0 -19z" />
    <path d="M3700 3261 c0 -7 20 -34 45 -59 25 -24 45 -49 45 -53 0 -5 5 -9 10
-9 18 0 11 16 -18 41 -15 14 -40 41 -55 60 -15 19 -27 28 -27 20z" />
    <path d="M6176 3208 c-9 -29 -14 -58 -10 -58 3 0 9 10 14 23 l9 22 0 -22 c1
-38 21 -26 21 12 l0 35 -15 0 c-9 0 -17 -6 -19 -12z" />
    <path d="M4235 3177 c-11 -12 -26 -30 -34 -39 l-13 -18 10 0 c12 0 67 68 61
75 -2 2 -13 -6 -24 -18z" />
    <path d="M6133 3073 c-15 -32 -30 -59 -35 -61 -4 -2 -8 -10 -8 -18 0 -23 16
-8 35 32 9 19 19 33 23 30 3 -3 -5 -27 -17 -52 -13 -25 -21 -48 -18 -50 5 -5
67 116 67 131 0 3 -5 3 -11 -1 l-12 -7 7 27 c11 44 -4 29 -31 -31z" />
    <path d="M8364 2995 c0 -59 10 -73 19 -27 6 30 -2 82 -12 82 -4 0 -7 -25 -7
-55z" />
    <path d="M4096 2920 c21 -22 43 -40 48 -40 6 0 -8 18 -29 40 -21 22 -43 40
-48 40 -5 0 8 -18 29 -40z" />
    <path d="M4133 2833 c41 -45 56 -62 66 -79 l12 -19 -7 23 c-3 13 -13 32 -22
42 -10 10 -23 26 -30 34 -7 9 -18 16 -24 16 l-11 0 16 -17z" />
    <path d="M8240 2795 c-13 -14 -19 -25 -14 -25 11 1 54 36 54 44 0 13 -18 5
-40 -19z" />
    <path d="M4284 2791 c9 -13 77 -43 84 -37 2 3 -13 13 -34 22 -22 10 -43 20
-48 22 -5 3 -6 -1 -2 -7z" />
    <path d="M5163 2643 l-43 -4 0 -11 0 -11 52 6 c28 4 56 11 62 17 l10 10 -19
-2 c-11 -1 -39 -3 -62 -5z" />
    <path d="M4825 2630 c3 -5 17 -10 31 -10 13 0 24 5 24 10 0 6 -14 10 -31 10
l-30 0 6 -10z" />
    <path d="M7552 2550 l-33 -20 7 -11 7 -11 -20 6 -20 6 -12 -14 -12 -14 16 -6
16 -6 40 26 c23 14 38 28 35 31 -3 4 -1 12 5 20 15 18 10 16 -29 -7z" />
    <path d="M4261 2459 c-18 -40 -7 -49 13 -10 18 34 19 41 8 41 -4 0 -13 -14
-21 -31z" />
    <path d="M7454 2471 c3 -4 -3 -16 -13 -25 l-19 -17 -4 11 -3 11 -28 -21 c-16
-12 -26 -25 -23 -28 3 -3 15 3 26 13 l21 19 -8 -19 -7 -20 42 33 c48 38 47 38
26 46 -8 3 -13 2 -10 -3z" />
    <path d="M4935 2440 l-6 -10 30 0 c17 0 31 5 31 10 0 6 -11 10 -24 10 -14 0
-28 -4 -31 -10z" />
    <path d="M5240 2440 l0 -10 61 0 60 0 -6 10 c-3 6 -31 10 -61 10 l-54 0 0 -10z" />
    <path d="M7315 2370 c-3 -5 0 -10 7 -10 l13 -1 -30 -26 -29 -26 -4 11 -3 11
-40 -26 c-22 -14 -37 -28 -34 -31 2 -3 11 1 20 8 9 7 18 10 21 8 3 -3 -8 -15
-24 -27 -32 -23 -47 -27 -37 -11 9 15 -9 12 -31 -6 l-19 -15 25 7 25 7 -20
-23 -20 -23 15 8 c16 9 159 112 173 125 11 10 17 50 7 50 -5 0 -12 -4 -15 -10z" />
    <path d="M6010 2293 c0 -11 68 -78 74 -72 2 2 -13 21 -35 43 -21 21 -39 34
-39 29z" />
    <path d="M4060 2189 c-19 -11 -43 -19 -53 -19 l-18 0 6 10 c9 15 -9 12 -31 -6
l-19 -16 17 6 c9 3 18 0 20 -6 l4 -10 40 13 c40 14 98 49 79 47 -5 0 -26 -9
-45 -19z" />
    <path d="M6166 2201 c12 -12 141 -81 151 -81 14 0 -13 19 -78 54 -65 35 -93
45 -73 27z" />
    <path d="M6140 2170 c29 -24 117 -74 155 -89 l10 -3 -10 10 c-5 6 -32 22 -60
37 -27 15 -64 38 -82 51 -45 34 -55 29 -13 -6z" />
    <path d="M7031 2184 c-19 -8 -32 -17 -28 -20 3 -3 19 2 37 11 18 9 34 14 37
11 3 -3 -7 -10 -22 -16 -15 -6 -25 -13 -22 -16 7 -8 67 24 67 36 0 14 -29 12
-69 -6z" />
    <path d="M6830 2118 c-19 -5 -39 -14 -45 -20 l-10 -10 25 7 c44 13 70 24 70
30 0 3 -1 5 -2 4 -2 0 -19 -5 -38 -11z" />
    <path d="M6903 2107 c-17 -7 -35 -16 -40 -21 l-8 -8 25 7 c30 9 79 34 65 34
-5 0 -24 -6 -42 -12z" />
    <path d="M6345 2069 c22 -10 49 -18 60 -18 l20 0 -45 19 c-58 25 -87 24 -35
-1z" />
  </g>
  <g transform="translate(0.000000,1024.000000) scale(0.100000,-0.100000)" fill="#28449a" stroke="none">
    <path d="M3986 7448 c-3 -7 -9 -28 -15 -47 -13 -41 -6 -55 9 -17 16 42 23 76
16 76 -4 0 -8 -6 -10 -12z" />
    <path d="M6351 6913 l1 -58 8 25 c12 36 12 90 0 90 l-10 0 1 -57z" />
    <path d="M4035 5665 c-21 -48 -12 -58 10 -10 10 19 15 38 11 42 -3 3 -13 -11
-21 -32z" />
    <path d="M6496 5441 c-3 -4 1 -17 9 -27 l14 -19 1 16 0 17 35 -8 c43 -10 44
-6 3 14 -35 18 -54 20 -62 7z" />
    <path d="M3869 5360 c-6 -16 -15 -30 -20 -30 -5 0 -9 -4 -9 -10 0 -19 15 -9
38 25 25 39 26 45 11 45 -5 0 -15 -13 -20 -30z" />
    <path d="M3520 5315 l-12 -15 11 0 11 0 -6 -25 c-8 -34 2 -31 21 5 22 43 3 69
-25 35z" />
    <path d="M3450 5270 c-14 -10 -22 -22 -18 -25 9 -9 48 17 48 32 0 16 0 16 -30
-7z" />
    <path d="M3056 5148 c-14 -18 -23 -34 -21 -36 5 -5 54 50 55 61 0 14 -9 7 -34
-25z" />
    <path d="M3396 5066 c-18 -29 -21 -50 -5 -41 11 8 32 56 26 62 -3 2 -12 -8
-21 -21z" />
    <path d="M7650 4818 c0 -14 41 -118 50 -123 4 -3 6 3 3 14 -6 23 -52 119 -53
109z" />
    <path d="M3190 4071 c0 -12 52 -62 58 -56 3 2 -10 18 -27 35 -17 17 -31 27
-31 21z" />
    <path d="M2620 4054 c0 -20 25 -84 32 -84 l9 0 -7 23 c-17 57 -34 86 -34 61z" />
    <path d="M8075 3380 c4 -14 15 -33 25 -42 10 -9 20 -23 23 -30 2 -7 7 -11 9
-8 3 3 -10 28 -29 55 l-36 50 8 -25z" />
    <path d="M6190 3268 c0 -13 -3 -33 -6 -46 l-7 -23 14 3 c19 4 28 29 22 61 -6
33 -23 36 -23 5z" />
    <path d="M8155 3164 c17 -14 39 -30 50 -35 l20 -10 -30 26 c-47 40 -54 45 -62
45 -4 -1 6 -12 22 -26z" />
    <path d="M8237 3089 c11 -13 27 -43 34 -66 7 -24 16 -43 21 -43 6 0 8 3 6 8
-1 4 -11 28 -21 53 -10 24 -28 51 -40 58 l-22 14 22 -24z" />
    <path d="M3996 3092 c-5 -8 103 -6 112 3 3 3 -20 5 -51 5 -31 0 -58 -4 -61 -8z" />
    <path d="M8371 3008 c4 -22 -12 -98 -22 -104 -5 -3 -9 -10 -9 -17 l0 -11 14
14 c28 31 48 130 26 130 -6 0 -10 -6 -9 -12z" />
    <path d="M6051 2812 c-8 -20 -16 -44 -19 -52 l-5 -15 10 10 c12 12 37 84 31
90 -2 3 -10 -12 -17 -33z" />
    <path d="M4975 2440 l-6 -10 30 0 c17 0 31 5 31 10 0 6 -11 10 -24 10 -14 0
-28 -4 -31 -10z" />
    <path d="M5200 2440 c0 -5 14 -10 31 -10 l30 0 -6 10 c-3 6 -17 10 -31 10 -13
0 -24 -4 -24 -10z" />
    <path d="M5380 2430 c0 -5 14 -10 31 -10 l30 0 -6 10 c-3 6 -17 10 -31 10 -13
0 -24 -4 -24 -10z" />
  </g>
  <g transform="translate(0.000000,1024.000000) scale(0.100000,-0.100000)" fill="#2d489c" stroke="none">
    <path d="M4943 8143 c-7 -2 -13 -9 -13 -15 l0 -9 23 6 c12 4 26 11 32 16 l9 9
-19 -1 c-11 0 -26 -3 -32 -6z" />
    <path d="M5083 8143 c20 -2 54 -2 75 0 20 2 3 4 -38 4 -41 0 -58 -2 -37 -4z" />
    <path d="M5316 8141 c5 -5 21 -13 37 -16 l27 -7 0 10 c0 10 -32 22 -59 22
l-15 0 10 -9z" />
    <path d="M5415 8120 c3 -5 32 -10 64 -10 l57 0 12 -12 12 -12 0 16 0 15 -52 7
c-29 3 -63 6 -76 6 l-23 0 6 -10z" />
    <path d="M4623 8076 c-13 -6 -23 -14 -23 -19 0 -11 42 2 60 19 l14 14 -14 -1
c-8 -1 -25 -6 -37 -13z" />
    <path d="M6350 7007 c0 -25 4 -49 10 -52 l10 -6 -7 48 c-8 63 -13 67 -13 10z" />
    <path d="M3975 6783 c4 -16 9 -47 12 -70 3 -24 9 -43 14 -43 14 0 10 64 -6
104 -18 42 -30 48 -20 9z" />
    <path d="M3990 6498 c0 -13 -7 -41 -15 -63 -8 -22 -14 -47 -15 -54 l0 -15 9
10 c25 27 50 144 31 144 -5 0 -10 -10 -10 -22z" />
    <path d="M3943 6283 c-7 -15 -13 -32 -13 -37 1 -16 40 34 40 50 0 23 -14 16
-27 -13z" />
    <path d="M6426 6268 c4 -18 16 -41 27 -51 l21 -19 4 12 c2 6 -3 17 -11 23 -8
7 -17 24 -21 40 -4 15 -11 27 -16 27 l-9 0 5 -32z" />
    <path d="M4146 6204 c-10 -25 -7 -94 4 -94 6 0 10 15 10 33 0 17 3 42 6 55 l6
22 -10 0 c-5 0 -13 -7 -16 -16z" />
    <path d="M6560 6054 c0 -3 17 -23 38 -43 20 -21 44 -47 53 -57 9 -11 29 -31
46 -46 17 -14 33 -32 35 -40 3 -7 9 -10 13 -6 9 9 -22 49 -62 79 -18 13 -33
28 -33 32 0 22 -90 102 -90 81z" />
    <path d="M6021 5805 c0 -5 6 -18 14 -29 l14 -19 16 6 c8 4 15 11 15 16 0 6 -7
8 -15 4 l-16 -6 -14 19 c-8 11 -14 15 -14 9z" />
    <path d="M6060 5727 c0 -21 22 -57 35 -57 20 0 19 5 -10 36 -14 15 -25 24 -25
21z" />
    <path d="M6100 5647 c0 -17 26 -47 41 -47 14 0 11 7 -16 36 l-25 27 0 -16z" />
    <path d="M6140 5578 c0 -15 42 -78 53 -78 12 0 8 13 -19 52 -29 41 -34 45 -34
26z" />
    <path d="M6202 5483 c2 -5 10 -21 18 -38 8 -16 18 -34 23 -40 4 -5 17 -25 30
-44 22 -35 47 -52 47 -32 0 5 -10 21 -22 35 -38 41 -46 53 -62 90 -8 20 -20
36 -26 36 -7 0 -10 -3 -8 -7z" />
    <path d="M3496 5235 c-9 -13 -16 -27 -16 -31 0 -9 50 39 50 49 0 15 -18 6 -34
-18z" />
    <path d="M7780 4215 l0 -95 10 0 10 0 0 95 0 95 -10 0 -10 0 0 -95z" />
    <path d="M7450 4196 c0 -9 8 -20 18 -23 9 -4 20 -11 24 -17 12 -18 20 1 9 21
-6 10 -11 14 -11 9 0 -5 -9 -1 -20 9 l-20 18 0 -17z" />
    <path d="M7540 4110 c0 -5 4 -10 10 -10 5 0 16 -15 24 -34 13 -30 36 -57 36
-41 0 13 -34 80 -44 87 -15 11 -26 10 -26 -2z" />
    <path d="M7766 4068 c-8 -12 -12 -26 -9 -31 l6 -10 14 18 c12 18 18 45 9 45
-3 0 -12 -10 -20 -22z" />
    <path d="M7430 4040 c25 -35 40 -46 40 -28 0 13 -42 58 -55 58 -3 0 3 -13 15
-30z" />
    <path d="M6215 3251 c-3 -6 -11 -9 -16 -6 -5 4 -9 -1 -9 -9 0 -9 -4 -16 -10
-16 -5 0 -10 -8 -10 -17 l1 -18 13 18 c7 9 18 17 24 17 5 0 13 7 16 16 8 20 1
30 -9 15z" />
  </g>
  <g transform="translate(0.000000,1024.000000) scale(0.100000,-0.100000)" fill="#334d9f" stroke="none">
    <path d="M3713 5860 c-24 -29 -30 -45 -13 -35 14 9 52 65 43 64 -4 0 -18 -13
-30 -29z" />
    <path d="M3495 5300 l-6 -10 15 0 c9 0 16 -7 16 -16 l0 -15 10 6 c6 3 10 15
10 26 l0 19 -19 0 c-11 0 -23 -4 -26 -10z" />
    <path d="M3320 4906 c-5 -15 -15 -37 -21 -48 l-11 -20 10 6 c14 8 45 76 38 83
-3 3 -10 -6 -16 -21z" />
    <path d="M3386 3708 c10 -15 34 -45 55 -67 8 -9 23 -29 33 -44 10 -16 20 -26
23 -23 6 5 -103 146 -113 146 -3 0 -2 -5 2 -12z" />
    <path d="M6180 3224 c0 -8 5 -12 10 -9 l10 6 0 -21 0 -21 10 6 c6 3 10 16 10
28 l0 23 -20 1 -20 2 0 -15z" />
    <path d="M8328 3114 c18 -23 32 -47 32 -52 0 -6 4 -13 10 -17 l9 -6 -10 29
c-5 16 -24 42 -41 58 l-32 29 32 -41z" />
    <path d="M5035 2440 l-6 -10 81 0 81 0 -6 10 -6 10 -69 0 -69 0 -6 -10z" />
  </g>
  <g transform="translate(0.000000,1024.000000) scale(0.100000,-0.100000)" fill="#3b54a3" stroke="none">
    <path d="M3974 6770 c3 -14 6 -28 6 -32 0 -5 5 -8 10 -8 15 0 12 24 -6 46
l-15 19 5 -25z" />
    <path d="M6353 6690 c0 -36 2 -50 4 -32 2 17 2 47 0 65 -2 17 -4 3 -4 -33z" />
    <path d="M3990 6559 l0 -60 10 6 c6 3 10 31 10 61 l0 54 -10 0 -10 0 0 -61z" />
    <path d="M4166 6214 c-18 -17 -22 -54 -6 -54 6 0 10 9 10 20 0 10 7 23 16 28
l17 9 -11 7 c-6 3 -18 -1 -26 -10z" />
    <path d="M4147 6123 c-11 -10 -8 -53 3 -53 6 0 10 14 10 30 0 31 -2 35 -13 23z" />
    <path d="M6520 6111 c0 -7 7 -14 16 -18 8 -3 20 -17 26 -32 l10 -26 5 14 c6
14 -26 62 -45 69 -7 2 -12 -1 -12 -7z" />
    <path d="M6765 5845 c22 -18 42 -32 44 -29 8 8 -52 64 -68 64 l-16 -1 40 -34z" />
    <path d="M3498 5303 c-10 -2 -18 -9 -18 -14 l0 -10 20 6 20 6 0 -12 0 -13 11
11 c6 6 8 16 5 22 -7 11 -10 12 -38 4z" />
    <path d="M3242 4544 l-1 -35 9 6 c12 8 13 52 2 59 -5 3 -9 -11 -10 -30z" />
    <path d="M7780 4331 c0 -17 5 -33 10 -36 l10 -6 0 35 c0 20 -4 36 -10 36 -5 0
-10 -13 -10 -29z" />
  </g>
  <g transform="translate(0.000000,1024.000000) scale(0.100000,-0.100000)" fill="#4c64ac" stroke="none">
    <path d="M4923 8143 c-13 -2 -23 -9 -23 -15 l0 -10 23 6 c12 3 25 6 30 6 4 0
7 5 7 10 0 6 -3 9 -7 9 -5 -1 -18 -4 -30 -6z" />
    <path d="M4166 6212 c-3 -5 -8 -28 -12 -50 l-7 -42 11 0 c5 0 13 16 16 36 4
19 10 42 13 50 5 15 -12 20 -21 6z" />
    <path d="M7431 4045 c18 -19 35 -32 38 -30 6 7 -50 65 -62 65 -5 0 6 -16 24
-35z" />
    <path d="M4968 2623 c18 -2 45 -2 60 0 15 2 0 4 -33 4 -33 0 -45 -2 -27 -4z" />
  </g>
  <g transform="translate(0.000000,1024.000000) scale(0.100000,-0.100000)" fill="#6478b6" stroke="none">
    <path d="M3945 6307 c-18 -43 -18 -47 -5 -47 10 0 33 71 25 78 -3 3 -12 -11
-20 -31z" />
    <path d="M6943 4610 c0 -36 2 -50 4 -32 2 17 2 47 0 65 -2 17 -4 3 -4 -33z" />
  </g>
  <g transform="translate(0.000000,1024.000000) scale(0.100000,-0.100000)" fill="#445ca7" stroke="none" />
  <g transform="translate(0.000000,1024.000000) scale(0.100000,-0.100000)" fill="#7f8fc3" stroke="none">
    <path d="M6463 6222 c10 -10 17 -25 17 -34 0 -8 12 -25 27 -39 l27 -24 -17 25
c-9 14 -23 40 -31 58 -8 17 -20 32 -27 32 l-12 0 16 -18z" />
  </g>
  <g transform="translate(0.000000,1024.000000) scale(0.100000,-0.100000)" fill="#c3cae2" stroke="none" />
  <g transform="translate(0.000000,1024.000000) scale(0.100000,-0.100000)" fill="#566cb0" stroke="none" />
  <g transform="translate(0.000000,1024.000000) scale(0.100000,-0.100000)" fill="#d3d8ea" stroke="none" />
  <g transform="translate(0.000000,1024.000000) scale(0.100000,-0.100000)" fill="#6f82bb" stroke="none" />
  <g transform="translate(0.000000,1024.000000) scale(0.100000,-0.100000)" fill="#9eabd2" stroke="none" />
  <g transform="translate(0.000000,1024.000000) scale(0.100000,-0.100000)" fill="#afb9d9" stroke="none" />
  <g transform="translate(0.000000,1024.000000) scale(0.100000,-0.100000)" fill="#8b9ac8" stroke="none" />
  <g transform="translate(0.000000,1024.000000) scale(0.100000,-0.100000)" fill="#e9ecf4" stroke="none" />
  <g transform="translate(0.000000,1024.000000) scale(0.100000,-0.100000)" fill="#93a1cc" stroke="none" />
  <g transform="translate(0.000000,1024.000000) scale(0.100000,-0.100000)" fill="#e2e5f1" stroke="none" />
  <g transform="translate(0.000000,1024.000000) scale(0.100000,-0.100000)" fill="#b9c1de" stroke="none" />
  <g transform="translate(0.000000,1024.000000) scale(0.100000,-0.100000)" fill="#f3f4f9" stroke="none" />
  <g transform="translate(0.000000,1024.000000) scale(0.100000,-0.100000)" fill="#4059a6" stroke="none" />
  <g transform="translate(0.000000,1024.000000) scale(0.100000,-0.100000)" fill="#213e97" stroke="none" />
</svg>