<?xml version="1.0" encoding="UTF-8"?>
<svg version="1.1" viewBox="0 0 1600 1600" width="1280" height="1280" xmlns="http://www.w3.org/2000/svg">
<path transform="translate(807 269)" d="m0 0c0.656 0.0445 1.31 0.0889 1.99 0.135 3.56 0.281 6.95 0.823 10.4 1.65 5.38 1.26 10.8 1.77 16.3 2.34 14.9 1.67 29.5 4.56 44 8.38 5.48 1.44 11 2.13 16.6 2.79 2.92 0.401 5.72 0.891 8.6 1.49 5.45 1.12 10.9 1.88 16.4 2.6 2.78 0.37 5.56 0.74 8.34 1.11 1.54 0.205 3.09 0.407 4.63 0.604 4.62 0.612 4.62 0.612 6.84 1.72 3.26 0.646 6.52 1.23 9.79 1.81 4.5 0.811 8.81 1.92 13.2 3.19 1.93 0.367 3.87 0.702 5.81 1 4.58 0.729 9.11 1.56 13.7 2.49 4.5 0.901 9.02 1.7 13.5 2.51v2c0.715-0.18 1.43-0.361 2.17-0.547 3.03-0.484 5.14-0.264 8.14 0.297 1.04 0.191 2.09 0.382 3.16 0.578 1.16 0.222 2.33 0.443 3.52 0.672 1.34 0.246 2.68 0.49 4.02 0.734 19.6 3.59 19.6 3.59 23 5.27 1.98 0.183 3.96 0.322 5.94 0.438 7.14 0.5 14.2 1.29 21.1 3.56 2.37 0.313 4.75 0.601 7.12 0.875 5.26 0.638 10 1.68 15 3.54 2.95 0.914 5.84 0.644 8.9 0.59 7.07 1.08 14.2 2.74 21 5 1.64 0.13 3.29 0.23 4.94 0.312 5.2 0.409 10.2 1.24 15.3 2.31 10.5 2.21 21.1 4.04 31.7 5.88 23.5 4.06 23.5 4.06 34.9 6.35 3.49 0.688 6.95 1.28 10.5 1.69 3.66 0.461 3.66 0.461 6.66 1.46 1.33 0.241 2.66 0.455 3.99 0.648 0.781 0.117 1.56 0.233 2.37 0.354 1.25 0.185 1.25 0.185 2.52 0.373 6.66 1.02 13.2 2.27 19.7 3.87 6.43 1.43 12.9 2.41 19.5 3.45 12.4 1.98 24.8 4.18 36.9 7.31 1.03 0.263 2.06 0.526 3.12 0.797 8.33 2.42 15.4 6.44 20.6 13.5 2.51 5.24 2.43 11.1 2.56 16.8 0.0162 0.674 0.0324 1.35 0.0491 2.04 0.139 6.16 0.218 12.3 0.279 18.5 0.0411 4.13 0.102 8.25 0.209 12.4 0.104 4.01 0.158 8.02 0.178 12 0.0159 1.52 0.0491 3.04 0.1 4.57 0.147 4.6 0.15 8.91-1.09 13.4-2.96 3.07-6.06 4.49-10 6-1.43 0.728-2.85 1.47-4.27 2.23-1.33 0.657-2.65 1.31-3.98 1.96-0.668 0.329-1.34 0.659-2.02 0.998-1.31 0.644-2.61 1.29-3.92 1.93-2.61 1.28-5.21 2.59-7.81 3.89-1.73 0.855-1.73 0.855-3.49 1.73-7.06 3.5-14.1 7.07-21 10.8-7.43 3.96-14.9 7.76-22.5 11.5-3.47 1.72-6.93 3.45-10.4 5.18-1.34 0.671-2.68 1.34-4.02 2.01-0.933 0.467-0.933 0.467-1.89 0.943-2.24 1.12-4.48 2.24-6.72 3.36-0.775 0.388-1.55 0.776-2.35 1.18-2.05 1.02-4.1 2.04-6.15 3.05-7.37 3.66-14.7 7.4-21.9 11.3-6.92 3.68-13.9 7.14-21 10.4-3.66 1.68-7.08 3.51-10.5 5.6-2.41 1.23-4.82 2.43-7.25 3.62-5.8 2.87-11.5 5.83-17.2 8.88-10.5 5.59-21.1 10.9-31.9 16-8.5 3.92-8.5 3.92-16.6 8.54-6.07 3.83-12.6 6.67-19.1 9.7-6.4 2.99-12.7 6.17-19 9.35-1.86 0.937-3.73 1.86-5.6 2.79-6.11 3.03-12.2 6.14-18.1 9.43-10.9 5.93-21.8 11.6-33 16.8-5.28 2.46-10.4 5.12-15.5 7.9-6.45 3.49-13 6.75-19.6 10-3.34 1.66-6.68 3.33-10 5-3.99 1.99-7.97 3.99-12 5.96-7.76 3.85-15.5 7.8-23.1 11.9-4.61 2.46-9.25 4.83-13.9 7.14-1.15 0.576-2.3 1.15-3.49 1.75-5.17 2.58-10.3 5.17-15.5 7.75-0.782 0.392-1.56 0.784-2.37 1.19-2.01 1-4.02 2-6.04 3-1.22 0.604-2.44 1.21-3.65 1.81-0.601 0.298-1.2 0.596-1.82 0.903-4.08 2.04-8.05 4.2-12 6.55-11.8 5.71-25.5 3.36-37.8 0.561-6.25-1.35-12.6-2.46-18.9-3.63-6.38-1.21-12.7-2.62-18.9-4.27-2.32-0.557-4.54-0.928-6.91-1.19-3.69-0.438-3.69-0.438-6.86-1.37-4.26-1.18-8.47-1.9-12.8-2.57-5.48-0.837-10.7-1.94-16-3.5-1.95-0.367-3.91-0.702-5.88-1-3.47-0.552-6.89-1.13-10.3-1.94-5.33-1.25-10.7-2.12-16.1-3.01-5.57-0.946-5.57-0.946-6.68-2.05-1.61-0.344-3.23-0.635-4.85-0.902-1.5-0.252-1.5-0.252-3.03-0.51-1.05-0.173-2.11-0.347-3.19-0.525-6.03-0.996-12-2.01-17.9-3.56-4.28-1.04-8.64-1.74-13-2.5-5.94-1.04-11.8-2.13-17.7-3.47-4.66-1.05-9.35-2-14-2.96-7.71-1.6-15.4-3.21-23.1-4.89-9.02-1.91-18.1-3.58-27.2-5.18-4.73-0.847-9.38-1.8-14-3-3.97-0.982-7.99-1.71-12-2.5-2.4-0.478-4.79-0.957-7.19-1.44-1.91-0.383-1.91-0.383-3.87-0.773-3.92-0.784-7.84-1.57-11.8-2.35-1.85-0.37-1.85-0.37-3.74-0.748-2.11-0.423-4.22-0.846-6.34-1.27-4.97-1-9.94-1.95-14.9-2.86-4.99-0.919-9.94-1.94-14.9-3.12-5.57-1.33-11.2-2.23-16.8-3.01-2.48-0.43-2.48-0.43-3.48-1.43-2.83-0.52-5.66-0.995-8.5-1.44-1.66-0.268-3.33-0.537-4.99-0.809-0.751-0.12-1.5-0.241-2.28-0.365-2.96-0.516-5.88-1.16-8.8-1.85-4.34-0.957-8.73-1.71-13.1-2.48-5.21-0.944-5.21-0.944-6.32-2.05-1.69-0.344-3.4-0.635-5.1-0.902-1.57-0.252-1.57-0.252-3.18-0.51-2.21-0.347-4.42-0.693-6.62-1.04-5.51-0.884-10.7-1.98-16.1-3.55-2.99-0.577-5.99-1.04-9-1.5-5.48-0.837-10.7-1.92-16-3.5-1.77-0.377-3.54-0.734-5.31-1.06-4.47-0.828-4.47-0.828-6.69-1.94-1.35-0.251-2.71-0.461-4.08-0.648-0.825-0.117-1.65-0.234-2.5-0.354-0.882-0.123-1.76-0.246-2.67-0.373-7.32-1.05-14.5-2.31-21.7-3.98-3.1-0.701-3.1-0.701-6.49-1.11-3.66-0.555-7-1.51-10.6-2.54-3.3-0.759-6.62-1.44-9.94-2.12l-2.65-0.551c-2.14-0.444-4.27-0.884-6.41-1.32v-2h-2c-0.736-17.2-1.12-34.4-1.18-51.7-0.00682-1.98-0.0171-3.95-0.0308-5.93-0.0179-2.8-0.0222-5.6-0.0225-8.39-0.00715-0.838-0.0143-1.68-0.0217-2.54 0.0165-4.25 0.16-7.66 2.25-11.5 2-1.44 2-1.44 4.44-2.56 0.896-0.414 1.79-0.828 2.71-1.25 3.67-1.53 7.39-2.85 11.1-4.16 3.46-1.3 6.68-2.93 9.96-4.62 3.09-1.57 6.22-3.05 9.37-4.52 0.609-0.284 1.22-0.569 1.85-0.862 4.17-1.94 8.36-3.84 12.5-5.73 1.59-0.719 1.59-0.719 3.21-1.45 2.1-0.949 4.2-1.89 6.3-2.83 5.13-2.33 9.94-4.78 14.7-7.86 11.6-7.3 25.8-12.1 38.8-16.5 7.43-2.6 14.3-6.11 21.3-9.71 7.39-3.76 15-6.83 22.8-9.71 3.12-1.24 6.05-2.69 9.04-4.21 3.13-1.49 6.29-2.94 9.43-4.39 4.98-2.31 9.9-4.72 14.8-7.29 2.81-1.31 2.81-1.31 5.81-1.31v-2c0.536-0.196 1.07-0.392 1.62-0.594 6.34-2.42 12.3-5.33 18.4-8.4 6.35-3.21 12.7-6.36 19.4-8.94 3.06-1.26 5.96-2.74 8.91-4.25 6.07-3.09 12.2-5.87 18.5-8.5 2.82-1.2 4.96-2.12 7.16-4.31 1.86-0.678 3.73-1.35 5.6-2.02 2.73-1.11 5.21-2.47 7.78-3.92 4.19-2.34 8.34-4.22 12.8-5.93 3.58-1.44 7.07-3.06 10.6-4.7 0.939-0.44 0.939-0.44 1.9-0.888 2.82-1.33 5.62-2.68 8.41-4.08 3.06-1.53 6.15-2.97 9.25-4.41 14.2-6.57 28.3-13.3 42.2-20.3 11.1-5.6 22.3-10.9 33.8-15.6 4.33-1.83 8.49-3.99 12.7-6.13 8.66-4.39 17.3-8.67 26.2-12.7 4.48-2.06 8.87-4.29 13.2-6.55 1.27-0.65 1.27-0.65 2.57-1.31 0.763-0.393 1.53-0.786 2.31-1.19 2.15-0.998 4.24-1.82 6.47-2.62 4.44-1.63 8.51-3.79 12.7-6.06 5.76-3.11 11.5-6.05 17.6-8.56 1.07-0.532 2.14-1.06 3.25-1.61 4.12-1.52 7.35-1.61 11.6-1.2z" fill="#0080B8"/>
<path transform="translate(1333,578)" d="m0 0c-0.33 0.33-0.66 0.66-1 1-0.0953 3.14-0.126 6.25-0.114 9.39-1.46e-4 0.985-2.92e-4 1.97-4.43e-4 2.99 7e-4 3.27 0.00849 6.55 0.0163 9.82 0.00186 2.26 0.00329 4.53 0.00429 6.79 0.00383 5.97 0.0137 11.9 0.0247 17.9 0.0102 6.09 0.0148 12.2 0.0198 18.3 0.0107 12 0.0278 23.9 0.0488 35.9-1.62 0.838-3.25 1.67-4.88 2.5-0.905 0.464-1.81 0.928-2.74 1.41-2.38 1.09-2.38 1.09-4.38 1.09-0.33 0.99-0.66 1.98-1 3-2.24 1.32-4.41 2.46-6.75 3.56-1.05 0.512-1.05 0.512-2.13 1.03-2.37 1.15-4.74 2.28-7.12 3.4-1.75 0.833-3.49 1.67-5.24 2.5-2.7 1.29-5.41 2.58-8.12 3.86-6.02 2.85-12 5.8-17.9 8.8-4.71 2.35-9.47 4.59-14.2 6.84-9.4 4.46-18.7 9.05-28 13.8-8.39 4.26-16.9 8.24-25.4 12.2-8.04 3.68-16 7.47-23.7 11.7-6.84 3.7-13.9 7.01-20.9 10.3-8.22 3.9-16.4 7.93-24.5 12-1.32 0.659-2.64 1.32-3.95 1.98-2.65 1.32-5.3 2.65-7.94 3.99-6.84 3.45-13.7 6.83-20.7 9.93-2.85 1.3-5.64 2.69-8.43 4.11-1.24 0.623-2.49 1.25-3.73 1.87l-1.97 0.987c-15.7 7.83-15.7 7.83-17.8 8.92-1.56 0.781-3.12 1.56-4.68 2.35-7.35 3.7-14.8 7.24-22.2 10.8-6.22 2.97-12.4 6-18.6 9.11-1.3 0.653-2.61 1.31-3.91 1.96-0.608 0.304-1.22 0.608-1.84 0.921-1.3 0.651-2.6 1.3-3.9 1.95-3.54 1.77-7.08 3.54-10.6 5.32-6.16 3.1-12.3 6.18-18.7 8.92-4.1 1.83-8.07 3.9-12.1 5.93-6.96 3.52-14 6.87-21 10.2-6.02 2.86-12 5.8-18 8.8-1.07 0.532-2.13 1.06-3.23 1.61-1.94 0.972-3.88 1.95-5.82 2.93-7.36 3.71-14.8 7.29-22.3 10.7-3.56 1.65-6.56 3.35-9.69 5.75-1.56 0.698-3.15 1.34-4.75 1.94-5.63 2.17-10.9 4.77-16.2 7.69-10.7 4.81-21.4 4.05-32.5 1.23-3.82-0.928-7.65-1.66-11.5-2.36-4.65-0.848-9.27-1.77-13.9-2.88-6.67-1.59-13.4-2.85-20.1-4.12-9.9-1.88-19.7-3.83-29.5-6.43-9.27-2.44-18.5-4.18-28-5.68-5.18-0.818-10.3-1.74-15.4-2.92-4.05-0.911-8.15-1.61-12.2-2.33-4.38-0.797-8.6-1.88-12.9-3.14-9.57-2.53-19.3-4.11-29-5.64-1.52-0.243-1.52-0.243-3.07-0.491-0.917-0.143-1.83-0.286-2.78-0.434-2.11-0.433-2.11-0.433-3.11-1.43-1.55-0.332-3.11-0.611-4.67-0.867-0.968-0.162-1.94-0.324-2.93-0.49-1.56-0.256-1.56-0.256-3.14-0.517-7.44-1.26-14.8-2.62-22.1-4.41-3.79-0.874-7.6-1.58-11.4-2.28-4.57-0.834-9.08-1.73-13.6-2.92-4.84-1.19-9.76-2.07-14.6-3.03-5.03-0.99-10.1-1.99-15.1-2.99-1.09-0.217-2.18-0.433-3.31-0.657-6.44-1.29-12.8-2.69-19.2-4.23-4.3-0.927-8.63-1.52-13-2.09-2.87-0.527-2.87-0.527-5.16-1.49-3.97-1.51-8.03-1.95-12.2-2.54-5.17-0.72-9.65-1.54-14.5-3.5-2.94-0.577-5.91-0.967-8.88-1.38-5.81-0.854-11.4-1.86-17.1-3.5-9.67-2.75-19.6-4.27-29.5-5.98-14.2-2.46-14.2-2.46-19.9-4.12-5.36-1.5-10.8-2.45-16.3-3.46-7.89-1.49-15.8-3-23.6-4.89-10-2.41-20.1-4.17-30.2-5.91-1.22-0.213-2.44-0.427-3.7-0.646-1.11-0.192-2.22-0.383-3.37-0.58-2.54-0.541-2.54-0.541-3.54-1.54-1.58-0.344-3.18-0.635-4.78-0.902-0.989-0.168-1.98-0.336-3-0.51-1.04-0.173-2.09-0.347-3.16-0.525-10.1-1.7-20.2-3.47-30.1-6.06-0.662-0.165-1.32-0.33-2.01-0.5-1.66-0.436-3.3-0.961-4.93-1.5-1.12-2.24-1.18-3.56-1.28-6.05-0.0368-0.885-0.0736-1.77-0.112-2.68-0.0354-0.997-0.0707-1.99-0.107-3.02-0.0399-1.06-0.0798-2.12-0.121-3.21-0.417-11.8-0.678-23.7-0.942-35.5-0.0222-0.984-0.0445-1.97-0.0674-2.98-0.272-12.2-0.434-24.3-0.37-36.5 2.04 0.0927 4.08 0.186 6.12 0.279 1.57 0.0707 3.14 0.136 4.71 0.199 3.96 0.207 6.66 0.605 10.2 2.52 2.24 0.397 4.49 0.724 6.75 1 4.52 0.558 8.81 1.35 13.2 2.5 3.4 0.832 6.84 1.37 10.3 1.94 6.05 1.03 12 2.3 17.9 3.88 4.08 0.982 8.21 1.58 12.4 2.16 2.5 0.527 2.5 0.527 5.5 2.53 1.97 0.35 1.97 0.35 4.19 0.438 4.81 0.399 9.51 1.13 14.2 2 1.05 0.184 1.05 0.184 2.12 0.371 3.4 0.636 5.53 1.25 8.45 3.19 1.85 0.269 3.7 0.528 5.56 0.723 2.83 0.322 5.63 0.756 8.44 1.21 0.949 0.153 1.9 0.307 2.88 0.465 3.02 0.577 5.96 1.31 8.94 2.07 4.01 0.961 8.07 1.66 12.1 2.4 7.55 1.4 15 2.96 22.5 4.82 3.04 0.749 6.03 1.37 9.13 1.8 3.46 0.512 3.46 0.512 6.71 1.45 3.73 1.05 7.41 1.81 11.2 2.5 1.41 0.258 2.82 0.516 4.22 0.773 2.19 0.396 4.37 0.791 6.56 1.18 2.13 0.385 4.27 0.776 6.4 1.17 1.26 0.228 2.53 0.456 3.83 0.691 3.29 0.699 6.33 1.67 9.51 2.75 1.74 0.372 3.5 0.706 5.26 1 0.955 0.165 1.91 0.33 2.89 0.5 1.99 0.335 3.98 0.668 5.97 1 0.953 0.165 1.91 0.33 2.89 0.5 0.863 0.144 1.73 0.289 2.61 0.438 2.38 0.562 2.38 0.562 4.41 1.6 2.28 1.12 4 1.29 6.52 1.44 5.68 0.476 11.1 1.63 16.6 2.9 2.02 0.453 4.05 0.905 6.07 1.36 0.978 0.218 1.96 0.437 2.96 0.662 4.86 1.06 9.74 2 14.6 2.93 2.28 0.489 4.55 1.08 6.79 1.72 2.66 0.752 5.01 1.26 7.74 1.52 3.62 0.438 3.62 0.438 4.62 1.44 2.75 0.498 5.49 0.95 8.25 1.38 6.68 1.07 13.2 2.35 19.8 3.95 2.76 0.64 5.51 1.15 8.31 1.62 4.5 0.776 8.86 1.9 13.2 3.12 4.84 1.33 9.41 2.33 14.4 2.73 4.08 0.427 7.99 1.66 11.9 2.75 4.21 1.11 8.22 1.76 12.6 2.02 2.29 0.41 4.11 1.04 6.27 1.89 3.91 1.52 7.81 2.35 12 2.99 1.47 0.244 2.95 0.49 4.42 0.738 0.774 0.13 1.55 0.259 2.35 0.393 4.51 0.783 8.99 1.67 13.5 2.56 0.879 0.171 1.76 0.341 2.66 0.517 6.22 1.24 6.22 1.24 7.34 2.36 1.42 0.272 2.86 0.49 4.3 0.684 0.877 0.123 1.75 0.246 2.66 0.373 1.85 0.252 3.7 0.502 5.55 0.75 4.48 0.631 8.34 1.36 12.5 3.19 2.13 0.373 2.13 0.373 4.25 0.5 3.82 0.364 7.44 1.02 11.2 1.9 3.16 0.738 6.34 1.42 9.52 2.1 1.19 0.257 2.39 0.513 3.62 0.777 3.74 0.785 7.5 1.51 11.3 2.2 2.18 0.527 2.18 0.527 4.52 1.51 13.5 5.17 29.6 3.7 42.7-1.98 5.61-2.73 11.1-5.7 16.6-8.68 3.82-2.07 7.66-4.1 11.5-6.13 0.711-0.377 1.42-0.755 2.16-1.14 4.33-2.29 8.69-4.51 13.1-6.68 3.64-1.84 7.23-3.76 10.8-5.68 9.15-4.87 18.4-9.5 27.7-14.1 4.3-2.13 8.53-4.34 12.7-6.66 12.6-6.94 12.6-6.94 16.4-6.94v-2c0.528-0.246 1.06-0.493 1.6-0.747 2.45-1.14 4.89-2.29 7.34-3.44 0.831-0.387 1.66-0.775 2.52-1.17 4.97-2.34 9.8-4.84 14.6-7.54 2.26-1.27 4.56-2.45 6.9-3.6 0.842-0.416 1.68-0.833 2.55-1.26 1.24-0.613 1.24-0.613 2.51-1.24 1.54-0.77 3.08-1.54 4.62-2.31 3.03-1.52 6.07-3.03 9.11-4.54 7.52-3.73 15-7.57 22.3-11.6 2.5-1.34 5.01-2.63 7.55-3.88 4.88-2.41 9.69-4.95 14.5-7.5 5.84-3.09 11.7-6.13 17.6-9.06 7.73-3.83 15.4-7.82 23-11.8 5.27-2.77 10.6-5.47 15.9-8.12 3.52-1.77 6.99-3.63 10.5-5.49 9.19-4.9 18.5-9.54 27.8-14.1 3.71-1.88 7.38-3.83 11-5.79 5.3-2.82 10.6-5.58 16-8.25 5.17-2.56 10.3-5.22 15.4-7.94 9.09-4.85 18.3-9.44 27.5-14 3.2-1.62 6.36-3.29 9.52-4.98 7.95-4.23 15.9-8.28 24.1-12 3.48-1.59 6.4-3.3 9.43-5.6 2.5-1.38 5.06-2.62 7.62-3.88 1.45-0.715 2.9-1.43 4.35-2.14 0.698-0.342 1.4-0.685 2.11-1.04 2.33-1.15 4.66-2.33 6.98-3.51 4.87-2.44 9.82-4.74 14.8-7.03 3.77-1.74 3.77-1.74 7.43-3.68 1.74-0.73 1.74-0.73 4.74 0.27z" fill="#0080B8"/>
<path transform="translate(1333,788)" d="m0 0c0.209 11.2 0.368 22.5 0.466 33.7 0.0469 5.22 0.111 10.4 0.213 15.7 0.0979 5.04 0.152 10.1 0.175 15.1 0.0166 1.92 0.0491 3.84 0.0977 5.76 0.367 15.1 0.367 15.1-2.93 19.2-2.31 1.56-4.42 2.56-7.02 3.52-1.53 1.12-3.05 2.24-4.56 3.38-6.08 4.27-12.7 7.39-19.3 10.6-3.38 1.64-6.74 3.33-10.1 5.02-4.01 2.01-8.02 4.01-12 6-7.31 3.63-14.6 7.35-21.7 11.2-5.03 2.7-10.1 5.27-15.2 7.79-2.33 1.17-4.67 2.33-7 3.5-1.2 0.602-2.41 1.2-3.61 1.8-1.12 0.559-2.24 1.12-3.39 1.7-23.8 11.9-23.8 11.9-25.8 12.9-1.39 0.694-2.78 1.39-4.16 2.08-3.14 1.57-6.28 3.14-9.42 4.69-4.34 2.15-8.66 4.31-12.9 6.7-6.18 3.49-12.6 6.57-18.9 9.72-2.28 1.13-4.55 2.27-6.83 3.41l-17.1 8.54c-0.969 0.485-0.969 0.485-1.96 0.98-1.33 0.665-2.66 1.33-4 1.99-4.37 2.17-8.68 4.43-13 6.75-7.26 3.9-14.6 7.59-22 11.2-2.68 1.33-5.35 2.66-8.02 4-2 1-4 2-6 3-2.66 1.33-5.31 2.66-7.96 4-7.73 3.9-15.5 7.68-23.4 11.3-3.7 1.72-7.19 3.57-10.7 5.7-1.8 0.935-3.62 1.85-5.44 2.75-1.05 0.519-2.09 1.04-3.17 1.57-1.68 0.83-1.68 0.83-3.39 1.68-9.28 4.54-9.28 4.54-18.4 9.44-4.64 2.63-9.42 4.98-14.2 7.34-4.96 2.46-9.85 5.04-14.7 7.66-6.81 3.65-13.7 6.99-20.7 10.3-5.59 2.62-11 5.42-16.5 8.36-6.41 3.47-12.9 6.71-19.5 9.94-3.43 1.7-6.86 3.42-10.3 5.13-1.34 0.668-2.67 1.34-4.01 2-2.3 1.15-4.59 2.3-6.88 3.46-1.93 0.973-3.86 1.94-5.8 2.89-2.25 1.12-4.46 2.27-6.67 3.45-12.6 6.53-23.6 6.04-37.4 3.07-0.33-0.33-0.66-0.66-1-1-2.69-0.474-5.37-0.905-8.06-1.31-6.67-1.06-13.1-2.4-19.7-4.13-6.63-1.72-13.3-2.96-20.1-4.16-4.56-0.827-8.79-1.88-13.2-3.39-2.43-0.535-4.87-1.03-7.31-1.5-6.65-1.29-13.3-2.68-19.8-4.25-7.24-1.73-7.24-1.73-14.6-2.87-3.25-0.375-3.25-0.375-4.25-1.38-2.66-0.538-5.32-1.04-8-1.5-7.86-1.36-7.86-1.36-9-2.5-1.52-0.343-3.06-0.635-4.59-0.902-1.42-0.252-1.42-0.252-2.88-0.51-1-0.173-2-0.347-3.03-0.525-6.18-1.08-12.3-2.2-18.4-3.6-3.09-0.696-6.19-1.29-9.3-1.9-8.25-1.63-16.4-3.51-24.6-5.5-8.93-2.16-17.9-4.03-26.9-5.67-4.84-0.886-9.49-2.02-14.2-3.39-1.45-0.229-2.91-0.427-4.38-0.562-3.62-0.438-3.62-0.438-4.62-1.44-1.58-0.331-3.16-0.613-4.75-0.875-8.43-1.47-16.7-3.46-25-5.62-5.86-1.49-11.8-2.53-17.7-3.5-5.42-0.901-5.42-0.901-6.52-2-1.48-0.332-2.96-0.611-4.45-0.867-0.923-0.162-1.85-0.324-2.8-0.49-1.48-0.256-1.48-0.256-3-0.517-9.36-1.66-18.6-3.53-27.8-5.91-6.04-1.55-12-2.8-18.2-3.69-2.79-0.527-2.79-0.527-5.56-1.48-3.25-1.05-6.37-1.69-9.73-2.26-1.22-0.21-2.43-0.42-3.69-0.637-1.26-0.213-2.52-0.425-3.81-0.645-2.5-0.423-5-0.85-7.5-1.28-1.1-0.186-2.21-0.373-3.34-0.564-3.17-0.656-6.1-1.61-9.16-2.65-2.65-0.538-5.28-1.04-7.94-1.5-5.14-0.89-10-2.05-15.1-3.5-1.83-0.362-3.66-0.697-5.5-1-4.27-0.743-8.33-1.81-12.5-3-2.65-0.511-5.32-0.971-7.98-1.43-3.18-0.596-6.31-1.32-9.46-2.07-5.4-1.28-10.8-2.25-16.3-3.07-2.27-0.43-2.27-0.43-3.27-1.43-1.47-0.343-2.96-0.634-4.45-0.902-0.913-0.168-1.83-0.336-2.77-0.51-0.962-0.173-1.92-0.347-2.91-0.525-6.07-1.1-11.9-2.35-17.9-4.06-2.8-0.569-5.62-1.04-8.44-1.5-5.61-0.924-11.1-2.09-16.6-3.5-1.64-0.327-3.29-0.642-4.94-0.938-4.85-0.943-9.42-2.4-14.1-4.06-0.99-0.33-1.98-0.66-3-1-1.32-2.64-1.2-4.7-1.28-7.66-0.0555-1.86-0.0555-1.86-0.112-3.76-0.036-1.4-0.0716-2.8-0.107-4.2-0.0189-0.71-0.0378-1.42-0.0573-2.15-0.134-5.04-0.254-10.1-0.371-15.1-0.0792-3.38-0.162-6.77-0.246-10.2-0.155-6.37-0.297-12.7-0.431-19.1-0.0554-2.56-0.114-5.13-0.176-7.69-0.0868-3.63-0.161-7.27-0.231-10.9-0.029-1.11-0.058-2.21-0.0879-3.35-0.017-1.01-0.034-2.02-0.0515-3.07-0.0192-0.888-0.0384-1.78-0.0582-2.69 0.209-2.14 0.209-2.14 2.21-4.14 2.88 0.329 5.48 1.15 8.25 2 2.93 0.78 5.4 1.22 8.38 1.5 3.5 0.335 6.12 1.15 9.38 2.5 2.38 0.54 4.77 0.988 7.16 1.44 2.92 0.576 5.81 1.24 8.71 1.93 4.09 0.963 8.18 1.84 12.3 2.64 0.9 0.174 1.8 0.348 2.73 0.528 1.79 0.344 3.59 0.683 5.39 1.01 0.826 0.159 1.65 0.317 2.5 0.481 0.739 0.138 1.48 0.276 2.24 0.418 1.97 0.547 1.97 0.547 4.97 2.55 1.82 0.363 3.66 0.642 5.5 0.875 12.9 1.84 25.6 4.82 38.2 8.05 5.14 1.31 10.3 2.54 15.5 3.77 0.898 0.215 1.8 0.429 2.72 0.65 3.38 0.802 6.73 1.59 10.1 2.24 1.95 0.418 1.95 0.418 2.95 1.42 1.33 0.272 2.67 0.49 4.01 0.684 0.822 0.123 1.64 0.246 2.49 0.373 1.73 0.25 3.45 0.501 5.18 0.75 4.92 0.738 9.54 1.78 14.3 3.19 4.16 1.02 8.33 1.98 12.5 2.94 1.73 0.4 1.73 0.4 3.5 0.808 7.29 1.67 14.6 3.24 21.9 4.61 3.41 0.716 6.7 1.68 10.1 2.64 3.41 0.867 6.83 1.69 10.2 2.5 1.4 0.334 1.4 0.334 2.83 0.675 5.48 1.29 10.9 2.44 16.5 3.38 2.59 0.481 5.12 1.1 7.67 1.76 5.99 1.55 12 2.84 18.1 4.12 6.51 1.39 13 2.84 19.4 4.62 6.59 1.82 13.2 3.15 19.9 4.44 4.94 0.966 9.79 2.08 14.6 3.44 11.4 3.16 23 5.39 34.6 7.6 0.879 0.169 1.76 0.339 2.66 0.513 0.776 0.146 1.55 0.292 2.35 0.443 2.19 0.51 4.16 1.21 6.24 2.07 3.67 1.49 7.12 1.94 11.1 2.23 1.88 0.211 1.88 0.211 3.88 1.21 1.37 0.329 2.76 0.625 4.14 0.902 0.824 0.168 1.65 0.336 2.5 0.51 1.73 0.347 3.45 0.693 5.18 1.04 4.53 0.926 8.8 2.08 13.2 3.55 2.47 0.494 4.95 0.95 7.44 1.38 5.25 0.934 10.4 2.05 15.5 3.5 7.91 2.2 15.9 3.76 24 5.29 5.99 1.15 11.8 2.53 17.7 4.19 2.69 0.734 5.38 1.27 8.13 1.71 2.92 0.471 5.66 1.06 8.52 1.88 4.21 1.19 8.44 2.07 12.7 2.93 6.09 1.25 12.1 2.61 18.1 4.25 1.21 0.327 2.41 0.655 3.65 0.992 1.91 0.523 3.82 1.05 5.73 1.58 10.6 2.69 19.6 1.66 29.5-2.7 0.771-0.324 1.54-0.647 2.34-0.98 5.67-2.44 11.2-5.23 16.7-8.02 2.67-1.34 5.33-2.67 8-4 1.4-0.698 2.79-1.4 4.19-2.09 8.81-4.41 8.81-4.41 11.2-5.57 2.08-1.04 4.15-2.09 6.23-3.13 6.91-3.48 13.8-6.88 20.9-10.1 5.66-2.63 11.2-5.41 16.7-8.38 8.72-4.7 17.6-8.93 26.6-13.2 5.81-2.75 11.6-5.61 17.3-8.52 1.33-0.668 2.67-1.33 4-2l1.9-0.949c20.9-10.4 20.9-10.4 24.4-12.2 2.46-1.23 4.92-2.47 7.38-3.71 8.54-4.3 17.1-8.45 25.8-12.5 6.55-3.11 13-6.3 19.5-9.58 1.96-0.98 3.92-1.96 5.88-2.94l3.01-1.5c54.1-27.1 54.1-27.1 56.5-28.2 2.05-1.03 4.1-2.06 6.15-3.09 7.31-3.68 14.7-7.26 22.1-10.7 5.68-2.66 11.3-5.42 16.8-8.44 7.21-3.96 14.7-7.32 22.2-10.7 4.33-1.93 8.49-3.85 12.5-6.41 1.99-1.02 3.99-2.02 6-3 0.686-0.348 1.37-0.696 2.08-1.05 4.37-2.21 8.76-4.34 13.2-6.39 6.45-2.96 12.8-6.12 19-9.5 6.53-3.53 13.2-6.83 19.8-10.1 1.28-0.637 2.56-1.28 3.84-1.92 4.06-2.05 8.15-4.01 12.3-5.91 6.52-3 12.8-6.1 18.9-9.98 3.35-2.01 6.07-2.23 9.88-2.13zm-482 233v1h5v-1h-5z" fill="#007FB8"/>
<path transform="translate(1329,971)" d="m0 0c1.32 0.66 2.64 1.32 4 2v92c-6.27 2.97-12.5 5.94-19 9-4.72 2.34-9.43 4.68-14.1 7.06-4.15 2.09-8.31 4.16-12.5 6.24-2.19 1.1-4.38 2.2-6.57 3.3-7.36 3.71-14.8 7.29-22.2 10.8-12.1 5.79-24.2 11.7-36.1 18.1-6.32 3.38-12.7 6.53-19.2 9.54-5.75 2.67-11.4 5.47-17.1 8.35-2.67 1.35-5.3 2.63-8.09 3.71-2.33 0.802-2.33 0.802-4.17 2.9-1.65 0.697-3.32 1.36-5 2-1.45 0.69-2.88 1.4-4.31 2.12-0.862 0.436-1.72 0.871-2.61 1.32-1.01 0.513-2.03 1.03-3.07 1.55-3.36 1.68-6.73 3.36-10.1 5.04-3 1.5-5.99 3-8.98 4.51-0.862 0.436-1.72 0.871-2.61 1.32-0.726 0.369-1.45 0.737-2.2 1.12-2.11 1.01-2.11 1.01-4.4 1.9-3.56 1.45-6.97 3.18-10.4 4.92-0.71 0.357-1.42 0.715-2.15 1.08-1.41 0.711-2.83 1.42-4.24 2.14-2.43 1.22-4.86 2.44-7.29 3.66l-2.34 1.17c-41 20.5-41 20.5-44.6 22.3-2.49 1.24-4.98 2.5-7.46 3.75-8.09 4.08-16.2 8.01-24.4 11.9-6.32 2.98-12.6 6.07-18.8 9.22-1.58 0.793-3.17 1.58-4.75 2.38-0.807 0.403-1.61 0.807-2.45 1.22-13.4 6.69-26.8 13.4-40.1 20.1-0.928 0.464-1.86 0.928-2.81 1.41-1.9 0.952-3.81 1.9-5.71 2.85-4.15 2.07-8.29 4.15-12.4 6.24-7.04 3.55-14.1 6.99-21.3 10.3-6.49 3.04-12.8 6.25-19.1 9.67-16.3 8.83-16.3 8.83-20.3 8.83-0.33 0.99-0.66 1.98-1 3-8.47 1.63-15.7-0.0639-24-2-1.19-0.276-2.38-0.552-3.61-0.836-2.2-0.511-4.39-1.03-6.59-1.54-3.25-0.719-6.51-1.16-9.8-1.62-1.06-0.308-2.11-0.616-3.2-0.934-3.88-1.09-7.77-1.87-11.7-2.57-5.42-0.985-10.7-2.1-16.1-3.5-10.9-2.6-21.7-4.89-32.8-6.44-3.48-0.617-6.77-1.59-10.2-2.56-4.12-0.931-8.27-1.75-12.4-2.59-1.23-0.252-1.23-0.252-2.48-0.51-1.11-0.224-1.11-0.224-2.25-0.453-1.86-0.449-1.86-0.449-3.86-1.45-2.33-0.308-4.66-0.509-7-0.719-2-0.281-2-0.281-3-1.28-3.42-0.546-6.85-0.966-10.3-1.4-3.7-0.597-7.11-1.56-10.7-2.6-3.99-0.887-7.99-1.69-12-2.5-6.42-1.29-12.7-2.69-19-4.5-2.16-0.37-4.33-0.705-6.5-1-4.66-0.634-8.98-1.69-13.5-3-2.45-0.525-4.91-1.02-7.38-1.5-3.86-0.747-7.71-1.51-11.5-2.38-6.56-1.47-13.2-2.8-19.7-4.16-2.27-0.467-4.55-0.934-6.82-1.4-1.48-0.303-2.95-0.607-4.43-0.91-1.07-0.219-1.07-0.219-2.15-0.443-4.75-0.975-9.5-1.91-14.3-2.8-1.69-0.412-1.69-0.412-2.69-1.41-3.67-0.662-7.35-1.24-11-1.81-4.79-0.759-9.3-1.85-14-3.19-2.95-0.59-5.91-1.08-8.88-1.56-7.99-1.3-7.99-1.3-9.12-2.44-2.29-0.489-4.59-0.926-6.89-1.34-0.695-0.127-1.39-0.254-2.1-0.385-2.98-0.545-5.96-1.08-8.94-1.62-2.17-0.392-4.35-0.789-6.52-1.19-0.666-0.118-1.33-0.236-2.02-0.357-3.99-0.731-7.71-1.79-11.5-3.12-1.95-0.375-3.91-0.708-5.88-1-4.09-0.644-8.04-1.43-12-2.5-3.59-0.866-7.23-1.43-10.9-2.04-2.22-0.465-2.22-0.465-3.22-1.46-3.49-0.661-6.98-1.24-10.5-1.81-3.24-0.542-6.25-1.1-9.36-2.17-5.68-1.83-11.6-2.46-17.5-3.34-6.57-1.04-13-2.45-19.4-4.11-6.99-1.79-14-3.26-21.1-4.69-2.15-0.435-4.29-0.875-6.43-1.32-8.43-1.73-16.9-3.36-25.3-4.92-5.04-0.947-10-2.02-15-3.32-6.74-1.76-13.5-3.11-20.3-4.23-7.33-1.22-14.1-3.42-21.1-6.09v-2h-2c-1.64-3.28-1.24-6.94-1.32-10.6-0.0208-0.877-0.0417-1.75-0.0631-2.66-0.0664-2.89-0.125-5.77-0.183-8.66-0.0212-0.979-0.0424-1.96-0.0642-2.97-0.411-19.1-0.489-38.1-0.373-57.2 2.27-0.054 4.54-0.0928 6.81-0.125 1.26-0.0232 2.53-0.0464 3.83-0.0703 3.36 0.195 3.36 0.195 6.36 2.2 2.14 0.632 2.14 0.632 4.44 1.06 4.5 0.922 4.5 0.922 6.47 1.43 2.68 0.646 5.37 1.07 8.09 1.5 12.3 1.97 24.5 4.38 36.7 7.25 3.68 0.829 7.37 1.54 11.1 2.25 4.83 0.944 9.31 2.12 13.9 3.81 4.08 1.21 8.29 1.64 12.5 2.16 2.82 0.527 2.82 0.527 5.82 2.53 2.25 0.499 2.25 0.499 4.75 0.746 0.938 0.115 1.88 0.231 2.84 0.35 1.95 0.225 3.9 0.449 5.85 0.672 5.64 0.695 10.8 1.79 16.3 3.52 3.28 1.01 6.55 1.64 9.93 2.27 5.18 0.999 10.3 2.12 15.4 3.44 2.37 0.523 4.74 1.03 7.12 1.54 1.88 0.465 1.88 0.465 3.88 1.46 1.26 0.124 2.52 0.247 3.81 0.375 5.1 0.517 9.98 1.66 15 2.87 3.72 0.872 7.45 1.57 11.2 2.23 2.02 0.527 2.02 0.527 5.02 2.53 1.8 0.364 3.62 0.643 5.44 0.875 6 0.85 11.9 1.93 17.9 3.12 0.835 0.166 1.67 0.332 2.53 0.503 3.74 0.755 7.45 1.55 11.1 2.5 4.64 1.19 9.32 2.09 14 3 5.37 1.04 10.7 2.14 16 3.5 3.71 0.918 7.45 1.66 11.2 2.43 6.51 1.35 13 2.77 19.5 4.29 10.4 2.41 20.8 4.67 31.2 6.84 6.21 1.29 12.4 2.71 18.5 4.29 5.4 1.34 10.9 2.33 16.3 3.33 7.46 1.37 14.9 2.87 22.2 4.63 3.88 0.875 7.78 1.54 11.7 2.16 2.34 0.527 2.34 0.527 4.19 1.5 2.35 1.12 4.4 1.58 6.96 2.03 0.912 0.165 1.82 0.33 2.76 0.5 0.946 0.165 1.89 0.33 2.87 0.5 1.87 0.328 3.75 0.662 5.62 1 0.828 0.144 1.66 0.289 2.51 0.438 2.43 0.562 2.43 0.562 4.91 1.57 2.64 1.04 5 1.5 7.81 1.91 7.75 1.22 15.4 2.8 23.1 4.39 1.11 0.231 1.11 0.231 2.25 0.466 9.31 1.93 18.6 3.88 27.9 5.97 0.833 0.186 1.67 0.372 2.52 0.564 4.96 1.14 9.81 2.51 14.7 4.07 2.38 0.638 4.61 0.899 7.07 1.06 4.33 0.321 8.21 1.32 12.4 2.56 18.4 5.42 32.7-1.08 49-9.92 3.67-1.99 7.38-3.86 11.1-5.71 4.09-2.03 8.13-4.1 12.1-6.31 4.4-2.43 8.87-4.71 13.4-6.94 5.3-2.62 10.5-5.32 15.8-8.12 8.41-4.53 17-8.76 25.5-13 7.99-3.96 15.9-7.99 23.8-12.2 3.3-1.77 6.61-3.5 9.96-5.16 5.83-2.87 11.6-5.93 17.3-8.97 4.95-2.62 9.93-5.17 15-7.65 1.13-0.565 2.26-1.13 3.42-1.71 1.1-0.549 2.2-1.1 3.33-1.66 0.906-0.454 0.906-0.454 1.83-0.917 2.77-1.39 5.54-2.77 8.32-4.14 7.09-3.51 14.1-7.18 21.1-10.9 5.4-2.85 10.8-5.61 16.3-8.32 3.73-1.89 7.38-3.91 11-5.93 3.38-1.83 6.81-3.52 10.3-5.22 2.34-1.18 4.62-2.43 6.9-3.71 4.75-2.67 9.61-5.09 14.5-7.5 2.67-1.33 5.33-2.67 8-4 1.39-0.695 2.78-1.39 4.17-2.09 0.659-0.33 1.32-0.659 2-0.999 2.36-1.18 4.72-2.36 7.08-3.54 0.78-0.391 1.56-0.781 2.36-1.18 1.66-0.83 3.33-1.65 4.99-2.48 7.77-3.85 15.4-7.88 23.1-11.9 5.78-3.05 11.6-6.08 17.4-9.11 0.939-0.491 1.88-0.983 2.84-1.49 6-3.13 12-6.19 18.1-9.2 1-0.501 2.01-1 3.04-1.52 0.853-0.427 1.71-0.853 2.59-1.29 1-0.503 2.01-1.01 3.04-1.52 2.41-1.2 4.82-2.39 7.23-3.58 7.16-3.52 14.1-7.21 21-11.3 5.64-3.22 11.5-6.04 17.3-8.9 2.4-1.18 4.79-2.38 7.18-3.57 2.35-1.18 4.71-2.35 7.07-3.52 7.56-3.74 15-7.63 22.2-12 0.938-0.564 0.938-0.564 1.9-1.14 1.23-0.742 2.45-1.5 3.67-2.27 1.7-1.02 1.7-1.02 4.77-2.36z" fill="#007FB8"/>
<path transform="translate(842 334)" d="m0 0c2.28 0.349 4.55 0.686 6.83 1.02 1.47 0.221 2.95 0.442 4.42 0.664 0.668 0.099 1.34 0.198 2.02 0.3 4.7 0.728 9.21 1.81 13.8 2.99 2.39 0.373 4.79 0.707 7.19 1 5.87 0.744 11.7 1.58 17.6 2.5 4.55 0.699 9.11 1.32 13.7 1.94 2.7 0.423 5.33 0.911 8 1.46 6.49 1.32 13 2.32 19.6 3.33 2.14 0.331 4.28 0.665 6.42 1 8.24 1.29 8.24 1.29 16.5 2.36 3.07 0.41 3.07 0.41 4.07 1.41 1.77 0.335 3.55 0.613 5.34 0.867 1.12 0.162 2.24 0.324 3.39 0.49 1.81 0.256 1.81 0.256 3.65 0.517 2.48 0.36 4.97 0.721 7.45 1.08 1.84 0.266 1.84 0.266 3.71 0.538 4.55 0.665 9.1 1.36 13.7 2.07 0.666 0.102 1.33 0.205 2.02 0.31 4.09 0.644 8.14 1.38 12.2 2.17 9.45 1.82 18.9 3.22 28.5 4.52 17 2.34 17 2.34 24.5 3.92 5.49 1.09 11 1.9 16.6 2.75 2.13 0.33 4.26 0.665 6.39 1 8.43 1.32 8.43 1.32 16.9 2.36 3.56 0.383 6.89 1.04 10.4 1.87 3.68 0.817 7.4 1.39 11.1 1.97 2.29 0.562 2.29 0.562 4.29 2.56 0.125 3.62 0.125 3.62 0 7-4.95 2.78-9.9 5.5-15 8-0.75 0.38-1.5 0.761-2.27 1.15-3.96 2-7.91 3.96-12 5.72-5.21 2.27-10.3 4.86-15.3 7.44-3.44 1.69-6.9 3.2-10.4 4.68-1.31 0.58-2.63 1.16-3.94 1.75-2.94 1.31-5.89 2.61-8.84 3.89-6.69 2.9-13.3 5.85-19.8 9.18-3.79 1.85-7.7 3.4-11.6 4.99-3.71 1.56-7.25 3.37-10.8 5.2-0.752 0.299-1.5 0.598-2.28 0.906-3.34 1.34-6.59 2.87-9.85 4.41-5.48 2.58-11 5.1-16.5 7.55-2.44 1.11-2.44 1.11-4.8 2.76-5.46 2.94-12.9 2.04-18.8 0.441-2.81-1.06-2.81-1.06-3.81-2.06-1.66-0.274-3.32-0.491-4.99-0.684-1.02-0.123-2.03-0.246-3.08-0.373-2.15-0.252-4.3-0.503-6.45-0.75-1.53-0.187-1.53-0.187-3.09-0.377-0.936-0.109-1.87-0.218-2.84-0.33-2.52-0.481-4.31-1.28-6.55-2.49-2.08-0.308-2.08-0.308-4.31-0.375-5.23-0.417-10-1.75-15.1-3.18-5.55-1.53-10.9-2.11-16.6-2.45-6.62-0.623-6.62-0.623-9-3-1.82-0.357-1.82-0.357-4-0.438-5.21-0.429-10.3-1.17-15.5-2-0.802-0.122-1.6-0.245-2.43-0.371-5.84-0.957-5.84-0.957-8.07-3.19-2.03-0.392-2.03-0.392-4.38-0.5-4.03-0.334-8-0.806-12-1.44-1.47-0.23-1.47-0.23-2.96-0.465-2.66-0.598-2.66-0.598-4.5-1.61-3.94-1.8-8.43-1.76-12.7-2.12-5.06-0.499-8.84-1.76-13.5-3.88-2-0.0444-4-0.0392-6 0-2.53-0.428-5.02-0.956-7.53-1.5-2.16-0.441-4.28-0.752-6.47-1-3-0.5-3-0.5-5-2.5-2.44-0.548-2.44-0.548-5.38-0.875-5.98-0.83-11.8-1.96-17.8-3.19-6.17-1.28-12.2-2.38-18.5-2.57-2.39-0.371-2.39-0.371-5.54-1.8-4.54-2.05-9.19-2.49-14.1-3.07-6.51-0.845-12.7-1.82-19-3.75-3.61-0.986-7.25-1.61-10.9-2.25-5.55-0.989-10.7-2.1-15.8-4.5-0.33-0.66-0.66-1.32-1-2 3.24-3.69 6.89-5.72 11.2-7.81 0.701-0.343 1.4-0.687 2.12-1.04 10.5-5.09 21.2-9.66 32.1-14 2.56-1.08 2.56-1.08 4.85-2.53 3.61-2.16 7.39-3.9 11.2-5.68 1.71-0.806 3.43-1.61 5.14-2.42 0.885-0.416 1.77-0.831 2.68-1.26 4.32-2.03 8.62-4.08 12.9-6.14 0.863-0.411 1.73-0.822 2.62-1.25 5.68-2.71 11.4-5.42 17-8.14 4.7-2.25 9.4-4.49 14.1-6.74 0.794-0.379 1.59-0.758 2.4-1.15 2.09-0.997 4.19-1.99 6.28-2.98 1.14-0.539 2.28-1.08 3.45-1.63 10.4-4.51 22-1.88 32.8-0.216z" fill="#FCFDFF"/>
<path transform="translate(1333,578)" d="m0 0c-0.33 0.33-0.66 0.66-1 1-0.0953 3.14-0.126 6.25-0.114 9.39-2.19e-4 1.48-2.19e-4 1.48-4.43e-4 2.99 7e-4 3.27 0.00849 6.55 0.0163 9.82 0.00186 2.26 0.00329 4.53 0.00429 6.79 0.00383 5.97 0.0137 11.9 0.0247 17.9 0.0102 6.09 0.0148 12.2 0.0198 18.3 0.0107 12 0.0278 23.9 0.0488 35.9-1.59 0.82-3.18 1.63-4.77 2.45-0.885 0.454-1.77 0.908-2.68 1.38-3.13 1.45-6 2.01-9.42 2.36-4.21 0.396-4.21 0.396-8.12 1.82-2.74 1.35-5.22 1.42-8.26 1.61-1.62 0.112-1.62 0.112-3.27 0.227-0.82 0.049-1.64 0.098-2.48 0.148-0.33-0.99-0.66-1.98-1-3h-2v-2h-2v2h-5v2h-2v-2h-3v2h-2c-0.66 1.32-1.32 2.64-2 4h-5v2h-2v2h-2c-0.33 0.66-0.66 1.32-1 2-3 0-3 0-6-1-0.268 0.743-0.536 1.49-0.812 2.25-1.13 2.62-2.4 4.55-4.19 6.75v-4c-3.28 0.752-3.28 0.752-5 4h-1v2c-0.722-0.124-1.44-0.247-2.19-0.375-4.25 0.567-5.24 3.04-7.81 6.38h-2v5h-1c-0.33-1.65-0.66-3.3-1-5-1.05-0.144-2.1-0.289-3.19-0.438-2.97-0.438-5.88-0.941-8.81-1.56v2h-2v-2c-0.66 0.33-1.32 0.66-2 1v9c-2.56 0.0542-5.12 0.0938-7.69 0.125-1.08 0.0251-1.08 0.0251-2.19 0.0508-4.18 0.0381-7.38-0.297-11.1-2.18v-2h3c-0.495-0.454-0.99-0.908-1.5-1.38-1.5-1.62-1.5-1.62-1.5-3.62h3c0.33-0.99 0.66-1.98 1-3 0.33 0.66 0.66 1.32 1 2 1.65-0.66 3.3-1.32 5-2v2c2.31 0.33 4.62 0.66 7 1-0.33-0.99-0.66-1.98-1-3h-2c-0.33-0.99-0.66-1.98-1-3h3v-2h-2c-0.33-0.99-0.66-1.98-1-3 4.95-0.33 9.9-0.66 15-1v-14h5v-2h10c0.33-1.32 0.66-2.64 1-4h11v3h5v-2h2c-0.165-1.13-0.33-2.27-0.5-3.44-0.5-3.56-0.5-3.56-0.5-4.56h5v-3h2v-2h-3c0.33-1.32 0.66-2.64 1-4h3v2c0.66 0.33 1.32 0.66 2 1-0.66 0.99-1.32 1.98-2 3h3v-4h4v-2h14c0.33-2.97 0.66-5.94 1-9h-2v-9h3c-0.33 1.32-0.66 2.64-1 4 0.66-0.33 1.32-0.66 2-1v-3c0.33-1.32 0.66-2.64 1-4h10v-2c0.66-0.33 1.32-0.66 2-1v-8h-5v-2h-3v3c0.66 0.33 1.32 0.66 2 1h-2v4c0.66 0.33 1.32 0.66 2 1-7.75 0.125-7.75 0.125-10-1-0.594-2.65-0.742-5.29-1-8h-5c1.32-0.33 2.64-0.66 4-1-0.33-0.99-0.66-1.98-1-3-0.99-0.33-1.98-0.66-3-1-0.66-0.66-1.32-1.32-2-2v3h-7v10h-9c-0.33-0.66-0.66-1.32-1-2h-2v2h-2v2h-2c-0.33 2.31-0.66 4.62-1 7-4.67 0.667-9.33 1.33-14 2v3h-9c-0.33 3.63-0.66 7.26-1 11h-17c-1.49 0.99-1.49 0.99-3 2-1.49 0.495-1.49 0.495-3 1-0.733 2.02-0.733 2.02-1 4v-2h-3c-0.66 0.66-1.32 1.32-2 2v-2h-3v-2h-2c-0.33-2.97-0.66-5.94-1-9-3.61 0-6.56 0.961-10 2-0.33 1.32-0.66 2.64-1 4-1.32-0.33-2.64-0.66-4-1-0.0309 0.897-0.0309 0.897-0.0625 1.81-0.938 2.19-0.938 2.19-4.31 4-3.62 1.19-3.62 1.19-6.62 0.188v4c-2.64 0.33-5.28 0.66-8 1v3h-2v3h-8v2h2c0.33 1.32 0.66 2.64 1 4h3v-2h2v2h2v2h2v3h-2v2h2v3c-1.42 0.0272-2.83 0.0465-4.25 0.0625-1.18 0.0174-1.18 0.0174-2.39 0.0352-2.27-0.0938-4.19-0.465-6.36-1.1v-2h-4c-0.33 0.66-0.66 1.32-1 2v-3c2.31-0.33 4.62-0.66 7-1-0.66-0.33-1.32-0.66-2-1v-2h-4c-0.33 0.66-0.66 1.32-1 2-3.3-0.66-6.6-1.32-10-2v2h2v3h-6v4c0.66 0.66 1.32 1.32 2 2h-9c-0.33-0.66-0.66-1.32-1-2h-5c-0.124 0.619-0.247 1.24-0.375 1.88-0.625 2.13-0.625 2.13-2.62 4.12v4c-3.96 0.33-7.92 0.66-12 1v2h5v2h-5v3h5v2h-4c-0.33 0.66-0.66 1.32-1 2-3.56 1.37-7.23 1.07-11 1v5c-1.32-0.33-2.64-0.66-4-1 0.33-0.99 0.66-1.98 1-3-0.66-0.33-1.32-0.66-2-1v5h-3c0.186-0.578 0.371-1.15 0.562-1.75 0.485-2.49 0.137-3.84-0.562-6.25v-3h2v-2c-1.65 0.66-3.3 1.32-5 2v3h-2v6c-1.32 0.33-2.64 0.66-4 1v2h7v12h-2v5h-2v2c-1.32 0.33-2.64 0.66-4 1-0.33-0.99-0.66-1.98-1-3h-5v5h-2v-3h-2c-0.33 0.99-0.66 1.98-1 3h-2v-3c-3.69-1.23-6.21-0.644-10 0v2h-6v2h-5v3c-1.65 0.33-3.3 0.66-5 1v2h-2v-2h-3v2h-5v-2h-3v11c-2.71 1.35-5.01 1.07-8 1-0.33 0.99-0.66 1.98-1 3-0.598-0.186-1.2-0.371-1.81-0.562-2.35-0.658-2.35-0.658-5.19 0.562-0.66-0.33-1.32-0.66-2-1v-2h-9v7h-2v-3h-2c-0.33 0.99-0.66 1.98-1 3h-2v-3c-4.01-0.694-7.1-1.21-11 0h-4c0.33 0.99 0.66 1.98 1 3-3.3 0.33-6.6 0.66-10 1 3.48 1.16 5.46 0.708 9 0v4c-7.49 0.127-7.49 0.127-10.8-0.688-2.38-0.575-2.38-0.575-4.56 1.12l-1.69 1.56c0.33 0.66 0.66 1.32 1 2h-2v3h-2v3h-8v2h-2v3c-2.64 0.33-5.28 0.66-8 1v2c-0.763 0.144-1.53 0.289-2.31 0.438-2.77 0.526-2.77 0.526-5.69 1.56v3c-11.5 2.11-11.5 2.11-17 3 0.99 0.66 1.98 1.32 3 2-4.54 1.14-4.54 1.14-7.12 0.375-0.928-0.186-0.928-0.186-1.88-0.375-1.96 1.52-2.89 2.78-4 5-2.32 1.4-4.61 2.73-7 4-0.957 0.522-0.957 0.522-1.93 1.05-2.26 1.03-4.38 1.57-6.82 2.07-0.799 0.168-1.6 0.335-2.42 0.508-0.603 0.121-1.21 0.242-1.83 0.367v3c-0.66 0.66-1.32 1.32-2 2-0.99-0.66-1.98-1.32-3-2v2c-0.771 0.0606-1.54 0.121-2.34 0.184-1 0.0838-2.01 0.168-3.04 0.254-0.998 0.0812-2 0.162-3.02 0.246-2.58 0.166-2.58 0.166-4.6 1.32v3c-0.66 0.66-1.32 1.32-2 2-0.398 1.99-0.738 3.99-1 6h-2c-0.66-0.66-1.32-1.32-2-2-0.33 0.66-0.66 1.32-1 2h-2v-3h-4c0.99 0.33 1.98 0.66 3 1v3h-3v3h-7v-3h-3v-2h-13v-2h-3v2h-2v-2c-2.42 0.256-4.83 0.529-7.25 0.812-0.682 0.0703-1.36 0.141-2.07 0.213-3.98 0.484-6.88 0.988-9.68 3.97v3c0.66 0.33 1.32 0.66 2 1h-10v-2h-8v-3h-3v-2c-0.619 0.186-1.24 0.371-1.88 0.562-2.12 0.438-2.12 0.438-4.12-0.562v-2h6v-3c-0.619 0.186-1.24 0.371-1.88 0.562-2.12 0.438-2.12 0.438-4.12-0.562v-2c1.32-0.33 2.64-0.66 4-1 0.591-1.95 0.591-1.95 1-4-0.33-0.33-0.66-0.66-1-1v-3h-7c-0.33-0.66-0.66-1.32-1-2-0.66 0.66-1.32 1.32-2 2 0.167 2.08 0.167 2.08 1 4 0.66 0.33 1.32 0.66 2 1-1.65-0.33-3.3-0.66-5-1v-2h-13v-2h-6c-0.33-0.66-0.66-1.32-1-2-0.617 0.0232-1.23 0.0464-1.87 0.0703-6.01 0.128-11.3-0.502-17.1-2.07v-2h-2v-2h-3c-0.33 0.66-0.66 1.32-1 2v-2h-4c-0.33 0.66-0.66 1.32-1 2v-2h-17v-2c-1.92-0.196-3.83-0.381-5.75-0.562-1.07-0.104-2.13-0.209-3.23-0.316-2.7-0.108-4.47 0.132-7.02 0.879h-5c-0.268-0.804-0.536-1.61-0.812-2.44-0.392-0.846-0.784-1.69-1.19-2.56-3.13-1.04-3.99-0.934-7 0v4h-9c-1.32-3.62-2-6.1-2-10-0.855-0.0606-1.71-0.121-2.59-0.184-1.1-0.0838-2.21-0.168-3.35-0.254-1.1-0.0812-2.2-0.162-3.34-0.246-2.72-0.316-2.72-0.316-3.72-1.32-1.85-0.234-3.7-0.413-5.56-0.562-1.01-0.0838-2.02-0.168-3.07-0.254-0.782-0.0606-1.56-0.121-2.37-0.184v-2h-5v2c-0.99 0.33-1.98 0.66-3 1-0.33 1.98-0.66 3.96-1 6-1.32-0.33-2.64-0.66-4-1h2v-3c-0.99-0.33-1.98-0.66-3-1v5h-5c0.99-0.33 1.98-0.66 3-1v-3c-0.99-0.66-1.98-1.32-3-2h3v-7h-6v-2h-13v-2c-0.66-0.33-1.32-0.66-2-1 0.66-0.33 1.32-0.66 2-1 0.66 0.33 1.32 0.66 2 1v-2h-2v-2h-3v2h-2v-2c-1.02 0.0232-2.05 0.0464-3.11 0.0703-1.36 0.0188-2.72 0.037-4.08 0.0547-0.674 0.0168-1.35 0.0335-2.04 0.0508-4.06 0.0396-7.12-0.376-10.8-2.18v-2h-9v2c2.97 0.66 5.94 1.32 9 2-0.33 0.99-0.66 1.98-1 3h-3v-2h-5v2h-2c-0.144 0.928-0.289 1.86-0.438 2.81-0.562 3.19-0.562 3.19-1.56 6.19-0.578-0.186-1.16-0.371-1.75-0.562-2.46-0.478-3.89-0.195-6.25 0.562-0.778-3.41-1.1-6.51-1-10 1.32-0.33 2.64-0.66 4-1v-2h-8v-4h-5v-2h-3v2h-2v-2h-10v-2h-9v-2h-3v2h-2v-2c-1.05 0.0412-2.1 0.0825-3.19 0.125-3.55-0.116-5.66-0.597-8.81-2.12v-2c-2.75-0.336-5.5-0.669-8.25-1-1.17-0.143-1.17-0.143-2.36-0.289-0.754-0.0902-1.51-0.18-2.29-0.273-0.691-0.0838-1.38-0.168-2.09-0.254-2-0.182-4.01-0.184-6.01-0.184-0.33 0.66-0.66 1.32-1 2h-2v-2h-3v2h-2v-2c-1.65 0.33-3.3 0.66-5 1-0.33 1.65-0.66 3.3-1 5h-2v-5c-0.66 0.33-1.32 0.66-2 1-0.652 2.02-0.652 2.02-1 4h-2c-0.66-2.64-1.32-5.28-2-8-3.63 0.33-7.26 0.66-11 1v6c-1.62 0.027-3.25 0.0464-4.88 0.0625-1.36 0.0174-1.36 0.0174-2.74 0.0352-2.38-0.0977-2.38-0.0977-4.38-1.1v-2h-2c-0.853-3.09-1-5.79-1-9 3.3-0.33 6.6-0.66 10-1v-2h-8c-0.495-3.47-0.495-3.47-1-7-1.09 0.0619-2.19 0.124-3.31 0.188-3.69-0.188-3.69-0.188-5.44-1.69l-1.25-1.5h-3c0.66 0.33 1.32 0.66 2 1v2c1.32 0.33 2.64 0.66 4 1v2h-4v-2h-3v2c-12.4 0.361-12.4 0.361-18-2h-2v-2h-3v2h-2c-5-5.36-5-5.36-5-9-1.92-0.186-1.92-0.186-3.88-0.375-3.88-0.375-3.88-0.375-6.12-2.62-2.84-0.12-5.6-0.14-8.44-0.0625-8.2 0.184-8.2 0.184-11.6-0.938l-2-2v2h-3c-0.33-0.66-0.66-1.32-1-2-1.81-0.0269-3.62-0.0463-5.44-0.0625-1.51-0.0174-1.51-0.0174-3.06-0.0352-2.44-0.188-2.44-0.188-3.5 1.1-1.67 0.0406-3.33 0.0427-5 0v-4c-1.22 0.0412-2.43 0.0825-3.69 0.125-3.53 0.0125-6.11-0.525-9.31-2.12 0.33-0.99 0.66-1.98 1-3h3c-1.65-0.66-3.3-1.32-5-2 0.66-0.33 1.32-0.66 2-1v-2c-0.99 0.33-1.98 0.66-3 1-2.69-0.438-2.69-0.438-5-1 0.33 0.99 0.66 1.98 1 3-0.121 2.26-0.121 2.26-0.438 4.69-0.102 0.808-0.204 1.62-0.309 2.45-0.0838 0.615-0.168 1.23-0.254 1.86-2.25-2.05-3-3.01-4-6-0.33 1.98-0.66 3.96-1 6-2.33-2.12-3.91-4.02-5-7 0.294-1.34 0.628-2.68 1-4-0.379-2.19-0.379-2.19-1-4 2.49-0.687 4.38-1 7-1 0.33-0.33 0.66-0.66 1-1 1.52-0.0718 3.04-0.0839 4.56-0.0625 0.826 0.00902 1.65 0.018 2.5 0.0273l1.93 0.0352v-1c4.64-0.193 8.32 0.286 12.8 1.47 3.44 0.846 6.91 1.39 10.4 1.97 6.05 1.03 12 2.3 17.9 3.88 4.08 0.982 8.21 1.58 12.4 2.16 2.5 0.527 2.5 0.527 5.5 2.53 1.97 0.35 1.97 0.35 4.19 0.438 4.81 0.399 9.51 1.13 14.2 2 1.05 0.184 1.05 0.184 2.12 0.371 3.4 0.636 5.53 1.25 8.45 3.19 1.85 0.269 3.7 0.528 5.56 0.723 2.83 0.322 5.63 0.756 8.44 1.21 0.949 0.153 1.9 0.307 2.88 0.465 3.02 0.577 5.96 1.31 8.94 2.07 4.01 0.961 8.07 1.66 12.1 2.4 7.55 1.4 15 2.96 22.5 4.82 3.04 0.749 6.03 1.37 9.13 1.8 3.46 0.512 3.46 0.512 6.71 1.45 3.73 1.05 7.41 1.81 11.2 2.5 1.41 0.258 2.82 0.516 4.22 0.773 2.19 0.396 4.37 0.791 6.56 1.18 2.13 0.385 4.27 0.776 6.4 1.17 1.26 0.228 2.53 0.456 3.83 0.691 3.29 0.699 6.33 1.67 9.51 2.75 1.74 0.372 3.5 0.706 5.26 1 0.955 0.165 1.91 0.33 2.89 0.5 1.99 0.335 3.98 0.668 5.97 1 0.953 0.165 1.91 0.33 2.89 0.5 0.863 0.144 1.73 0.289 2.61 0.438 2.38 0.562 2.38 0.562 4.41 1.6 2.28 1.12 4 1.29 6.52 1.44 5.68 0.476 11.1 1.63 16.6 2.9 2.02 0.453 4.05 0.905 6.07 1.36 0.978 0.218 1.96 0.437 2.96 0.662 4.86 1.06 9.74 2 14.6 2.93 2.28 0.489 4.55 1.08 6.79 1.72 2.66 0.752 5.01 1.26 7.74 1.52 3.62 0.438 3.62 0.438 4.62 1.44 2.75 0.498 5.49 0.95 8.25 1.38 6.68 1.07 13.2 2.35 19.8 3.95 2.76 0.64 5.51 1.15 8.31 1.62 4.5 0.776 8.86 1.9 13.2 3.12 4.84 1.33 9.41 2.33 14.4 2.73 4.08 0.427 7.99 1.66 11.9 2.75 4.21 1.11 8.22 1.76 12.6 2.02 2.29 0.41 4.11 1.04 6.27 1.89 3.91 1.52 7.81 2.35 12 2.99 1.47 0.244 2.95 0.49 4.42 0.738 0.774 0.13 1.55 0.259 2.35 0.393 4.51 0.783 8.99 1.67 13.5 2.56 0.879 0.171 1.76 0.341 2.66 0.517 6.22 1.24 6.22 1.24 7.34 2.36 1.42 0.272 2.86 0.49 4.3 0.684 0.877 0.123 1.75 0.246 2.66 0.373 1.85 0.252 3.7 0.502 5.55 0.75 4.48 0.631 8.34 1.36 12.5 3.19 2.13 0.373 2.13 0.373 4.25 0.5 3.82 0.364 7.44 1.02 11.2 1.9 3.16 0.738 6.34 1.42 9.52 2.1 1.19 0.257 2.39 0.513 3.62 0.777 3.74 0.785 7.5 1.51 11.3 2.2 2.18 0.527 2.18 0.527 4.52 1.51 13.5 5.17 29.6 3.7 42.7-1.98 5.61-2.73 11.1-5.7 16.6-8.68 3.82-2.07 7.66-4.1 11.5-6.13 0.711-0.377 1.42-0.755 2.16-1.14 4.33-2.29 8.69-4.51 13.1-6.68 3.64-1.84 7.23-3.76 10.8-5.68 9.15-4.87 18.4-9.5 27.7-14.1 4.3-2.13 8.53-4.34 12.7-6.66 12.6-6.94 12.6-6.94 16.4-6.94v-2c0.528-0.246 1.06-0.493 1.6-0.747 2.45-1.14 4.89-2.29 7.34-3.44 0.831-0.387 1.66-0.775 2.52-1.17 4.97-2.34 9.8-4.84 14.6-7.54 2.26-1.27 4.56-2.45 6.9-3.6 0.842-0.416 1.68-0.833 2.55-1.26 1.24-0.613 1.24-0.613 2.51-1.24 1.54-0.77 3.08-1.54 4.62-2.31 3.03-1.52 6.07-3.03 9.11-4.54 7.52-3.73 15-7.57 22.3-11.6 2.5-1.34 5.01-2.63 7.55-3.88 4.88-2.41 9.69-4.95 14.5-7.5 5.84-3.09 11.7-6.13 17.6-9.06 7.73-3.83 15.4-7.82 23-11.8 5.27-2.77 10.6-5.47 15.9-8.12 3.52-1.77 6.99-3.63 10.5-5.49 9.19-4.9 18.5-9.54 27.8-14.1 3.71-1.88 7.38-3.83 11-5.79 5.3-2.82 10.6-5.58 16-8.25 5.17-2.56 10.3-5.22 15.4-7.94 9.09-4.85 18.3-9.44 27.5-14 3.2-1.62 6.36-3.29 9.52-4.98 7.95-4.23 15.9-8.28 24.1-12 3.48-1.59 6.4-3.3 9.43-5.6 2.5-1.38 5.06-2.62 7.62-3.88 1.45-0.715 2.9-1.43 4.35-2.14 0.698-0.342 1.4-0.685 2.11-1.04 2.33-1.15 4.66-2.33 6.98-3.51 4.87-2.44 9.82-4.74 14.8-7.03 3.77-1.74 3.77-1.74 7.43-3.68 1.74-0.73 1.74-0.73 4.74 0.27z" fill="#007EB7"/>
<path transform="translate(1331,579)" d="m0 0h1v101c-7 4-7 4-10.4 3.75-1.27-0.371-1.27-0.371-2.56-0.75 0.979-1.02 1.98-2.02 3-3h1c0.124-1.13 0.247-2.27 0.375-3.44 0.206-1.18 0.412-2.35 0.625-3.56 2.49-1.25 3.41-0.777 6 0v-2c-0.99-0.33-1.98-0.66-3-1h3c-0.267-1.98-0.267-1.98-1-4-0.99-0.33-1.98-0.66-3-1-0.33-2.97-0.66-5.94-1-9 1.32 0.33 2.64 0.66 4 1 0.145-7.43 0.287-14.9 0.427-22.3 0.0478-2.52 0.0962-5.03 0.146-7.55 0.0715-3.66 0.141-7.32 0.208-11 0.0334-1.8 0.0334-1.8 0.0674-3.63 0.149-8.7 0.185-17.4 0.089-26.1-0.0149-2.15 0.0182-4.29 0.0624-6.44 0.33-0.33 0.66-0.66 1-1z" fill="#0080B8"/>
<path transform="translate(1072,1109)" d="m0 0c1.02 0.217 1.02 0.217 2.06 0.438 3.3 0.632 6.61 1.11 9.94 1.56v5c-3.75 1.12-3.75 1.12-6 0v2h-3v-2h-4c-0.33 0.66-0.66 1.32-1 2v-2h-4c1-2 1-2 4-3 1.21-2 1.21-2 2-4z" fill="#0081B9"/>
<path transform="translate(527 1142)" d="m0 0c1.46 0.0271 1.46 0.0271 2.96 0.0547 0.736 0.0232 1.47 0.0464 2.23 0.0703 0.495 1.48 0.495 1.48 1 3-10.9 2.33-21.9 2.13-33 2 2.82-2.82 4.88-2.34 8.81-2.5 6.36-0.268 11.7-2.78 18-2.62z" fill="#0080B8"/>
<path transform="translate(362,732)" d="m0 0c3.1-0.0581 6.21-0.0936 9.31-0.125 0.881-0.0168 1.76-0.0335 2.67-0.0508 0.848-0.00645 1.7-0.0129 2.57-0.0195 1.17-0.0157 1.17-0.0157 2.36-0.0317 2.08 0.227 2.08 0.227 5.08 2.23 2.05 0.451 2.05 0.451 4.19 0.625 1.26 0.124 2.52 0.247 3.81 0.375-0.33 0.99-0.66 1.98-1 3-7.75-0.75-7.75-0.75-10-3-3.99-0.2-7.28-0.154-11.2 0.688-3.57 0.397-5.01-0.543-7.81-2.69v-1z" fill="#0081B9"/>
<path transform="translate(1224,356)" d="m0 0h3v2l2.25-0.562c2.7-0.43 4.2-0.289 6.75 0.562v3h8v3c-4.45 0.495-4.45 0.495-9 1-0.33-0.66-0.66-1.32-1-2-1.93-2.22-1.93-2.22-5-3h-3c-0.66-1.32-1.32-2.64-2-4z" fill="#0081B9"/>
<path transform="translate(528,764)" d="m0 0h6v2h6v2h2v-2h3v2h2v-2c0.99 0.33 1.98 0.66 3 1v3c-6.99 0.402-13.6 0.00784-20-3-0.66-0.99-1.32-1.98-2-3z" fill="#0080B8"/>
<path transform="translate(1238,464)" d="m0 0c2.64 0.33 5.28 0.66 8 1v5h-2v2c-1.98 0.33-3.96 0.66-6 1v-9z" fill="#0081B9"/>
<path transform="translate(1053,727)" d="m0 0h11v5h-11v-5z" fill="#0081B9"/>
<path transform="translate(455,801)" d="m0 0c3.38-0.125 3.38-0.125 7 0 0.66 0.66 1.32 1.32 2 2h-2v4c0.66 0.33 1.32 0.66 2 1h-9v-7z" fill="#0081B9"/>
<path transform="translate(1e3 955)" d="m0 0c0.99 0.33 1.98 0.66 3 1-0.33 0.33-0.66 0.66-1 1 2.97 0.495 2.97 0.495 6 1-0.33 1.32-0.66 2.64-1 4h-7c-0.33 0.66-0.66 1.32-1 2v-2h-2c0.613-2.96 1.25-4.38 3-7z" fill="#0081B9"/>
<path transform="translate(872,294)" d="m0 0c3.02-0.0543 6.04-0.0938 9.06-0.125 0.848-0.0168 1.7-0.0335 2.57-0.0508 5.18-0.04 9.5 0.327 14.4 2.18 0.33 0.66 0.66 1.32 1 2-2.13-0.141-4.25-0.288-6.38-0.438-1.18-0.0812-2.37-0.162-3.59-0.246-3.04-0.316-3.04-0.316-5.04-1.32-1.66-0.0956-3.33-0.13-5-0.125-1.33-0.00387-1.33-0.00387-2.69-0.00781-2.34-0.0185-2.34-0.0185-4.31 1.13v-3z" fill="#0081B9"/>
<path transform="translate(752,1195)" d="m0 0c1.32 0.33 2.64 0.66 4 1v2h9v2h3v-2h2v2h2v2c-6.58-0.41-12.7-0.866-19-3-0.33-1.32-0.66-2.64-1-4z" fill="#0081B9"/>
<path transform="translate(430,1126)" d="m0 0c2.33-0.0424 4.67-0.0409 7 0 0.33 0.33 0.66 0.66 1 1 2.01-0.287 4.01-0.619 6-1v2h2v2c-0.949-0.0206-1.9-0.0412-2.88-0.0625-3.03-0.163-3.03-0.163-5.12 1.06-3.56-0.75-3.56-0.75-7-2-0.33-0.99-0.66-1.98-1-3z" fill="#0080B8"/>
<path transform="translate(966,310)" d="m0 0c4.51 0.501 8.97 1.12 13.4 1.94 0.844 0.153 1.69 0.307 2.56 0.465 0.661 0.197 1.32 0.394 2 0.598 0.33 0.66 0.66 1.32 1 2-6.93 0.227-13.2-0.58-20-2 0.33-0.99 0.66-1.98 1-3z" fill="#0081B9"/>
<path transform="translate(666 988)" d="m0 0c1.6 0.379 1.6 0.379 3.23 0.766 0.852 0.325 1.7 0.65 2.58 0.984 0.33 0.99 0.66 1.98 1 3h-7v-2c-3.3-0.33-6.6-0.66-10-1v-2c3.71-1.33 6.42-0.687 10.2 0.25z" fill="#0081B9"/>
<path transform="translate(353,920)" d="m0 0c1.7 0.217 1.7 0.217 3.44 0.438 4.52 0.566 9.04 1.07 13.6 1.56v2c-2.27 0.108-4.54 0.186-6.81 0.25-1.26 0.0464-2.53 0.0928-3.83 0.141-3.36-0.391-3.36-0.391-5.3-2.41-0.52-0.982-0.52-0.982-1.05-1.98z" fill="#0081B9"/>
<path transform="translate(1305,362)" d="m0 0h6c0.66 3.3 1.32 6.6 2 10h-3c0.33-1.65 0.66-3.3 1-5h-2c-0.33 1.65-0.66 3.3-1 5h-1v-6c-0.66-0.33-1.32-0.66-2-1v-3z" fill="#0080B8"/>
<path transform="translate(532,958)" d="m0 0c1.09 0.33 2.19 0.66 3.31 1 3.53 1.13 3.53 1.13 6.69 1v2h6v2c-0.615-0.0838-1.23-0.168-1.86-0.254-0.808-0.102-1.62-0.204-2.45-0.309-0.801-0.104-1.6-0.209-2.43-0.316-2.43-0.269-2.43-0.269-5.26 0.879-0.99-0.33-1.98-0.66-3-1-0.33-1.65-0.66-3.3-1-5z" fill="#0081B9"/>
<path transform="translate(814,1023)" d="m0 0c2 1 2 1 3 3-5.58 1.07-10.4 0.826-16 0v-1c0.771-0.0606 1.54-0.121 2.34-0.184 1.5-0.126 1.5-0.126 3.04-0.254 0.998-0.0812 2-0.162 3.02-0.246 2.58-0.166 2.58-0.166 4.6-1.32z" fill="#0081B9"/>
<path transform="translate(642,985)" d="m0 0c0.695 0.164 1.39 0.327 2.11 0.496 3.13 0.545 6.03 0.601 9.21 0.566 1.07-0.00902 2.14-0.018 3.24-0.0273 1.21-0.0174 1.21-0.0174 2.45-0.0352-4.28 2.86-7.84 3.54-13 3-2.38-2-2.38-2-4-4z" fill="#0081B9"/>
<path transform="translate(685,1179)" d="m0 0h4c0.33 0.66 0.66 1.32 1 2 2.32 0.407 4.66 0.744 7 1v2c1.65 0.33 3.3 0.66 5 1-3.83 1.45-6.39 0.526-10.2-0.75-1.07-0.345-2.13-0.691-3.23-1.05-0.852-0.397-1.7-0.794-2.58-1.2-0.33-0.99-0.66-1.98-1-3z" fill="#0081B9"/>
<path transform="translate(649,790)" d="m0 0c3.96 0.33 7.92 0.66 12 1-0.33 0.99-0.66 1.98-1 3-8.57 0.286-8.57 0.286-12-2 0.33-0.66 0.66-1.32 1-2z" fill="#0081B9"/>
<path transform="translate(799,1206)" d="m0 0h5c0.33 0.66 0.66 1.32 1 2 2.31 0.731 4.65 1.4 7 2l-1 2c-3.63-0.66-7.26-1.32-11-2-0.33-1.32-0.66-2.64-1-4z" fill="#0080B8"/>
<path transform="translate(396,926)" d="m0 0v3c-4.12 1.29-7.67 2.26-12 2l-1-2c1.11-0.309 2.23-0.619 3.38-0.938 7.04-2.06 7.04-2.06 9.62-2.06z" fill="#0080B8"/>
<path transform="translate(1321,389)" d="m0 0c1.32 0.33 2.64 0.66 4 1 0.369 5.54 0.369 5.54-1.5 7.88-0.743 0.557-0.743 0.557-1.5 1.12-1.16-3.47-1.07-6.36-1-10z" fill="#0081B9"/>
<path transform="translate(1285,822)" d="m0 0v2c0.99 0.33 1.98 0.66 3 1h-2v2c-2.31 0.33-4.62 0.66-7 1 0.99-0.33 1.98-0.66 3-1v-3c-0.99-0.33-1.98-0.66-3-1 2-1 2-1 6-1z" fill="#0081B9"/>
<path transform="translate(331,914)" d="m0 0c1.98-0.0269 3.96-0.0463 5.94-0.0625 1.1-0.0116 2.2-0.0232 3.34-0.0352 2.72 0.0977 2.72 0.0977 3.72 1.1 0.0408 2 0.0425 4 0 6-2-2-2-2-3-5h-9l-1-2z" fill="#0081B9"/>
<path transform="translate(1315,367)" d="m0 0 4 2v7h-2v-2h-2v-7z" fill="#0081B9"/>
<path transform="translate(1334,1056)" d="m0 0c0.99 1.48 0.99 1.48 2 3-0.66 0.66-1.32 1.32-2 2v-5z" fill="#000002"/>
<path transform="translate(500,838)" d="m0 0 4 1z" fill="#000002"/>
<path transform="translate(850,1288)" d="m0 0c3 1 3 1 3 1z" fill="#000002"/>
<path transform="translate(680,1252)" d="m0 0c3 1 3 1 3 1z" fill="#000002"/>
<path transform="translate(586,1232)" d="m0 0c3 1 3 1 3 1z" fill="#000002"/>
<path transform="translate(844,1107)" d="m0 0c3 1 3 1 3 1z" fill="#000002"/>
<path transform="translate(720,1080)" d="m0 0c3 1 3 1 3 1z" fill="#000002"/>
<path transform="translate(553,1044)" d="m0 0c3 1 3 1 3 1z" fill="#000002"/>
<path transform="translate(394,816)" d="m0 0c3 1 3 1 3 1z" fill="#000002"/>
<path transform="translate(1331,786)" d="m0 0c3 1 3 1 3 1z" fill="#000002"/>
<path transform="translate(359,600)" d="m0 0c3 1 3 1 3 1z" fill="#000002"/>
<path transform="translate(639,1243)" d="m0 0 2 1z" fill="#000002"/>
<path transform="translate(614,1238)" d="m0 0 2 1z" fill="#000002"/>
<path transform="translate(562,1227)" d="m0 0 2 1z" fill="#000002"/>
<path transform="translate(474,1208)" d="m0 0 2 1z" fill="#000002"/>
<path transform="translate(393,1191)" d="m0 0 2 1z" fill="#000002"/>
<path transform="translate(489,1030)" d="m0 0 2 1z" fill="#000002"/>
<path transform="translate(460,1024)" d="m0 0 2 1z" fill="#000002"/>
<path transform="translate(330,996)" d="m0 0 2 1z" fill="#000002"/>
<path transform="translate(1332,971)" d="m0 0 2 1z" fill="#000002"/>
<path transform="translate(751,889)" d="m0 0 2 1z" fill="#000002"/>
<path transform="translate(744,888)" d="m0 0 2 1z" fill="#000002"/>
<path transform="translate(569,852)" d="m0 0 2 1z" fill="#000002"/>
<path transform="translate(526,843)" d="m0 0 2 1z" fill="#000002"/>
<path transform="translate(794,688)" d="m0 0 2 1z" fill="#000002"/>
</svg>
