<svg width="599" height="60" viewBox="0 0 599 60" fill="none" xmlns="http://www.w3.org/2000/svg">
<g filter="url(#filter0_i_49_16)">
<path d="M0.420455 59L10.0795 0.81818H33.0341C37.428 0.81818 41.036 1.66098 43.858 3.34659C46.6989 5.01326 48.6875 7.33333 49.8239 10.3068C50.9792 13.2614 51.2443 16.6705 50.6193 20.5341C49.9754 24.4167 48.5739 27.8352 46.4148 30.7898C44.2746 33.7254 41.4905 36.017 38.0625 37.6648C34.6345 39.3125 30.6761 40.1364 26.1875 40.1364H11.5568L13.1761 30.2784H25.8182C28.2045 30.2784 30.2405 29.8712 31.9261 29.0568C33.6307 28.2235 34.9848 27.0777 35.9886 25.6193C36.9924 24.142 37.6458 22.447 37.9489 20.5341C38.2708 18.5833 38.1667 16.8883 37.6364 15.4489C37.1061 14.0095 36.1307 12.892 34.7102 12.0966C33.3087 11.2822 31.4242 10.875 29.0568 10.875H20.7614L12.7216 59H0.420455ZM71.0597 59.8523C66.6089 59.8523 62.9252 58.9053 60.0085 57.0114C57.0919 55.0985 55.0369 52.447 53.8438 49.0568C52.6695 45.6477 52.4517 41.6799 53.1903 37.1534C53.91 32.6837 55.4063 28.7727 57.679 25.4205C59.9517 22.0682 62.84 19.464 66.3438 17.608C69.8475 15.733 73.7964 14.7955 78.1903 14.7955C82.6222 14.7955 86.2964 15.7519 89.2131 17.6648C92.1297 19.5587 94.1847 22.2102 95.3778 25.6193C96.571 29.0284 96.7983 32.9962 96.0597 37.5227C95.321 41.9735 93.8059 45.875 91.5142 49.2273C89.2225 52.5795 86.3343 55.1932 82.8494 57.0682C79.3646 58.9242 75.4347 59.8523 71.0597 59.8523ZM72.2528 50.4773C74.2983 50.4773 76.107 49.8996 77.679 48.7443C79.2699 47.5701 80.5862 45.9792 81.6278 43.9716C82.6884 41.9451 83.4271 39.6534 83.8438 37.0966C84.2604 34.5777 84.2888 32.3428 83.929 30.392C83.5691 28.4223 82.8116 26.8693 81.6562 25.733C80.5199 24.5966 78.9574 24.0284 76.9688 24.0284C74.9233 24.0284 73.1051 24.6155 71.5142 25.7898C69.9233 26.9451 68.607 28.536 67.5653 30.5625C66.5237 32.589 65.7945 34.8902 65.3778 37.4659C64.9801 39.9659 64.9517 42.2008 65.2926 44.1705C65.6335 46.1212 66.3816 47.6648 67.5369 48.8011C68.6922 49.9186 70.2642 50.4773 72.2528 50.4773ZM100.349 59L107.622 15.3636H119.355L118.077 22.9773H118.531C119.781 20.2689 121.457 18.2235 123.56 16.8409C125.681 15.4394 127.963 14.7386 130.406 14.7386C131.012 14.7386 131.647 14.7765 132.31 14.8523C132.991 14.9091 133.598 15.0038 134.128 15.1364L132.31 25.9034C131.779 25.714 131.022 25.5625 130.037 25.4489C129.071 25.3163 128.152 25.25 127.281 25.25C125.52 25.25 123.882 25.6383 122.366 26.4148C120.851 27.1723 119.573 28.233 118.531 29.5966C117.509 30.9602 116.836 32.5322 116.514 34.3125L112.452 59H100.349ZM165.754 15.3636L164.249 24.4545H137.942L139.476 15.3636H165.754ZM147.146 4.90909H159.249L152.487 45.5909C152.298 46.7083 152.326 47.5795 152.572 48.2045C152.819 48.8106 153.226 49.2367 153.794 49.483C154.381 49.7292 155.082 49.8523 155.896 49.8523C156.464 49.8523 157.042 49.8049 157.629 49.7102C158.216 49.5966 158.661 49.5114 158.964 49.4545L159.419 58.4602C158.737 58.6686 157.819 58.8958 156.663 59.142C155.527 59.3883 154.182 59.5398 152.629 59.5966C149.675 59.7102 147.175 59.322 145.129 58.4318C143.084 57.5227 141.616 56.1307 140.726 54.2557C139.836 52.3807 139.646 50.0227 140.158 47.1818L147.146 4.90909ZM178.695 59.8239C175.929 59.8239 173.534 59.3409 171.507 58.375C169.5 57.3902 168.022 55.9318 167.075 54C166.128 52.0682 165.892 49.6723 166.365 46.8125C166.782 44.3883 167.568 42.3617 168.723 40.733C169.897 39.0852 171.327 37.7595 173.013 36.7557C174.698 35.7519 176.564 34.9848 178.609 34.4545C180.674 33.9242 182.804 33.5644 185.001 33.375C187.539 33.1098 189.604 32.8542 191.195 32.608C192.804 32.3617 194.007 32.0114 194.803 31.5568C195.598 31.0833 196.081 30.3826 196.251 29.4545V29.2841C196.536 27.5038 196.204 26.1212 195.257 25.1364C194.329 24.1326 192.842 23.6307 190.797 23.6307C188.638 23.6307 186.801 24.1042 185.286 25.0511C183.789 25.9981 182.719 27.2008 182.075 28.6591L171.053 27.75C172.037 25.0985 173.524 22.8068 175.513 20.875C177.52 18.9242 179.935 17.428 182.757 16.3864C185.579 15.3258 188.742 14.7955 192.246 14.7955C194.67 14.7955 196.933 15.0795 199.036 15.6477C201.157 16.2159 202.984 17.0966 204.518 18.2898C206.071 19.483 207.189 21.017 207.871 22.892C208.571 24.7481 208.714 26.9735 208.297 29.5682L203.382 59H191.905L192.928 52.9489H192.587C191.659 54.3125 190.522 55.5152 189.178 56.5568C187.833 57.5795 186.289 58.3845 184.547 58.9716C182.804 59.5398 180.854 59.8239 178.695 59.8239ZM183.553 51.4716C185.314 51.4716 186.933 51.1212 188.411 50.4205C189.907 49.7008 191.138 48.7348 192.104 47.5227C193.089 46.3106 193.714 44.9375 193.979 43.4034L194.717 38.7727C194.339 39.0189 193.789 39.2367 193.07 39.4261C192.369 39.6155 191.602 39.7955 190.768 39.9659C189.954 40.1174 189.13 40.2595 188.297 40.392C187.464 40.5057 186.715 40.6193 186.053 40.733C184.594 40.9413 183.287 41.2727 182.132 41.7273C180.977 42.1818 180.039 42.7973 179.32 43.5739C178.6 44.3314 178.155 45.2784 177.984 46.4148C177.719 48.0625 178.107 49.322 179.149 50.1932C180.21 51.0455 181.678 51.4716 183.553 51.4716ZM234.533 0.81818L224.874 59H212.771L222.43 0.81818H234.533ZM269.107 59.7102C265.773 59.7102 262.904 58.858 260.499 57.1534C258.112 55.4299 256.408 52.9015 255.385 49.5682C254.381 46.2159 254.286 42.1061 255.101 37.2386C255.934 32.2386 257.43 28.0814 259.589 24.767C261.749 21.4337 264.305 18.9432 267.26 17.2955C270.214 15.6288 273.292 14.7955 276.493 14.7955C278.917 14.7955 280.877 15.2121 282.374 16.0455C283.889 16.8598 285.054 17.8826 285.868 19.1136C286.682 20.3258 287.25 21.5189 287.572 22.6932H287.942L291.607 0.81818H303.68L294.021 59H282.089L283.254 52.0114H282.743C281.985 53.2235 280.982 54.4261 279.732 55.6193C278.5 56.7936 277.004 57.7689 275.243 58.5455C273.5 59.322 271.455 59.7102 269.107 59.7102ZM274.447 50.0795C276.379 50.0795 278.122 49.5492 279.675 48.4886C281.228 47.4091 282.535 45.9034 283.595 43.9716C284.656 42.0398 285.394 39.7765 285.811 37.1818C286.247 34.5871 286.256 32.3333 285.839 30.4205C285.423 28.5076 284.608 27.0303 283.396 25.9886C282.203 24.947 280.622 24.4261 278.652 24.4261C276.663 24.4261 274.902 24.9659 273.368 26.0455C271.853 27.125 270.593 28.6212 269.589 30.5341C268.605 32.447 267.904 34.6629 267.487 37.1818C267.071 39.7197 267.042 41.964 267.402 43.9148C267.762 45.8466 268.529 47.3617 269.703 48.4602C270.877 49.5398 272.459 50.0795 274.447 50.0795ZM323.716 59.8523C319.265 59.8523 315.581 58.9053 312.665 57.0114C309.748 55.0985 307.693 52.447 306.5 49.0568C305.326 45.6477 305.108 41.6799 305.847 37.1534C306.566 32.6837 308.063 28.7727 310.335 25.4205C312.608 22.0682 315.496 19.464 319 17.608C322.504 15.733 326.453 14.7955 330.847 14.7955C335.278 14.7955 338.953 15.7519 341.869 17.6648C344.786 19.5587 346.841 22.2102 348.034 25.6193C349.227 29.0284 349.455 32.9962 348.716 37.5227C347.977 41.9735 346.462 45.875 344.17 49.2273C341.879 52.5795 338.991 55.1932 335.506 57.0682C332.021 58.9242 328.091 59.8523 323.716 59.8523ZM324.909 50.4773C326.955 50.4773 328.763 49.8996 330.335 48.7443C331.926 47.5701 333.242 45.9792 334.284 43.9716C335.345 41.9451 336.083 39.6534 336.5 37.0966C336.917 34.5777 336.945 32.3428 336.585 30.392C336.225 28.4223 335.468 26.8693 334.312 25.733C333.176 24.5966 331.614 24.0284 329.625 24.0284C327.58 24.0284 325.761 24.6155 324.17 25.7898C322.58 26.9451 321.263 28.536 320.222 30.5625C319.18 32.589 318.451 34.8902 318.034 37.4659C317.636 39.9659 317.608 42.2008 317.949 44.1705C318.29 46.1212 319.038 47.6648 320.193 48.8011C321.348 49.9186 322.92 50.4773 324.909 50.4773ZM381.777 59H368.595L398.339 0.81818H414.192L424.589 59H411.408L404.334 14.1136H403.879L381.777 59ZM384.788 36.1307H415.925L414.277 45.733H383.141L384.788 36.1307ZM453.126 0.81818L443.467 59H431.365L441.024 0.81818H453.126ZM484.241 40.4205L488.418 15.3636H500.52L493.247 59H481.628L482.935 51.0739H482.48C481.135 53.6307 479.175 55.6856 476.599 57.2386C474.024 58.7917 471.098 59.5682 467.821 59.5682C464.904 59.5682 462.442 58.9053 460.435 57.5795C458.446 56.2538 457.035 54.3693 456.202 51.9261C455.368 49.483 455.226 46.5568 455.776 43.1477L460.435 15.3636H472.537L468.276 40.9886C467.878 43.5644 468.238 45.6004 469.355 47.0966C470.473 48.5928 472.177 49.3409 474.469 49.3409C475.927 49.3409 477.338 49.0095 478.702 48.3466C480.084 47.6648 481.277 46.661 482.281 45.3352C483.285 44.0095 483.938 42.3712 484.241 40.4205ZM519.291 33.7727L515.087 59H503.013L510.286 15.3636H521.791L520.541 23.0625H521.024C522.407 20.5057 524.357 18.4886 526.876 17.0114C529.414 15.5341 532.303 14.7955 535.541 14.7955C538.571 14.7955 541.1 15.4583 543.126 16.7841C545.172 18.1098 546.611 19.9943 547.445 22.4375C548.297 24.8807 548.439 27.8068 547.871 31.2159L543.212 59H531.109L535.399 33.375C535.835 30.7045 535.494 28.6212 534.376 27.125C533.278 25.6098 531.507 24.8523 529.064 24.8523C527.435 24.8523 525.939 25.2027 524.575 25.9034C523.212 26.6042 522.066 27.6269 521.138 28.9716C520.229 30.2973 519.613 31.8977 519.291 33.7727ZM572.466 59.8523C568.015 59.8523 564.331 58.9053 561.415 57.0114C558.498 55.0985 556.443 52.447 555.25 49.0568C554.076 45.6477 553.858 41.6799 554.597 37.1534C555.316 32.6837 556.813 28.7727 559.085 25.4205C561.358 22.0682 564.246 19.464 567.75 17.608C571.254 15.733 575.203 14.7955 579.597 14.7955C584.028 14.7955 587.703 15.7519 590.619 17.6648C593.536 19.5587 595.591 22.2102 596.784 25.6193C597.977 29.0284 598.205 32.9962 597.466 37.5227C596.727 41.9735 595.212 45.875 592.92 49.2273C590.629 52.5795 587.741 55.1932 584.256 57.0682C580.771 58.9242 576.841 59.8523 572.466 59.8523ZM573.659 50.4773C575.705 50.4773 577.513 49.8996 579.085 48.7443C580.676 47.5701 581.992 45.9792 583.034 43.9716C584.095 41.9451 584.833 39.6534 585.25 37.0966C585.667 34.5777 585.695 32.3428 585.335 30.392C584.975 28.4223 584.218 26.8693 583.062 25.733C581.926 24.5966 580.364 24.0284 578.375 24.0284C576.33 24.0284 574.511 24.6155 572.92 25.7898C571.33 26.9451 570.013 28.536 568.972 30.5625C567.93 32.589 567.201 34.8902 566.784 37.4659C566.386 39.9659 566.358 42.2008 566.699 44.1705C567.04 46.1212 567.788 47.6648 568.943 48.8011C570.098 49.9186 571.67 50.4773 573.659 50.4773Z" fill="#213E98"/>
</g>
<defs>
<filter id="filter0_i_49_16" x="0.42041" y="0.818176" width="598.153" height="69.0341" filterUnits="userSpaceOnUse" color-interpolation-filters="sRGB">
<feFlood flood-opacity="0" result="BackgroundImageFix"/>
<feBlend mode="normal" in="SourceGraphic" in2="BackgroundImageFix" result="shape"/>
<feColorMatrix in="SourceAlpha" type="matrix" values="0 0 0 0 0 0 0 0 0 0 0 0 0 0 0 0 0 0 127 0" result="hardAlpha"/>
<feOffset dy="20"/>
<feGaussianBlur stdDeviation="5"/>
<feComposite in2="hardAlpha" operator="arithmetic" k2="-1" k3="1"/>
<feColorMatrix type="matrix" values="0 0 0 0 0 0 0 0 0 0 0 0 0 0 0 0 0 0 0.25 0"/>
<feBlend mode="normal" in2="shape" result="effect1_innerShadow_49_16"/>
</filter>
</defs>
</svg>
