<?xml version="1.0" encoding="UTF-8"?>
<svg version="1.1" viewBox="0 0 1600 1600" width="1280" height="1280" xmlns="http://www.w3.org/2000/svg">
<path transform="translate(812 277)" d="m0 0c0.886 4.58e-4 1.77 9.16e-4 2.69 0.00139 1.85 3e-3 3.71 0.0108 5.56 0.0233 2.84 0.0184 5.67 0.0205 8.51 0.0203 1.81 0.00491 3.62 0.0107 5.43 0.0176 1.27 0.00167 1.27 0.00167 2.56 0.00337 0.788 0.00638 1.58 0.0128 2.39 0.0193 1.03 0.00572 1.03 0.00572 2.09 0.0116 2.09 0.142 3.95 0.587 5.97 1.13 4.83 0.665 9.63 1.06 14.5 1 3.5 0 3.5 0 5.5 1 1.39 0.204 2.79 0.365 4.19 0.5 2.77 0.282 5.5 0.6 8.25 1 3.74 0.525 7.47 0.842 11.2 1.12 2.33 0.379 2.33 0.379 4.38 1.41 2.18 1.26 2.18 1.26 5.95 0.965 3.9 0 4.78 0.337 8 2 1.03-0.0206 2.06-0.0412 3.12-0.0625 4.21 0.0679 7.38 0.995 11.4 2.28 2.25 0.701 4.46 1.25 6.77 1.72 6.34 1.35 12.5 3.24 18.8 5.06 0.937 0.271 1.87 0.541 2.84 0.82 4.53 1.33 8.96 2.8 13.4 4.5 3.26 1.25 6.56 2.35 9.93 3.26 6.2 1.72 11.8 4.16 17.6 6.93 4.66 2.13 9.43 3.85 14.3 5.5v2c0.975 0.13 0.975 0.13 1.97 0.262 4.11 1 7.72 2.73 11.5 4.55 1.23 0.586 1.23 0.586 2.49 1.18 9.13 4.42 17.9 9.49 26.6 14.6 3.13 1.81 6.31 3.54 9.49 5.25 2.29 1.36 4.2 3.06 6.19 4.82 2.19 1.67 4.52 2.85 6.96 4.12 4.98 2.62 9.17 5.72 13.5 9.36 2.24 1.88 2.24 1.88 4.74 3.29 2.93 1.77 5.39 3.82 7.99 6.04 3.43 2.92 6.89 5.78 10.5 8.53 0.642 0.496 1.28 0.991 1.95 1.5 1.26 0.967 2.52 1.93 3.79 2.89 1.49 1.15 2.94 2.36 4.37 3.58v2c0.557 0.227 1.11 0.454 1.69 0.688 2.95 1.67 4.92 3.92 7.31 6.31 1.26 0.916 2.53 1.81 3.81 2.69 1.58 1.14 1.58 1.14 3.19 2.31v2c0.835 0.34 0.835 0.34 1.69 0.688 2.97 1.69 4.96 3.84 7.31 6.31 1.36 1.3 1.36 1.3 2.75 2.62 2.25 2.37 2.25 2.37 3.25 5.38 0.866 0.402 0.866 0.402 1.75 0.812 3.34 1.76 4.99 4.17 7.25 7.19v2c0.835 0.34 0.835 0.34 1.69 0.688 5.95 3.38 9.47 9.12 13.3 14.6 1.34 1.86 2.75 3.67 4.21 5.44 1.75 2.28 1.75 2.28 1.75 4.28 0.959 0.371 0.959 0.371 1.94 0.75 2.61 1.58 2.35 2.42 3.06 5.25 0.602 0.267 1.2 0.534 1.82 0.809 2.89 1.58 3.82 3.43 5.49 6.25 2.15 3.52 4.31 6.82 6.94 10 5.18 6.48 9.22 13.8 13.5 20.9 1.6 2.64 3.27 5.24 4.95 7.83 6.9 10.8 12.8 22 18.5 33.5 0.783 1.59 1.58 3.18 2.38 4.77 4.46 8.96 8.62 18 12.1 27.3 1.06 2.77 2.15 5.51 3.29 8.25 4.03 9.72 7.42 19.3 10.1 29.5 0.767 2.9 1.59 5.7 2.58 8.53 3.36 9.73 5.65 19.8 7.73 29.9 0.451 2.17 0.923 4.33 1.42 6.49 4.4 19.2 8.38 40.1 8.27 59.9-0.221 2.02-0.221 2.02 1.02 3.02 0.246 2.42 0.424 4.8 0.555 7.23 0.042 0.755 0.0841 1.51 0.127 2.29 0.44 8.7 0.468 17.4 0.448 26.1-0.00535 2.75-2.04e-5 5.51 0.00635 8.26 0.00375 8.86-0.129 17.7-0.582 26.5-0.0387 0.764-0.0775 1.53-0.117 2.32-0.256 4.47-0.767 8.84-1.44 13.3-0.309 2.59-0.611 5.18-0.902 7.77-0.17 1.48-0.34 2.96-0.51 4.44-0.263 2.3-0.525 4.59-0.783 6.89-0.864 7.66-1.73 15.3-3.37 22.8-0.876 4.12-1.39 8.31-1.97 12.5-0.465 2.59-0.465 2.59-1.46 3.59-0.286 1.43-0.526 2.87-0.75 4.31-2.32 13.2-5.94 26.3-10.1 39-1.05 3.26-2.02 6.54-2.98 9.83-2.9 9.45-6.59 18.6-10.2 27.8-0.292 0.753-0.585 1.51-0.886 2.28-2.75 7.07-5.67 14-9.11 20.7-0.556 1.12-1.11 2.25-1.68 3.4-4.25 8.57-8.61 17.1-13 25.6-0.546 1.06-1.09 2.12-1.66 3.22-2.99 5.76-6.12 11.3-9.66 16.8-0.683 1.08-1.37 2.17-2.07 3.28-5.38 8.43-11 16.7-16.7 24.9-1.14 1.64-2.27 3.29-3.4 4.93-0.611 0.886-1.22 1.77-1.85 2.68-0.516 0.749-1.03 1.5-1.56 2.27-1.36 1.82-2.82 3.32-4.44 4.92-0.917 1.17-1.81 2.36-2.69 3.56-5.28 7.12-10.8 14-16.7 20.6-1.44 1.64-2.83 3.31-4.21 5-2.34 2.77-4.81 5.26-7.38 7.81-0.943 0.963-1.88 1.93-2.82 2.89-0.954 0.973-1.91 1.95-2.86 2.92-0.485 0.502-0.971 1-1.47 1.52-1.24 1.26-2.54 2.47-3.84 3.67h-2c-0.66 1.32-1.32 2.64-2 4h-2c-0.227 0.562-0.454 1.12-0.688 1.7-1.68 2.94-3.78 4.8-6.31 7.05-0.887 0.799-1.77 1.6-2.69 2.42-2.31 1.83-2.31 1.83-4.31 1.83-0.246 0.592-0.492 1.18-0.746 1.79-1.46 2.57-2.95 3.77-5.32 5.52-0.801 0.598-1.6 1.2-2.43 1.81-1.24 0.928-1.24 0.928-2.51 1.88-2.29 1.84-4.58 3.67-6.86 5.52-2.14 1.48-2.14 1.48-4.78 2.43-2.9 1.29-3.06 2.26-4.36 5.05-2.03 1.68-2.03 1.68-4.5 3.31-1.36 0.915-1.36 0.915-2.75 1.85-1.36 0.911-1.36 0.911-2.75 1.84-1.5 1.08-3 2.16-4.5 3.25-6.88 4.82-14.1 9.08-21.3 13.4-2.02 1.23-4.03 2.46-6.03 3.71-0.581 0.361-1.16 0.722-1.76 1.09-1.54 0.956-3.07 1.91-4.6 2.87-2.87 1.7-5.8 3.18-8.8 4.66-1.64 0.959-1.64 0.959-3.31 1.94-3.35 1.95-6.8 3.47-10.4 4.94-2.47 1.13-2.47 1.13-5.1 3.07-3.56 2.28-6.99 3.62-11 5-4.59 1.65-9 3.32-13.3 5.62-5.07 2.67-10.4 4.34-15.8 6.03-3.3 1.07-6.43 2.4-9.61 3.78-7.14 3.01-14.5 5.14-21.9 7.19-0.699 0.195-1.4 0.391-2.12 0.592-10.2 2.84-20.4 5.22-30.8 7.01-4.49 0.776-8.88 1.84-13.3 2.96-7.5 1.87-15 2.77-22.7 3.48-3.58 0.259-3.58 0.259-6.63 1.39-18.3 2.25-36.8 2.36-55.1 2.31-1.23-4.93e-4 -2.46-9.87e-4 -3.73-0.0015-51.7-0.0632-51.7-0.0632-60.1-4.31-2.06-0.181-4.12-0.321-6.19-0.438-4.91-0.348-9.11-1.08-13.8-2.56-2.1-0.476-4.21-0.931-6.31-1.38-1.2-0.254-2.41-0.508-3.64-0.77-0.645-0.136-1.29-0.272-1.96-0.413-3.87-0.82-7.73-1.66-11.6-2.51-0.753-0.162-1.51-0.325-2.28-0.492-4.18-0.919-8.16-2.06-12.2-3.45-2.35-0.641-4.7-1.26-7.06-1.88-19.4-5.11-19.4-5.11-23.9-8.12-1.5-0.505-3.02-0.96-4.55-1.38-5.33-1.54-10.4-3.47-15.6-5.56-0.842-0.335-1.68-0.669-2.55-1.01-4.6-1.85-9.05-3.86-13.5-6.12-2.9-1.45-5.89-2.67-8.87-3.93-3.64-1.68-7.25-3.41-10.9-5.13-1.42-0.675-2.85-1.34-4.28-2.01-1.45-0.674-2.88-1.38-4.31-2.09-3.89-1.18-7.69-1.11-11.7-1.09-0.852 0.00274-1.7 0.00548-2.58 0.0083-5.33 0.0887-9.94 0.639-15 2.52-2.61 0.913-5.15 1.35-7.88 1.79-3.95 0.673-7.4 1.66-11.1 3.15-9.03 3.39-18.4 5.41-27.9 7.14-3.25 0.685-6.23 1.64-9.38 2.71-3.36 0.978-6.74 1.9-10.1 2.81-0.961 0.261-1.92 0.523-2.91 0.792-6.58 1.78-13.2 3.49-19.8 5.15-1.19 0.297-1.19 0.297-2.4 0.601-4.6 1.14-9.2 2.18-13.8 3.1-2.24 0.532-2.24 0.532-4.94 2.55-2.36 0.541-4.74 1.01-7.12 1.44-5.01 0.936-9.8 2.04-14.6 3.78-2.28 0.783-4.55 1.44-6.88 2.06-1.45 0.391-1.45 0.391-2.93 0.791-1.72 0.461-1.72 0.461-3.46 0.932-2.17 0.588-4.33 1.18-6.49 1.77-3.22 0.876-6.43 1.75-9.65 2.62-1.66 0.45-3.32 0.901-4.97 1.35-2.43 0.662-4.86 1.32-7.3 1.98-1.09 0.299-1.09 0.299-2.21 0.603-4.44 1.2-8.9 2.27-13.4 3.24-6.31 1.37-12.6 2.88-18.7 5.06-4.42 1.55-8.65 2-13.3 2.38v-2h-2c0.308-1.81 0.621-3.63 0.938-5.44 0.174-1.01 0.348-2.02 0.527-3.06 0.535-2.5 0.535-2.5 1.54-3.5 0.472-2.22 0.901-4.45 1.31-6.69 1.2-6.31 2.81-12.4 4.65-18.6 1.41-5.1 2.51-10.3 3.56-15.5 0.998-4.77 2.51-8.85 4.48-13.3 0.248-1.73 0.248-1.73 0.5-3.5 0.463-3.24 1.37-5.59 2.74-8.54 1.21-3.12 1.74-6.34 2.33-9.63 0.589-3.2 1.38-6.19 2.43-9.27 1.02-2.91 1.02-2.91 1.44-5.38 0.497-2.38 1.17-4.48 1.97-6.76 1.87-5.55 2.96-11.2 4.05-16.9 0.917-4.61 2.12-8.86 3.85-13.2 0.917-2.39 1.54-4.8 2.12-7.29 0.246-1.02 0.492-2.04 0.746-3.09l0.816-3.41c0.661-2.69 1.33-5.38 2-8.06 0.17-0.682 0.34-1.36 0.515-2.07 1.21-4.84 2.49-9.65 3.83-14.5 0.636-2.34 1.22-4.68 1.78-7.04 0.875-3.38 0.875-3.38 1.88-4.38 0.144-1.09 0.289-2.19 0.438-3.31 0.496-3.25 1.11-4.87 2.56-7.69l0.5-3c0.5-3 0.5-3 1.5-4.93 1.06-2.2 1.32-3.77 1.5-6.2 1.27-13.6 1.27-13.6 3.5-15.9 0.128-2.41 0.185-4.78 0.188-7.19l0.043-3.98c-0.222-3.69-0.91-6.4-2.23-9.83-0.667-2.33-1.33-4.67-2-7-0.656-2-1.32-4-2-6h-2c-0.329-0.874-0.329-0.874-0.664-1.77-1.85-4.78-3.86-9.37-6.21-13.9-2.95-5.79-5.39-11.7-7.73-17.8-1.2-3.07-2.47-6.09-3.77-9.12-1.46-3.6-2.04-6.5-1.62-10.4h-2c-0.626-1.71-1.25-3.42-1.88-5.12-0.348-0.951-0.696-1.9-1.05-2.88-2.13-5.96-3.88-11.9-5.45-18.1-1.48-5.73-3.03-11.4-4.81-17.1-1.55-4.92-2.78-9.82-3.81-14.9-0.353-1.54-0.707-3.08-1.06-4.62-0.843-3.77-1.41-7.55-1.94-11.4l-0.5-1.94c-0.802-3.31-1.1-6.69-1.5-10.1-0.585-9.05-0.585-9.05-4-17-0.0725-3.08 0.00385-6.14 0.0625-9.21 0.137-2.74 0.137-2.74-1.06-4.79-0.0463-2.23-0.0379-4.46 0-6.69 0.042-5.87-0.322-11.1-1.53-16.8-0.65-4.8-0.616-9.53-0.606-14.4-9.57e-4 -1.04-0.00191-2.09-0.0029-3.16-6.79e-4 -2.2 0.00115-4.4 0.00534-6.6 0.00535-3.36 4.47e-5 -6.71-0.00635-10.1 6.61e-4 -2.14 0.00194-4.28 0.00391-6.42-0.00202-1-0.00405-2-0.00613-3.03 0.0159-4.74 0.198-9.18 1.14-13.8 0.215-2.33 0.401-4.66 0.562-7 0.0838-1.18 0.168-2.35 0.254-3.56 0.118-2.21 0.173-4.42 0.148-6.62 0.0316-2.53 0.415-4.39 1.04-6.81 0.0425-1.73 0.0409-3.46 0-5.19-0.0376-1.6-0.0467-3.21 0-4.81 0.33-0.33 0.66-0.66 1-1 1.16-4.48 2-8.87 2-13.5 0-2.5 0-2.5 2-4.5 0.129-1.91 0.129-1.91-0.0625-4.06-0.112-4.36 0.814-7.54 2.33-11.6 1.06-3.39 1.29-6.75 1.52-10.3 0.211-2.07 0.211-2.07 1.21-4.07 0.812-2.66 1.6-5.33 2.38-8 0.45-1.55 0.901-3.1 1.35-4.65 0.218-0.75 0.436-1.5 0.661-2.27 0.759-2.58 1.56-5.14 2.36-7.7 0.825-2.72 1.35-5.1 1.75-7.94 0.973-6.69 3.49-12.4 6.5-18.4 1.42-3.82 2.63-7.71 3.75-11.6 0.248-0.866 0.495-1.73 0.75-2.62 0.217-0.789 0.433-1.58 0.656-2.39 0.844-2.36 0.844-2.36 2.24-4.67 2-3.35 3.37-6.88 4.79-10.5 3.21-7.98 6.9-15.6 10.8-23.3 0.961-1.88 1.9-3.78 2.83-5.68 3.01-6.15 6.16-12.1 9.75-17.9 1.35-2.21 2.6-4.45 3.83-6.73 2.39-4.35 5.03-8.53 7.72-12.7 1.28-1.99 2.53-3.99 3.77-6.01 0.62-1 1.24-2.01 1.88-3.04 0.563-0.922 1.13-1.84 1.71-2.79 0.489-0.666 0.977-1.33 1.48-2.02h2c0.24-0.691 0.48-1.38 0.727-2.09 1.5-3.43 3.49-6.37 5.65-9.41 0.387-0.556 0.773-1.11 1.17-1.68 2.37-3.37 4.86-6.61 7.45-9.82l1.62-2.31c0.454-0.557 0.908-1.11 1.38-1.69h2c0.248-0.722 0.495-1.44 0.75-2.19 2.39-5.38 6.71-9.5 10.6-13.9 1.34-1.55 2.64-3.14 3.92-4.74 1.75-2.19 1.75-2.19 3.16-3.59 1.72-1.73 3.27-3.55 4.84-5.41 2.28-2.63 4.56-4.98 7.25-7.19 3.97-3.27 7.17-7.1 10.5-11 2.1-2.28 3.77-3.86 6.44-5.44 3.01-1.84 5.09-4.05 7.56-6.56 6.74-6.35 13.7-12.3 21-18 0.773-0.607 1.55-1.21 2.34-1.84 2.21-1.73 4.43-3.45 6.66-5.16 1.07-0.841 1.07-0.841 2.16-1.7 3.54-2.74 6.62-4.73 10.8-6.3 1.54-1.37 1.54-1.37 3-3 3.57-3 7.27-5.51 11.2-7.94 0.858-0.524 0.858-0.524 1.73-1.06 3.9-2.37 7.86-4.63 11.9-6.81 2.28-1.27 4.49-2.64 6.71-4.01 5.07-3.07 10.3-5.7 15.6-8.3 3.18-1.56 6.29-3.15 9.35-4.95 3.41-1.93 6.83-3.44 10.4-4.95 1.24-0.577 2.48-1.16 3.72-1.75 0.623-0.297 1.25-0.594 1.89-0.9 1.26-0.606 2.53-1.22 3.79-1.83 4.13-1.96 8.19-3.27 12.6-4.52 2-0.897 3.98-1.84 5.94-2.81 7.47-3.53 15.2-5.84 23.1-8.19 1.65-0.532 3.3-1.07 4.94-1.62 1.02-0.342 1.02-0.342 2.06-0.691 1.41-0.481 2.82-0.969 4.23-1.46 4.52-1.56 8.99-2.78 13.7-3.76 1.87-0.411 3.71-0.93 5.55-1.46 2.81-0.788 5.52-1.4 8.38-1.94 4.37-0.837 8.54-2.01 12.8-3.38 5.14-1.45 10.4-1.96 15.7-2.62 5-0.639 9.86-1.5 14.8-2.69 2.97-0.57 5.92-0.433 8.93-0.371 0.66-0.33 1.32-0.66 2-1 2.33-0.308 4.66-0.509 7-0.719 1.99-0.0766 1.99-0.0766 3-1.28 3.6-0.0325 7.18 0.0687 10.8 0.16 3.1-0.0177 5.86-0.462 8.87-1.16 5.11-1.05 9.95-1.28 15.2-1.23zm-34.8 79.2c-1.47 0.262-2.94 0.467-4.42 0.648-0.917 0.117-1.83 0.233-2.78 0.353-0.987 0.123-1.97 0.246-2.99 0.373-7.51 0.982-14.9 2.11-22.3 3.82-2.64 0.602-5.28 1.16-7.94 1.67-10.8 2.11-21.1 4.99-31.5 8.44-2.98 0.974-5.99 1.86-8.99 2.75-16.9 5.22-33.7 12.4-49.5 20.6-1.82 0.938-3.65 1.85-5.49 2.73-6.66 3.19-12.9 6.85-19.1 10.8-5.67 3.61-11.5 6.87-17.4 10-2.85 1.89-3.26 2.86-4.7 5.79-2.36 1.09-2.36 1.09-5 2-5.92 3.45-11.2 7.71-16.5 12-3.12 2.43-6.4 4.5-9.79 6.53-2.08 1.72-2.17 2.85-2.71 5.42-2.38 1.06-2.38 1.06-5 2-1.56 1.31-1.56 1.31-3 3-3.16 3.23-6.41 6.32-9.76 9.35-5.12 4.64-9.86 9.29-14.2 14.6-1.67 1.67-3.33 3.33-5 5-3.6 3.51-3.6 3.51-5 8-1.15 0.377-1.15 0.377-2.33 0.762-2.98 1.38-3.72 2.27-5.36 5.05-2.49 4-5.22 7.73-8.12 11.4-4.25 5.45-8.23 11-12.1 16.7-1.23 1.79-2.48 3.57-3.77 5.32-14 19-24.5 41.4-34.4 62.8-0.944 1.99-1.95 3.95-2.95 5.91-1.94 3.86-3.44 7.79-4.83 11.9-0.253 0.731-0.505 1.46-0.766 2.22-0.529 1.54-1.05 3.07-1.58 4.61-0.757 2.22-1.52 4.45-2.29 6.67-11.4 33.2-21 69-21.8 104-0.0237 0.9-0.0473 1.8-0.0717 2.73-0.0734 2.91-0.139 5.83-0.202 8.74-0.0221 0.997-0.0443 1.99-0.067 3.02-0.823 34.6-0.823 34.6 2.69 68.9 0.264 1.62 0.264 1.62 0.533 3.27 0.625 3.83 1.26 7.65 1.9 11.5 0.205 1.22 0.411 2.44 0.622 3.7 1.17 6.76 2.56 13.4 4.32 20 0.544 2.21 0.917 4.33 1.18 6.58 0.251 3.12 0.251 3.12 2.44 5.94 0.512 1.8 0.963 3.61 1.38 5.44 2.47 10.2 6.12 20 9.69 29.9 0.341 0.943 0.681 1.89 1.03 2.86 6.33 17.4 14.5 34.5 23.5 50.6 4.58 8.14 8.65 15.9 10.8 25.1 0.466 2.21 0.466 2.21 1.54 4.18 2.18 12.3 2.81 28.2-1.36 40.1-1.73 5.09-3.2 10.2-4.64 15.4-1.83 6.56-3.79 13.1-6 19.5-3.36 9.86-5.66 19.9-7.89 30.1-0.244 1.09-0.488 2.19-0.739 3.32-0.215 0.986-0.431 1.97-0.653 2.99-0.664 2.45-1.57 4.39-2.71 6.63-0.678 3.48-1.24 6.95-1.77 10.4-0.727 4.51-1.89 8.46-3.57 12.7-0.923 2.6-1.17 5.11-1.34 7.85-0.0657 0.949-0.131 1.9-0.199 2.88-0.0374 0.701-0.0748 1.4-0.113 2.12 4.9 1.53 8.91 0.411 13.8-0.75 0.807-0.186 1.61-0.372 2.45-0.564 4.7-1.11 9.26-2.39 13.8-4.03 3.16-1.03 6.4-1.58 9.66-2.19 4.14-0.818 8.13-2.03 12.1-3.43 4.63-1.47 9.34-2.32 14.1-3.25 3.28-0.627 3.28-0.627 6.14-2.78 1.99-0.378 3.99-0.707 6-1 6.39-1.47 12.7-3.17 19-5 2.79-0.766 5.59-1.52 8.38-2.28 2.02-0.555 4.04-1.13 6.06-1.72 3.14-0.88 6.27-1.67 9.44-2.44 3.64-0.889 7.12-1.88 10.6-3.19 12-4.08 21.4-1.92 32.5 3.44 4.67 2.41 9.19 5.01 13.6 7.79 2.72 1.61 5.51 3 8.35 4.39 1.02 0.521 2.04 1.04 3.09 1.58 6.36 3.23 12.8 6.31 19.3 9.17 0.641 0.281 1.28 0.563 1.94 0.853 8.09 3.84 8.09 3.84 16.7 5.4v2c0.543 0.18 1.09 0.359 1.65 0.544 4 1.33 7.99 2.67 12 4.06 0.756 0.261 1.51 0.522 2.29 0.791 1.54 0.532 3.08 1.07 4.62 1.62 4.31 1.47 7.86 2.32 12.5 1.99 0.33 0.66 0.66 1.32 1 2 5.39 2.14 11.2 3.34 16.9 4.54 2 0.434 3.97 0.947 5.95 1.46 9.61 2.41 19.3 3.4 29.2 4v1c0.717 0.0553 1.43 0.111 2.17 0.168 3.23 0.252 6.47 0.511 9.7 0.77 1.13 0.087 2.26 0.174 3.42 0.264 1.08 0.087 2.15 0.174 3.26 0.264 0.995 0.0786 1.99 0.157 3.02 0.238 2.43 0.297 2.43 0.297 4.43 1.3 1.47 0.0946 2.94 0.128 4.42 0.129 0.914 0.00315 1.83 0.0063 2.77 0.00955 0.99-0.00202 1.98-0.00405 3-0.00613 1.52 0.00144 1.52 0.00144 3.07 0.0029 2.15 6.81e-4 4.29-0.00117 6.44-0.00534 3.29-0.00535 6.58-5.32e-5 9.88 0.00635 2.08-6.61e-4 4.16-0.00194 6.24-0.00391 0.99 0.00202 1.98 0.00405 3 0.00613 1.37-0.00473 1.37-0.00473 2.77-0.00955 1.21-0.00119 1.21-0.00119 2.44-0.00241 2.05-0.00352 2.05-0.00352 3.97-1.13 3.67-0.234 7.33-0.394 11-0.518 4.57-0.201 8.65-0.814 13.1-2.03 3.27-0.766 6.54-0.825 9.88-0.957 5.89-0.294 11.4-0.946 17.1-2.5 2-0.503 4-1 6-1.5 1.01-0.257 2.02-0.513 3.06-0.777 3.35-0.823 6.72-1.53 10.1-2.2 2.15-0.516 2.15-0.516 4.84-2.53 1.95-0.264 3.89-0.522 5.85-0.734 13.8-1.7 27.3-8.43 40.2-13.5 1.61-0.629 3.22-1.24 4.83-1.85 6.12-2.34 11.9-5.24 17.7-8.23 3.42-1.7 6.88-3.2 10.4-4.68 8.06-3.69 15.5-8.29 23-13 1.17-0.719 2.34-1.44 3.51-2.15 0.575-0.352 1.15-0.703 1.74-1.07 0.557-0.341 1.11-0.681 1.69-1.03 6.51-3.99 12.8-8.23 19-12.7 1.18-0.842 2.35-1.68 3.53-2.53 0.575-0.415 1.15-0.83 1.74-1.26 1.25-0.894 2.52-1.77 3.79-2.64 1.7-1.17 3.35-2.4 5-3.64v-2c0.722-0.227 1.44-0.454 2.19-0.688 2.7-1.26 4.23-2.56 6.25-4.7 5.01-5.16 10.5-9.87 16.3-14.2 3.56-2.72 6.36-5.61 9.21-9.06 3.34-3.78 7-7.25 10.7-10.7 3.15-3.06 5.02-5.41 6.44-9.66 1.32-0.685 2.66-1.35 4-2 3.65-3.45 3.65-3.45 5-8 0.639-0.248 1.28-0.495 1.94-0.75 2.25-1.07 2.25-1.07 2.81-3.38 0.0825-0.619 0.165-1.24 0.25-1.88h2c2.32-3.22 2.32-3.22 3-7 0.99-0.33 1.98-0.66 3-1 1.6-1.87 1.6-1.87 3.12-4.25 0.607-0.897 1.21-1.79 1.84-2.72 0.672-1 1.34-2 2.04-3.03 1.56-2.25 3.12-4.5 4.69-6.75 3.94-5.68 7.84-11.4 11.4-17.3 0.486-0.816 0.972-1.63 1.47-2.47 0.483-0.813 0.967-1.63 1.46-2.46 0.777-1.28 0.777-1.28 1.57-2.58 1.18-1.99 2.24-3.96 3.24-6.04 3.01-6.1 6.18-12.2 9.78-17.9 1.34-2.32 2.15-4.39 2.91-6.95 1.05-3.55 2.56-6.34 4.5-9.5 3.23-6.5 5.83-13.1 8-20 0.849-2.61 1.7-5.21 2.56-7.81 0.21-0.647 0.42-1.29 0.637-1.96 1.06-3.22 2.25-6.22 3.8-9.23 1.11-3.64 2.08-7.31 3-11 0.202-0.798 0.405-1.6 0.613-2.42 0.806-3.19 1.6-6.39 2.39-9.58 0.164-0.663 0.329-1.33 0.498-2.01 2.1-8.52 3.95-16.9 5.11-25.6 0.395-2.34 0.395-2.34 1.39-3.34 1.57-7.1 3-14.5 3-21.8 0-3.25 0-3.25 1-6.25 0.0438-1.44 0.0397-2.88 0-4.31-0.0344-2.68 0.0486-4.97 0.5-7.62 0.599-3.67 0.527-7.18 0.438-10.9 0.0625-2.17 0.0625-2.17 1.06-4.17 0.0987-2.53 0.14-5.03 0.133-7.56 9.57e-4 -0.747 0.00191-1.49 0.0029-2.26 6.81e-4 -1.58-0.00117-3.16-0.00534-4.74-0.00535-2.42-5.17e-5 -4.85 0.00635-7.27-6.61e-4 -1.53-0.00194-3.07-0.00391-4.6 0.00202-0.727 0.00405-1.45 0.00613-2.2 0.0461-3.81 0.0461-3.81-1.14-7.36-0.0689-2.31 0.00255-4.6 0.0625-6.91 0.0825-2.15 0.0825-2.15-1.06-4.09-0.0705-3.35 0.00325-6.68 0.0625-10 0.151-2.9 0.151-2.9-1.06-4.97-0.316-3.34-0.511-6.68-0.719-10-0.0941-2.9-0.0941-2.9-1.28-4.97-0.18-1.54-0.32-3.08-0.438-4.62-0.422-4.65-1.36-8.86-2.56-13.4-0.146-0.883-0.291-1.77-0.441-2.68-0.693-4.12-1.59-8.18-2.5-12.3-0.17-0.773-0.339-1.55-0.514-2.34-1.55-6.99-3.56-13.8-5.64-20.7-0.698-2.35-1.38-4.7-2.04-7.06-2.14-7.53-4.45-14.7-7.6-21.9-2.44-5.9-4.32-12-6.27-18.1h-2c-0.247-0.969-0.495-1.94-0.75-2.94-2.41-8.34-6.67-16-10.6-23.7-1.36-2.7-2.68-5.42-3.99-8.14-1.32-3.25-1.32-3.25-3.69-4.19-1.01-1.82-1.01-1.82-2-4-2.25-4.77-4.64-9.06-7.79-13.3-1.53-2.16-2.78-4.46-4.06-6.77-2.46-4.15-5.34-8.02-8.15-11.9-0.632-0.891-1.26-1.78-1.91-2.7-4.77-6.66-9.85-13-15.1-19.3-1.56-1.92-3.13-3.83-4.69-5.75-1.44-1.75-2.87-3.5-4.31-5.25-0.603-0.741-1.21-1.48-1.83-2.25-1.35-1.62-2.75-3.2-4.17-4.75h-2c-0.242-0.566-0.483-1.13-0.732-1.72-1.52-2.74-3.34-4.61-5.55-6.83-0.842-0.844-1.68-1.69-2.55-2.56-0.88-0.873-1.76-1.75-2.67-2.64-0.88-0.888-1.76-1.78-2.67-2.69-0.842-0.839-1.68-1.68-2.55-2.54-0.773-0.771-1.55-1.54-2.34-2.33-1.76-1.9-1.76-1.9-3.94-1.68v-2c-1.49-1.57-1.49-1.57-3.46-3.18-0.732-0.622-1.46-1.24-2.22-1.89-0.766-0.64-1.53-1.28-2.32-1.94-1.07-0.9-1.07-0.9-2.16-1.82-2.15-1.8-4.31-3.59-6.47-5.37-0.724-0.603-1.45-1.21-2.2-1.83-3.93-3.24-7.89-6.23-12.2-8.99-1.59-1.1-3.17-2.2-4.75-3.31-0.862-0.605-1.72-1.21-2.61-1.83-1.71-1.2-3.41-2.41-5.12-3.62-12.6-8.89-25.6-16.9-39.5-23.7-3.22-1.61-6.35-3.35-9.5-5.1-5.22-2.83-10.5-5.07-16-7.11-4.22-1.58-8.38-3.28-12.5-5.01-3.11-1.29-3.11-1.29-6.22-2.58-1.48-0.613-2.96-1.23-4.44-1.85-3.4-1.29-6.9-2.12-10.4-3-2.91-0.879-2.91-0.879-6.28-2.34-3.74-1.59-7.46-2.77-11.4-3.79-0.78-0.204-1.56-0.408-2.36-0.618-8.86-2.24-17.8-4.06-26.8-5.88-0.749-0.155-1.5-0.309-2.27-0.468-8.51-1.75-16.8-3.15-25.5-3.58-2.34-0.202-2.34-0.202-3.34-1.2-2.55-0.1-5.07-0.136-7.62-0.129-0.798-0.00175-1.6-0.0035-2.42-0.00531-2.65-0.00442-5.3-0.00148-7.96 0.00189-1.83-6.73e-4 -3.67-0.00164-5.5-0.0029-3.85-0.00148-7.7 6.78e-4 -11.6 0.00534-4.95 0.0057-9.89 0.00242-14.8-0.00357-3.79-0.00361-7.58-0.00247-11.4 1.28e-4 -1.82 6.69e-4 -3.65-1.59e-4 -5.47-0.00248-2.55-0.00253-5.09 0.00131-7.64 0.0069-1.14-0.00304-1.14-0.00304-2.31-0.00613-3.45-0.298-3.45-0.298-6.32 1.14zm-398 234 1 2zm-21 75 1 2zm-2 11 1 2zm854 35 1 2zm-859 11 1 4zm861 55 1 3zm-861 12 1 3zm859 16 1 4zm-4 26 1 3zm-15 59 1 2zm-783 123 1 2zm-41 156 1 2zm-4 14 1 2zm-12 48 1 2z" fill="#163A95"/>
<path transform="translate(659 537)" d="m0 0c0.98-0.00387 1.96-0.00773 2.97-0.0117 0.949 0.00129 1.9 0.00258 2.88 0.00391 0.857 0.00113 1.71 0.00226 2.6 0.00342 2.59 0.134 4.96 0.586 7.49 1.13 1.13 0.124 2.27 0.247 3.44 0.375 6.34 1.11 10.4 3.73 14.6 8.62 1.55 2.57 2.76 5.27 4 8 0.487 1.01 0.975 2.02 1.48 3.05 2.73 5.72 5.01 11.3 6.69 17.4 1.38 4.27 3.37 8.24 5.29 12.3 4.02 8.57 7.38 17.4 10.5 26.3 1.76 4.95 3.76 9.75 5.88 14.6 11.2 26.2 11.2 26.2 7.36 39-0.957 2.23-2.05 4.3-3.23 6.41-0.289 0.651-0.577 1.3-0.875 1.97-2.31 5.18-5.57 9.28-9.17 13.6-1.67 2.04-3.21 4.1-4.71 6.27-1.94 2.69-3.88 4.83-6.25 7.12-2.16 2.6-4.12 5.19-6 8h-2c-2.72 7.13-3.97 15.6-1.29 22.9 4.12 8.85 10.1 16.9 15.7 24.8 2.19 3.06 3.8 5.54 4.54 9.23h2c1.44 1.83 1.44 1.83 3 4.25 0.516 0.789 1.03 1.58 1.56 2.39 1.44 2.36 1.44 2.36 2.44 4.59 0.939 2.12 0.939 2.12 4 2.77 0.901 1.35 1.79 2.71 2.66 4.08 3.01 4.31 6.78 8.05 10.3 11.9 0.93 1.03 1.86 2.07 2.79 3.1 4.36 4.84 8.68 9.56 13.7 13.7 2.31 1.91 4.35 4.1 6.47 6.21 1.51 1.41 3.03 2.8 4.56 4.19 0.744 0.674 1.49 1.35 2.25 2.04 2.01 1.63 3.87 2.65 6.18 3.77 1.14 1.17 2.28 2.34 3.41 3.52 2.71 2.51 5.79 4.5 8.84 6.58 2.86 1.97 5.65 4.02 8.44 6.09 4 2.92 7.97 5.44 12.3 7.81 1.56 0.955 3.13 1.91 4.69 2.88 4.56 2.74 9.22 5.16 14 7.49 2.38 1.17 4.73 2.36 7.08 3.58 6.87 3.55 13.8 6.81 21 9.55 0.667 0.255 1.33 0.51 2.02 0.773 3.33 1.22 5.63 1.73 9.23 1.73 0.33 0.33 0.66 0.66 1 1v-1c0.652-0.098 1.3-0.196 1.98-0.297 5.52-0.944 9.71-1.9 14-5.7 1.5-2.26 2.72-4.6 4-7 1.29-1.37 2.62-2.71 4-4 3.47-4.07 6.42-8.47 9.41-12.9 1.59-2.11 1.59-2.11 3.59-3.11 0.914-1.39 1.83-2.78 2.72-4.18 2.02-2.87 4.41-5.41 6.79-7.99 1.7-1.87 1.7-1.87 2.49-4.83 5.73-6.41 11.4-10.7 20-12 2.19 0.812 2.19 0.812 4 2 0.804 0.144 1.61 0.289 2.44 0.438 3.01 0.66 5.06 1.78 7.56 3.56v2c0.848 0.102 1.7 0.204 2.57 0.309 3.79 0.765 6.82 2.08 10.3 3.75 1.15 0.548 2.3 1.1 3.49 1.66 1.3 0.632 1.3 0.632 2.63 1.28v2l1.65 0.516c10.7 3.42 20.4 8.48 30.4 13.5 2.73 1.37 5.46 2.74 8.19 4.1 1.42 0.71 1.42 0.71 2.86 1.43 2.04 1.02 4.08 2.03 6.12 3.04 1.06 0.525 2.12 1.05 3.21 1.59 0.947 0.468 1.89 0.936 2.87 1.42 4.75 2.46 9.06 5.31 13.4 8.46 0.953 0.692 1.91 1.38 2.89 2.1 2.43 1.84 2.43 1.84 4.43 3.84 0.176 2.95 0.234 5.8 0.188 8.75-0.014 1.29-0.014 1.29-0.0283 2.6-0.0371 2.55-0.0942 5.1-0.159 7.65-0.0296 1.28-0.0593 2.56-0.0898 3.88-0.563 12.1-4.13 23.1-8.91 34.1h-2c-0.164 1.1-0.164 1.1-0.332 2.23-1.65 6.87-7.55 14-12.7 18.8h-2c-0.233 0.567-0.467 1.13-0.707 1.72-3.82 6.74-11.5 11.9-18.3 15.3-0.995 0.532-1.99 1.06-3.02 1.61-8.45 4.42-16.8 7.65-26 10.4-0.991 0.298-1.98 0.596-3 0.902-2.65 0.759-5.31 1.45-8 2.1-0.786 0.206-1.57 0.412-2.38 0.625-6.37 1.44-12.7 1.58-19.2 1.62-1.31 0.0139-1.31 0.0139-2.65 0.0281-5.33-0.0255-10.2-0.637-15.4-1.78-3.37-0.711-6.73-1.06-10.2-1.43-7.21-0.839-14.1-2.31-21.2-4.06-2.29-0.524-4.58-1.04-6.88-1.56-7.06-1.64-13.6-3.62-20.3-6.38-2.96-1.12-5.93-2-8.97-2.87-6.47-1.93-12.3-4.65-18.4-7.57-3.75-1.78-7.5-3.26-11.4-4.62v-2c-0.991-0.251-1.98-0.503-3-0.762-4.23-1.21-8.02-3.05-11.9-5.05-0.706-0.357-1.41-0.715-2.14-1.08-4.16-2.13-8.2-4.37-12.1-6.94-3.5-2.24-7.17-4.18-10.8-6.16v-2c-0.557-0.103-1.11-0.206-1.69-0.312-2.79-0.829-4.93-2.03-7.31-3.69v-2c-0.88-0.254-1.76-0.508-2.67-0.77-3.41-1.26-5.75-2.74-8.64-4.92-0.953-0.713-1.91-1.43-2.89-2.16-3.22-2.47-6.41-4.98-9.6-7.49-2.99-2.26-6.1-4.29-9.26-6.3-1.88-1.31-3.34-2.73-4.95-4.36-0.99-0.66-1.98-1.32-3-2v-2c-0.562-0.258-1.12-0.516-1.7-0.781-2.56-1.36-4.75-2.95-7.05-4.72-0.799-0.608-1.6-1.22-2.42-1.84-0.603-0.547-1.21-1.09-1.83-1.66v-2c-0.639-0.268-1.28-0.536-1.94-0.812-2.06-1.19-2.06-1.19-3.06-4.19-1.88-1.11-1.88-1.11-4-2-0.99-0.66-1.98-1.32-3-2v-2c-0.804-0.309-0.804-0.309-1.62-0.625-3.29-1.91-5.97-4.42-8.38-7.38v-2c-0.639-0.268-1.28-0.536-1.94-0.812-2.06-1.19-2.06-1.19-3.06-4.19-0.557-0.268-1.11-0.536-1.69-0.812-3.35-1.72-5.94-4.27-8.31-7.19v-2c-0.99-0.33-1.98-0.66-3-1-5-5.47-5-5.47-5-8h-2c-1.19-1.64-2.38-3.29-3.49-4.98-1.94-2.59-4.21-4.73-6.51-7.02-2.06-2.28-4.06-4.6-6.06-6.94-0.516-0.595-1.03-1.19-1.56-1.8-3.09-3.6-5.79-7.27-8.37-11.3-0.701-0.866-1.4-1.73-2.12-2.62-1.88-2.38-1.88-2.38-2.81-4.38-1.05-2.21-1.05-2.21-3.37-4.26-2.68-2.73-4.74-5.46-6.88-8.62-0.563-0.828-0.563-0.828-1.14-1.67-0.804-1.19-1.6-2.37-2.4-3.56-1.34-1.98-2.69-3.96-4.04-5.93-0.911-1.34-1.82-2.68-2.73-4.02-0.65-0.946-0.65-0.946-1.31-1.91-2.01-2.99-3.45-5.5-4.19-9.03h-2c-2.04-2.91-3-4.4-3-8-0.99-0.33-1.98-0.66-3-1-1.06-1.83-1.06-1.83-2-4-1.43-2.64-2.9-5.26-4.38-7.88-0.387-0.695-0.773-1.39-1.17-2.11-1.79-3.19-3.61-6.32-5.67-9.36-1.68-2.51-2.69-4.86-3.78-7.66-0.66-0.66-1.32-1.32-2-2-7-16-7-16-7-24h-2c-0.649-2.06-1.29-4.12-1.94-6.19-0.36-1.15-0.719-2.3-1.09-3.48-1.49-5.11-2.19-10.1-2.69-15.3-0.184-2.06-0.184-2.06-1.28-3.99-0.0694-2.57 0.00278-5.12 0.0625-7.69 0.0999-2.34 0.0999-2.34-1.06-4.31-0.0972-1.94-0.13-3.87-0.125-5.81-0.00258-1.04-0.00516-2.08-0.00781-3.14 0.122-2.8 0.555-5.31 1.13-8.04v-3.5c0-3.06 0.375-5.53 1-8.5v-2.75c0-2.25 0-2.25 1-3.25 0.348-1.39 0.653-2.79 0.938-4.19 1.33-6.54 3.73-12.7 6.06-18.9 0.26-0.703 0.521-1.41 0.789-2.13 1.25-3.34 2.52-6.6 4.21-9.75h2c0.186-0.949 0.371-1.9 0.562-2.88 1.53-5.44 5.13-9.63 8.44-14.1 0.759-1.14 1.51-2.28 2.25-3.44 1.49-2.19 2.89-3.72 4.75-5.56 1.81-2.11 3.6-4.23 5.38-6.36 0.535-0.543 1.07-1.09 1.62-1.64h2c0.258-0.599 0.516-1.2 0.781-1.82 3.63-6.5 12.5-10.6 19.2-13.2 5.62-1.35 11.3-1.15 17.1-1.12zm-69.1 64.1 1 2zm-5 14 1 2zm-3 18 1 2zm0 34 1 2z" fill="#163A95"/>
<path transform="translate(778,356)" d="m0 0h5v1h-5v-1z" fill="#000002"/>
<path transform="translate(876,1235)" d="m0 0c3 1 3 1 3 1z" fill="#000002"/>
<path transform="translate(857,356)" d="m0 0c3 1 3 1 3 1z" fill="#000002"/>
</svg>
