<svg width="1024.000000pt" height="1024.000000pt" viewBox="0 0 1024.000000 1024.000000" xmlns="http://www.w3.org/2000/svg">
  <g transform="translate(0.000000,1024.000000) scale(0.100000,-0.100000)" fill="#fefefe" stroke="none">
    <path d="M0 5120 l0 -5120 5120 0 5120 0 0 5120 0 5120 -5120 0 -5120 0 0
-5120z m8371 3490 c4 -14 7 -729 8 -1590 l1 -1565 -20 -12 -19 -13 -1723 -6
-1723 -7 -11 19 -11 19 6 1322 6 1322 11 11 c6 6 649 107 1430 226 780 118
1545 234 1699 258 154 24 293 43 310 43 l29 -2 7 -25z m-3786 -562 c1 -2 5
-583 9 -1293 l7 -1290 -13 -18 -13 -17 -1294 -10 -1295 -10 -23 15 -23 15 -2
1083 c-2 1153 -2 1157 12 1171 13 13 2556 366 2599 361 18 -2 35 -5 36 -7z
m15 -2927 l10 -20 0 -1300 c0 -714 -3 -1306 -6 -1315 l-6 -16 -27 0 c-56 1
-2602 367 -2611 376 l-9 9 -7 1115 -6 1115 13 17 14 17 1010 9 c556 5 1146 9
1312 10 l302 2 11 -19z m3775 9 c9 -14 5 -3135 -3 -3185 l-7 -40 -30 -3 c-43
-4 -3434 505 -3450 518 l-13 11 5 1337 6 1337 9 12 10 13 657 3 c361 1 1141 3
1733 5 l1077 2 6 -10z" />
  </g>
  <g transform="translate(0.000000,1024.000000) scale(0.100000,-0.100000)" fill="#213e98" stroke="none">
    <path d="M8015 8604 c-154 -24 -919 -140 -1699 -258 -781 -119 -1424 -220
-1430 -226 l-11 -11 -7 -1327 -7 -1327 12 -24 12 -24 1733 6 1733 7 19 12 20
13 -1 1575 c-1 866 -4 1586 -8 1600 l-7 25 -39 2 c-22 0 -166 -19 -320 -43z" />
    <path d="M3227 7891 c-702 -97 -1282 -182 -1287 -187 -15 -15 -15 -9 -12
-1191 l2 -1083 23 -15 23 -15 1305 10 1304 10 13 17 13 18 -6 1295 -7 1295
-16 13 c-24 18 16 23 -1355 -167z" />
    <path d="M2965 5138 l-1010 -9 -14 -17 -13 -17 6 -1125 7 -1125 9 -9 c10 -10
2559 -375 2621 -376 l37 0 6 16 c3 9 6 605 6 1325 l0 1310 -10 20 -11 19 -312
-2 c-172 -1 -766 -5 -1322 -10z" />
    <path d="M5549 5143 l-657 -3 -10 -13 -9 -12 -6 -1347 -5 -1347 13 -11 c17
-14 3408 -522 3460 -518 l40 3 7 40 c8 51 12 3191 3 3205 l-6 10 -1087 -2
c-598 -2 -1382 -4 -1743 -5z" />
  </g>
  <g transform="translate(0.000000,1024.000000) scale(0.100000,-0.100000)" fill="#435ba7" stroke="none">
    <path d="M4570 8056 c0 -2 7 -9 15 -16 l15 -12 0 16 c0 9 -7 16 -15 16 -8 0
-15 -2 -15 -4z" />
    <path d="M4594 7525 c0 -170 2 -242 3 -158 2 83 2 223 0 310 -1 87 -3 19 -3
-152z" />
    <path d="M1934 6870 c0 -124 2 -174 3 -112 2 61 2 163 0 225 -1 61 -3 11 -3
-113z" />
    <path d="M4874 6495 c0 -88 2 -123 3 -77 2 46 2 118 0 160 -1 42 -3 5 -3 -83z" />
    <path d="M8382 5694 l-2 -242 -13 -11 -14 -11 -274 -3 -274 -2 275 -2 275 -2
18 13 17 13 -3 244 -2 244 -3 -241z" />
    <path d="M4408 5423 c34 -2 88 -2 120 0 31 2 3 3 -63 3 -66 0 -92 -1 -57 -3z" />
    <path d="M2813 5413 c32 -2 81 -2 110 0 29 2 3 3 -58 3 -60 0 -84 -1 -52 -3z" />
    <path d="M3658 5133 c23 -2 61 -2 85 0 23 2 4 4 -43 4 -47 0 -66 -2 -42 -4z" />
    <path d="M5143 5133 c81 -2 213 -2 295 0 81 1 14 3 -148 3 -162 0 -229 -2
-147 -3z" />
    <path d="M2458 5123 c28 -2 76 -2 105 0 28 2 5 3 -53 3 -58 0 -81 -1 -52 -3z" />
    <path d="M4874 4035 c0 -170 2 -242 3 -158 2 83 2 223 0 310 -1 87 -3 19 -3
-152z" />
    <path d="M8384 4035 c0 -159 2 -223 3 -142 2 82 2 212 0 290 -1 78 -3 12 -3
-148z" />
    <path d="M1944 2980 c0 -80 2 -112 3 -72 2 39 2 105 0 145 -1 39 -3 7 -3 -73z" />
  </g>
  <g transform="translate(0.000000,1024.000000) scale(0.100000,-0.100000)" fill="#dde2ef" stroke="none">
    <path d="M1922 7620 c0 -19 2 -27 5 -17 2 9 2 25 0 35 -3 9 -5 1 -5 -18z" />
    <path d="M4604 6325 c0 -121 2 -169 3 -107 2 62 2 161 0 220 -1 59 -3 8 -3
-113z" />
    <path d="M4864 5865 c0 -77 2 -107 3 -67 2 40 2 103 0 140 -2 37 -3 4 -3 -73z" />
    <path d="M3948 5413 c23 -2 61 -2 85 0 23 2 4 4 -43 4 -47 0 -66 -2 -42 -4z" />
    <path d="M6868 5413 c57 -2 147 -2 200 0 53 1 7 3 -103 3 -110 0 -154 -2 -97
-3z" />
    <path d="M2403 5403 c26 -2 67 -2 90 0 23 2 2 3 -48 3 -49 0 -68 -1 -42 -3z" />
    <path d="M3998 5143 c17 -2 47 -2 65 0 17 2 3 4 -33 4 -36 0 -50 -2 -32 -4z" />
    <path d="M6313 5143 c65 -2 168 -2 230 0 62 1 9 3 -118 3 -126 0 -177 -2 -112
-3z" />
    <path d="M2827 5133 c18 -2 50 -2 70 0 21 2 7 4 -32 4 -38 0 -55 -2 -38 -4z" />
    <path d="M8393 5060 c0 -36 2 -50 4 -32 2 17 2 47 0 65 -2 17 -4 3 -4 -33z" />
    <path d="M4613 4330 c0 -25 2 -35 4 -22 2 12 2 32 0 45 -2 12 -4 2 -4 -23z" />
    <path d="M4615 3380 c0 -492 1 -694 2 -447 2 246 2 648 0 895 -1 246 -2 44 -2
-448z" />
    <path d="M1934 3875 c0 -88 2 -123 3 -77 2 46 2 118 0 160 -1 42 -3 5 -3 -83z" />
    <path d="M4864 2835 c0 -132 2 -185 3 -117 2 68 2 176 0 240 -1 64 -3 9 -3
-123z" />
  </g>
  <g transform="translate(0.000000,1024.000000) scale(0.100000,-0.100000)" fill="#ccd2e7" stroke="none">
    <path d="M8384 8480 c0 -63 1 -89 3 -57 2 31 2 83 0 115 -2 31 -3 5 -3 -58z" />
    <path d="M4873 8015 c0 -38 2 -53 4 -32 2 20 2 52 0 70 -2 17 -4 1 -4 -38z" />
    <path d="M4565 8058 c11 -6 23 -16 27 -22 l8 -11 0 12 c0 7 -9 17 -19 23 -27
14 -41 12 -16 -2z" />
    <path d="M4604 5985 c0 -77 2 -107 3 -67 2 40 2 103 0 140 -2 37 -3 4 -3 -73z" />
    <path d="M4863 5680 c0 -36 2 -50 4 -32 2 17 2 47 0 65 -2 17 -4 3 -4 -33z" />
    <path d="M3838 5413 c18 -2 45 -2 60 0 15 2 0 4 -33 4 -33 0 -45 -2 -27 -4z" />
    <path d="M6638 5413 c29 -2 74 -2 100 0 26 2 2 3 -53 3 -55 0 -76 -1 -47 -3z" />
    <path d="M2293 5403 c15 -2 39 -2 55 0 15 2 2 4 -28 4 -30 0 -43 -2 -27 -4z" />
    <path d="M4103 5143 c15 -2 37 -2 50 0 12 2 0 4 -28 4 -27 0 -38 -2 -22 -4z" />
    <path d="M6693 5143 c32 -2 81 -2 110 0 29 2 3 3 -58 3 -60 0 -84 -1 -52 -3z" />
    <path d="M2938 5133 c12 -2 30 -2 40 0 9 3 -1 5 -23 4 l-40 0 23 -4z" />
    <path d="M4615 4740 c0 -212 1 -298 2 -192 2 105 2 279 0 385 -1 105 -2 19 -2
-193z" />
    <path d="M1934 4105 c0 -49 1 -71 3 -48 2 23 2 64 0 90 -2 26 -3 8 -3 -42z" />
    <path d="M4864 2520 c0 -52 1 -74 3 -47 2 26 2 68 0 95 -2 26 -3 4 -3 -48z" />
  </g>
  <g transform="translate(0.000000,1024.000000) scale(0.100000,-0.100000)" fill="#536aaf" stroke="none">
    <path d="M4594 7930 c0 -63 1 -89 3 -57 2 31 2 83 0 115 -2 31 -3 5 -3 -58z" />
    <path d="M4873 6720 c0 -47 2 -66 4 -42 2 23 2 61 0 85 -2 23 -4 4 -4 -43z" />
    <path d="M1934 6560 c0 -58 1 -81 3 -52 2 28 2 76 0 105 -2 28 -3 5 -3 -53z" />
    <path d="M8384 6075 c0 -88 2 -123 3 -77 2 46 2 118 0 160 -1 42 -3 5 -3 -83z" />
    <path d="M2988 5413 c18 -2 45 -2 60 0 15 2 0 4 -33 4 -33 0 -45 -2 -27 -4z" />
    <path d="M3568 5133 c12 -2 32 -2 45 0 12 2 2 4 -23 4 -25 0 -35 -2 -22 -4z" />
    <path d="M4943 5133 c15 -2 37 -2 50 0 12 2 0 4 -28 4 -27 0 -38 -2 -22 -4z" />
    <path d="M2353 5123 c15 -2 37 -2 50 0 12 2 0 4 -28 4 -27 0 -38 -2 -22 -4z" />
    <path d="M4874 4480 c0 -85 2 -120 3 -77 2 42 2 112 0 155 -1 42 -3 7 -3 -78z" />
    <path d="M8384 3635 c0 -71 1 -99 3 -62 2 37 2 96 0 130 -2 34 -3 4 -3 -68z" />
  </g>
  <g transform="translate(0.000000,1024.000000) scale(0.100000,-0.100000)" fill="#a4afd4" stroke="none">
    <path d="M8384 7730 c0 -69 1 -97 3 -62 2 34 2 90 0 125 -2 34 -3 6 -3 -63z" />
    <path d="M4873 7605 c0 -38 2 -53 4 -32 2 20 2 52 0 70 -2 17 -4 1 -4 -38z" />
    <path d="M3573 5413 c15 -2 37 -2 50 0 12 2 0 4 -28 4 -27 0 -38 -2 -22 -4z" />
    <path d="M6023 5413 c26 -2 67 -2 90 0 23 2 2 3 -48 3 -49 0 -68 -1 -42 -3z" />
    <path d="M2023 5403 c15 -2 37 -2 50 0 12 2 0 4 -28 4 -27 0 -38 -2 -22 -4z" />
    <path d="M4313 5143 c9 -2 25 -2 35 0 9 3 1 5 -18 5 -19 0 -27 -2 -17 -5z" />
    <path d="M7448 5143 c29 -2 74 -2 100 0 26 2 2 3 -53 3 -55 0 -76 -1 -47 -3z" />
    <path d="M3138 5133 c12 -2 30 -2 40 0 9 3 -1 5 -23 4 l-40 0 23 -4z" />
    <path d="M1933 4605 c0 -44 2 -61 4 -37 2 23 2 59 0 80 -2 20 -4 1 -4 -43z" />
    <path d="M8383 2040 c0 -25 2 -35 4 -22 2 12 2 32 0 45 -2 12 -4 2 -4 -23z" />
  </g>
  <g transform="translate(0.000000,1024.000000) scale(0.100000,-0.100000)" fill="#c3cbe3" stroke="none">
    <path d="M8383 8320 c0 -36 2 -50 4 -32 2 17 2 47 0 65 -2 17 -4 3 -4 -33z" />
    <path d="M4873 7910 c0 -30 2 -43 4 -27 2 15 2 39 0 55 -2 15 -4 2 -4 -28z" />
    <path d="M4603 5785 c0 -44 2 -61 4 -37 2 23 2 59 0 80 -2 20 -4 1 -4 -43z" />
    <path d="M4863 5590 c0 -25 2 -35 4 -22 2 12 2 32 0 45 -2 12 -4 2 -4 -23z" />
    <path d="M3783 5413 c9 -2 23 -2 30 0 6 3 -1 5 -18 5 l-30 0 18 -5z" />
    <path d="M6497 5413 c18 -2 50 -2 70 0 21 2 7 4 -32 4 -38 0 -55 -2 -38 -4z" />
    <path d="M2243 5403 c9 -2 23 -2 30 0 6 3 -1 5 -18 5 l-30 0 18 -5z" />
    <path d="M6878 5143 c23 -2 59 -2 80 0 20 2 1 4 -43 4 -44 0 -61 -2 -37 -4z" />
    <path d="M1933 4220 c0 -25 2 -35 4 -22 2 12 2 32 0 45 -2 12 -4 2 -4 -23z" />
  </g>
  <g transform="translate(0.000000,1024.000000) scale(0.100000,-0.100000)" fill="#7486be" stroke="none">
    <path d="M4873 7110 c0 -30 2 -43 4 -27 2 15 2 39 0 55 -2 15 -4 2 -4 -28z" />
    <path d="M8384 6780 c0 -52 1 -74 3 -47 2 26 2 68 0 95 -2 26 -3 4 -3 -48z" />
    <path d="M1933 6040 c0 -36 2 -50 4 -32 2 17 2 47 0 65 -2 17 -4 3 -4 -33z" />
    <path d="M3243 5413 c15 -2 37 -2 50 0 12 2 0 4 -28 4 -27 0 -38 -2 -22 -4z" />
    <path d="M5268 5413 c23 -2 61 -2 85 0 23 2 4 4 -43 4 -47 0 -66 -2 -42 -4z" />
    <path d="M8313 5143 c9 -2 23 -2 30 0 6 3 -1 5 -18 5 l-30 0 18 -5z" />
    <path d="M3393 5133 c9 -2 25 -2 35 0 9 3 1 5 -18 5 -19 0 -27 -2 -17 -5z" />
    <path d="M2138 5123 c12 -2 30 -2 40 0 9 3 -1 5 -23 4 l-40 0 23 -4z" />
    <path d="M8384 2900 c0 -52 1 -74 3 -47 2 26 2 68 0 95 -2 26 -3 4 -3 -48z" />
  </g>
  <g transform="translate(0.000000,1024.000000) scale(0.100000,-0.100000)" fill="#5c71b3" stroke="none">
    <path d="M4873 6840 c0 -30 2 -43 4 -27 2 15 2 39 0 55 -2 15 -4 2 -4 -28z" />
    <path d="M1933 6405 c0 -38 2 -53 4 -32 2 20 2 52 0 70 -2 17 -4 1 -4 -38z" />
    <path d="M8383 6300 c0 -47 2 -66 4 -42 2 23 2 61 0 85 -2 23 -4 4 -4 -43z" />
    <path d="M3073 5413 c9 -2 25 -2 35 0 9 3 1 5 -18 5 -19 0 -27 -2 -17 -5z" />
    <path d="M4908 5413 c12 -2 30 -2 40 0 9 3 -1 5 -23 4 l-40 0 23 -4z" />
    <path d="M2293 5123 c9 -2 25 -2 35 0 9 3 1 5 -18 5 -19 0 -27 -2 -17 -5z" />
    <path d="M4873 4700 c0 -47 2 -66 4 -42 2 23 2 61 0 85 -2 23 -4 4 -4 -43z" />
    <path d="M8383 3445 c0 -44 2 -61 4 -37 2 23 2 59 0 80 -2 20 -4 1 -4 -43z" />
  </g>
  <g transform="translate(0.000000,1024.000000) scale(0.100000,-0.100000)" fill="#8090c3" stroke="none">
    <path d="M4872 7240 c0 -19 2 -27 5 -17 2 9 2 25 0 35 -3 9 -5 1 -5 -18z" />
    <path d="M8383 7055 c0 -44 2 -61 4 -37 2 23 2 59 0 80 -2 20 -4 1 -4 -43z" />
    <path d="M1933 5855 l0 -40 4 23 c2 12 2 30 0 40 -3 9 -5 -1 -4 -23z" />
    <path d="M3333 5413 c9 -2 25 -2 35 0 9 3 1 5 -18 5 -19 0 -27 -2 -17 -5z" />
    <path d="M5453 5413 c20 -2 54 -2 75 0 20 2 3 4 -38 4 -41 0 -58 -2 -37 -4z" />
    <path d="M4493 5143 c9 -2 23 -2 30 0 6 3 -1 5 -18 5 l-30 0 18 -5z" />
    <path d="M8088 5143 c23 -2 59 -2 80 0 20 2 1 4 -43 4 -44 0 -61 -2 -37 -4z" />
    <path d="M3323 5133 c9 -2 25 -2 35 0 9 3 1 5 -18 5 -19 0 -27 -2 -17 -5z" />
    <path d="M2063 5123 c9 -2 23 -2 30 0 6 3 -1 5 -18 5 l-30 0 18 -5z" />
    <path d="M1933 5055 c0 -27 2 -38 4 -22 2 15 2 37 0 50 -2 12 -4 0 -4 -28z" />
    <path d="M8383 2690 c0 -47 2 -66 4 -42 2 23 2 61 0 85 -2 23 -4 4 -4 -43z" />
  </g>
  <g transform="translate(0.000000,1024.000000) scale(0.100000,-0.100000)" fill="#909ecb" stroke="none">
    <path d="M8383 7370 c0 -47 2 -66 4 -42 2 23 2 61 0 85 -2 23 -4 4 -4 -43z" />
    <path d="M4873 7405 l0 -40 4 23 c2 12 2 30 0 40 -3 9 -5 -1 -4 -23z" />
    <path d="M1933 5615 c0 -38 2 -53 4 -32 2 20 2 52 0 70 -2 17 -4 1 -4 -38z" />
    <path d="M3453 5413 c9 -2 25 -2 35 0 9 3 1 5 -18 5 -19 0 -27 -2 -17 -5z" />
    <path d="M5737 5413 c18 -2 50 -2 70 0 21 2 7 4 -32 4 -38 0 -55 -2 -38 -4z" />
    <path d="M4413 5143 c9 -2 25 -2 35 0 9 3 1 5 -18 5 -19 0 -27 -2 -17 -5z" />
    <path d="M7783 5143 c20 -2 54 -2 75 0 20 2 3 4 -38 4 -41 0 -58 -2 -37 -4z" />
    <path d="M3243 5133 c9 -2 23 -2 30 0 6 3 -1 5 -18 5 l-30 0 18 -5z" />
    <path d="M1933 4850 c0 -30 2 -43 4 -27 2 15 2 39 0 55 -2 15 -4 2 -4 -28z" />
    <path d="M8383 2350 c0 -30 2 -43 4 -27 2 15 2 39 0 55 -2 15 -4 2 -4 -28z" />
  </g>
  <g transform="translate(0.000000,1024.000000) scale(0.100000,-0.100000)" fill="#9aa7d0" stroke="none">
    <path d="M8383 7575 c0 -27 2 -38 4 -22 2 15 2 37 0 50 -2 12 -4 0 -4 -28z" />
    <path d="M4872 7520 c0 -19 2 -27 5 -17 2 9 2 25 0 35 -3 9 -5 1 -5 -18z" />
    <path d="M1933 5485 c0 -27 2 -38 4 -22 2 15 2 37 0 50 -2 12 -4 0 -4 -28z" />
    <path d="M3513 5413 c9 -2 25 -2 35 0 9 3 1 5 -18 5 -19 0 -27 -2 -17 -5z" />
    <path d="M5887 5413 c18 -2 50 -2 70 0 21 2 7 4 -32 4 -38 0 -55 -2 -38 -4z" />
    <path d="M7613 5143 c20 -2 54 -2 75 0 20 2 3 4 -38 4 -41 0 -58 -2 -37 -4z" />
    <path d="M3193 5133 c9 -2 23 -2 30 0 6 3 -1 5 -18 5 l-30 0 18 -5z" />
    <path d="M1933 4730 c0 -36 2 -50 4 -32 2 17 2 47 0 65 -2 17 -4 3 -4 -33z" />
    <path d="M8383 2140 c0 -41 2 -58 4 -37 2 20 2 54 0 75 -2 20 -4 3 -4 -38z" />
  </g>
  <g transform="translate(0.000000,1024.000000) scale(0.100000,-0.100000)" fill="#6579b7" stroke="none">
    <path d="M4872 6940 c0 -19 2 -27 5 -17 2 9 2 25 0 35 -3 9 -5 1 -5 -18z" />
    <path d="M8383 6470 c0 -47 2 -66 4 -42 2 23 2 61 0 85 -2 23 -4 4 -4 -43z" />
    <path d="M1933 6260 c0 -36 2 -50 4 -32 2 17 2 47 0 65 -2 17 -4 3 -4 -33z" />
    <path d="M3143 5413 c9 -2 25 -2 35 0 9 3 1 5 -18 5 -19 0 -27 -2 -17 -5z" />
    <path d="M5028 5413 c18 -2 45 -2 60 0 15 2 0 4 -33 4 -33 0 -45 -2 -27 -4z" />
    <path d="M3473 5133 c9 -2 23 -2 30 0 6 3 -1 5 -18 5 l-30 0 18 -5z" />
    <path d="M2233 5123 c9 -2 25 -2 35 0 9 3 1 5 -18 5 -19 0 -27 -2 -17 -5z" />
    <path d="M4873 4875 c0 -44 2 -61 4 -37 2 23 2 59 0 80 -2 20 -4 1 -4 -43z" />
    <path d="M8383 3215 c0 -38 2 -53 4 -32 2 20 2 52 0 70 -2 17 -4 1 -4 -38z" />
  </g>
  <g transform="translate(0.000000,1024.000000) scale(0.100000,-0.100000)" fill="#b6c0dd" stroke="none">
    <path d="M8383 8105 c0 -44 2 -61 4 -37 2 23 2 59 0 80 -2 20 -4 1 -4 -43z" />
    <path d="M4873 7795 c0 -27 2 -38 4 -22 2 15 2 37 0 50 -2 12 -4 0 -4 -28z" />
    <path d="M4603 5590 c0 -41 2 -58 4 -37 2 20 2 54 0 75 -2 20 -4 3 -4 -38z" />
    <path d="M4862 5480 c0 -19 2 -27 5 -17 2 9 2 25 0 35 -3 9 -5 1 -5 -18z" />
    <path d="M3698 5413 c12 -2 30 -2 40 0 9 3 -1 5 -23 4 l-40 0 23 -4z" />
    <path d="M6318 5413 c17 -2 47 -2 65 0 17 2 3 4 -33 4 -36 0 -50 -2 -32 -4z" />
    <path d="M2153 5403 c9 -2 25 -2 35 0 9 3 1 5 -18 5 -19 0 -27 -2 -17 -5z" />
    <path d="M4223 5143 c9 -2 23 -2 30 0 6 3 -1 5 -18 5 l-30 0 18 -5z" />
    <path d="M7123 5143 c15 -2 39 -2 55 0 15 2 2 4 -28 4 -30 0 -43 -2 -27 -4z" />
    <path d="M3053 5133 c9 -2 23 -2 30 0 6 3 -1 5 -18 5 l-30 0 18 -5z" />
    <path d="M1933 4370 c0 -25 2 -35 4 -22 2 12 2 32 0 45 -2 12 -4 2 -4 -23z" />
  </g>
  <g transform="translate(0.000000,1024.000000) scale(0.100000,-0.100000)" fill="#8796c6" stroke="none">
    <path d="M4873 7300 c0 -25 2 -35 4 -22 2 12 2 32 0 45 -2 12 -4 2 -4 -23z" />
    <path d="M8383 7180 c0 -36 2 -50 4 -32 2 17 2 47 0 65 -2 17 -4 3 -4 -33z" />
    <path d="M1933 5770 c0 -36 2 -50 4 -32 2 17 2 47 0 65 -2 17 -4 3 -4 -33z" />
    <path d="M3383 5413 c9 -2 23 -2 30 0 6 3 -1 5 -18 5 l-30 0 18 -5z" />
    <path d="M5578 5413 c18 -2 45 -2 60 0 15 2 0 4 -33 4 -33 0 -45 -2 -27 -4z" />
    <path d="M8013 5143 c9 -2 25 -2 35 0 9 3 1 5 -18 5 -19 0 -27 -2 -17 -5z" />
    <path d="M1933 4985 l0 -40 4 23 c2 12 2 30 0 40 -3 9 -5 -1 -4 -23z" />
    <path d="M8383 2555 c0 -38 2 -53 4 -32 2 20 2 52 0 70 -2 17 -4 1 -4 -38z" />
  </g>
  <g transform="translate(0.000000,1024.000000) scale(0.100000,-0.100000)" fill="#7c8dc1" stroke="none">
    <path d="M4873 7185 l0 -40 4 23 c2 12 2 30 0 40 -3 9 -5 -1 -4 -23z" />
    <path d="M8383 6925 c0 -38 2 -53 4 -32 2 20 2 52 0 70 -2 17 -4 1 -4 -38z" />
    <path d="M1933 5935 c0 -33 2 -45 4 -27 2 18 2 45 0 60 -2 15 -4 0 -4 -33z" />
    <path d="M5393 5413 c9 -2 23 -2 30 0 6 3 -1 5 -18 5 l-30 0 18 -5z" />
    <path d="M8218 5143 c17 -2 47 -2 65 0 17 2 3 4 -33 4 -36 0 -50 -2 -32 -4z" />
    <path d="M8382 2790 c0 -19 2 -27 5 -17 2 9 2 25 0 35 -3 9 -5 1 -5 -18z" />
  </g>
  <g transform="translate(0.000000,1024.000000) scale(0.100000,-0.100000)" fill="#bcc4df" stroke="none">
    <path d="M8383 8220 c0 -30 2 -43 4 -27 2 15 2 39 0 55 -2 15 -4 2 -4 -28z" />
    <path d="M4603 5685 l0 -40 4 23 c2 12 2 30 0 40 -3 9 -5 -1 -4 -23z" />
    <path d="M4862 5530 c0 -19 2 -27 5 -17 2 9 2 25 0 35 -3 9 -5 1 -5 -18z" />
    <path d="M6418 5413 c12 -2 32 -2 45 0 12 2 2 4 -23 4 -25 0 -35 -2 -22 -4z" />
    <path d="M2203 5403 c9 -2 23 -2 30 0 6 3 -1 5 -18 5 l-30 0 18 -5z" />
    <path d="M7007 5143 c18 -2 50 -2 70 0 21 2 7 4 -32 4 -38 0 -55 -2 -38 -4z" />
    <path d="M1933 4295 c0 -27 2 -38 4 -22 2 15 2 37 0 50 -2 12 -4 0 -4 -28z" />
  </g>
  <g transform="translate(0.000000,1024.000000) scale(0.100000,-0.100000)" fill="#b0bada" stroke="none">
    <path d="M8383 7975 c0 -38 2 -53 4 -32 2 20 2 52 0 70 -2 17 -4 1 -4 -38z" />
    <path d="M4872 7730 c0 -19 2 -27 5 -17 2 9 2 25 0 35 -3 9 -5 1 -5 -18z" />
    <path d="M4603 5495 l0 -40 4 23 c2 12 2 30 0 40 -3 9 -5 -1 -4 -23z" />
    <path d="M6233 5413 c15 -2 37 -2 50 0 12 2 0 4 -28 4 -27 0 -38 -2 -22 -4z" />
    <path d="M7218 5143 c18 -2 45 -2 60 0 15 2 0 4 -33 4 -33 0 -45 -2 -27 -4z" />
    <path d="M1933 4450 c0 -30 2 -43 4 -27 2 15 2 39 0 55 -2 15 -4 2 -4 -28z" />
  </g>
  <g transform="translate(0.000000,1024.000000) scale(0.100000,-0.100000)" fill="#8b9ac8" stroke="none">
    <path d="M4872 7355 l0 -30 5 18 c2 9 2 23 0 30 -3 6 -5 -1 -5 -18z" />
    <path d="M8383 7265 l0 -40 4 23 c2 12 2 30 0 40 -3 9 -5 -1 -4 -23z" />
    <path d="M1932 5695 l0 -30 5 18 c2 9 2 23 0 30 -3 6 -5 -1 -5 -18z" />
    <path d="M5668 5413 c12 -2 30 -2 40 0 9 3 -1 5 -23 4 l-40 0 23 -4z" />
    <path d="M7907 5143 c18 -2 50 -2 70 0 21 2 7 4 -32 4 -38 0 -55 -2 -38 -4z" />
    <path d="M1933 4925 l0 -40 4 23 c2 12 2 30 0 40 -3 9 -5 -1 -4 -23z" />
    <path d="M8383 2445 c0 -33 2 -45 4 -27 2 18 2 45 0 60 -2 15 -4 0 -4 -33z" />
  </g>
  <g transform="translate(0.000000,1024.000000) scale(0.100000,-0.100000)" fill="#6a7db9" stroke="none">
    <path d="M4873 7000 c0 -25 2 -35 4 -22 2 12 2 32 0 45 -2 12 -4 2 -4 -23z" />
    <path d="M8383 6600 c0 -36 2 -50 4 -32 2 17 2 47 0 65 -2 17 -4 3 -4 -33z" />
    <path d="M1932 6180 c0 -19 2 -27 5 -17 2 9 2 25 0 35 -3 9 -5 1 -5 -18z" />
    <path d="M5123 5413 c15 -2 37 -2 50 0 12 2 0 4 -28 4 -27 0 -38 -2 -22 -4z" />
    <path d="M4873 5005 c0 -38 2 -53 4 -32 2 20 2 52 0 70 -2 17 -4 1 -4 -38z" />
    <path d="M8383 3120 c0 -25 2 -35 4 -22 2 12 2 32 0 45 -2 12 -4 2 -4 -23z" />
  </g>
  <g transform="translate(0.000000,1024.000000) scale(0.100000,-0.100000)" fill="#acb7d8" stroke="none">
    <path d="M8383 7880 c0 -25 2 -35 4 -22 2 12 2 32 0 45 -2 12 -4 2 -4 -23z" />
    <path d="M4872 7685 l0 -30 5 18 c2 9 2 23 0 30 -3 6 -5 -1 -5 -18z" />
    <path d="M6158 5413 c12 -2 32 -2 45 0 12 2 2 4 -23 4 -25 0 -35 -2 -22 -4z" />
    <path d="M7318 5143 c17 -2 47 -2 65 0 17 2 3 4 -33 4 -36 0 -50 -2 -32 -4z" />
    <path d="M1932 4515 l0 -30 5 18 c2 9 2 23 0 30 -3 6 -5 -1 -5 -18z" />
  </g>
  <g transform="translate(0.000000,1024.000000) scale(0.100000,-0.100000)" fill="#97a4ce" stroke="none">
    <path d="M8383 7490 c0 -30 2 -43 4 -27 2 15 2 39 0 55 -2 15 -4 2 -4 -28z" />
    <path d="M4873 7465 l0 -40 4 23 c2 12 2 30 0 40 -3 9 -5 -1 -4 -23z" />
    <path d="M7723 5143 c9 -2 23 -2 30 0 6 3 -1 5 -18 5 l-30 0 18 -5z" />
    <path d="M8383 2255 c0 -33 2 -45 4 -27 2 18 2 45 0 60 -2 15 -4 0 -4 -33z" />
  </g>
  <g transform="translate(0.000000,1024.000000) scale(0.100000,-0.100000)" fill="#6d80bb" stroke="none">
    <path d="M8382 6675 l0 -30 5 18 c2 9 2 23 0 30 -3 6 -5 -1 -5 -18z" />
    <path d="M1933 6125 l0 -40 4 23 c2 12 2 30 0 40 -3 9 -5 -1 -4 -23z" />
    <path d="M5193 5413 c9 -2 25 -2 35 0 9 3 1 5 -18 5 -19 0 -27 -2 -17 -5z" />
    <path d="M8383 3035 c0 -33 2 -45 4 -27 2 18 2 45 0 60 -2 15 -4 0 -4 -33z" />
  </g>
  <g transform="translate(0.000000,1024.000000) scale(0.100000,-0.100000)" fill="#6175b5" stroke="none">
    <path d="M4963 5413 c9 -2 25 -2 35 0 9 3 1 5 -18 5 -19 0 -27 -2 -17 -5z" />
    <path d="M8383 3325 c0 -33 2 -45 4 -27 2 18 2 45 0 60 -2 15 -4 0 -4 -33z" />
  </g>
</svg>